G04 #@! TF.FileFunction,Copper,L2,Bot,Signal*
%FSLAX46Y46*%
G04 Gerber Fmt 4.6, Leading zero omitted, Abs format (unit mm)*
G04 Created by KiCad (PCBNEW 4.0.7+dfsg1-1~bpo8+1) date Mon Jun  4 12:39:51 2018*
%MOMM*%
%LPD*%
G01*
G04 APERTURE LIST*
%ADD10C,0.100000*%
%ADD11R,2.032000X1.727200*%
%ADD12O,2.032000X1.727200*%
%ADD13R,1.500000X1.500000*%
%ADD14R,2.032000X2.032000*%
%ADD15O,2.032000X2.032000*%
%ADD16R,1.727200X1.727200*%
%ADD17O,1.727200X1.727200*%
%ADD18R,1.727200X2.032000*%
%ADD19O,1.727200X2.032000*%
%ADD20C,1.524000*%
%ADD21C,2.000000*%
%ADD22C,1.727200*%
%ADD23C,0.508000*%
%ADD24C,0.177800*%
%ADD25C,0.711200*%
%ADD26C,0.254000*%
G04 APERTURE END LIST*
D10*
D11*
X179070000Y-97790000D03*
D12*
X179070000Y-100330000D03*
X179070000Y-102870000D03*
D11*
X179070000Y-59690000D03*
D12*
X179070000Y-62230000D03*
X179070000Y-64770000D03*
X179070000Y-67310000D03*
X179070000Y-69850000D03*
X179070000Y-72390000D03*
X179070000Y-74930000D03*
D13*
X123190000Y-107950000D03*
X123190000Y-97790000D03*
X123190000Y-95250000D03*
X123190000Y-92710000D03*
X123190000Y-90170000D03*
X148590000Y-102870000D03*
X148590000Y-97790000D03*
X148590000Y-77470000D03*
X148590000Y-74930000D03*
X175260000Y-81280000D03*
X152400000Y-106680000D03*
X152400000Y-109220000D03*
X165100000Y-90170000D03*
X165100000Y-107950000D03*
X165100000Y-110490000D03*
D14*
X121920000Y-74930000D03*
D15*
X119380000Y-74930000D03*
D16*
X116840000Y-115570000D03*
D17*
X119380000Y-115570000D03*
X116840000Y-118110000D03*
X119380000Y-118110000D03*
X116840000Y-120650000D03*
X119380000Y-120650000D03*
X116840000Y-123190000D03*
X119380000Y-123190000D03*
X116840000Y-125730000D03*
X119380000Y-125730000D03*
X116840000Y-128270000D03*
X119380000Y-128270000D03*
D16*
X130810000Y-80010000D03*
D17*
X133350000Y-80010000D03*
X130810000Y-82550000D03*
X133350000Y-82550000D03*
X130810000Y-85090000D03*
X133350000Y-85090000D03*
X130810000Y-87630000D03*
X133350000Y-87630000D03*
X130810000Y-90170000D03*
X133350000Y-90170000D03*
X130810000Y-92710000D03*
X133350000Y-92710000D03*
D11*
X120650000Y-58420000D03*
D12*
X120650000Y-60960000D03*
X120650000Y-63500000D03*
X120650000Y-66040000D03*
D11*
X132080000Y-97790000D03*
D12*
X132080000Y-100330000D03*
X132080000Y-102870000D03*
X132080000Y-105410000D03*
X132080000Y-107950000D03*
X132080000Y-110490000D03*
D11*
X124460000Y-58420000D03*
D12*
X124460000Y-60960000D03*
X124460000Y-63500000D03*
X124460000Y-66040000D03*
D11*
X118110000Y-106680000D03*
D12*
X118110000Y-104140000D03*
X118110000Y-101600000D03*
X118110000Y-99060000D03*
X118110000Y-96520000D03*
X118110000Y-93980000D03*
X118110000Y-91440000D03*
D11*
X185420000Y-80010000D03*
D12*
X185420000Y-82550000D03*
X185420000Y-85090000D03*
X185420000Y-87630000D03*
X185420000Y-90170000D03*
X185420000Y-92710000D03*
D18*
X151130000Y-66040000D03*
D19*
X153670000Y-66040000D03*
X156210000Y-66040000D03*
X158750000Y-66040000D03*
X161290000Y-66040000D03*
X163830000Y-66040000D03*
D18*
X168910000Y-59690000D03*
D19*
X171450000Y-59690000D03*
X173990000Y-59690000D03*
D11*
X184150000Y-116840000D03*
D12*
X184150000Y-119380000D03*
X184150000Y-121920000D03*
X184150000Y-124460000D03*
D18*
X167640000Y-74930000D03*
D19*
X170180000Y-74930000D03*
X172720000Y-74930000D03*
D18*
X167640000Y-71120000D03*
D19*
X170180000Y-71120000D03*
X172720000Y-71120000D03*
D11*
X180340000Y-93980000D03*
D12*
X180340000Y-91440000D03*
X180340000Y-88900000D03*
D11*
X180340000Y-85090000D03*
D12*
X180340000Y-82550000D03*
X180340000Y-80010000D03*
D11*
X116840000Y-66040000D03*
D12*
X116840000Y-63500000D03*
X116840000Y-60960000D03*
X116840000Y-58420000D03*
D20*
X171450000Y-66040000D03*
X173990000Y-66040000D03*
X168910000Y-66040000D03*
D16*
X109093000Y-76708000D03*
D17*
X111633000Y-76708000D03*
X109093000Y-79248000D03*
X111633000Y-79248000D03*
X109093000Y-81788000D03*
X111633000Y-81788000D03*
X109093000Y-84328000D03*
X111633000Y-84328000D03*
X109093000Y-86868000D03*
X111633000Y-86868000D03*
X109093000Y-89408000D03*
X111633000Y-89408000D03*
X109093000Y-91948000D03*
X111633000Y-91948000D03*
X109093000Y-94488000D03*
X111633000Y-94488000D03*
X109093000Y-97028000D03*
X111633000Y-97028000D03*
X109093000Y-99568000D03*
X111633000Y-99568000D03*
X109093000Y-102108000D03*
X111633000Y-102108000D03*
X109093000Y-104648000D03*
X111633000Y-104648000D03*
X109093000Y-107188000D03*
X111633000Y-107188000D03*
X109093000Y-109728000D03*
X111633000Y-109728000D03*
X109093000Y-112268000D03*
X111633000Y-112268000D03*
X109093000Y-114808000D03*
X111633000Y-114808000D03*
X109093000Y-117348000D03*
X111633000Y-117348000D03*
X109093000Y-119888000D03*
X111633000Y-119888000D03*
X109093000Y-122428000D03*
X111633000Y-122428000D03*
X109093000Y-124968000D03*
X111633000Y-124968000D03*
D21*
X172720000Y-81280000D03*
X172720000Y-83820000D03*
X172720000Y-86360000D03*
X172720000Y-88900000D03*
X172720000Y-91440000D03*
X172720000Y-93980000D03*
X172720000Y-96520000D03*
X172720000Y-99060000D03*
X172720000Y-101600000D03*
X172720000Y-104140000D03*
X172720000Y-106680000D03*
X172720000Y-109220000D03*
X172720000Y-111760000D03*
X172720000Y-114300000D03*
X154940000Y-114300000D03*
X154940000Y-111760000D03*
X154940000Y-109220000D03*
X154940000Y-106680000D03*
X154940000Y-104140000D03*
X154940000Y-101600000D03*
X154940000Y-99060000D03*
X154940000Y-96520000D03*
X154940000Y-93980000D03*
X154940000Y-91440000D03*
X154940000Y-88900000D03*
X154940000Y-86360000D03*
X154940000Y-83820000D03*
X154940000Y-81280000D03*
D22*
X118110000Y-86360000D03*
X118110000Y-78740000D03*
X123190000Y-78740000D03*
X123190000Y-86360000D03*
X124460000Y-115570000D03*
X124460000Y-118110000D03*
X124460000Y-120650000D03*
X124460000Y-123190000D03*
X124460000Y-125730000D03*
X124460000Y-128270000D03*
X134620000Y-128270000D03*
X134620000Y-125730000D03*
X134620000Y-123190000D03*
X134620000Y-120650000D03*
X134620000Y-118110000D03*
X134620000Y-115570000D03*
X167640000Y-115570000D03*
X167640000Y-118110000D03*
X167640000Y-120650000D03*
X167640000Y-123190000D03*
X167640000Y-125730000D03*
X167640000Y-128270000D03*
X177800000Y-128270000D03*
X177800000Y-125730000D03*
X177800000Y-123190000D03*
X177800000Y-120650000D03*
X177800000Y-118110000D03*
X177800000Y-115570000D03*
X162560000Y-125730000D03*
X162560000Y-123190000D03*
X162560000Y-120650000D03*
X162560000Y-118110000D03*
X162560000Y-115570000D03*
X162560000Y-113030000D03*
X162560000Y-110490000D03*
X162560000Y-107950000D03*
X162560000Y-105410000D03*
X162560000Y-102870000D03*
X162560000Y-100330000D03*
X162560000Y-97790000D03*
X162560000Y-95250000D03*
X162560000Y-92710000D03*
X162560000Y-90170000D03*
X162560000Y-87630000D03*
X162560000Y-85090000D03*
X162560000Y-82550000D03*
X139700000Y-125730000D03*
X139700000Y-123190000D03*
X139700000Y-120650000D03*
X139700000Y-118110000D03*
X139700000Y-115570000D03*
X139700000Y-113030000D03*
X139700000Y-110490000D03*
X139700000Y-107950000D03*
X139700000Y-105410000D03*
X139700000Y-102870000D03*
X139700000Y-100330000D03*
X139700000Y-97790000D03*
X139700000Y-95250000D03*
X139700000Y-92710000D03*
X139700000Y-90170000D03*
X139700000Y-87630000D03*
X139700000Y-85090000D03*
X139700000Y-82550000D03*
X142240000Y-71120000D03*
X142240000Y-73660000D03*
X139700000Y-71120000D03*
X139700000Y-73660000D03*
X137160000Y-71120000D03*
X137160000Y-73660000D03*
X134620000Y-71120000D03*
X134620000Y-73660000D03*
X132080000Y-71120000D03*
X132080000Y-73660000D03*
X125730000Y-107950000D03*
X125730000Y-105410000D03*
X125730000Y-102870000D03*
X125730000Y-100330000D03*
X125730000Y-97790000D03*
X125730000Y-95250000D03*
X125730000Y-92710000D03*
X125730000Y-90170000D03*
X125730000Y-87630000D03*
X125730000Y-85090000D03*
X125730000Y-82550000D03*
X125730000Y-80010000D03*
X125730000Y-77470000D03*
X125730000Y-74930000D03*
X146050000Y-74930000D03*
X146050000Y-77470000D03*
X146050000Y-80010000D03*
X146050000Y-82550000D03*
X146050000Y-85090000D03*
X146050000Y-87630000D03*
X146050000Y-90170000D03*
X146050000Y-92710000D03*
X146050000Y-95250000D03*
X146050000Y-97790000D03*
X146050000Y-100330000D03*
X146050000Y-102870000D03*
X146050000Y-105410000D03*
X146050000Y-107950000D03*
D23*
X150431500Y-79819500D03*
X147320000Y-72263000D03*
X138557000Y-62484000D03*
X128524000Y-58420000D03*
X145161000Y-71120000D03*
X149796500Y-62230000D03*
X138366500Y-80073500D03*
X159004000Y-96774000D03*
X143827500Y-92456000D03*
X114039400Y-97849700D03*
X124269500Y-111442500D03*
X115316000Y-89662000D03*
X121666000Y-81915000D03*
X131454500Y-113141100D03*
X147637500Y-109474000D03*
X157543500Y-107950000D03*
X136525000Y-103124000D03*
X114559000Y-100293500D03*
X114300000Y-122627300D03*
X121031000Y-91440000D03*
X107611900Y-98298000D03*
X166370000Y-104394000D03*
X122555000Y-103759000D03*
X135763000Y-96012000D03*
X135509000Y-92964000D03*
X122555000Y-105410000D03*
X149667630Y-92710000D03*
X149669500Y-95250000D03*
X136906000Y-86360000D03*
X187515500Y-83883500D03*
X143510000Y-66929000D03*
X142113000Y-83820000D03*
X142113000Y-87630000D03*
X144272000Y-68961000D03*
D24*
X148590000Y-77470000D02*
X147662200Y-77470000D01*
X147662200Y-77470000D02*
X146050000Y-77470000D01*
X148590000Y-74930000D02*
X147662200Y-74930000D01*
X147662200Y-74930000D02*
X146050000Y-74930000D01*
X141986000Y-114300000D02*
X142240000Y-114300000D01*
X138938000Y-114300000D02*
X141986000Y-114300000D01*
X142240000Y-118110000D02*
X142240000Y-114427000D01*
X142240000Y-114427000D02*
X142240000Y-114300000D01*
X141986000Y-114300000D02*
X142113000Y-114300000D01*
X142113000Y-114300000D02*
X142240000Y-114427000D01*
X124460000Y-66040000D02*
X124460000Y-70866000D01*
X124460000Y-70866000D02*
X125603000Y-72009000D01*
X125603000Y-72009000D02*
X127317500Y-72009000D01*
X127317500Y-72009000D02*
X128270000Y-72961500D01*
X128270000Y-72961500D02*
X128270000Y-76428600D01*
X130810000Y-78968600D02*
X130810000Y-80010000D01*
X128270000Y-76428600D02*
X130810000Y-78968600D01*
X185420000Y-80010000D02*
X187198000Y-80010000D01*
X182118000Y-93395800D02*
X181534000Y-93980000D01*
X187198000Y-80010000D02*
X187388500Y-80200500D01*
X187388500Y-80200500D02*
X187388500Y-82931000D01*
X187388500Y-82931000D02*
X186499500Y-83820000D01*
X186499500Y-83820000D02*
X183642000Y-83820000D01*
X182118000Y-85344000D02*
X182118000Y-93395800D01*
X183642000Y-83820000D02*
X182118000Y-85344000D01*
X181534000Y-93980000D02*
X180340000Y-93980000D01*
X132080000Y-97790000D02*
X133274000Y-97790000D01*
X133274000Y-97790000D02*
X134239000Y-98755121D01*
X134239000Y-98755121D02*
X134239000Y-103124000D01*
X135255000Y-104140000D02*
X140462000Y-104140000D01*
X141224000Y-104902000D02*
X141224000Y-108458000D01*
X137922000Y-109728000D02*
X137922000Y-113284000D01*
X134239000Y-103124000D02*
X135255000Y-104140000D01*
X140462000Y-104140000D02*
X141224000Y-104902000D01*
X141224000Y-108458000D02*
X140462000Y-109220000D01*
X140462000Y-109220000D02*
X138430000Y-109220000D01*
X138430000Y-109220000D02*
X137922000Y-109728000D01*
X137922000Y-113284000D02*
X138938000Y-114300000D01*
X121158000Y-119380000D02*
X121158000Y-117348000D01*
X122428000Y-120650000D02*
X121158000Y-119380000D01*
X124460000Y-120650000D02*
X122428000Y-120650000D01*
X118110000Y-107785000D02*
X118110000Y-106680000D01*
X116840000Y-109055000D02*
X118110000Y-107785000D01*
X116840000Y-115570000D02*
X116840000Y-109055000D01*
X121158000Y-117348000D02*
X120815000Y-117005000D01*
X139700000Y-120650000D02*
X140766000Y-119584000D01*
X139700000Y-120650000D02*
X140766000Y-119584000D01*
X140766000Y-119584000D02*
X142240000Y-118110000D01*
X120650000Y-116840000D02*
X120815000Y-117005000D01*
X118364000Y-116840000D02*
X120650000Y-116840000D01*
X117094000Y-115570000D02*
X118364000Y-116840000D01*
X116840000Y-115570000D02*
X117094000Y-115570000D01*
X120815000Y-117005000D02*
X121158000Y-117348000D01*
X143712000Y-112828000D02*
X142240000Y-114300000D01*
X143712000Y-107748000D02*
X143712000Y-112828000D01*
X146050000Y-105410000D02*
X143712000Y-107748000D01*
D25*
X111633000Y-76708000D02*
X116840000Y-71501000D01*
X116840000Y-71501000D02*
X116840000Y-70485000D01*
X116840000Y-70485000D02*
X116840000Y-66040000D01*
D24*
X145923000Y-116967000D02*
X146050000Y-116840000D01*
X139700000Y-123190000D02*
X145923000Y-116967000D01*
X152400000Y-123190000D02*
X146177000Y-116967000D01*
X146177000Y-116967000D02*
X146050000Y-116840000D01*
X145923000Y-116967000D02*
X146177000Y-116967000D01*
D25*
X111633000Y-79248000D02*
X111633000Y-76708000D01*
X163830000Y-69215000D02*
X163830000Y-78232000D01*
X163830000Y-78232000D02*
X160782000Y-81280000D01*
X160782000Y-81280000D02*
X159258000Y-81280000D01*
X159258000Y-81280000D02*
X154940000Y-81280000D01*
X163830000Y-66040000D02*
X168910000Y-66040000D01*
X163830000Y-67310000D02*
X163830000Y-69215000D01*
X163830000Y-66040000D02*
X163830000Y-69215000D01*
D24*
X134620000Y-120650000D02*
X136082370Y-120650000D01*
X136082370Y-120650000D02*
X138622370Y-123190000D01*
X138622370Y-123190000D02*
X139700000Y-123190000D01*
X132080000Y-75184000D02*
X132080000Y-73660000D01*
X133350000Y-76454000D02*
X132080000Y-75184000D01*
X133350000Y-80010000D02*
X133350000Y-76454000D01*
X177546000Y-59690000D02*
X179070000Y-59690000D01*
X175514000Y-61722000D02*
X177546000Y-59690000D01*
X169748000Y-61722000D02*
X175514000Y-61722000D01*
X168910000Y-60883800D02*
X169748000Y-61722000D01*
X168910000Y-59690000D02*
X168910000Y-60883800D01*
X162560000Y-123190000D02*
X152400000Y-123190000D01*
X146050000Y-116840000D02*
X146050000Y-107950000D01*
D25*
X169159000Y-66040000D02*
X168910000Y-66040000D01*
D24*
X169159000Y-66040000D02*
X168910000Y-66040000D01*
X131318000Y-120650000D02*
X134620000Y-120650000D01*
X130048000Y-119380000D02*
X131318000Y-120650000D01*
X123190000Y-119380000D02*
X130048000Y-119380000D01*
X122174000Y-118364000D02*
X123190000Y-119380000D01*
X122174000Y-116586000D02*
X122174000Y-118364000D01*
X121158000Y-115570000D02*
X122174000Y-116586000D01*
X119380000Y-115570000D02*
X121158000Y-115570000D01*
X146050000Y-87630000D02*
X147320000Y-87630000D01*
X147320000Y-87630000D02*
X148526500Y-86423500D01*
X149161500Y-79819500D02*
X150431500Y-79819500D01*
X148526500Y-86423500D02*
X148526500Y-80454500D01*
X148526500Y-80454500D02*
X149161500Y-79819500D01*
X106824700Y-78201014D02*
X106824700Y-75057000D01*
X112014000Y-74168000D02*
X107713700Y-74168000D01*
X107713700Y-74168000D02*
X106824700Y-75057000D01*
X114431000Y-71751000D02*
X112014000Y-74168000D01*
X114431000Y-58039000D02*
X115950800Y-56519200D01*
X114431000Y-58039000D02*
X114431000Y-71751000D01*
X181610000Y-118110000D02*
X181610000Y-126619000D01*
X178892210Y-129717790D02*
X181610000Y-127000000D01*
X181610000Y-127000000D02*
X181610000Y-126619000D01*
X175945790Y-129717790D02*
X178816000Y-129717790D01*
X178816000Y-129717790D02*
X178892210Y-129717790D01*
X175641000Y-129413000D02*
X175945790Y-129717790D01*
X175133000Y-129413000D02*
X169799000Y-129413000D01*
X175133000Y-129413000D02*
X175641000Y-129413000D01*
X166624000Y-127000000D02*
X168529000Y-127000000D01*
X169037000Y-127508000D02*
X168529000Y-127000000D01*
X169037000Y-128651000D02*
X169037000Y-127508000D01*
X169799000Y-129413000D02*
X169037000Y-128651000D01*
X124460000Y-125730000D02*
X127762000Y-129032000D01*
X127762000Y-129032000D02*
X132207000Y-129032000D01*
X132207000Y-129032000D02*
X133096000Y-128143000D01*
X136906000Y-127000000D02*
X137414000Y-127508000D01*
X133096000Y-128143000D02*
X133096000Y-127508000D01*
X133096000Y-127508000D02*
X133604000Y-127000000D01*
X133604000Y-127000000D02*
X136906000Y-127000000D01*
X137414000Y-127508000D02*
X166116000Y-127508000D01*
X166116000Y-127508000D02*
X166624000Y-127000000D01*
X184150000Y-116840000D02*
X182880000Y-116840000D01*
X182880000Y-116840000D02*
X181610000Y-118110000D01*
X109093000Y-79248000D02*
X107871686Y-79248000D01*
X122936000Y-57027200D02*
X122936000Y-63169800D01*
X107871686Y-79248000D02*
X106824700Y-78201014D01*
X115950800Y-56519200D02*
X122428000Y-56519200D01*
X122428000Y-56519200D02*
X122936000Y-57027200D01*
X122936000Y-63169800D02*
X123266200Y-63500000D01*
X123266200Y-63500000D02*
X124460000Y-63500000D01*
X151320500Y-73088500D02*
X151320500Y-81026000D01*
X149733000Y-87708314D02*
X149733000Y-82613500D01*
X149733000Y-82613500D02*
X151320500Y-81026000D01*
X146050000Y-90170000D02*
X147271314Y-90170000D01*
X147271314Y-90170000D02*
X149733000Y-87708314D01*
X148526500Y-72263000D02*
X147320000Y-72263000D01*
X148526500Y-72263000D02*
X150495000Y-72263000D01*
X150495000Y-72263000D02*
X151320500Y-73088500D01*
X179324000Y-130048000D02*
X181737000Y-130048000D01*
X181737000Y-130048000D02*
X186182000Y-125603000D01*
X186182000Y-125603000D02*
X186182000Y-120142000D01*
X186182000Y-120142000D02*
X185420000Y-119380000D01*
X185420000Y-119380000D02*
X184150000Y-119380000D01*
X179324000Y-130048000D02*
X164265000Y-130048000D01*
X179324000Y-130048000D02*
X179832000Y-130048000D01*
X164265000Y-130048000D02*
X163830000Y-129613000D01*
X163830000Y-129613000D02*
X125803000Y-129613000D01*
X125803000Y-129613000D02*
X124460000Y-128270000D01*
X176530000Y-109220000D02*
X172720000Y-109220000D01*
X183388000Y-102362000D02*
X176530000Y-109220000D01*
X183388000Y-85928200D02*
X183388000Y-102362000D01*
X184226000Y-85090000D02*
X183388000Y-85928200D01*
X185420000Y-85090000D02*
X184226000Y-85090000D01*
X109220000Y-81280000D02*
X109220000Y-81534000D01*
X109220000Y-81534000D02*
X109220000Y-81788000D01*
X109093000Y-81661000D02*
X109093000Y-81788000D01*
X109220000Y-81534000D02*
X109093000Y-81661000D01*
D25*
X149860000Y-71120000D02*
X145161000Y-71120000D01*
X151130000Y-71120000D02*
X149860000Y-71120000D01*
X151130000Y-66040000D02*
X151130000Y-70358000D01*
X151130000Y-70358000D02*
X151130000Y-71120000D01*
D24*
X149860000Y-71120000D02*
X150368000Y-71120000D01*
X150368000Y-71120000D02*
X151130000Y-70358000D01*
X122682000Y-64897000D02*
X122682000Y-70485000D01*
X122682000Y-64897000D02*
X122809000Y-64770000D01*
X122682000Y-64770000D02*
X122682000Y-64897000D01*
X122809000Y-64770000D02*
X122682000Y-64770000D01*
X123444000Y-64770000D02*
X122809000Y-64770000D01*
X182351000Y-82296000D02*
X182351000Y-82550000D01*
X182351000Y-79316000D02*
X182351000Y-82296000D01*
X182351000Y-82550000D02*
X182499000Y-82550000D01*
X182499000Y-82550000D02*
X185420000Y-82550000D01*
X182351000Y-82296000D02*
X182351000Y-82402000D01*
X182351000Y-82402000D02*
X182499000Y-82550000D01*
X128524000Y-56388000D02*
X128524000Y-58420000D01*
X138684000Y-56388000D02*
X128524000Y-56388000D01*
X138557000Y-62484000D02*
X138557000Y-62124790D01*
X138557000Y-62124790D02*
X138684000Y-61997790D01*
X138684000Y-61997790D02*
X138684000Y-56388000D01*
X138684000Y-56388000D02*
X149860000Y-56388000D01*
X149860000Y-56388000D02*
X149796500Y-56451500D01*
X149796500Y-56451500D02*
X149796500Y-62230000D01*
D25*
X151130000Y-66040000D02*
X151130000Y-63563500D01*
X151130000Y-63563500D02*
X149796500Y-62230000D01*
X151130000Y-71120000D02*
X152527000Y-72517000D01*
X152527000Y-72517000D02*
X152527000Y-82821094D01*
X152527000Y-82821094D02*
X153526000Y-83820000D01*
X153526000Y-83820000D02*
X154940000Y-83820000D01*
D24*
X132842000Y-123190000D02*
X134620000Y-123190000D01*
X127840314Y-121031000D02*
X130683000Y-121031000D01*
X130683000Y-121031000D02*
X132842000Y-123190000D01*
X124460000Y-123190000D02*
X125681314Y-123190000D01*
X125681314Y-123190000D02*
X127840314Y-121031000D01*
X149796500Y-62230000D02*
X149796500Y-61870790D01*
X149796500Y-61870790D02*
X149457210Y-61531500D01*
X142240000Y-71120000D02*
X142240000Y-70042370D01*
X142240000Y-70042370D02*
X141920630Y-69723000D01*
X141920630Y-69723000D02*
X127254000Y-69723000D01*
X127254000Y-69723000D02*
X126746000Y-69215000D01*
X126746000Y-69215000D02*
X126746000Y-65532000D01*
X126746000Y-65532000D02*
X125984000Y-64770000D01*
X125984000Y-64770000D02*
X123444000Y-64770000D01*
X110363000Y-100838000D02*
X110363000Y-105918000D01*
X110363000Y-105918000D02*
X109093000Y-107188000D01*
X111633000Y-99568000D02*
X110363000Y-100838000D01*
X110363000Y-98298000D02*
X110363000Y-93218000D01*
X110363000Y-93218000D02*
X111633000Y-91948000D01*
X111633000Y-99568000D02*
X110363000Y-98298000D01*
X109093000Y-84328000D02*
X110363000Y-85598000D01*
X110363000Y-85598000D02*
X110363000Y-90678000D01*
X110363000Y-90678000D02*
X111633000Y-91948000D01*
X109093000Y-84328000D02*
X111633000Y-81788000D01*
X120650000Y-58420000D02*
X121843800Y-58420000D01*
X121843800Y-58420000D02*
X122364500Y-58940700D01*
X122364500Y-58940700D02*
X122364500Y-64452500D01*
X122364500Y-64452500D02*
X122682000Y-64770000D01*
X122682000Y-70485000D02*
X121285000Y-71882000D01*
X121285000Y-71882000D02*
X120142000Y-71882000D01*
X120142000Y-71882000D02*
X119380000Y-72644000D01*
X119380000Y-72644000D02*
X119380000Y-74930000D01*
X109093000Y-107188000D02*
X110363000Y-108458000D01*
X110363000Y-108458000D02*
X110363000Y-110998000D01*
X110363000Y-110998000D02*
X111633000Y-112268000D01*
X109093000Y-124968000D02*
X109093000Y-126189314D01*
X110030686Y-127127000D02*
X113284000Y-127127000D01*
X109093000Y-126189314D02*
X110030686Y-127127000D01*
X112854314Y-117348000D02*
X113284000Y-117777686D01*
X113284000Y-117777686D02*
X113284000Y-127127000D01*
X113284000Y-127127000D02*
X114427000Y-128270000D01*
X114427000Y-128270000D02*
X116840000Y-128270000D01*
X111633000Y-112268000D02*
X112854314Y-112268000D01*
X112854314Y-112268000D02*
X113411000Y-112824686D01*
X113411000Y-112824686D02*
X113411000Y-116791314D01*
X113411000Y-116791314D02*
X112854314Y-117348000D01*
X111633000Y-117348000D02*
X112854314Y-117348000D01*
X122936000Y-123190000D02*
X124460000Y-123190000D01*
X121666000Y-124460000D02*
X122936000Y-123190000D01*
X121666000Y-127508000D02*
X121666000Y-124460000D01*
X120904000Y-128270000D02*
X121666000Y-127508000D01*
X119380000Y-128270000D02*
X120904000Y-128270000D01*
X153670000Y-118110000D02*
X162560000Y-118110000D01*
X150114000Y-114554000D02*
X153670000Y-118110000D01*
X150114000Y-101600000D02*
X150114000Y-114554000D01*
X149606000Y-101092000D02*
X150114000Y-101600000D01*
X147890000Y-101092000D02*
X149606000Y-101092000D01*
X147128000Y-100330000D02*
X147890000Y-101092000D01*
X146050000Y-100330000D02*
X147128000Y-100330000D01*
X139700000Y-125730000D02*
X162560000Y-125730000D01*
X118110000Y-77457600D02*
X118110000Y-78740000D01*
X119380000Y-76187600D02*
X118110000Y-77457600D01*
X119380000Y-74930000D02*
X119380000Y-76187600D01*
X116840000Y-127717000D02*
X116840000Y-128270000D01*
X117722000Y-127717000D02*
X116840000Y-127717000D01*
X118275000Y-128270000D02*
X117722000Y-127717000D01*
X119380000Y-128270000D02*
X118275000Y-128270000D01*
X180340000Y-84560800D02*
X182351000Y-82550000D01*
X180340000Y-85090000D02*
X180340000Y-84560800D01*
X179070000Y-76035200D02*
X182351000Y-79316000D01*
X179070000Y-74930000D02*
X179070000Y-76035200D01*
X123698000Y-64770000D02*
X123444000Y-64770000D01*
X109220000Y-88900000D02*
X109220000Y-89154000D01*
X109220000Y-89154000D02*
X109220000Y-89408000D01*
X109093000Y-89281000D02*
X109093000Y-89408000D01*
X109220000Y-89154000D02*
X109093000Y-89281000D01*
X138366500Y-84582000D02*
X138366500Y-80073500D01*
X138366500Y-86423500D02*
X138430000Y-86360000D01*
X137668000Y-87122000D02*
X138366500Y-86423500D01*
X138366500Y-86423500D02*
X138366500Y-84582000D01*
X139700000Y-92710000D02*
X137668000Y-90678000D01*
X137668000Y-90678000D02*
X137668000Y-87122000D01*
X159004000Y-96774000D02*
X159004000Y-102870000D01*
X159004000Y-109110213D02*
X159004000Y-102870000D01*
X160528000Y-102870000D02*
X159004000Y-102870000D01*
X154940000Y-111760000D02*
X156354213Y-111760000D01*
X156354213Y-111760000D02*
X159004000Y-109110213D01*
X162560000Y-102870000D02*
X160528000Y-102870000D01*
X143827500Y-83694870D02*
X143827500Y-92075000D01*
X143827500Y-92075000D02*
X143827500Y-92392500D01*
X143827500Y-92456000D02*
X143827500Y-92075000D01*
X146050000Y-82550000D02*
X144972370Y-82550000D01*
X144972370Y-82550000D02*
X143827500Y-83694870D01*
X113538000Y-103964314D02*
X113538000Y-98351100D01*
X113538000Y-98351100D02*
X114039400Y-97849700D01*
X111633000Y-104648000D02*
X112854314Y-104648000D01*
X112854314Y-104648000D02*
X113538000Y-103964314D01*
X125730000Y-87630000D02*
X124652370Y-87630000D01*
X124652370Y-87630000D02*
X123890371Y-88391999D01*
X123890371Y-88391999D02*
X121031001Y-88391999D01*
X121031001Y-88391999D02*
X120142000Y-89281000D01*
X120142000Y-89281000D02*
X120142000Y-95681800D01*
X120142000Y-95681800D02*
X119303800Y-96520000D01*
X119303800Y-96520000D02*
X118110000Y-96520000D01*
X115316000Y-92202000D02*
X115316000Y-98806000D01*
X123571000Y-101219000D02*
X123571000Y-104013000D01*
X115316000Y-98806000D02*
X116840000Y-100330000D01*
X116840000Y-100330000D02*
X122682000Y-100330000D01*
X122682000Y-100330000D02*
X123571000Y-101219000D01*
X123571000Y-104013000D02*
X124460000Y-104902000D01*
X124460000Y-104902000D02*
X124460000Y-109258100D01*
X125603000Y-110871000D02*
X125730000Y-110998000D01*
X124460000Y-109728000D02*
X125603000Y-110871000D01*
X125285500Y-111442500D02*
X125603000Y-111125000D01*
X125603000Y-111125000D02*
X125730000Y-110998000D01*
X125603000Y-110871000D02*
X125603000Y-111125000D01*
X125730000Y-110998000D02*
X128270000Y-110998000D01*
X130111500Y-113792000D02*
X130302000Y-113982500D01*
X128270000Y-110998000D02*
X130111500Y-112839500D01*
X130111500Y-112839500D02*
X130111500Y-113792000D01*
X130302000Y-113982500D02*
X135953500Y-113982500D01*
X135953500Y-113982500D02*
X136398000Y-114427000D01*
X136398000Y-114427000D02*
X136398000Y-115886000D01*
X136398000Y-115886000D02*
X138622000Y-118110000D01*
X138622000Y-118110000D02*
X139700000Y-118110000D01*
X124269500Y-111442500D02*
X125285500Y-111442500D01*
X115316000Y-91948000D02*
X115316000Y-92202000D01*
X115316000Y-92202000D02*
X115316000Y-89662000D01*
X170434000Y-112776000D02*
X167640000Y-115570000D01*
X170434000Y-106426000D02*
X170434000Y-112776000D01*
X172720000Y-104140000D02*
X170434000Y-106426000D01*
X124460000Y-109258100D02*
X124460000Y-109728000D01*
X124460000Y-109258100D02*
X124454400Y-109258100D01*
X120650000Y-98933000D02*
X120650000Y-98298000D01*
X122936000Y-99441000D02*
X121158000Y-99441000D01*
X121158000Y-99441000D02*
X120650000Y-98933000D01*
X124079000Y-100584000D02*
X122936000Y-99441000D01*
X124079000Y-103505000D02*
X124079000Y-100584000D01*
X124714000Y-104140000D02*
X124079000Y-103505000D01*
X131454500Y-112658500D02*
X131572000Y-112776000D01*
X131572000Y-112776000D02*
X131699000Y-112903000D01*
X131454500Y-113020500D02*
X131572000Y-112903000D01*
X131572000Y-112903000D02*
X131572000Y-112776000D01*
X131454500Y-113141100D02*
X131684900Y-113141100D01*
X131684900Y-113141100D02*
X131811000Y-113015000D01*
X131454500Y-113020500D02*
X131454500Y-113141100D01*
X131699000Y-112903000D02*
X131811000Y-113015000D01*
X131454500Y-113141100D02*
X131460900Y-113141100D01*
X131460900Y-113141100D02*
X131699000Y-112903000D01*
X116332000Y-82931000D02*
X117348000Y-81915000D01*
X117348000Y-81915000D02*
X121666000Y-81915000D01*
X116332000Y-88011000D02*
X116332000Y-87122000D01*
X116332000Y-97282000D02*
X116332000Y-88011000D01*
X116332000Y-88011000D02*
X116332000Y-82931000D01*
X131454500Y-112658500D02*
X127254000Y-108458000D01*
X126238000Y-104140000D02*
X124714000Y-104140000D01*
X127254000Y-108458000D02*
X127254000Y-105156000D01*
X127254000Y-105156000D02*
X126238000Y-104140000D01*
X120650000Y-98298000D02*
X120142000Y-97790000D01*
X120142000Y-97790000D02*
X116840000Y-97790000D01*
X116840000Y-97790000D02*
X116332000Y-97282000D01*
X170180000Y-114300000D02*
X172720000Y-111760000D01*
X170180000Y-116648000D02*
X170180000Y-114300000D01*
X168718000Y-118110000D02*
X170180000Y-116648000D01*
X167640000Y-118110000D02*
X168718000Y-118110000D01*
X129705000Y-83984800D02*
X125730000Y-80010000D01*
X130810000Y-85090000D02*
X129705000Y-83984800D01*
X138622000Y-115570000D02*
X139700000Y-115570000D01*
X136067000Y-113015000D02*
X138622000Y-115570000D01*
X131811000Y-113015000D02*
X136067000Y-113015000D01*
X131454500Y-112658500D02*
X131454500Y-113141100D01*
X130810000Y-87630000D02*
X132080000Y-88900000D01*
X132842000Y-91440000D02*
X136144000Y-91440000D01*
X137922000Y-98044000D02*
X138938000Y-99060000D01*
X132080000Y-88900000D02*
X132080000Y-90678000D01*
X132080000Y-90678000D02*
X132842000Y-91440000D01*
X136144000Y-91440000D02*
X137032856Y-92328856D01*
X137922000Y-97282000D02*
X137922000Y-98044000D01*
X137032856Y-92328856D02*
X137032856Y-96393000D01*
X137032856Y-96393000D02*
X137922000Y-97282000D01*
X138938000Y-99060000D02*
X140716000Y-99060000D01*
X140716000Y-99060000D02*
X141986000Y-100330000D01*
X141986000Y-100330000D02*
X141986000Y-103479000D01*
X141986000Y-103479000D02*
X142367000Y-103860000D01*
X148082000Y-105981500D02*
X148082000Y-105791000D01*
X147637500Y-109114790D02*
X148082000Y-108670290D01*
X148082000Y-105791000D02*
X148082000Y-105410000D01*
X147637500Y-109474000D02*
X147637500Y-109114790D01*
X148082000Y-108670290D02*
X148082000Y-105791000D01*
X148082000Y-116840000D02*
X148082000Y-111823500D01*
X147637500Y-109474000D02*
X147637500Y-109833210D01*
X147637500Y-109833210D02*
X148082000Y-110277710D01*
X148082000Y-110277710D02*
X148082000Y-111823500D01*
X167640000Y-125730000D02*
X166562000Y-125730000D01*
X166562000Y-125730000D02*
X164592000Y-123760000D01*
X148082000Y-105410000D02*
X146786000Y-104114000D01*
X164592000Y-123760000D02*
X164592000Y-122682000D01*
X164592000Y-122682000D02*
X163830000Y-121920000D01*
X163830000Y-121920000D02*
X153162000Y-121920000D01*
X153162000Y-121920000D02*
X148082000Y-116840000D01*
X146786000Y-104114000D02*
X144653000Y-104114000D01*
X157543500Y-94932500D02*
X157543500Y-107950000D01*
X156591000Y-93980000D02*
X157543500Y-94932500D01*
X156354213Y-93980000D02*
X156591000Y-93980000D01*
X154940000Y-93980000D02*
X156354213Y-93980000D01*
X142367000Y-103860000D02*
X142748000Y-104241000D01*
X142621000Y-104114000D02*
X142367000Y-103860000D01*
X143002000Y-104114000D02*
X142875000Y-104114000D01*
X143129000Y-104114000D02*
X143002000Y-104114000D01*
X143002000Y-104114000D02*
X142621000Y-104114000D01*
X143129000Y-104114000D02*
X144653000Y-104114000D01*
X142875000Y-104114000D02*
X142748000Y-104241000D01*
X142748000Y-104241000D02*
X142748000Y-111760000D01*
X142748000Y-111760000D02*
X141478000Y-113030000D01*
X141478000Y-113030000D02*
X139700000Y-113030000D01*
X144526000Y-104114000D02*
X144653000Y-104114000D01*
X129946000Y-86766400D02*
X125730000Y-82550000D01*
X130810000Y-87630000D02*
X129946000Y-86766400D01*
X131928000Y-107950000D02*
X132080000Y-107950000D01*
X123190000Y-77724000D02*
X123190000Y-78740000D01*
X123190000Y-77470000D02*
X123317000Y-77470000D01*
X123190000Y-77470000D02*
X123190000Y-77724000D01*
X123317000Y-77470000D02*
X125730000Y-77470000D01*
X123190000Y-77724000D02*
X123190000Y-77597000D01*
X123190000Y-77597000D02*
X123317000Y-77470000D01*
X136525000Y-103124000D02*
X136525000Y-99698410D01*
X127000000Y-86360000D02*
X124841000Y-86360000D01*
X123190000Y-84014800D02*
X123190000Y-78740000D01*
X136525000Y-99698410D02*
X136538000Y-99685410D01*
X136538000Y-99685410D02*
X136538000Y-99326200D01*
X133571000Y-96359200D02*
X132822000Y-96359200D01*
X124460000Y-85979000D02*
X124460000Y-85471000D01*
X136538000Y-99326200D02*
X133571000Y-96359200D01*
X132822000Y-96359200D02*
X127711000Y-91247300D01*
X123190000Y-84201000D02*
X123190000Y-84014800D01*
X127711000Y-91247300D02*
X127711000Y-87071000D01*
X127711000Y-87071000D02*
X127000000Y-86360000D01*
X124841000Y-86360000D02*
X124460000Y-85979000D01*
X124460000Y-85471000D02*
X123190000Y-84201000D01*
X154940000Y-114300000D02*
X157226000Y-114300000D01*
X157226000Y-114300000D02*
X160528000Y-110998000D01*
X160528000Y-110998000D02*
X160528000Y-104648000D01*
X160528000Y-104648000D02*
X161036000Y-104140000D01*
X161036000Y-104140000D02*
X163703000Y-104140000D01*
X163703000Y-104140000D02*
X164211000Y-103632000D01*
X164211000Y-100711000D02*
X163830000Y-100330000D01*
X163830000Y-100330000D02*
X162560000Y-100330000D01*
X164211000Y-103632000D02*
X164211000Y-100711000D01*
X121920000Y-76187600D02*
X121920000Y-74930000D01*
X123190000Y-77457600D02*
X121920000Y-76187600D01*
X123190000Y-77470000D02*
X123190000Y-77457600D01*
X125730000Y-85090000D02*
X127127000Y-85090000D01*
X127127000Y-85090000D02*
X129032000Y-86995000D01*
X129032000Y-86995000D02*
X129032000Y-89916000D01*
X129032000Y-89916000D02*
X129286000Y-90170000D01*
X129286000Y-90170000D02*
X130810000Y-90170000D01*
X130810000Y-90170000D02*
X130810000Y-90424000D01*
X130810000Y-90424000D02*
X132080000Y-91694000D01*
X137513000Y-100683000D02*
X138430000Y-101600000D01*
X140716000Y-101600000D02*
X141351000Y-102235000D01*
X132080000Y-91694000D02*
X132080000Y-94135300D01*
X141351000Y-102235000D02*
X141351000Y-104013000D01*
X141224000Y-110490000D02*
X139700000Y-110490000D01*
X132080000Y-94135300D02*
X133096000Y-95151300D01*
X133477300Y-95151300D02*
X137513000Y-99187000D01*
X141986000Y-104648000D02*
X141986000Y-109728000D01*
X133096000Y-95151300D02*
X133477300Y-95151300D01*
X137513000Y-99187000D02*
X137513000Y-100683000D01*
X138430000Y-101600000D02*
X140716000Y-101600000D01*
X141986000Y-109728000D02*
X141224000Y-110490000D01*
X141351000Y-104013000D02*
X141986000Y-104648000D01*
X114559000Y-100293500D02*
X114559000Y-110905100D01*
X114300000Y-119593500D02*
X114300000Y-122627300D01*
X114559000Y-110905100D02*
X114046000Y-111418100D01*
X114046000Y-111418100D02*
X114046000Y-119339500D01*
X114046000Y-119339500D02*
X114300000Y-119593500D01*
X107611900Y-98298000D02*
X107611900Y-120692900D01*
X107611900Y-120692900D02*
X108077000Y-121158000D01*
X108077000Y-121158000D02*
X109982000Y-121158000D01*
X109982000Y-121158000D02*
X110363000Y-121539000D01*
X110363000Y-121539000D02*
X110363000Y-123952000D01*
X110363000Y-123952000D02*
X111379000Y-124968000D01*
X111379000Y-124968000D02*
X111633000Y-124968000D01*
X121031000Y-91440000D02*
X126746000Y-91440000D01*
X127687000Y-92381300D02*
X127687000Y-94488000D01*
X126746000Y-91440000D02*
X127687000Y-92381300D01*
X127687000Y-94488000D02*
X129465000Y-96266000D01*
X129465000Y-96266000D02*
X129465000Y-98909100D01*
X129465000Y-98909100D02*
X130886000Y-100330000D01*
X130886000Y-100330000D02*
X132080000Y-100330000D01*
X166370000Y-104394000D02*
X166370000Y-93599000D01*
X166370000Y-93599000D02*
X169037000Y-90932000D01*
X170093000Y-86741000D02*
X170093000Y-79842600D01*
X175260000Y-76200000D02*
X175260000Y-69173500D01*
X169037000Y-90932000D02*
X169037000Y-87797000D01*
X169037000Y-87797000D02*
X170093000Y-86741000D01*
X170093000Y-79842600D02*
X171450000Y-78486000D01*
X175260000Y-69173500D02*
X174667000Y-68580000D01*
X171450000Y-78486000D02*
X172974000Y-78486000D01*
X171450000Y-67241600D02*
X171450000Y-66040000D01*
X172974000Y-78486000D02*
X175260000Y-76200000D01*
X174667000Y-68580000D02*
X172788000Y-68580000D01*
X172788000Y-68580000D02*
X171450000Y-67241600D01*
X136144000Y-107950000D02*
X139700000Y-107950000D01*
X134874000Y-109220000D02*
X136144000Y-107950000D01*
X130556000Y-109220000D02*
X134874000Y-109220000D01*
X127762000Y-106426000D02*
X130556000Y-109220000D01*
X127762000Y-103824000D02*
X127762000Y-106426000D01*
X126808000Y-102870000D02*
X127762000Y-103824000D01*
X125730000Y-102870000D02*
X126808000Y-102870000D01*
X125730000Y-100330000D02*
X128016000Y-100330000D01*
X128016000Y-100330000D02*
X129540000Y-101854000D01*
X130238000Y-104140000D02*
X133413000Y-104140000D01*
X134683000Y-105410000D02*
X139700000Y-105410000D01*
X129540000Y-101854000D02*
X129540000Y-103442000D01*
X129540000Y-103442000D02*
X130238000Y-104140000D01*
X133413000Y-104140000D02*
X134683000Y-105410000D01*
X122555000Y-103759000D02*
X121412000Y-103759000D01*
X121412000Y-103759000D02*
X120396000Y-104775000D01*
X120396000Y-104775000D02*
X120396000Y-112522000D01*
X120396000Y-112522000D02*
X122936000Y-115062000D01*
X122936000Y-115062000D02*
X122936000Y-116586000D01*
X122936000Y-116586000D02*
X124460000Y-118110000D01*
X158877000Y-89281000D02*
X158877000Y-83947000D01*
X149667630Y-90170000D02*
X157988000Y-90170000D01*
X157988000Y-90170000D02*
X158877000Y-89281000D01*
X146050000Y-92710000D02*
X147127630Y-92710000D01*
X147127630Y-92710000D02*
X149667630Y-90170000D01*
X135763000Y-96012000D02*
X135763000Y-93577210D01*
X135509000Y-92964000D02*
X135509000Y-93323210D01*
X135509000Y-93323210D02*
X135763000Y-93577210D01*
X162560000Y-82550000D02*
X160274000Y-82550000D01*
X158877000Y-83947000D02*
X160274000Y-82550000D01*
X122047000Y-105410000D02*
X122555000Y-105410000D01*
X121412000Y-106045000D02*
X122047000Y-105410000D01*
X121412000Y-106680000D02*
X121412000Y-106045000D01*
X147271314Y-95250000D02*
X149669500Y-95250000D01*
X146050000Y-95250000D02*
X147271314Y-95250000D01*
X159766000Y-91757500D02*
X159766000Y-86105960D01*
X149667630Y-92710000D02*
X158813500Y-92710000D01*
X158813500Y-92710000D02*
X159766000Y-91757500D01*
X160782000Y-85090000D02*
X162560000Y-85090000D01*
X159766000Y-86105960D02*
X160782000Y-85090000D01*
X121412000Y-111444000D02*
X121412000Y-106680000D01*
X124460000Y-114492000D02*
X121412000Y-111444000D01*
X124460000Y-115570000D02*
X124460000Y-114492000D01*
X118618000Y-60198000D02*
X119380000Y-60960000D01*
X119380000Y-60960000D02*
X120650000Y-60960000D01*
X118618000Y-59004200D02*
X118618000Y-60198000D01*
X116840000Y-58420000D02*
X118033800Y-58420000D01*
X118033800Y-58420000D02*
X118618000Y-59004200D01*
X118618000Y-63246000D02*
X118618000Y-61468000D01*
X118618000Y-63500000D02*
X118618000Y-63246000D01*
X118618000Y-63246000D02*
X118618000Y-63373000D01*
X118618000Y-63373000D02*
X118745000Y-63500000D01*
X118618000Y-63754000D02*
X118618000Y-63500000D01*
X118618000Y-72009000D02*
X118618000Y-63754000D01*
X120650000Y-63500000D02*
X118745000Y-63500000D01*
X118745000Y-63500000D02*
X118618000Y-63500000D01*
X118618000Y-63754000D02*
X118618000Y-63627000D01*
X118618000Y-63627000D02*
X118745000Y-63500000D01*
X119380000Y-123190000D02*
X118110000Y-121920000D01*
X118618000Y-72644000D02*
X118618000Y-72009000D01*
X118110000Y-121920000D02*
X118110000Y-119888000D01*
X114554000Y-111760000D02*
X115149600Y-111164400D01*
X118110000Y-119888000D02*
X117602000Y-119380000D01*
X115149600Y-111164400D02*
X115149600Y-99479600D01*
X115824000Y-119380000D02*
X114554000Y-118110000D01*
X114554000Y-118110000D02*
X114554000Y-111760000D01*
X117602000Y-119380000D02*
X115824000Y-119380000D01*
X115149600Y-99479600D02*
X114954600Y-99284600D01*
X114954600Y-99284600D02*
X114954600Y-96430200D01*
X114954600Y-96430200D02*
X114300000Y-95775600D01*
X114300000Y-95775600D02*
X114300000Y-79629000D01*
X114300000Y-79629000D02*
X117094000Y-76835000D01*
X117094000Y-76835000D02*
X117094000Y-74168000D01*
X117094000Y-74168000D02*
X118618000Y-72644000D01*
X118110000Y-60960000D02*
X116840000Y-60960000D01*
X118618000Y-61468000D02*
X118110000Y-60960000D01*
X136144000Y-90170000D02*
X136144000Y-90678000D01*
X136144000Y-90678000D02*
X137541000Y-92075000D01*
X137541000Y-92075000D02*
X137541000Y-95885000D01*
X137541000Y-95885000D02*
X138176000Y-96520000D01*
X142621000Y-100076000D02*
X143510000Y-100076000D01*
X138176000Y-96520000D02*
X140716000Y-96520000D01*
X140716000Y-96520000D02*
X141033500Y-96837500D01*
X164084000Y-119380000D02*
X164846000Y-120142000D01*
X169672000Y-125413000D02*
X169672000Y-128397000D01*
X141033500Y-96837500D02*
X141033500Y-98488500D01*
X147320000Y-102362000D02*
X147320000Y-104013000D01*
X145034000Y-101600000D02*
X146558000Y-101600000D01*
X141033500Y-98488500D02*
X142621000Y-100076000D01*
X143510000Y-100076000D02*
X145034000Y-101600000D01*
X175641000Y-128905000D02*
X176276000Y-128270000D01*
X146558000Y-101600000D02*
X147320000Y-102362000D01*
X147320000Y-104013000D02*
X148668000Y-105361000D01*
X153162000Y-119380000D02*
X164084000Y-119380000D01*
X148668000Y-105361000D02*
X148668000Y-114886000D01*
X166624000Y-124460000D02*
X168719000Y-124460000D01*
X148668000Y-114886000D02*
X153162000Y-119380000D01*
X164846000Y-120142000D02*
X164846000Y-121516000D01*
X164846000Y-121516000D02*
X165608000Y-122278000D01*
X165608000Y-122278000D02*
X165608000Y-123444000D01*
X168719000Y-124460000D02*
X169672000Y-125413000D01*
X169672000Y-128397000D02*
X170180000Y-128905000D01*
X165608000Y-123444000D02*
X166624000Y-124460000D01*
X170180000Y-128905000D02*
X175641000Y-128905000D01*
X176276000Y-128270000D02*
X177800000Y-128270000D01*
X140589000Y-77089000D02*
X138493500Y-77089000D01*
X142240000Y-73660000D02*
X142240000Y-75438000D01*
X142240000Y-75438000D02*
X140589000Y-77089000D01*
X136144000Y-86105937D02*
X137731500Y-84518236D01*
X138493500Y-77089000D02*
X137731500Y-77851000D01*
X137731500Y-77851000D02*
X137731500Y-84518236D01*
X135001000Y-90170000D02*
X133350000Y-90170000D01*
X135128000Y-90170000D02*
X135001000Y-90170000D01*
X136144000Y-89154000D02*
X136144000Y-90170000D01*
X135001000Y-90170000D02*
X136144000Y-90170000D01*
X136144000Y-86105937D02*
X136144000Y-89154000D01*
X133350000Y-90170000D02*
X134571000Y-90170000D01*
X139700000Y-71120000D02*
X140970000Y-72390000D01*
X140970000Y-72390000D02*
X140970000Y-75057000D01*
X136906000Y-76962000D02*
X136906000Y-83566000D01*
X140970000Y-75057000D02*
X139763500Y-76263500D01*
X139763500Y-76263500D02*
X137604500Y-76263500D01*
X137604500Y-76263500D02*
X136906000Y-76962000D01*
X136906000Y-83566000D02*
X133350000Y-87122000D01*
X133350000Y-87122000D02*
X133350000Y-87630000D01*
X158750000Y-66040000D02*
X158750000Y-63246000D01*
X158750000Y-63246000D02*
X159258000Y-62738000D01*
X159258000Y-62738000D02*
X175895000Y-62738000D01*
X181390000Y-70645700D02*
X187388500Y-76644484D01*
X175895000Y-62738000D02*
X176657000Y-63500000D01*
X176657000Y-63500000D02*
X180594000Y-63500000D01*
X180594000Y-63500000D02*
X181390000Y-64295700D01*
X181390000Y-64295700D02*
X181390000Y-70645700D01*
X177800000Y-125730000D02*
X180086000Y-123444000D01*
X188531500Y-79946500D02*
X187579000Y-78994000D01*
X180086000Y-123444000D02*
X180086000Y-113284000D01*
X180086000Y-113284000D02*
X187098000Y-106272000D01*
X187098000Y-106272000D02*
X187098000Y-100430000D01*
X187098000Y-100430000D02*
X188531500Y-98996500D01*
X188531500Y-98996500D02*
X188531500Y-79946500D01*
X187579000Y-78994000D02*
X187579000Y-77724000D01*
X187579000Y-77724000D02*
X187579000Y-76834993D01*
X187579000Y-76834984D02*
X187388500Y-76644484D01*
X187452000Y-76707987D02*
X187388500Y-76644484D01*
X187579000Y-77724000D02*
X187579000Y-76834984D01*
X187579000Y-76834993D02*
X187452000Y-76707987D01*
X177800000Y-118110000D02*
X176530000Y-119380000D01*
X138018000Y-91725000D02*
X136906000Y-90613000D01*
X140462000Y-93980000D02*
X138684000Y-93980000D01*
X176530000Y-119380000D02*
X166624000Y-119380000D01*
X147574000Y-99568000D02*
X147066000Y-99060000D01*
X166624000Y-119380000D02*
X166116000Y-118872000D01*
X141478000Y-98234500D02*
X141478000Y-94996000D01*
X150876000Y-101092000D02*
X149352000Y-99568000D01*
X166116000Y-118872000D02*
X166116000Y-117602000D01*
X166116000Y-117602000D02*
X165354000Y-116840000D01*
X142303500Y-99060000D02*
X141478000Y-98234500D01*
X165354000Y-116840000D02*
X154178000Y-116840000D01*
X147066000Y-99060000D02*
X142303500Y-99060000D01*
X154178000Y-116840000D02*
X150876000Y-113538000D01*
X150876000Y-113538000D02*
X150876000Y-101092000D01*
X149352000Y-99568000D02*
X147574000Y-99568000D01*
X141478000Y-94996000D02*
X140462000Y-93980000D01*
X138684000Y-93980000D02*
X138018000Y-93313800D01*
X138018000Y-93313800D02*
X138018000Y-91725000D01*
X136906000Y-90613000D02*
X136906000Y-90170000D01*
X133350000Y-85090000D02*
X135890000Y-82550000D01*
X135890000Y-82550000D02*
X135890000Y-76708000D01*
X135890000Y-76708000D02*
X137160000Y-75438000D01*
X137160000Y-75438000D02*
X139192000Y-75438000D01*
X139192000Y-75438000D02*
X139700000Y-74930000D01*
X139700000Y-74930000D02*
X139700000Y-73660000D01*
X136906000Y-89535000D02*
X136906000Y-90170000D01*
X136906000Y-90170000D02*
X136906000Y-90551000D01*
X136906000Y-88900000D02*
X136906000Y-89535000D01*
X136906000Y-89535000D02*
X136906000Y-86360000D01*
X187515500Y-94234000D02*
X187515500Y-83883500D01*
X185674000Y-96075500D02*
X187515500Y-94234000D01*
X185674000Y-100789000D02*
X185674000Y-96075500D01*
X185674000Y-103378000D02*
X185674000Y-100789000D01*
X177800000Y-111252000D02*
X185674000Y-103378000D01*
X177800000Y-115570000D02*
X177800000Y-111252000D01*
X135890000Y-72390000D02*
X137160000Y-71120000D01*
X135890000Y-75324800D02*
X135890000Y-72390000D01*
X135128000Y-76086800D02*
X135890000Y-75324800D01*
X135128000Y-80772000D02*
X135128000Y-76086800D01*
X133350000Y-82550000D02*
X135128000Y-80772000D01*
X169672000Y-110236000D02*
X169672000Y-97028000D01*
X175768000Y-93599000D02*
X174088301Y-95278699D01*
X174088301Y-95278699D02*
X171421301Y-95278699D01*
X171421301Y-95278699D02*
X169672000Y-97028000D01*
X175768000Y-83820000D02*
X175768000Y-93599000D01*
X178918000Y-67310000D02*
X179070000Y-67310000D01*
X177292000Y-68935600D02*
X178918000Y-67310000D01*
X177292000Y-82296000D02*
X177292000Y-68935600D01*
X175768000Y-83820000D02*
X177292000Y-82296000D01*
X172720000Y-83820000D02*
X175768000Y-83820000D01*
X164338000Y-115570000D02*
X169672000Y-110236000D01*
X162560000Y-115570000D02*
X164338000Y-115570000D01*
X162560000Y-113030000D02*
X165354000Y-113030000D01*
X165354000Y-113030000D02*
X167894000Y-110490000D01*
X169926000Y-91821000D02*
X169926000Y-89154000D01*
X167894000Y-110490000D02*
X167894000Y-93853000D01*
X167894000Y-93853000D02*
X169926000Y-91821000D01*
X169926000Y-89154000D02*
X172720000Y-86360000D01*
X170942000Y-84582000D02*
X172720000Y-86360000D01*
X170942000Y-80264000D02*
X170942000Y-84582000D01*
X171958000Y-79248000D02*
X170942000Y-80264000D01*
X174498000Y-79248000D02*
X171958000Y-79248000D01*
X176276000Y-77470000D02*
X174498000Y-79248000D01*
X176276000Y-66370200D02*
X176276000Y-77470000D01*
X177876000Y-64770000D02*
X176276000Y-66370200D01*
X179070000Y-64770000D02*
X177876000Y-64770000D01*
X162560000Y-105410000D02*
X163637630Y-105410000D01*
X165100000Y-97536000D02*
X164084000Y-96520000D01*
X164719000Y-86360000D02*
X165354000Y-85725000D01*
X163637630Y-105410000D02*
X165100000Y-103947630D01*
X165100000Y-103947630D02*
X165100000Y-97536000D01*
X164084000Y-96520000D02*
X161290000Y-96520000D01*
X161290000Y-96520000D02*
X160528000Y-95758000D01*
X166599000Y-71120000D02*
X167640000Y-71120000D01*
X160528000Y-95758000D02*
X160528000Y-87122000D01*
X160528000Y-87122000D02*
X161290000Y-86360000D01*
X161290000Y-86360000D02*
X164719000Y-86360000D01*
X165354000Y-85725000D02*
X165354000Y-72364600D01*
X165354000Y-72364600D02*
X166599000Y-71120000D01*
X167894000Y-84581948D02*
X168402000Y-84074000D01*
X166370000Y-92329000D02*
X167894000Y-90805000D01*
X167894000Y-90805000D02*
X167894000Y-84581948D01*
X164018630Y-92329000D02*
X166370000Y-92329000D01*
X162560000Y-92710000D02*
X163637630Y-92710000D01*
X163637630Y-92710000D02*
X164018630Y-92329000D01*
X173990000Y-71120000D02*
X172720000Y-71120000D01*
X174498000Y-71628000D02*
X173990000Y-71120000D01*
X174498000Y-75438000D02*
X174498000Y-71628000D01*
X172212000Y-77724000D02*
X174498000Y-75438000D01*
X169926000Y-77724000D02*
X172212000Y-77724000D01*
X168402000Y-79248000D02*
X169926000Y-77724000D01*
X168402000Y-84074000D02*
X168402000Y-79248000D01*
X166624000Y-86614000D02*
X166624000Y-79883000D01*
X169799000Y-76708000D02*
X171196000Y-76708000D01*
X166624000Y-79883000D02*
X169799000Y-76708000D01*
X162560000Y-87630000D02*
X165608000Y-87630000D01*
X165608000Y-87630000D02*
X166624000Y-86614000D01*
X171196000Y-76708000D02*
X172720000Y-75184000D01*
X172720000Y-75184000D02*
X172720000Y-74930000D01*
X143510000Y-69469000D02*
X143510000Y-66929000D01*
X142113000Y-87630000D02*
X142113000Y-96520000D01*
X142113000Y-96520000D02*
X152400000Y-96520000D01*
X152400000Y-96520000D02*
X152565000Y-96685000D01*
X152565000Y-96685000D02*
X152565000Y-96685200D01*
X152565000Y-96685200D02*
X154940000Y-99060000D01*
X142113000Y-83820000D02*
X142113000Y-78295500D01*
X142113000Y-78295500D02*
X143510000Y-78295500D01*
X143510000Y-78295500D02*
X143510000Y-69469000D01*
X140777630Y-87630000D02*
X142113000Y-87630000D01*
X139700000Y-87630000D02*
X140777630Y-87630000D01*
X142875000Y-85090000D02*
X142875000Y-78740000D01*
X142875000Y-78740000D02*
X144272000Y-78740000D01*
X144272000Y-78740000D02*
X144272000Y-68961000D01*
X152400000Y-93980000D02*
X150304500Y-93980000D01*
X150304500Y-93980000D02*
X150177500Y-93980000D01*
X142875000Y-93980000D02*
X150304500Y-93980000D01*
X142875000Y-85090000D02*
X142875000Y-93980000D01*
X153940001Y-95520001D02*
X152400000Y-93980000D01*
X154940000Y-96520000D02*
X153940001Y-95520001D01*
X142875000Y-85090000D02*
X139700000Y-85090000D01*
X154940000Y-96520000D02*
X154716000Y-96296400D01*
X175487000Y-96293200D02*
X176784147Y-94996000D01*
X180340000Y-91440000D02*
X179146200Y-91440000D01*
X179146200Y-91440000D02*
X176784147Y-93802053D01*
X176784147Y-93802053D02*
X176784147Y-94996000D01*
X175487000Y-106707000D02*
X175487000Y-96293200D01*
X174244000Y-107950000D02*
X175487000Y-106707000D01*
X171704000Y-107950000D02*
X174244000Y-107950000D01*
X171196000Y-108458000D02*
X171704000Y-107950000D01*
X171196000Y-109982000D02*
X171196000Y-108458000D01*
X171704000Y-110490000D02*
X171196000Y-109982000D01*
X174244000Y-110490000D02*
X171704000Y-110490000D01*
X174752000Y-110998000D02*
X174244000Y-110490000D01*
X174752000Y-113682000D02*
X174752000Y-110998000D01*
X174134000Y-114300000D02*
X174752000Y-113682000D01*
X172720000Y-114300000D02*
X174134000Y-114300000D01*
D26*
G36*
X151065872Y-61984986D02*
X149138239Y-63788256D01*
X149108992Y-63829317D01*
X149098000Y-63881000D01*
X149098000Y-70104000D01*
X145884954Y-70104000D01*
X144907000Y-67414626D01*
X144907000Y-66040000D01*
X144896994Y-65990590D01*
X144868553Y-65948965D01*
X144826159Y-65921685D01*
X144780000Y-65913000D01*
X142240000Y-65913000D01*
X142190590Y-65923006D01*
X142148965Y-65951447D01*
X142121685Y-65993841D01*
X142113000Y-66040000D01*
X142113000Y-69088000D01*
X127762000Y-69088000D01*
X127762000Y-56590000D01*
X151004566Y-56590000D01*
X151065872Y-61984986D01*
X151065872Y-61984986D01*
G37*
X151065872Y-61984986D02*
X149138239Y-63788256D01*
X149108992Y-63829317D01*
X149098000Y-63881000D01*
X149098000Y-70104000D01*
X145884954Y-70104000D01*
X144907000Y-67414626D01*
X144907000Y-66040000D01*
X144896994Y-65990590D01*
X144868553Y-65948965D01*
X144826159Y-65921685D01*
X144780000Y-65913000D01*
X142240000Y-65913000D01*
X142190590Y-65923006D01*
X142148965Y-65951447D01*
X142121685Y-65993841D01*
X142113000Y-66040000D01*
X142113000Y-69088000D01*
X127762000Y-69088000D01*
X127762000Y-56590000D01*
X151004566Y-56590000D01*
X151065872Y-61984986D01*
M02*
