G04 #@! TF.FileFunction,Legend,Bot*
%FSLAX46Y46*%
G04 Gerber Fmt 4.6, Leading zero omitted, Abs format (unit mm)*
G04 Created by KiCad (PCBNEW 4.0.7+dfsg1-1~bpo8+1) date Mon Jun  4 12:39:51 2018*
%MOMM*%
%LPD*%
G01*
G04 APERTURE LIST*
%ADD10C,0.100000*%
%ADD11C,0.300000*%
%ADD12C,0.250000*%
%ADD13C,0.200000*%
%ADD14C,0.150000*%
%ADD15C,0.010000*%
G04 APERTURE END LIST*
D10*
D11*
X119338714Y-72059857D02*
X119338714Y-72974143D01*
X121878714Y-72431286D02*
X121821571Y-72259857D01*
X121764429Y-72202714D01*
X121650143Y-72145571D01*
X121478714Y-72145571D01*
X121364429Y-72202714D01*
X121307286Y-72259857D01*
X121250143Y-72374143D01*
X121250143Y-72831286D01*
X122450143Y-72831286D01*
X122450143Y-72431286D01*
X122393000Y-72317000D01*
X122335857Y-72259857D01*
X122221571Y-72202714D01*
X122107286Y-72202714D01*
X121993000Y-72259857D01*
X121935857Y-72317000D01*
X121878714Y-72431286D01*
X121878714Y-72831286D01*
X116408143Y-91525714D02*
X115493857Y-91525714D01*
X115769928Y-94408571D02*
X115827071Y-94465714D01*
X115998500Y-94522857D01*
X116112786Y-94522857D01*
X116284214Y-94465714D01*
X116398500Y-94351429D01*
X116455643Y-94237143D01*
X116512786Y-94008571D01*
X116512786Y-93837143D01*
X116455643Y-93608571D01*
X116398500Y-93494286D01*
X116284214Y-93380000D01*
X116112786Y-93322857D01*
X115998500Y-93322857D01*
X115827071Y-93380000D01*
X115769928Y-93437143D01*
X115312786Y-94465714D02*
X115141357Y-94522857D01*
X114855643Y-94522857D01*
X114741357Y-94465714D01*
X114684214Y-94408571D01*
X114627071Y-94294286D01*
X114627071Y-94180000D01*
X114684214Y-94065714D01*
X114741357Y-94008571D01*
X114855643Y-93951429D01*
X115084214Y-93894286D01*
X115198500Y-93837143D01*
X115255643Y-93780000D01*
X115312786Y-93665714D01*
X115312786Y-93551429D01*
X115255643Y-93437143D01*
X115198500Y-93380000D01*
X115084214Y-93322857D01*
X114798500Y-93322857D01*
X114627071Y-93380000D01*
X113484214Y-94522857D02*
X114169929Y-94522857D01*
X113827071Y-94522857D02*
X113827071Y-93322857D01*
X113941357Y-93494286D01*
X114055643Y-93608571D01*
X114169929Y-93665714D01*
X115769928Y-96885071D02*
X115827071Y-96942214D01*
X115998500Y-96999357D01*
X116112786Y-96999357D01*
X116284214Y-96942214D01*
X116398500Y-96827929D01*
X116455643Y-96713643D01*
X116512786Y-96485071D01*
X116512786Y-96313643D01*
X116455643Y-96085071D01*
X116398500Y-95970786D01*
X116284214Y-95856500D01*
X116112786Y-95799357D01*
X115998500Y-95799357D01*
X115827071Y-95856500D01*
X115769928Y-95913643D01*
X115312786Y-96942214D02*
X115141357Y-96999357D01*
X114855643Y-96999357D01*
X114741357Y-96942214D01*
X114684214Y-96885071D01*
X114627071Y-96770786D01*
X114627071Y-96656500D01*
X114684214Y-96542214D01*
X114741357Y-96485071D01*
X114855643Y-96427929D01*
X115084214Y-96370786D01*
X115198500Y-96313643D01*
X115255643Y-96256500D01*
X115312786Y-96142214D01*
X115312786Y-96027929D01*
X115255643Y-95913643D01*
X115198500Y-95856500D01*
X115084214Y-95799357D01*
X114798500Y-95799357D01*
X114627071Y-95856500D01*
X113884214Y-95799357D02*
X113769929Y-95799357D01*
X113655643Y-95856500D01*
X113598500Y-95913643D01*
X113541357Y-96027929D01*
X113484214Y-96256500D01*
X113484214Y-96542214D01*
X113541357Y-96770786D01*
X113598500Y-96885071D01*
X113655643Y-96942214D01*
X113769929Y-96999357D01*
X113884214Y-96999357D01*
X113998500Y-96942214D01*
X114055643Y-96885071D01*
X114112786Y-96770786D01*
X114169929Y-96542214D01*
X114169929Y-96256500D01*
X114112786Y-96027929D01*
X114055643Y-95913643D01*
X113998500Y-95856500D01*
X113884214Y-95799357D01*
X115712785Y-99425071D02*
X115769928Y-99482214D01*
X115941357Y-99539357D01*
X116055643Y-99539357D01*
X116227071Y-99482214D01*
X116341357Y-99367929D01*
X116398500Y-99253643D01*
X116455643Y-99025071D01*
X116455643Y-98853643D01*
X116398500Y-98625071D01*
X116341357Y-98510786D01*
X116227071Y-98396500D01*
X116055643Y-98339357D01*
X115941357Y-98339357D01*
X115769928Y-98396500D01*
X115712785Y-98453643D01*
X114627071Y-99539357D02*
X115198500Y-99539357D01*
X115198500Y-98339357D01*
X114227071Y-99539357D02*
X114227071Y-98339357D01*
X113541356Y-99539357D02*
X114055642Y-98853643D01*
X113541356Y-98339357D02*
X114227071Y-99025071D01*
X116630215Y-102142857D02*
X116630215Y-100942857D01*
X116230215Y-101800000D01*
X115830215Y-100942857D01*
X115830215Y-102142857D01*
X115258786Y-102142857D02*
X115258786Y-100942857D01*
X114744500Y-102085714D02*
X114573071Y-102142857D01*
X114287357Y-102142857D01*
X114173071Y-102085714D01*
X114115928Y-102028571D01*
X114058785Y-101914286D01*
X114058785Y-101800000D01*
X114115928Y-101685714D01*
X114173071Y-101628571D01*
X114287357Y-101571429D01*
X114515928Y-101514286D01*
X114630214Y-101457143D01*
X114687357Y-101400000D01*
X114744500Y-101285714D01*
X114744500Y-101171429D01*
X114687357Y-101057143D01*
X114630214Y-101000000D01*
X114515928Y-100942857D01*
X114230214Y-100942857D01*
X114058785Y-101000000D01*
X113315928Y-100942857D02*
X113087357Y-100942857D01*
X112973071Y-101000000D01*
X112858785Y-101114286D01*
X112801643Y-101342857D01*
X112801643Y-101742857D01*
X112858785Y-101971429D01*
X112973071Y-102085714D01*
X113087357Y-102142857D01*
X113315928Y-102142857D01*
X113430214Y-102085714D01*
X113544500Y-101971429D01*
X113601643Y-101742857D01*
X113601643Y-101342857D01*
X113544500Y-101114286D01*
X113430214Y-101000000D01*
X113315928Y-100942857D01*
X116630215Y-104619357D02*
X116630215Y-103419357D01*
X116230215Y-104276500D01*
X115830215Y-103419357D01*
X115830215Y-104619357D01*
X115030214Y-103419357D02*
X114801643Y-103419357D01*
X114687357Y-103476500D01*
X114573071Y-103590786D01*
X114515929Y-103819357D01*
X114515929Y-104219357D01*
X114573071Y-104447929D01*
X114687357Y-104562214D01*
X114801643Y-104619357D01*
X115030214Y-104619357D01*
X115144500Y-104562214D01*
X115258786Y-104447929D01*
X115315929Y-104219357D01*
X115315929Y-103819357D01*
X115258786Y-103590786D01*
X115144500Y-103476500D01*
X115030214Y-103419357D01*
X114058786Y-104562214D02*
X113887357Y-104619357D01*
X113601643Y-104619357D01*
X113487357Y-104562214D01*
X113430214Y-104505071D01*
X113373071Y-104390786D01*
X113373071Y-104276500D01*
X113430214Y-104162214D01*
X113487357Y-104105071D01*
X113601643Y-104047929D01*
X113830214Y-103990786D01*
X113944500Y-103933643D01*
X114001643Y-103876500D01*
X114058786Y-103762214D01*
X114058786Y-103647929D01*
X114001643Y-103533643D01*
X113944500Y-103476500D01*
X113830214Y-103419357D01*
X113544500Y-103419357D01*
X113373071Y-103476500D01*
X112858786Y-104619357D02*
X112858786Y-103419357D01*
X115969999Y-106149857D02*
X115227142Y-106149857D01*
X115627142Y-106607000D01*
X115455714Y-106607000D01*
X115341428Y-106664143D01*
X115284285Y-106721286D01*
X115227142Y-106835571D01*
X115227142Y-107121286D01*
X115284285Y-107235571D01*
X115341428Y-107292714D01*
X115455714Y-107349857D01*
X115798571Y-107349857D01*
X115912857Y-107292714D01*
X115969999Y-107235571D01*
X120106357Y-104659714D02*
X120034929Y-104445428D01*
X120034929Y-104088285D01*
X120106357Y-103945428D01*
X120177786Y-103873999D01*
X120320643Y-103802571D01*
X120463500Y-103802571D01*
X120606357Y-103873999D01*
X120677786Y-103945428D01*
X120749214Y-104088285D01*
X120820643Y-104373999D01*
X120892071Y-104516857D01*
X120963500Y-104588285D01*
X121106357Y-104659714D01*
X121249214Y-104659714D01*
X121392071Y-104588285D01*
X121463500Y-104516857D01*
X121534929Y-104373999D01*
X121534929Y-104016857D01*
X121463500Y-103802571D01*
X120034929Y-103159714D02*
X121534929Y-103159714D01*
X121534929Y-102588286D01*
X121463500Y-102445428D01*
X121392071Y-102374000D01*
X121249214Y-102302571D01*
X121034929Y-102302571D01*
X120892071Y-102374000D01*
X120820643Y-102445428D01*
X120749214Y-102588286D01*
X120749214Y-103159714D01*
X120034929Y-101659714D02*
X121534929Y-101659714D01*
X121126285Y-114912857D02*
X121697714Y-114912857D01*
X121754857Y-115484286D01*
X121697714Y-115427143D01*
X121583428Y-115370000D01*
X121297714Y-115370000D01*
X121183428Y-115427143D01*
X121126285Y-115484286D01*
X121069142Y-115598571D01*
X121069142Y-115884286D01*
X121126285Y-115998571D01*
X121183428Y-116055714D01*
X121297714Y-116112857D01*
X121583428Y-116112857D01*
X121697714Y-116055714D01*
X121754857Y-115998571D01*
X121691357Y-117706857D02*
X121005643Y-117706857D01*
X121348500Y-118906857D02*
X121348500Y-117706857D01*
X121167571Y-121192857D02*
X121567571Y-120621429D01*
X121853286Y-121192857D02*
X121853286Y-119992857D01*
X121396143Y-119992857D01*
X121281857Y-120050000D01*
X121224714Y-120107143D01*
X121167571Y-120221429D01*
X121167571Y-120392857D01*
X121224714Y-120507143D01*
X121281857Y-120564286D01*
X121396143Y-120621429D01*
X121853286Y-120621429D01*
X121853286Y-123732857D02*
X121853286Y-122532857D01*
X121567571Y-122532857D01*
X121396143Y-122590000D01*
X121281857Y-122704286D01*
X121224714Y-122818571D01*
X121167571Y-123047143D01*
X121167571Y-123218571D01*
X121224714Y-123447143D01*
X121281857Y-123561429D01*
X121396143Y-123675714D01*
X121567571Y-123732857D01*
X121853286Y-123732857D01*
X121167571Y-126158571D02*
X121224714Y-126215714D01*
X121396143Y-126272857D01*
X121510429Y-126272857D01*
X121681857Y-126215714D01*
X121796143Y-126101429D01*
X121853286Y-125987143D01*
X121910429Y-125758571D01*
X121910429Y-125587143D01*
X121853286Y-125358571D01*
X121796143Y-125244286D01*
X121681857Y-125130000D01*
X121510429Y-125072857D01*
X121396143Y-125072857D01*
X121224714Y-125130000D01*
X121167571Y-125187143D01*
X121996143Y-128355714D02*
X121081857Y-128355714D01*
X115138143Y-128419214D02*
X114223857Y-128419214D01*
X114182571Y-126158571D02*
X114239714Y-126215714D01*
X114411143Y-126272857D01*
X114525429Y-126272857D01*
X114696857Y-126215714D01*
X114811143Y-126101429D01*
X114868286Y-125987143D01*
X114925429Y-125758571D01*
X114925429Y-125587143D01*
X114868286Y-125358571D01*
X114811143Y-125244286D01*
X114696857Y-125130000D01*
X114525429Y-125072857D01*
X114411143Y-125072857D01*
X114239714Y-125130000D01*
X114182571Y-125187143D01*
X114995286Y-123732857D02*
X114995286Y-122532857D01*
X114709571Y-122532857D01*
X114538143Y-122590000D01*
X114423857Y-122704286D01*
X114366714Y-122818571D01*
X114309571Y-123047143D01*
X114309571Y-123218571D01*
X114366714Y-123447143D01*
X114423857Y-123561429D01*
X114538143Y-123675714D01*
X114709571Y-123732857D01*
X114995286Y-123732857D01*
X114182571Y-121192857D02*
X114582571Y-120621429D01*
X114868286Y-121192857D02*
X114868286Y-119992857D01*
X114411143Y-119992857D01*
X114296857Y-120050000D01*
X114239714Y-120107143D01*
X114182571Y-120221429D01*
X114182571Y-120392857D01*
X114239714Y-120507143D01*
X114296857Y-120564286D01*
X114411143Y-120621429D01*
X114868286Y-120621429D01*
X114769857Y-117579857D02*
X114084143Y-117579857D01*
X114427000Y-118779857D02*
X114427000Y-117579857D01*
X114826999Y-114912857D02*
X114084142Y-114912857D01*
X114484142Y-115370000D01*
X114312714Y-115370000D01*
X114198428Y-115427143D01*
X114141285Y-115484286D01*
X114084142Y-115598571D01*
X114084142Y-115884286D01*
X114141285Y-115998571D01*
X114198428Y-116055714D01*
X114312714Y-116112857D01*
X114655571Y-116112857D01*
X114769857Y-116055714D01*
X114826999Y-115998571D01*
X136855143Y-123148714D02*
X135940857Y-123148714D01*
X136112285Y-120119857D02*
X136683714Y-120119857D01*
X136740857Y-120691286D01*
X136683714Y-120634143D01*
X136569428Y-120577000D01*
X136283714Y-120577000D01*
X136169428Y-120634143D01*
X136112285Y-120691286D01*
X136055142Y-120805571D01*
X136055142Y-121091286D01*
X136112285Y-121205571D01*
X136169428Y-121262714D01*
X136283714Y-121319857D01*
X136569428Y-121319857D01*
X136683714Y-121262714D01*
X136740857Y-121205571D01*
X123208999Y-119992857D02*
X122466142Y-119992857D01*
X122866142Y-120450000D01*
X122694714Y-120450000D01*
X122580428Y-120507143D01*
X122523285Y-120564286D01*
X122466142Y-120678571D01*
X122466142Y-120964286D01*
X122523285Y-121078571D01*
X122580428Y-121135714D01*
X122694714Y-121192857D01*
X123037571Y-121192857D01*
X123151857Y-121135714D01*
X123208999Y-121078571D01*
X123139143Y-123148714D02*
X122224857Y-123148714D01*
X111132857Y-128694571D02*
X111632857Y-127980286D01*
X111990000Y-128694571D02*
X111990000Y-127194571D01*
X111418572Y-127194571D01*
X111275714Y-127266000D01*
X111204286Y-127337429D01*
X111132857Y-127480286D01*
X111132857Y-127694571D01*
X111204286Y-127837429D01*
X111275714Y-127908857D01*
X111418572Y-127980286D01*
X111990000Y-127980286D01*
X110490000Y-128694571D02*
X110490000Y-127194571D01*
X109918572Y-127194571D01*
X109775714Y-127266000D01*
X109704286Y-127337429D01*
X109632857Y-127480286D01*
X109632857Y-127694571D01*
X109704286Y-127837429D01*
X109775714Y-127908857D01*
X109918572Y-127980286D01*
X110490000Y-127980286D01*
X108990000Y-128694571D02*
X108990000Y-127694571D01*
X108990000Y-127194571D02*
X109061429Y-127266000D01*
X108990000Y-127337429D01*
X108918572Y-127266000D01*
X108990000Y-127194571D01*
X108990000Y-127337429D01*
X175355285Y-119992857D02*
X175926714Y-119992857D01*
X175983857Y-120564286D01*
X175926714Y-120507143D01*
X175812428Y-120450000D01*
X175526714Y-120450000D01*
X175412428Y-120507143D01*
X175355285Y-120564286D01*
X175298142Y-120678571D01*
X175298142Y-120964286D01*
X175355285Y-121078571D01*
X175412428Y-121135714D01*
X175526714Y-121192857D01*
X175812428Y-121192857D01*
X175926714Y-121135714D01*
X175983857Y-121078571D01*
X176098143Y-123275714D02*
X175183857Y-123275714D01*
X170256143Y-123148714D02*
X169341857Y-123148714D01*
X170198999Y-119992857D02*
X169456142Y-119992857D01*
X169856142Y-120450000D01*
X169684714Y-120450000D01*
X169570428Y-120507143D01*
X169513285Y-120564286D01*
X169456142Y-120678571D01*
X169456142Y-120964286D01*
X169513285Y-121078571D01*
X169570428Y-121135714D01*
X169684714Y-121192857D01*
X170027571Y-121192857D01*
X170141857Y-121135714D01*
X170198999Y-121078571D01*
X187410714Y-124066357D02*
X187410714Y-124980643D01*
X186794857Y-121520001D02*
X186794857Y-122262858D01*
X187252000Y-121862858D01*
X187252000Y-122034286D01*
X187309143Y-122148572D01*
X187366286Y-122205715D01*
X187480571Y-122262858D01*
X187766286Y-122262858D01*
X187880571Y-122205715D01*
X187937714Y-122148572D01*
X187994857Y-122034286D01*
X187994857Y-121691429D01*
X187937714Y-121577143D01*
X187880571Y-121520001D01*
X187880571Y-119878429D02*
X187937714Y-119821286D01*
X187994857Y-119649857D01*
X187994857Y-119535571D01*
X187937714Y-119364143D01*
X187823429Y-119249857D01*
X187709143Y-119192714D01*
X187480571Y-119135571D01*
X187309143Y-119135571D01*
X187080571Y-119192714D01*
X186966286Y-119249857D01*
X186852000Y-119364143D01*
X186794857Y-119535571D01*
X186794857Y-119649857D01*
X186852000Y-119821286D01*
X186909143Y-119878429D01*
X187994857Y-116652714D02*
X186794857Y-116652714D01*
X186794857Y-116938429D01*
X186852000Y-117109857D01*
X186966286Y-117224143D01*
X187080571Y-117281286D01*
X187309143Y-117338429D01*
X187480571Y-117338429D01*
X187709143Y-117281286D01*
X187823429Y-117224143D01*
X187937714Y-117109857D01*
X187994857Y-116938429D01*
X187994857Y-116652714D01*
X187048857Y-79102001D02*
X187048857Y-79844858D01*
X187506000Y-79444858D01*
X187506000Y-79616286D01*
X187563143Y-79730572D01*
X187620286Y-79787715D01*
X187734571Y-79844858D01*
X188020286Y-79844858D01*
X188134571Y-79787715D01*
X188191714Y-79730572D01*
X188248857Y-79616286D01*
X188248857Y-79273429D01*
X188191714Y-79159143D01*
X188134571Y-79102001D01*
X187283714Y-81902357D02*
X187283714Y-82816643D01*
X188007571Y-85080429D02*
X188064714Y-85023286D01*
X188121857Y-84851857D01*
X188121857Y-84737571D01*
X188064714Y-84566143D01*
X187950429Y-84451857D01*
X187836143Y-84394714D01*
X187607571Y-84337571D01*
X187436143Y-84337571D01*
X187207571Y-84394714D01*
X187093286Y-84451857D01*
X186979000Y-84566143D01*
X186921857Y-84737571D01*
X186921857Y-84851857D01*
X186979000Y-85023286D01*
X187036143Y-85080429D01*
X188058357Y-86934714D02*
X186858357Y-86934714D01*
X186858357Y-87220429D01*
X186915500Y-87391857D01*
X187029786Y-87506143D01*
X187144071Y-87563286D01*
X187372643Y-87620429D01*
X187544071Y-87620429D01*
X187772643Y-87563286D01*
X187886929Y-87506143D01*
X188001214Y-87391857D01*
X188058357Y-87220429D01*
X188058357Y-86934714D01*
X177377714Y-74345857D02*
X177377714Y-75260143D01*
X175066286Y-75472857D02*
X175066286Y-74272857D01*
X174780571Y-74272857D01*
X174609143Y-74330000D01*
X174494857Y-74444286D01*
X174437714Y-74558571D01*
X174380571Y-74787143D01*
X174380571Y-74958571D01*
X174437714Y-75187143D01*
X174494857Y-75301429D01*
X174609143Y-75415714D01*
X174780571Y-75472857D01*
X175066286Y-75472857D01*
X174380571Y-71675571D02*
X174437714Y-71732714D01*
X174609143Y-71789857D01*
X174723429Y-71789857D01*
X174894857Y-71732714D01*
X175009143Y-71618429D01*
X175066286Y-71504143D01*
X175123429Y-71275571D01*
X175123429Y-71104143D01*
X175066286Y-70875571D01*
X175009143Y-70761286D01*
X174894857Y-70647000D01*
X174723429Y-70589857D01*
X174609143Y-70589857D01*
X174437714Y-70647000D01*
X174380571Y-70704143D01*
X177580857Y-67195715D02*
X177009429Y-66795715D01*
X177580857Y-66510000D02*
X176380857Y-66510000D01*
X176380857Y-66967143D01*
X176438000Y-67081429D01*
X176495143Y-67138572D01*
X176609429Y-67195715D01*
X176780857Y-67195715D01*
X176895143Y-67138572D01*
X176952286Y-67081429D01*
X177009429Y-66967143D01*
X177009429Y-66510000D01*
X177580857Y-67595715D02*
X176780857Y-68224286D01*
X176780857Y-67595715D02*
X177580857Y-68224286D01*
X176380857Y-64068429D02*
X176380857Y-64754143D01*
X177580857Y-64411286D02*
X176380857Y-64411286D01*
X177580857Y-65039858D02*
X176780857Y-65668429D01*
X176780857Y-65039858D02*
X177580857Y-65668429D01*
X176126857Y-59721715D02*
X176126857Y-59150286D01*
X176698286Y-59093143D01*
X176641143Y-59150286D01*
X176584000Y-59264572D01*
X176584000Y-59550286D01*
X176641143Y-59664572D01*
X176698286Y-59721715D01*
X176812571Y-59778858D01*
X177098286Y-59778858D01*
X177212571Y-59721715D01*
X177269714Y-59664572D01*
X177326857Y-59550286D01*
X177326857Y-59264572D01*
X177269714Y-59150286D01*
X177212571Y-59093143D01*
X173405857Y-57318286D02*
X174320143Y-57318286D01*
X169195715Y-57680143D02*
X168624286Y-57680143D01*
X168567143Y-57108714D01*
X168624286Y-57165857D01*
X168738572Y-57223000D01*
X169024286Y-57223000D01*
X169138572Y-57165857D01*
X169195715Y-57108714D01*
X169252858Y-56994429D01*
X169252858Y-56708714D01*
X169195715Y-56594429D01*
X169138572Y-56537286D01*
X169024286Y-56480143D01*
X168738572Y-56480143D01*
X168624286Y-56537286D01*
X168567143Y-56594429D01*
X164614143Y-68548285D02*
X164614143Y-69119714D01*
X164042714Y-69176857D01*
X164099857Y-69119714D01*
X164157000Y-69005428D01*
X164157000Y-68719714D01*
X164099857Y-68605428D01*
X164042714Y-68548285D01*
X163928429Y-68491142D01*
X163642714Y-68491142D01*
X163528429Y-68548285D01*
X163471286Y-68605428D01*
X163414143Y-68719714D01*
X163414143Y-69005428D01*
X163471286Y-69119714D01*
X163528429Y-69176857D01*
X160747143Y-69033999D02*
X161318571Y-69433999D01*
X160747143Y-69719714D02*
X161947143Y-69719714D01*
X161947143Y-69262571D01*
X161890000Y-69148285D01*
X161832857Y-69091142D01*
X161718571Y-69033999D01*
X161547143Y-69033999D01*
X161432857Y-69091142D01*
X161375714Y-69148285D01*
X161318571Y-69262571D01*
X161318571Y-69719714D01*
X161547143Y-68005428D02*
X160747143Y-68005428D01*
X162004286Y-68291142D02*
X161147143Y-68576857D01*
X161147143Y-67833999D01*
X158207143Y-69033999D02*
X158778571Y-69433999D01*
X158207143Y-69719714D02*
X159407143Y-69719714D01*
X159407143Y-69262571D01*
X159350000Y-69148285D01*
X159292857Y-69091142D01*
X159178571Y-69033999D01*
X159007143Y-69033999D01*
X158892857Y-69091142D01*
X158835714Y-69148285D01*
X158778571Y-69262571D01*
X158778571Y-69719714D01*
X159407143Y-68633999D02*
X159407143Y-67891142D01*
X158950000Y-68291142D01*
X158950000Y-68119714D01*
X158892857Y-68005428D01*
X158835714Y-67948285D01*
X158721429Y-67891142D01*
X158435714Y-67891142D01*
X158321429Y-67948285D01*
X158264286Y-68005428D01*
X158207143Y-68119714D01*
X158207143Y-68462571D01*
X158264286Y-68576857D01*
X158321429Y-68633999D01*
X155667143Y-69033999D02*
X156238571Y-69433999D01*
X155667143Y-69719714D02*
X156867143Y-69719714D01*
X156867143Y-69262571D01*
X156810000Y-69148285D01*
X156752857Y-69091142D01*
X156638571Y-69033999D01*
X156467143Y-69033999D01*
X156352857Y-69091142D01*
X156295714Y-69148285D01*
X156238571Y-69262571D01*
X156238571Y-69719714D01*
X156752857Y-68576857D02*
X156810000Y-68519714D01*
X156867143Y-68405428D01*
X156867143Y-68119714D01*
X156810000Y-68005428D01*
X156752857Y-67948285D01*
X156638571Y-67891142D01*
X156524286Y-67891142D01*
X156352857Y-67948285D01*
X155667143Y-68633999D01*
X155667143Y-67891142D01*
X153127143Y-69033999D02*
X153698571Y-69433999D01*
X153127143Y-69719714D02*
X154327143Y-69719714D01*
X154327143Y-69262571D01*
X154270000Y-69148285D01*
X154212857Y-69091142D01*
X154098571Y-69033999D01*
X153927143Y-69033999D01*
X153812857Y-69091142D01*
X153755714Y-69148285D01*
X153698571Y-69262571D01*
X153698571Y-69719714D01*
X153127143Y-67891142D02*
X153127143Y-68576857D01*
X153127143Y-68233999D02*
X154327143Y-68233999D01*
X154155714Y-68348285D01*
X154041429Y-68462571D01*
X153984286Y-68576857D01*
X151171286Y-69164143D02*
X151171286Y-68249857D01*
X126092001Y-66824143D02*
X126834858Y-66824143D01*
X126434858Y-66367000D01*
X126606286Y-66367000D01*
X126720572Y-66309857D01*
X126777715Y-66252714D01*
X126834858Y-66138429D01*
X126834858Y-65852714D01*
X126777715Y-65738429D01*
X126720572Y-65681286D01*
X126606286Y-65624143D01*
X126263429Y-65624143D01*
X126149143Y-65681286D01*
X126092001Y-65738429D01*
X119030715Y-66824143D02*
X118459286Y-66824143D01*
X118402143Y-66252714D01*
X118459286Y-66309857D01*
X118573572Y-66367000D01*
X118859286Y-66367000D01*
X118973572Y-66309857D01*
X119030715Y-66252714D01*
X119087858Y-66138429D01*
X119087858Y-65852714D01*
X119030715Y-65738429D01*
X118973572Y-65681286D01*
X118859286Y-65624143D01*
X118573572Y-65624143D01*
X118459286Y-65681286D01*
X118402143Y-65738429D01*
X122240714Y-62957143D02*
X122240714Y-64157143D01*
X122526429Y-64157143D01*
X122697857Y-64100000D01*
X122812143Y-63985714D01*
X122869286Y-63871429D01*
X122926429Y-63642857D01*
X122926429Y-63471429D01*
X122869286Y-63242857D01*
X122812143Y-63128571D01*
X122697857Y-63014286D01*
X122526429Y-62957143D01*
X122240714Y-62957143D01*
X122862929Y-60658429D02*
X122805786Y-60601286D01*
X122634357Y-60544143D01*
X122520071Y-60544143D01*
X122348643Y-60601286D01*
X122234357Y-60715571D01*
X122177214Y-60829857D01*
X122120071Y-61058429D01*
X122120071Y-61229857D01*
X122177214Y-61458429D01*
X122234357Y-61572714D01*
X122348643Y-61687000D01*
X122520071Y-61744143D01*
X122634357Y-61744143D01*
X122805786Y-61687000D01*
X122862929Y-61629857D01*
X122469286Y-59131143D02*
X122469286Y-58216857D01*
X107343643Y-72936142D02*
X107343643Y-73621857D01*
X107343643Y-73278999D02*
X108543643Y-73278999D01*
X108372214Y-73393285D01*
X108257929Y-73507571D01*
X108200786Y-73621857D01*
D12*
X114395215Y-66633643D02*
X113823786Y-66633643D01*
X113766643Y-66062214D01*
X113823786Y-66119357D01*
X113938072Y-66176500D01*
X114223786Y-66176500D01*
X114338072Y-66119357D01*
X114395215Y-66062214D01*
X114452358Y-65947929D01*
X114452358Y-65662214D01*
X114395215Y-65547929D01*
X114338072Y-65490786D01*
X114223786Y-65433643D01*
X113938072Y-65433643D01*
X113823786Y-65490786D01*
X113766643Y-65547929D01*
D11*
X113588857Y-63414286D02*
X114503143Y-63414286D01*
X113858714Y-60417143D02*
X113858714Y-61617143D01*
X114144429Y-61617143D01*
X114315857Y-61560000D01*
X114430143Y-61445714D01*
X114487286Y-61331429D01*
X114544429Y-61102857D01*
X114544429Y-60931429D01*
X114487286Y-60702857D01*
X114430143Y-60588571D01*
X114315857Y-60474286D01*
X114144429Y-60417143D01*
X113858714Y-60417143D01*
X114353929Y-57991429D02*
X114296786Y-57934286D01*
X114125357Y-57877143D01*
X114011071Y-57877143D01*
X113839643Y-57934286D01*
X113725357Y-58048571D01*
X113668214Y-58162857D01*
X113611071Y-58391429D01*
X113611071Y-58562857D01*
X113668214Y-58791429D01*
X113725357Y-58905714D01*
X113839643Y-59020000D01*
X114011071Y-59077143D01*
X114125357Y-59077143D01*
X114296786Y-59020000D01*
X114353929Y-58962857D01*
X180743214Y-97459857D02*
X180743214Y-98374143D01*
X180698857Y-99993501D02*
X180698857Y-100736358D01*
X181156000Y-100336358D01*
X181156000Y-100507786D01*
X181213143Y-100622072D01*
X181270286Y-100679215D01*
X181384571Y-100736358D01*
X181670286Y-100736358D01*
X181784571Y-100679215D01*
X181841714Y-100622072D01*
X181898857Y-100507786D01*
X181898857Y-100164929D01*
X181841714Y-100050643D01*
X181784571Y-99993501D01*
X120691286Y-79708714D02*
X120748429Y-79880143D01*
X120805571Y-79937286D01*
X120919857Y-79994429D01*
X121091286Y-79994429D01*
X121205571Y-79937286D01*
X121262714Y-79880143D01*
X121319857Y-79765857D01*
X121319857Y-79308714D01*
X120119857Y-79308714D01*
X120119857Y-79708714D01*
X120177000Y-79823000D01*
X120234143Y-79880143D01*
X120348429Y-79937286D01*
X120462714Y-79937286D01*
X120577000Y-79880143D01*
X120634143Y-79823000D01*
X120691286Y-79708714D01*
X120691286Y-79308714D01*
X120119857Y-80508714D02*
X121091286Y-80508714D01*
X121205571Y-80565857D01*
X121262714Y-80623000D01*
X121319857Y-80737286D01*
X121319857Y-80965857D01*
X121262714Y-81080143D01*
X121205571Y-81137286D01*
X121091286Y-81194429D01*
X120119857Y-81194429D01*
X120119857Y-81594429D02*
X120119857Y-82280143D01*
X121319857Y-81937286D02*
X120119857Y-81937286D01*
X120119857Y-82508715D02*
X120119857Y-83194429D01*
X121319857Y-82851572D02*
X120119857Y-82851572D01*
X120119857Y-83823001D02*
X120119857Y-84051572D01*
X120177000Y-84165858D01*
X120291286Y-84280144D01*
X120519857Y-84337286D01*
X120919857Y-84337286D01*
X121148429Y-84280144D01*
X121262714Y-84165858D01*
X121319857Y-84051572D01*
X121319857Y-83823001D01*
X121262714Y-83708715D01*
X121148429Y-83594429D01*
X120919857Y-83537286D01*
X120519857Y-83537286D01*
X120291286Y-83594429D01*
X120177000Y-83708715D01*
X120119857Y-83823001D01*
X121319857Y-84851572D02*
X120119857Y-84851572D01*
X121319857Y-85537287D01*
X120119857Y-85537287D01*
X176860143Y-85429714D02*
X175945857Y-85429714D01*
X182476857Y-93834001D02*
X182476857Y-94576858D01*
X182934000Y-94176858D01*
X182934000Y-94348286D01*
X182991143Y-94462572D01*
X183048286Y-94519715D01*
X183162571Y-94576858D01*
X183448286Y-94576858D01*
X183562571Y-94519715D01*
X183619714Y-94462572D01*
X183676857Y-94348286D01*
X183676857Y-94005429D01*
X183619714Y-93891143D01*
X183562571Y-93834001D01*
D13*
X184023000Y-86233000D02*
X183515000Y-86233000D01*
X184023000Y-81788000D02*
X184023000Y-86233000D01*
X183515000Y-81788000D02*
X184023000Y-81788000D01*
D11*
X178782857Y-78451571D02*
X178782857Y-77880142D01*
X177582857Y-77880142D01*
X177582857Y-79080143D02*
X177582857Y-79308714D01*
X177640000Y-79423000D01*
X177754286Y-79537286D01*
X177982857Y-79594428D01*
X178382857Y-79594428D01*
X178611429Y-79537286D01*
X178725714Y-79423000D01*
X178782857Y-79308714D01*
X178782857Y-79080143D01*
X178725714Y-78965857D01*
X178611429Y-78851571D01*
X178382857Y-78794428D01*
X177982857Y-78794428D01*
X177754286Y-78851571D01*
X177640000Y-78965857D01*
X177582857Y-79080143D01*
X177582857Y-79994429D02*
X178782857Y-80280143D01*
X177925714Y-80508714D01*
X178782857Y-80737286D01*
X177582857Y-81023000D01*
X178782857Y-82965858D02*
X178782857Y-82394429D01*
X177582857Y-82394429D01*
X178154286Y-83365858D02*
X178154286Y-83765858D01*
X178782857Y-83937287D02*
X178782857Y-83365858D01*
X177582857Y-83365858D01*
X177582857Y-83937287D01*
X177582857Y-84280144D02*
X178782857Y-84680144D01*
X177582857Y-85080144D01*
X178154286Y-85480143D02*
X178154286Y-85880143D01*
X178782857Y-86051572D02*
X178782857Y-85480143D01*
X177582857Y-85480143D01*
X177582857Y-86051572D01*
X178782857Y-87137286D02*
X178782857Y-86565857D01*
X177582857Y-86565857D01*
X182354286Y-77423000D02*
X182411429Y-77594429D01*
X182468571Y-77651572D01*
X182582857Y-77708715D01*
X182754286Y-77708715D01*
X182868571Y-77651572D01*
X182925714Y-77594429D01*
X182982857Y-77480143D01*
X182982857Y-77023000D01*
X181782857Y-77023000D01*
X181782857Y-77423000D01*
X181840000Y-77537286D01*
X181897143Y-77594429D01*
X182011429Y-77651572D01*
X182125714Y-77651572D01*
X182240000Y-77594429D01*
X182297143Y-77537286D01*
X182354286Y-77423000D01*
X182354286Y-77023000D01*
X181782857Y-78451572D02*
X181782857Y-78680143D01*
X181840000Y-78794429D01*
X181954286Y-78908715D01*
X182182857Y-78965857D01*
X182582857Y-78965857D01*
X182811429Y-78908715D01*
X182925714Y-78794429D01*
X182982857Y-78680143D01*
X182982857Y-78451572D01*
X182925714Y-78337286D01*
X182811429Y-78223000D01*
X182582857Y-78165857D01*
X182182857Y-78165857D01*
X181954286Y-78223000D01*
X181840000Y-78337286D01*
X181782857Y-78451572D01*
X181782857Y-79708715D02*
X181782857Y-79937286D01*
X181840000Y-80051572D01*
X181954286Y-80165858D01*
X182182857Y-80223000D01*
X182582857Y-80223000D01*
X182811429Y-80165858D01*
X182925714Y-80051572D01*
X182982857Y-79937286D01*
X182982857Y-79708715D01*
X182925714Y-79594429D01*
X182811429Y-79480143D01*
X182582857Y-79423000D01*
X182182857Y-79423000D01*
X181954286Y-79480143D01*
X181840000Y-79594429D01*
X181782857Y-79708715D01*
X181782857Y-80565858D02*
X181782857Y-81251572D01*
X182982857Y-80908715D02*
X181782857Y-80908715D01*
X182982857Y-82223001D02*
X182982857Y-81651572D01*
X181782857Y-81651572D01*
X181782857Y-82851573D02*
X181782857Y-83080144D01*
X181840000Y-83194430D01*
X181954286Y-83308716D01*
X182182857Y-83365858D01*
X182582857Y-83365858D01*
X182811429Y-83308716D01*
X182925714Y-83194430D01*
X182982857Y-83080144D01*
X182982857Y-82851573D01*
X182925714Y-82737287D01*
X182811429Y-82623001D01*
X182582857Y-82565858D01*
X182182857Y-82565858D01*
X181954286Y-82623001D01*
X181840000Y-82737287D01*
X181782857Y-82851573D01*
X182640000Y-83823001D02*
X182640000Y-84394430D01*
X182982857Y-83708716D02*
X181782857Y-84108716D01*
X182982857Y-84508716D01*
X182982857Y-84908715D02*
X181782857Y-84908715D01*
X181782857Y-85194430D01*
X181840000Y-85365858D01*
X181954286Y-85480144D01*
X182068571Y-85537287D01*
X182297143Y-85594430D01*
X182468571Y-85594430D01*
X182697143Y-85537287D01*
X182811429Y-85480144D01*
X182925714Y-85365858D01*
X182982857Y-85194430D01*
X182982857Y-84908715D01*
X182354286Y-86108715D02*
X182354286Y-86508715D01*
X182982857Y-86680144D02*
X182982857Y-86108715D01*
X181782857Y-86108715D01*
X181782857Y-86680144D01*
X182982857Y-87880144D02*
X182411429Y-87480144D01*
X182982857Y-87194429D02*
X181782857Y-87194429D01*
X181782857Y-87651572D01*
X181840000Y-87765858D01*
X181897143Y-87823001D01*
X182011429Y-87880144D01*
X182182857Y-87880144D01*
X182297143Y-87823001D01*
X182354286Y-87765858D01*
X182411429Y-87651572D01*
X182411429Y-87194429D01*
D13*
X177800000Y-95250000D02*
X178308000Y-95250000D01*
X177800000Y-90297000D02*
X177800000Y-95250000D01*
X178308000Y-90297000D02*
X177800000Y-90297000D01*
D11*
X177396714Y-87262286D02*
X177453857Y-87433715D01*
X177453857Y-87719429D01*
X177396714Y-87833715D01*
X177339571Y-87890858D01*
X177225286Y-87948001D01*
X177111000Y-87948001D01*
X176996714Y-87890858D01*
X176939571Y-87833715D01*
X176882429Y-87719429D01*
X176825286Y-87490858D01*
X176768143Y-87376572D01*
X176711000Y-87319429D01*
X176596714Y-87262286D01*
X176482429Y-87262286D01*
X176368143Y-87319429D01*
X176311000Y-87376572D01*
X176253857Y-87490858D01*
X176253857Y-87776572D01*
X176311000Y-87948001D01*
X177111000Y-88405143D02*
X177111000Y-88976572D01*
X177453857Y-88290858D02*
X176253857Y-88690858D01*
X177453857Y-89090858D01*
X176825286Y-89890857D02*
X176825286Y-89490857D01*
X177453857Y-89490857D02*
X176253857Y-89490857D01*
X176253857Y-90062286D01*
X176825286Y-90519428D02*
X176825286Y-90919428D01*
X177453857Y-91090857D02*
X177453857Y-90519428D01*
X176253857Y-90519428D01*
X176253857Y-91090857D01*
X176825286Y-92919428D02*
X176882429Y-93090857D01*
X176939571Y-93148000D01*
X177053857Y-93205143D01*
X177225286Y-93205143D01*
X177339571Y-93148000D01*
X177396714Y-93090857D01*
X177453857Y-92976571D01*
X177453857Y-92519428D01*
X176253857Y-92519428D01*
X176253857Y-92919428D01*
X176311000Y-93033714D01*
X176368143Y-93090857D01*
X176482429Y-93148000D01*
X176596714Y-93148000D01*
X176711000Y-93090857D01*
X176768143Y-93033714D01*
X176825286Y-92919428D01*
X176825286Y-92519428D01*
X176253857Y-93948000D02*
X176253857Y-94176571D01*
X176311000Y-94290857D01*
X176425286Y-94405143D01*
X176653857Y-94462285D01*
X177053857Y-94462285D01*
X177282429Y-94405143D01*
X177396714Y-94290857D01*
X177453857Y-94176571D01*
X177453857Y-93948000D01*
X177396714Y-93833714D01*
X177282429Y-93719428D01*
X177053857Y-93662285D01*
X176653857Y-93662285D01*
X176425286Y-93719428D01*
X176311000Y-93833714D01*
X176253857Y-93948000D01*
X176253857Y-95205143D02*
X176253857Y-95433714D01*
X176311000Y-95548000D01*
X176425286Y-95662286D01*
X176653857Y-95719428D01*
X177053857Y-95719428D01*
X177282429Y-95662286D01*
X177396714Y-95548000D01*
X177453857Y-95433714D01*
X177453857Y-95205143D01*
X177396714Y-95090857D01*
X177282429Y-94976571D01*
X177053857Y-94919428D01*
X176653857Y-94919428D01*
X176425286Y-94976571D01*
X176311000Y-95090857D01*
X176253857Y-95205143D01*
X176253857Y-96062286D02*
X176253857Y-96748000D01*
X177453857Y-96405143D02*
X176253857Y-96405143D01*
X110763929Y-63694285D02*
X112263929Y-63694285D01*
X112121071Y-63051428D02*
X112192500Y-62979999D01*
X112263929Y-62837142D01*
X112263929Y-62479999D01*
X112192500Y-62337142D01*
X112121071Y-62265713D01*
X111978214Y-62194285D01*
X111835357Y-62194285D01*
X111621071Y-62265713D01*
X110763929Y-63122856D01*
X110763929Y-62194285D01*
X110906786Y-60694285D02*
X110835357Y-60765714D01*
X110763929Y-60980000D01*
X110763929Y-61122857D01*
X110835357Y-61337142D01*
X110978214Y-61480000D01*
X111121071Y-61551428D01*
X111406786Y-61622857D01*
X111621071Y-61622857D01*
X111906786Y-61551428D01*
X112049643Y-61480000D01*
X112192500Y-61337142D01*
X112263929Y-61122857D01*
X112263929Y-60980000D01*
X112192500Y-60765714D01*
X112121071Y-60694285D01*
X154785572Y-62059429D02*
X154285572Y-62773714D01*
X153928429Y-62059429D02*
X153928429Y-63559429D01*
X154499857Y-63559429D01*
X154642715Y-63488000D01*
X154714143Y-63416571D01*
X154785572Y-63273714D01*
X154785572Y-63059429D01*
X154714143Y-62916571D01*
X154642715Y-62845143D01*
X154499857Y-62773714D01*
X153928429Y-62773714D01*
X155428429Y-62845143D02*
X155928429Y-62845143D01*
X156142715Y-62059429D02*
X155428429Y-62059429D01*
X155428429Y-63559429D01*
X156142715Y-63559429D01*
X157499858Y-62059429D02*
X156785572Y-62059429D01*
X156785572Y-63559429D01*
X157928429Y-62488000D02*
X158642715Y-62488000D01*
X157785572Y-62059429D02*
X158285572Y-63559429D01*
X158785572Y-62059429D01*
X159571286Y-62773714D02*
X159571286Y-62059429D01*
X159071286Y-63559429D02*
X159571286Y-62773714D01*
X160071286Y-63559429D01*
X160499857Y-62130857D02*
X160714143Y-62059429D01*
X161071286Y-62059429D01*
X161214143Y-62130857D01*
X161285572Y-62202286D01*
X161357000Y-62345143D01*
X161357000Y-62488000D01*
X161285572Y-62630857D01*
X161214143Y-62702286D01*
X161071286Y-62773714D01*
X160785572Y-62845143D01*
X160642714Y-62916571D01*
X160571286Y-62988000D01*
X160499857Y-63130857D01*
X160499857Y-63273714D01*
X160571286Y-63416571D01*
X160642714Y-63488000D01*
X160785572Y-63559429D01*
X161142714Y-63559429D01*
X161357000Y-63488000D01*
X169628572Y-62186429D02*
X168914286Y-62186429D01*
X168914286Y-63686429D01*
X170128572Y-62186429D02*
X170128572Y-63686429D01*
X170628572Y-62615000D01*
X171128572Y-63686429D01*
X171128572Y-62186429D01*
X171700001Y-63686429D02*
X172628572Y-63686429D01*
X172128572Y-63115000D01*
X172342858Y-63115000D01*
X172485715Y-63043571D01*
X172557144Y-62972143D01*
X172628572Y-62829286D01*
X172628572Y-62472143D01*
X172557144Y-62329286D01*
X172485715Y-62257857D01*
X172342858Y-62186429D01*
X171914286Y-62186429D01*
X171771429Y-62257857D01*
X171700001Y-62329286D01*
X173985715Y-63686429D02*
X173271429Y-63686429D01*
X173200000Y-62972143D01*
X173271429Y-63043571D01*
X173414286Y-63115000D01*
X173771429Y-63115000D01*
X173914286Y-63043571D01*
X173985715Y-62972143D01*
X174057143Y-62829286D01*
X174057143Y-62472143D01*
X173985715Y-62329286D01*
X173914286Y-62257857D01*
X173771429Y-62186429D01*
X173414286Y-62186429D01*
X173271429Y-62257857D01*
X173200000Y-62329286D01*
X168953571Y-97345715D02*
X168953571Y-96631429D01*
X167453571Y-96631429D01*
X167453571Y-98131429D02*
X167453571Y-98417143D01*
X167525000Y-98560001D01*
X167667857Y-98702858D01*
X167953571Y-98774286D01*
X168453571Y-98774286D01*
X168739286Y-98702858D01*
X168882143Y-98560001D01*
X168953571Y-98417143D01*
X168953571Y-98131429D01*
X168882143Y-97988572D01*
X168739286Y-97845715D01*
X168453571Y-97774286D01*
X167953571Y-97774286D01*
X167667857Y-97845715D01*
X167525000Y-97988572D01*
X167453571Y-98131429D01*
X168953571Y-99417144D02*
X167453571Y-99417144D01*
X167453571Y-99988572D01*
X167525000Y-100131430D01*
X167596429Y-100202858D01*
X167739286Y-100274287D01*
X167953571Y-100274287D01*
X168096429Y-100202858D01*
X168167857Y-100131430D01*
X168239286Y-99988572D01*
X168239286Y-99417144D01*
X168239286Y-101202858D02*
X168953571Y-101202858D01*
X167453571Y-100702858D02*
X168239286Y-101202858D01*
X167453571Y-101702858D01*
X137584571Y-93060287D02*
X136084571Y-93060287D01*
X137156000Y-93560287D01*
X136084571Y-94060287D01*
X137584571Y-94060287D01*
X137584571Y-94774573D02*
X136084571Y-94774573D01*
X137584571Y-95631716D02*
X136727429Y-94988859D01*
X136084571Y-95631716D02*
X136941714Y-94774573D01*
X137584571Y-97131716D02*
X136870286Y-96631716D01*
X137584571Y-96274573D02*
X136084571Y-96274573D01*
X136084571Y-96846001D01*
X136156000Y-96988859D01*
X136227429Y-97060287D01*
X136370286Y-97131716D01*
X136584571Y-97131716D01*
X136727429Y-97060287D01*
X136798857Y-96988859D01*
X136870286Y-96846001D01*
X136870286Y-96274573D01*
X136084571Y-98774573D02*
X137584571Y-99131716D01*
X136513143Y-99417430D01*
X137584571Y-99703144D01*
X136084571Y-100060287D01*
X137156000Y-100560287D02*
X137156000Y-101274573D01*
X137584571Y-100417430D02*
X136084571Y-100917430D01*
X137584571Y-101417430D01*
X137584571Y-101917430D02*
X136084571Y-101917430D01*
X137584571Y-102774573D01*
X136084571Y-102774573D01*
X137584571Y-105417430D02*
X137584571Y-104560287D01*
X137584571Y-104988859D02*
X136084571Y-104988859D01*
X136298857Y-104846002D01*
X136441714Y-104703144D01*
X136513143Y-104560287D01*
X136084571Y-105917430D02*
X136084571Y-106846001D01*
X136656000Y-106346001D01*
X136656000Y-106560287D01*
X136727429Y-106703144D01*
X136798857Y-106774573D01*
X136941714Y-106846001D01*
X137298857Y-106846001D01*
X137441714Y-106774573D01*
X137513143Y-106703144D01*
X137584571Y-106560287D01*
X137584571Y-106131715D01*
X137513143Y-105988858D01*
X137441714Y-105917430D01*
X136084571Y-107774572D02*
X136084571Y-107917429D01*
X136156000Y-108060286D01*
X136227429Y-108131715D01*
X136370286Y-108203144D01*
X136656000Y-108274572D01*
X137013143Y-108274572D01*
X137298857Y-108203144D01*
X137441714Y-108131715D01*
X137513143Y-108060286D01*
X137584571Y-107917429D01*
X137584571Y-107774572D01*
X137513143Y-107631715D01*
X137441714Y-107560286D01*
X137298857Y-107488858D01*
X137013143Y-107417429D01*
X136656000Y-107417429D01*
X136370286Y-107488858D01*
X136227429Y-107560286D01*
X136156000Y-107631715D01*
X136084571Y-107774572D01*
X136084571Y-109203143D02*
X136084571Y-109346000D01*
X136156000Y-109488857D01*
X136227429Y-109560286D01*
X136370286Y-109631715D01*
X136656000Y-109703143D01*
X137013143Y-109703143D01*
X137298857Y-109631715D01*
X137441714Y-109560286D01*
X137513143Y-109488857D01*
X137584571Y-109346000D01*
X137584571Y-109203143D01*
X137513143Y-109060286D01*
X137441714Y-108988857D01*
X137298857Y-108917429D01*
X137013143Y-108846000D01*
X136656000Y-108846000D01*
X136370286Y-108917429D01*
X136227429Y-108988857D01*
X136156000Y-109060286D01*
X136084571Y-109203143D01*
X184320571Y-98580000D02*
X182820571Y-98580000D01*
X182820571Y-99151428D01*
X182892000Y-99294286D01*
X182963429Y-99365714D01*
X183106286Y-99437143D01*
X183320571Y-99437143D01*
X183463429Y-99365714D01*
X183534857Y-99294286D01*
X183606286Y-99151428D01*
X183606286Y-98580000D01*
X182820571Y-100365714D02*
X182820571Y-100651428D01*
X182892000Y-100794286D01*
X183034857Y-100937143D01*
X183320571Y-101008571D01*
X183820571Y-101008571D01*
X184106286Y-100937143D01*
X184249143Y-100794286D01*
X184320571Y-100651428D01*
X184320571Y-100365714D01*
X184249143Y-100222857D01*
X184106286Y-100080000D01*
X183820571Y-100008571D01*
X183320571Y-100008571D01*
X183034857Y-100080000D01*
X182892000Y-100222857D01*
X182820571Y-100365714D01*
X182820571Y-101437143D02*
X182820571Y-102294286D01*
X184320571Y-101865715D02*
X182820571Y-101865715D01*
X180915571Y-118471428D02*
X180915571Y-118757142D01*
X180987000Y-118900000D01*
X181129857Y-119042857D01*
X181415571Y-119114285D01*
X181915571Y-119114285D01*
X182201286Y-119042857D01*
X182344143Y-118900000D01*
X182415571Y-118757142D01*
X182415571Y-118471428D01*
X182344143Y-118328571D01*
X182201286Y-118185714D01*
X181915571Y-118114285D01*
X181415571Y-118114285D01*
X181129857Y-118185714D01*
X180987000Y-118328571D01*
X180915571Y-118471428D01*
X182415571Y-120471429D02*
X182415571Y-119757143D01*
X180915571Y-119757143D01*
X181629857Y-120971429D02*
X181629857Y-121471429D01*
X182415571Y-121685715D02*
X182415571Y-120971429D01*
X180915571Y-120971429D01*
X180915571Y-121685715D01*
X182415571Y-122328572D02*
X180915571Y-122328572D01*
X180915571Y-122685715D01*
X180987000Y-122900000D01*
X181129857Y-123042858D01*
X181272714Y-123114286D01*
X181558429Y-123185715D01*
X181772714Y-123185715D01*
X182058429Y-123114286D01*
X182201286Y-123042858D01*
X182344143Y-122900000D01*
X182415571Y-122685715D01*
X182415571Y-122328572D01*
X189186357Y-82725072D02*
X189257786Y-82939358D01*
X189329214Y-83010786D01*
X189472071Y-83082215D01*
X189686357Y-83082215D01*
X189829214Y-83010786D01*
X189900643Y-82939358D01*
X189972071Y-82796500D01*
X189972071Y-82225072D01*
X188472071Y-82225072D01*
X188472071Y-82725072D01*
X188543500Y-82867929D01*
X188614929Y-82939358D01*
X188757786Y-83010786D01*
X188900643Y-83010786D01*
X189043500Y-82939358D01*
X189114929Y-82867929D01*
X189186357Y-82725072D01*
X189186357Y-82225072D01*
X189972071Y-83725072D02*
X188472071Y-83725072D01*
X189543500Y-84225072D01*
X188472071Y-84725072D01*
X189972071Y-84725072D01*
X189186357Y-85439358D02*
X189186357Y-85939358D01*
X189972071Y-86153644D02*
X189972071Y-85439358D01*
X188472071Y-85439358D01*
X188472071Y-86153644D01*
X188614929Y-86725072D02*
X188543500Y-86796501D01*
X188472071Y-86939358D01*
X188472071Y-87296501D01*
X188543500Y-87439358D01*
X188614929Y-87510787D01*
X188757786Y-87582215D01*
X188900643Y-87582215D01*
X189114929Y-87510787D01*
X189972071Y-86653644D01*
X189972071Y-87582215D01*
X189114929Y-88439358D02*
X189043500Y-88296500D01*
X188972071Y-88225072D01*
X188829214Y-88153643D01*
X188757786Y-88153643D01*
X188614929Y-88225072D01*
X188543500Y-88296500D01*
X188472071Y-88439358D01*
X188472071Y-88725072D01*
X188543500Y-88867929D01*
X188614929Y-88939358D01*
X188757786Y-89010786D01*
X188829214Y-89010786D01*
X188972071Y-88939358D01*
X189043500Y-88867929D01*
X189114929Y-88725072D01*
X189114929Y-88439358D01*
X189186357Y-88296500D01*
X189257786Y-88225072D01*
X189400643Y-88153643D01*
X189686357Y-88153643D01*
X189829214Y-88225072D01*
X189900643Y-88296500D01*
X189972071Y-88439358D01*
X189972071Y-88725072D01*
X189900643Y-88867929D01*
X189829214Y-88939358D01*
X189686357Y-89010786D01*
X189400643Y-89010786D01*
X189257786Y-88939358D01*
X189186357Y-88867929D01*
X189114929Y-88725072D01*
X188472071Y-89939357D02*
X188472071Y-90082214D01*
X188543500Y-90225071D01*
X188614929Y-90296500D01*
X188757786Y-90367929D01*
X189043500Y-90439357D01*
X189400643Y-90439357D01*
X189686357Y-90367929D01*
X189829214Y-90296500D01*
X189900643Y-90225071D01*
X189972071Y-90082214D01*
X189972071Y-89939357D01*
X189900643Y-89796500D01*
X189829214Y-89725071D01*
X189686357Y-89653643D01*
X189400643Y-89582214D01*
X189043500Y-89582214D01*
X188757786Y-89653643D01*
X188614929Y-89725071D01*
X188543500Y-89796500D01*
X188472071Y-89939357D01*
X183074571Y-65933143D02*
X184288857Y-65933143D01*
X184431714Y-66004571D01*
X184503143Y-66076000D01*
X184574571Y-66218857D01*
X184574571Y-66504571D01*
X184503143Y-66647429D01*
X184431714Y-66718857D01*
X184288857Y-66790286D01*
X183074571Y-66790286D01*
X184146000Y-67433143D02*
X184146000Y-68147429D01*
X184574571Y-67290286D02*
X183074571Y-67790286D01*
X184574571Y-68290286D01*
X184574571Y-69647429D02*
X183860286Y-69147429D01*
X184574571Y-68790286D02*
X183074571Y-68790286D01*
X183074571Y-69361714D01*
X183146000Y-69504572D01*
X183217429Y-69576000D01*
X183360286Y-69647429D01*
X183574571Y-69647429D01*
X183717429Y-69576000D01*
X183788857Y-69504572D01*
X183860286Y-69361714D01*
X183860286Y-68790286D01*
X183074571Y-70076000D02*
X183074571Y-70933143D01*
X184574571Y-70504572D02*
X183074571Y-70504572D01*
X176208571Y-105593000D02*
X176208571Y-106164429D01*
X175708571Y-105807286D02*
X176994286Y-105807286D01*
X177137143Y-105878714D01*
X177208571Y-106021572D01*
X177208571Y-106164429D01*
X176208571Y-106450143D02*
X176208571Y-107021572D01*
X175708571Y-106664429D02*
X176994286Y-106664429D01*
X177137143Y-106735857D01*
X177208571Y-106878715D01*
X177208571Y-107021572D01*
X176208571Y-107521572D02*
X177208571Y-107521572D01*
X176351429Y-107521572D02*
X176280000Y-107593000D01*
X176208571Y-107735858D01*
X176208571Y-107950143D01*
X176280000Y-108093000D01*
X176422857Y-108164429D01*
X177208571Y-108164429D01*
X177065714Y-108878715D02*
X177137143Y-108950143D01*
X177208571Y-108878715D01*
X177137143Y-108807286D01*
X177065714Y-108878715D01*
X177208571Y-108878715D01*
X177137143Y-110235858D02*
X177208571Y-110093001D01*
X177208571Y-109807287D01*
X177137143Y-109664429D01*
X177065714Y-109593001D01*
X176922857Y-109521572D01*
X176494286Y-109521572D01*
X176351429Y-109593001D01*
X176280000Y-109664429D01*
X176208571Y-109807287D01*
X176208571Y-110093001D01*
X176280000Y-110235858D01*
X177208571Y-111521572D02*
X176422857Y-111521572D01*
X176280000Y-111450143D01*
X176208571Y-111307286D01*
X176208571Y-111021572D01*
X176280000Y-110878715D01*
X177137143Y-111521572D02*
X177208571Y-111378715D01*
X177208571Y-111021572D01*
X177137143Y-110878715D01*
X176994286Y-110807286D01*
X176851429Y-110807286D01*
X176708571Y-110878715D01*
X176637143Y-111021572D01*
X176637143Y-111378715D01*
X176565714Y-111521572D01*
X176208571Y-112021572D02*
X176208571Y-112593001D01*
X175708571Y-112235858D02*
X176994286Y-112235858D01*
X177137143Y-112307286D01*
X177208571Y-112450144D01*
X177208571Y-112593001D01*
D14*
X179070000Y-92710000D02*
X179070000Y-87630000D01*
X179070000Y-87630000D02*
X181610000Y-87630000D01*
X181610000Y-87630000D02*
X181610000Y-92710000D01*
X181890000Y-95530000D02*
X181890000Y-93980000D01*
X181610000Y-92710000D02*
X179070000Y-92710000D01*
X178790000Y-93980000D02*
X178790000Y-95530000D01*
X178790000Y-95530000D02*
X181890000Y-95530000D01*
X179070000Y-83820000D02*
X179070000Y-78740000D01*
X179070000Y-78740000D02*
X181610000Y-78740000D01*
X181610000Y-78740000D02*
X181610000Y-83820000D01*
X181890000Y-86640000D02*
X181890000Y-85090000D01*
X181610000Y-83820000D02*
X179070000Y-83820000D01*
X178790000Y-85090000D02*
X178790000Y-86640000D01*
X178790000Y-86640000D02*
X181890000Y-86640000D01*
X155702000Y-121920000D02*
X163576000Y-121920000D01*
X155702000Y-125730000D02*
X155702000Y-121920000D01*
X163576000Y-125730000D02*
X155702000Y-125730000D01*
X163576000Y-121920000D02*
X163576000Y-125730000D01*
X169164000Y-77216000D02*
X172212000Y-77216000D01*
X169164000Y-78994000D02*
X169164000Y-77216000D01*
X172212000Y-78994000D02*
X169164000Y-78994000D01*
X172212000Y-77216000D02*
X172212000Y-78994000D01*
X171450000Y-78105000D02*
G75*
G03X171450000Y-78105000I-635000J0D01*
G01*
X165735000Y-72390000D02*
X161925000Y-72390000D01*
X165735000Y-76200000D02*
X165735000Y-72390000D01*
X161925000Y-76200000D02*
X165735000Y-76200000D01*
X161925000Y-72390000D02*
X161925000Y-76200000D01*
X165100000Y-74295000D02*
G75*
G03X165100000Y-74295000I-1270000J0D01*
G01*
X172720000Y-71560000D02*
X172720000Y-126560000D01*
X172720000Y-126560000D02*
X154940000Y-126560000D01*
X154940000Y-126560000D02*
X154940000Y-71560000D01*
X154940000Y-71560000D02*
X172720000Y-71560000D01*
D15*
G36*
X188784937Y-104912227D02*
X188798256Y-104927456D01*
X188870613Y-104957711D01*
X188891333Y-104839263D01*
X188928364Y-104669067D01*
X188979709Y-104603374D01*
X189112609Y-104599789D01*
X189226256Y-104701026D01*
X189261570Y-104847323D01*
X189252912Y-104879746D01*
X189244316Y-104970111D01*
X189300278Y-104953226D01*
X189391675Y-104814145D01*
X189370912Y-104634058D01*
X189248321Y-104488875D01*
X189236133Y-104481949D01*
X189046979Y-104431755D01*
X188943023Y-104444458D01*
X188807268Y-104565877D01*
X188746413Y-104749021D01*
X188784937Y-104912227D01*
X188784937Y-104912227D01*
G37*
X188784937Y-104912227D02*
X188798256Y-104927456D01*
X188870613Y-104957711D01*
X188891333Y-104839263D01*
X188928364Y-104669067D01*
X188979709Y-104603374D01*
X189112609Y-104599789D01*
X189226256Y-104701026D01*
X189261570Y-104847323D01*
X189252912Y-104879746D01*
X189244316Y-104970111D01*
X189300278Y-104953226D01*
X189391675Y-104814145D01*
X189370912Y-104634058D01*
X189248321Y-104488875D01*
X189236133Y-104481949D01*
X189046979Y-104431755D01*
X188943023Y-104444458D01*
X188807268Y-104565877D01*
X188746413Y-104749021D01*
X188784937Y-104912227D01*
G36*
X188789546Y-105985469D02*
X188950546Y-106086252D01*
X189142545Y-106185316D01*
X189303088Y-106248765D01*
X189348097Y-106256667D01*
X189356155Y-106181546D01*
X189360565Y-105994359D01*
X189360848Y-105924904D01*
X189360848Y-105593141D01*
X189073418Y-105713237D01*
X189060667Y-105718351D01*
X189060667Y-105875667D01*
X189138685Y-105882379D01*
X189145333Y-105913003D01*
X189083873Y-105999221D01*
X189060667Y-106002667D01*
X188978201Y-105973780D01*
X188976000Y-105965330D01*
X189035329Y-105893044D01*
X189060667Y-105875667D01*
X189060667Y-105718351D01*
X188877624Y-105791770D01*
X188762089Y-105831964D01*
X188753993Y-105833333D01*
X188722760Y-105898777D01*
X188722000Y-105916864D01*
X188789546Y-105985469D01*
X188789546Y-105985469D01*
G37*
X188789546Y-105985469D02*
X188950546Y-106086252D01*
X189142545Y-106185316D01*
X189303088Y-106248765D01*
X189348097Y-106256667D01*
X189356155Y-106181546D01*
X189360565Y-105994359D01*
X189360848Y-105924904D01*
X189360848Y-105593141D01*
X189073418Y-105713237D01*
X189060667Y-105718351D01*
X189060667Y-105875667D01*
X189138685Y-105882379D01*
X189145333Y-105913003D01*
X189083873Y-105999221D01*
X189060667Y-106002667D01*
X188978201Y-105973780D01*
X188976000Y-105965330D01*
X189035329Y-105893044D01*
X189060667Y-105875667D01*
X189060667Y-105718351D01*
X188877624Y-105791770D01*
X188762089Y-105831964D01*
X188753993Y-105833333D01*
X188722760Y-105898777D01*
X188722000Y-105916864D01*
X188789546Y-105985469D01*
G36*
X188743265Y-107256867D02*
X188795555Y-107354774D01*
X188806667Y-107357333D01*
X188888873Y-107292904D01*
X188891333Y-107272667D01*
X188963634Y-107208468D01*
X189098003Y-107188000D01*
X189277276Y-107156782D01*
X189357000Y-107103333D01*
X189323915Y-107043370D01*
X189159190Y-107018707D01*
X189150330Y-107018667D01*
X188946503Y-106982280D01*
X188891333Y-106891667D01*
X188845616Y-106778995D01*
X188806667Y-106764667D01*
X188750704Y-106839095D01*
X188722731Y-107022110D01*
X188722000Y-107061000D01*
X188743265Y-107256867D01*
X188743265Y-107256867D01*
G37*
X188743265Y-107256867D02*
X188795555Y-107354774D01*
X188806667Y-107357333D01*
X188888873Y-107292904D01*
X188891333Y-107272667D01*
X188963634Y-107208468D01*
X189098003Y-107188000D01*
X189277276Y-107156782D01*
X189357000Y-107103333D01*
X189323915Y-107043370D01*
X189159190Y-107018707D01*
X189150330Y-107018667D01*
X188946503Y-106982280D01*
X188891333Y-106891667D01*
X188845616Y-106778995D01*
X188806667Y-106764667D01*
X188750704Y-106839095D01*
X188722731Y-107022110D01*
X188722000Y-107061000D01*
X188743265Y-107256867D01*
G36*
X188836621Y-108300598D02*
X189015209Y-108399419D01*
X189062591Y-108417219D01*
X189360848Y-108520478D01*
X189360848Y-107887521D01*
X189062591Y-107990781D01*
X189060667Y-107991711D01*
X189060667Y-108161667D01*
X189138685Y-108168379D01*
X189145333Y-108199003D01*
X189083873Y-108285221D01*
X189060667Y-108288667D01*
X188978201Y-108259780D01*
X188976000Y-108251330D01*
X189035329Y-108179044D01*
X189060667Y-108161667D01*
X189060667Y-107991711D01*
X188868459Y-108084641D01*
X188768120Y-108185221D01*
X188764333Y-108204000D01*
X188836621Y-108300598D01*
X188836621Y-108300598D01*
G37*
X188836621Y-108300598D02*
X189015209Y-108399419D01*
X189062591Y-108417219D01*
X189360848Y-108520478D01*
X189360848Y-107887521D01*
X189062591Y-107990781D01*
X189060667Y-107991711D01*
X189060667Y-108161667D01*
X189138685Y-108168379D01*
X189145333Y-108199003D01*
X189083873Y-108285221D01*
X189060667Y-108288667D01*
X188978201Y-108259780D01*
X188976000Y-108251330D01*
X189035329Y-108179044D01*
X189060667Y-108161667D01*
X189060667Y-107991711D01*
X188868459Y-108084641D01*
X188768120Y-108185221D01*
X188764333Y-108204000D01*
X188836621Y-108300598D01*
G36*
X188764333Y-109304667D02*
X188881040Y-109370205D01*
X189023330Y-109389333D01*
X189189821Y-109434392D01*
X189230000Y-109516333D01*
X189275717Y-109629005D01*
X189314667Y-109643333D01*
X189378312Y-109570877D01*
X189399333Y-109431667D01*
X189381208Y-109296020D01*
X189295276Y-109235225D01*
X189094203Y-109220127D01*
X189055670Y-109220000D01*
X188841080Y-109237852D01*
X188759290Y-109286103D01*
X188764333Y-109304667D01*
X188764333Y-109304667D01*
G37*
X188764333Y-109304667D02*
X188881040Y-109370205D01*
X189023330Y-109389333D01*
X189189821Y-109434392D01*
X189230000Y-109516333D01*
X189275717Y-109629005D01*
X189314667Y-109643333D01*
X189378312Y-109570877D01*
X189399333Y-109431667D01*
X189381208Y-109296020D01*
X189295276Y-109235225D01*
X189094203Y-109220127D01*
X189055670Y-109220000D01*
X188841080Y-109237852D01*
X188759290Y-109286103D01*
X188764333Y-109304667D01*
G36*
X188795457Y-110465235D02*
X188971003Y-110490000D01*
X189182428Y-110518395D01*
X189268505Y-110584948D01*
X189214490Y-110661714D01*
X189085296Y-110706590D01*
X188843893Y-110765306D01*
X188768492Y-110799065D01*
X188857879Y-110809633D01*
X189018333Y-110804152D01*
X189248224Y-110773289D01*
X189355898Y-110696929D01*
X189381738Y-110613516D01*
X189376074Y-110445279D01*
X189346460Y-110380682D01*
X189225465Y-110334679D01*
X189036021Y-110321567D01*
X188848318Y-110338575D01*
X188732551Y-110382933D01*
X188722000Y-110405333D01*
X188795457Y-110465235D01*
X188795457Y-110465235D01*
G37*
X188795457Y-110465235D02*
X188971003Y-110490000D01*
X189182428Y-110518395D01*
X189268505Y-110584948D01*
X189214490Y-110661714D01*
X189085296Y-110706590D01*
X188843893Y-110765306D01*
X188768492Y-110799065D01*
X188857879Y-110809633D01*
X189018333Y-110804152D01*
X189248224Y-110773289D01*
X189355898Y-110696929D01*
X189381738Y-110613516D01*
X189376074Y-110445279D01*
X189346460Y-110380682D01*
X189225465Y-110334679D01*
X189036021Y-110321567D01*
X188848318Y-110338575D01*
X188732551Y-110382933D01*
X188722000Y-110405333D01*
X188795457Y-110465235D01*
G36*
X188876919Y-112155924D02*
X189082091Y-112183004D01*
X189107997Y-112183333D01*
X189326215Y-112145352D01*
X189399318Y-112050889D01*
X189318099Y-111929159D01*
X189208833Y-111863335D01*
X189018333Y-111771460D01*
X189208833Y-111765730D01*
X189370641Y-111733522D01*
X189392706Y-111672420D01*
X189293359Y-111614246D01*
X189107997Y-111590667D01*
X188863710Y-111618436D01*
X188770467Y-111693327D01*
X188835069Y-111802712D01*
X188952321Y-111879590D01*
X189187667Y-112007220D01*
X188949836Y-112010610D01*
X188793301Y-112037848D01*
X188764333Y-112098667D01*
X188876919Y-112155924D01*
X188876919Y-112155924D01*
G37*
X188876919Y-112155924D02*
X189082091Y-112183004D01*
X189107997Y-112183333D01*
X189326215Y-112145352D01*
X189399318Y-112050889D01*
X189318099Y-111929159D01*
X189208833Y-111863335D01*
X189018333Y-111771460D01*
X189208833Y-111765730D01*
X189370641Y-111733522D01*
X189392706Y-111672420D01*
X189293359Y-111614246D01*
X189107997Y-111590667D01*
X188863710Y-111618436D01*
X188770467Y-111693327D01*
X188835069Y-111802712D01*
X188952321Y-111879590D01*
X189187667Y-112007220D01*
X188949836Y-112010610D01*
X188793301Y-112037848D01*
X188764333Y-112098667D01*
X188876919Y-112155924D01*
G36*
X188765352Y-113363758D02*
X188822836Y-113365974D01*
X188975823Y-113324120D01*
X189018333Y-113284000D01*
X189137753Y-113212874D01*
X189234997Y-113199333D01*
X189369841Y-113162914D01*
X189399333Y-113114667D01*
X189327033Y-113050468D01*
X189192663Y-113030000D01*
X189013390Y-112998782D01*
X188933667Y-112945333D01*
X188811102Y-112863657D01*
X188783527Y-112860667D01*
X188755853Y-112907397D01*
X188827212Y-113002164D01*
X188922205Y-113118319D01*
X188888765Y-113200897D01*
X188824188Y-113253472D01*
X188725823Y-113338282D01*
X188765352Y-113363758D01*
X188765352Y-113363758D01*
G37*
X188765352Y-113363758D02*
X188822836Y-113365974D01*
X188975823Y-113324120D01*
X189018333Y-113284000D01*
X189137753Y-113212874D01*
X189234997Y-113199333D01*
X189369841Y-113162914D01*
X189399333Y-113114667D01*
X189327033Y-113050468D01*
X189192663Y-113030000D01*
X189013390Y-112998782D01*
X188933667Y-112945333D01*
X188811102Y-112863657D01*
X188783527Y-112860667D01*
X188755853Y-112907397D01*
X188827212Y-113002164D01*
X188922205Y-113118319D01*
X188888765Y-113200897D01*
X188824188Y-113253472D01*
X188725823Y-113338282D01*
X188765352Y-113363758D01*
G36*
X188836621Y-114396598D02*
X189015209Y-114495419D01*
X189062591Y-114513219D01*
X189360848Y-114616478D01*
X189360848Y-113983521D01*
X189062591Y-114086781D01*
X189055670Y-114090127D01*
X189055670Y-114215333D01*
X189141888Y-114276794D01*
X189145333Y-114300000D01*
X189116446Y-114382465D01*
X189107997Y-114384667D01*
X189035711Y-114325338D01*
X189018333Y-114300000D01*
X189025046Y-114221981D01*
X189055670Y-114215333D01*
X189055670Y-114090127D01*
X188868459Y-114180641D01*
X188768120Y-114281221D01*
X188764333Y-114300000D01*
X188836621Y-114396598D01*
X188836621Y-114396598D01*
G37*
X188836621Y-114396598D02*
X189015209Y-114495419D01*
X189062591Y-114513219D01*
X189360848Y-114616478D01*
X189360848Y-113983521D01*
X189062591Y-114086781D01*
X189055670Y-114090127D01*
X189055670Y-114215333D01*
X189141888Y-114276794D01*
X189145333Y-114300000D01*
X189116446Y-114382465D01*
X189107997Y-114384667D01*
X189035711Y-114325338D01*
X189018333Y-114300000D01*
X189025046Y-114221981D01*
X189055670Y-114215333D01*
X189055670Y-114090127D01*
X188868459Y-114180641D01*
X188768120Y-114281221D01*
X188764333Y-114300000D01*
X188836621Y-114396598D01*
G36*
X187798343Y-104684484D02*
X187896500Y-104745666D01*
X188087000Y-104849289D01*
X187875333Y-104909538D01*
X187761259Y-104948534D01*
X187789320Y-104968459D01*
X187972906Y-104978005D01*
X187981167Y-104978227D01*
X188196867Y-104956414D01*
X188296283Y-104892309D01*
X188259123Y-104809213D01*
X188169178Y-104762329D01*
X188089290Y-104709925D01*
X188146459Y-104632817D01*
X188190345Y-104598346D01*
X188269822Y-104524338D01*
X188229273Y-104490941D01*
X188045041Y-104481567D01*
X188023500Y-104481359D01*
X187791194Y-104505672D01*
X187714467Y-104576867D01*
X187798343Y-104684484D01*
X187798343Y-104684484D01*
G37*
X187798343Y-104684484D02*
X187896500Y-104745666D01*
X188087000Y-104849289D01*
X187875333Y-104909538D01*
X187761259Y-104948534D01*
X187789320Y-104968459D01*
X187972906Y-104978005D01*
X187981167Y-104978227D01*
X188196867Y-104956414D01*
X188296283Y-104892309D01*
X188259123Y-104809213D01*
X188169178Y-104762329D01*
X188089290Y-104709925D01*
X188146459Y-104632817D01*
X188190345Y-104598346D01*
X188269822Y-104524338D01*
X188229273Y-104490941D01*
X188045041Y-104481567D01*
X188023500Y-104481359D01*
X187791194Y-104505672D01*
X187714467Y-104576867D01*
X187798343Y-104684484D01*
G36*
X187732298Y-106448233D02*
X187761162Y-106416447D01*
X187764363Y-106404833D01*
X187831128Y-106279329D01*
X187875333Y-106256667D01*
X187954736Y-106326324D01*
X187986304Y-106404833D01*
X188018482Y-106509180D01*
X188031747Y-106449056D01*
X188034845Y-106404833D01*
X188080418Y-106278925D01*
X188123125Y-106256667D01*
X188207837Y-106326409D01*
X188240304Y-106404833D01*
X188270088Y-106452211D01*
X188287948Y-106338928D01*
X188288845Y-106320167D01*
X188277570Y-106163694D01*
X188192816Y-106099386D01*
X188002333Y-106087333D01*
X187803779Y-106101378D01*
X187724831Y-106170102D01*
X187715821Y-106320167D01*
X187732298Y-106448233D01*
X187732298Y-106448233D01*
G37*
X187732298Y-106448233D02*
X187761162Y-106416447D01*
X187764363Y-106404833D01*
X187831128Y-106279329D01*
X187875333Y-106256667D01*
X187954736Y-106326324D01*
X187986304Y-106404833D01*
X188018482Y-106509180D01*
X188031747Y-106449056D01*
X188034845Y-106404833D01*
X188080418Y-106278925D01*
X188123125Y-106256667D01*
X188207837Y-106326409D01*
X188240304Y-106404833D01*
X188270088Y-106452211D01*
X188287948Y-106338928D01*
X188288845Y-106320167D01*
X188277570Y-106163694D01*
X188192816Y-106099386D01*
X188002333Y-106087333D01*
X187803779Y-106101378D01*
X187724831Y-106170102D01*
X187715821Y-106320167D01*
X187732298Y-106448233D01*
G36*
X187729495Y-107922619D02*
X187750782Y-107987090D01*
X187762073Y-107971167D01*
X187868791Y-107894977D01*
X188051722Y-107865333D01*
X188226990Y-107840165D01*
X188298667Y-107780667D01*
X188225238Y-107720653D01*
X188050875Y-107696000D01*
X187835317Y-107647032D01*
X187764363Y-107547833D01*
X187740379Y-107527438D01*
X187724979Y-107648623D01*
X187722505Y-107738333D01*
X187729495Y-107922619D01*
X187729495Y-107922619D01*
G37*
X187729495Y-107922619D02*
X187750782Y-107987090D01*
X187762073Y-107971167D01*
X187868791Y-107894977D01*
X188051722Y-107865333D01*
X188226990Y-107840165D01*
X188298667Y-107780667D01*
X188225238Y-107720653D01*
X188050875Y-107696000D01*
X187835317Y-107647032D01*
X187764363Y-107547833D01*
X187740379Y-107527438D01*
X187724979Y-107648623D01*
X187722505Y-107738333D01*
X187729495Y-107922619D01*
G36*
X187778599Y-109535776D02*
X187896500Y-109564397D01*
X188087000Y-109570127D01*
X187896500Y-109662002D01*
X187733212Y-109767483D01*
X187726962Y-109832283D01*
X187866468Y-109834238D01*
X187971499Y-109809369D01*
X188165897Y-109745800D01*
X188274234Y-109695791D01*
X188276310Y-109693912D01*
X188284033Y-109599302D01*
X188178209Y-109508133D01*
X188018503Y-109465560D01*
X187896716Y-109455435D01*
X187930024Y-109431388D01*
X188038389Y-109399725D01*
X188208468Y-109318340D01*
X188278278Y-109238831D01*
X188292435Y-109143455D01*
X188283996Y-109135333D01*
X188191550Y-109114408D01*
X188004337Y-109063352D01*
X187980608Y-109056577D01*
X187776635Y-109021878D01*
X187711040Y-109058487D01*
X187795759Y-109145858D01*
X187896500Y-109201331D01*
X188087000Y-109293206D01*
X187896500Y-109298936D01*
X187743612Y-109351934D01*
X187706000Y-109431667D01*
X187778599Y-109535776D01*
X187778599Y-109535776D01*
G37*
X187778599Y-109535776D02*
X187896500Y-109564397D01*
X188087000Y-109570127D01*
X187896500Y-109662002D01*
X187733212Y-109767483D01*
X187726962Y-109832283D01*
X187866468Y-109834238D01*
X187971499Y-109809369D01*
X188165897Y-109745800D01*
X188274234Y-109695791D01*
X188276310Y-109693912D01*
X188284033Y-109599302D01*
X188178209Y-109508133D01*
X188018503Y-109465560D01*
X187896716Y-109455435D01*
X187930024Y-109431388D01*
X188038389Y-109399725D01*
X188208468Y-109318340D01*
X188278278Y-109238831D01*
X188292435Y-109143455D01*
X188283996Y-109135333D01*
X188191550Y-109114408D01*
X188004337Y-109063352D01*
X187980608Y-109056577D01*
X187776635Y-109021878D01*
X187711040Y-109058487D01*
X187795759Y-109145858D01*
X187896500Y-109201331D01*
X188087000Y-109293206D01*
X187896500Y-109298936D01*
X187743612Y-109351934D01*
X187706000Y-109431667D01*
X187778599Y-109535776D01*
G36*
X187768900Y-111376234D02*
X187921960Y-111482080D01*
X188111721Y-111460083D01*
X188175729Y-111417961D01*
X188280902Y-111250602D01*
X188287302Y-111055723D01*
X188199511Y-110905509D01*
X188141261Y-110874786D01*
X187991947Y-110865744D01*
X187991947Y-111017708D01*
X188140346Y-111054919D01*
X188213803Y-111160730D01*
X188214000Y-111167333D01*
X188146047Y-111271879D01*
X188081309Y-111308233D01*
X187924802Y-111311807D01*
X187823276Y-111227605D01*
X187825636Y-111106289D01*
X187852709Y-111071424D01*
X187991947Y-111017708D01*
X187991947Y-110865744D01*
X187900552Y-110860209D01*
X187748194Y-110981384D01*
X187706000Y-111170686D01*
X187768900Y-111376234D01*
X187768900Y-111376234D01*
G37*
X187768900Y-111376234D02*
X187921960Y-111482080D01*
X188111721Y-111460083D01*
X188175729Y-111417961D01*
X188280902Y-111250602D01*
X188287302Y-111055723D01*
X188199511Y-110905509D01*
X188141261Y-110874786D01*
X187991947Y-110865744D01*
X187991947Y-111017708D01*
X188140346Y-111054919D01*
X188213803Y-111160730D01*
X188214000Y-111167333D01*
X188146047Y-111271879D01*
X188081309Y-111308233D01*
X187924802Y-111311807D01*
X187823276Y-111227605D01*
X187825636Y-111106289D01*
X187852709Y-111071424D01*
X187991947Y-111017708D01*
X187991947Y-110865744D01*
X187900552Y-110860209D01*
X187748194Y-110981384D01*
X187706000Y-111170686D01*
X187768900Y-111376234D01*
G36*
X187721537Y-112744970D02*
X187721543Y-112745017D01*
X187771832Y-112905443D01*
X187906546Y-112974693D01*
X188023500Y-112989173D01*
X188233844Y-112990717D01*
X188286347Y-112943846D01*
X188188094Y-112838519D01*
X188150500Y-112809193D01*
X188048662Y-112722763D01*
X188084228Y-112696575D01*
X188150500Y-112694026D01*
X188289654Y-112665827D01*
X188295818Y-112608403D01*
X188194985Y-112550827D01*
X188013145Y-112522172D01*
X187996709Y-112522000D01*
X187875333Y-112529556D01*
X187875333Y-112691333D01*
X187945023Y-112722311D01*
X187931778Y-112747778D01*
X187831298Y-112757911D01*
X187818889Y-112747778D01*
X187830511Y-112697443D01*
X187875333Y-112691333D01*
X187875333Y-112529556D01*
X187797029Y-112534432D01*
X187720534Y-112596413D01*
X187721537Y-112744970D01*
X187721537Y-112744970D01*
G37*
X187721537Y-112744970D02*
X187721543Y-112745017D01*
X187771832Y-112905443D01*
X187906546Y-112974693D01*
X188023500Y-112989173D01*
X188233844Y-112990717D01*
X188286347Y-112943846D01*
X188188094Y-112838519D01*
X188150500Y-112809193D01*
X188048662Y-112722763D01*
X188084228Y-112696575D01*
X188150500Y-112694026D01*
X188289654Y-112665827D01*
X188295818Y-112608403D01*
X188194985Y-112550827D01*
X188013145Y-112522172D01*
X187996709Y-112522000D01*
X187875333Y-112529556D01*
X187875333Y-112691333D01*
X187945023Y-112722311D01*
X187931778Y-112747778D01*
X187831298Y-112757911D01*
X187818889Y-112747778D01*
X187830511Y-112697443D01*
X187875333Y-112691333D01*
X187875333Y-112529556D01*
X187797029Y-112534432D01*
X187720534Y-112596413D01*
X187721537Y-112744970D01*
G36*
X187772436Y-114210074D02*
X187807600Y-114215333D01*
X187866504Y-114240324D01*
X187807600Y-114316933D01*
X187717582Y-114443426D01*
X187720968Y-114514841D01*
X187809888Y-114487116D01*
X187834588Y-114468015D01*
X187956250Y-114409977D01*
X188088002Y-114475908D01*
X188130921Y-114513104D01*
X188253415Y-114606212D01*
X188296516Y-114576609D01*
X188298667Y-114541722D01*
X188242814Y-114375960D01*
X188197067Y-114316933D01*
X188138162Y-114233038D01*
X188197067Y-114215333D01*
X188292356Y-114159970D01*
X188298667Y-114130667D01*
X188224238Y-114074704D01*
X188041223Y-114046731D01*
X188002333Y-114046000D01*
X187806466Y-114067265D01*
X187708559Y-114119555D01*
X187706000Y-114130667D01*
X187772436Y-114210074D01*
X187772436Y-114210074D01*
G37*
X187772436Y-114210074D02*
X187807600Y-114215333D01*
X187866504Y-114240324D01*
X187807600Y-114316933D01*
X187717582Y-114443426D01*
X187720968Y-114514841D01*
X187809888Y-114487116D01*
X187834588Y-114468015D01*
X187956250Y-114409977D01*
X188088002Y-114475908D01*
X188130921Y-114513104D01*
X188253415Y-114606212D01*
X188296516Y-114576609D01*
X188298667Y-114541722D01*
X188242814Y-114375960D01*
X188197067Y-114316933D01*
X188138162Y-114233038D01*
X188197067Y-114215333D01*
X188292356Y-114159970D01*
X188298667Y-114130667D01*
X188224238Y-114074704D01*
X188041223Y-114046731D01*
X188002333Y-114046000D01*
X187806466Y-114067265D01*
X187708559Y-114119555D01*
X187706000Y-114130667D01*
X187772436Y-114210074D01*
G36*
X185916934Y-105808476D02*
X186055000Y-105833333D01*
X186217885Y-105892616D01*
X186282302Y-106027573D01*
X186245017Y-106173864D01*
X186102800Y-106267150D01*
X186077031Y-106271945D01*
X185915741Y-106351394D01*
X185859157Y-106447167D01*
X185864592Y-106527173D01*
X185942083Y-106572129D01*
X186125812Y-106591623D01*
X186387458Y-106595333D01*
X186687318Y-106590170D01*
X186855204Y-106567128D01*
X186928349Y-106514880D01*
X186944000Y-106426000D01*
X186894391Y-106293215D01*
X186732333Y-106256667D01*
X186571211Y-106221697D01*
X186521560Y-106084007D01*
X186520667Y-106045000D01*
X186556310Y-105883193D01*
X186693346Y-105833934D01*
X186723275Y-105833333D01*
X186898860Y-105786043D01*
X186974618Y-105706333D01*
X186973746Y-105638797D01*
X186886516Y-105599856D01*
X186682914Y-105582467D01*
X186433343Y-105579333D01*
X186112161Y-105586859D01*
X185928653Y-105613910D01*
X185851644Y-105667197D01*
X185843333Y-105706333D01*
X185916934Y-105808476D01*
X185916934Y-105808476D01*
G37*
X185916934Y-105808476D02*
X186055000Y-105833333D01*
X186217885Y-105892616D01*
X186282302Y-106027573D01*
X186245017Y-106173864D01*
X186102800Y-106267150D01*
X186077031Y-106271945D01*
X185915741Y-106351394D01*
X185859157Y-106447167D01*
X185864592Y-106527173D01*
X185942083Y-106572129D01*
X186125812Y-106591623D01*
X186387458Y-106595333D01*
X186687318Y-106590170D01*
X186855204Y-106567128D01*
X186928349Y-106514880D01*
X186944000Y-106426000D01*
X186894391Y-106293215D01*
X186732333Y-106256667D01*
X186571211Y-106221697D01*
X186521560Y-106084007D01*
X186520667Y-106045000D01*
X186556310Y-105883193D01*
X186693346Y-105833934D01*
X186723275Y-105833333D01*
X186898860Y-105786043D01*
X186974618Y-105706333D01*
X186973746Y-105638797D01*
X186886516Y-105599856D01*
X186682914Y-105582467D01*
X186433343Y-105579333D01*
X186112161Y-105586859D01*
X185928653Y-105613910D01*
X185851644Y-105667197D01*
X185843333Y-105706333D01*
X185916934Y-105808476D01*
G36*
X185874120Y-109319770D02*
X185928343Y-109383691D01*
X185966293Y-109389333D01*
X186072589Y-109316222D01*
X186097333Y-109177667D01*
X186109928Y-109055033D01*
X186175737Y-108992032D01*
X186336799Y-108968958D01*
X186548889Y-108966000D01*
X186824897Y-108953938D01*
X186964723Y-108911787D01*
X187000444Y-108839000D01*
X186957083Y-108760924D01*
X186805822Y-108721651D01*
X186554777Y-108712000D01*
X186291839Y-108704018D01*
X186153474Y-108668128D01*
X186095218Y-108586411D01*
X186082055Y-108521500D01*
X186036482Y-108351395D01*
X185979085Y-108330412D01*
X185921977Y-108440038D01*
X185877272Y-108661762D01*
X185860460Y-108860167D01*
X185853794Y-109156772D01*
X185874120Y-109319770D01*
X185874120Y-109319770D01*
G37*
X185874120Y-109319770D02*
X185928343Y-109383691D01*
X185966293Y-109389333D01*
X186072589Y-109316222D01*
X186097333Y-109177667D01*
X186109928Y-109055033D01*
X186175737Y-108992032D01*
X186336799Y-108968958D01*
X186548889Y-108966000D01*
X186824897Y-108953938D01*
X186964723Y-108911787D01*
X187000444Y-108839000D01*
X186957083Y-108760924D01*
X186805822Y-108721651D01*
X186554777Y-108712000D01*
X186291839Y-108704018D01*
X186153474Y-108668128D01*
X186095218Y-108586411D01*
X186082055Y-108521500D01*
X186036482Y-108351395D01*
X185979085Y-108330412D01*
X185921977Y-108440038D01*
X185877272Y-108661762D01*
X185860460Y-108860167D01*
X185853794Y-109156772D01*
X185874120Y-109319770D01*
G36*
X185880524Y-110434748D02*
X186013209Y-110474351D01*
X186273058Y-110489240D01*
X186384608Y-110490000D01*
X186708431Y-110478108D01*
X186894879Y-110438045D01*
X186974529Y-110363230D01*
X186974618Y-110363000D01*
X186966990Y-110270561D01*
X186828039Y-110237134D01*
X186772009Y-110236000D01*
X186591710Y-110212643D01*
X186526314Y-110113761D01*
X186520667Y-110024333D01*
X186555636Y-109863211D01*
X186693326Y-109813560D01*
X186732333Y-109812667D01*
X186897610Y-109773652D01*
X186944000Y-109639293D01*
X186929137Y-109545076D01*
X186858950Y-109496288D01*
X186695044Y-109482161D01*
X186415683Y-109491126D01*
X186113016Y-109515006D01*
X185942936Y-109557868D01*
X185868867Y-109631109D01*
X185859142Y-109664500D01*
X185883056Y-109777924D01*
X186035889Y-109812582D01*
X186048792Y-109812667D01*
X186213042Y-109845373D01*
X186265252Y-109975861D01*
X186266667Y-110024333D01*
X186231697Y-110185455D01*
X186094007Y-110235106D01*
X186055000Y-110236000D01*
X185884761Y-110280160D01*
X185843333Y-110363000D01*
X185880524Y-110434748D01*
X185880524Y-110434748D01*
G37*
X185880524Y-110434748D02*
X186013209Y-110474351D01*
X186273058Y-110489240D01*
X186384608Y-110490000D01*
X186708431Y-110478108D01*
X186894879Y-110438045D01*
X186974529Y-110363230D01*
X186974618Y-110363000D01*
X186966990Y-110270561D01*
X186828039Y-110237134D01*
X186772009Y-110236000D01*
X186591710Y-110212643D01*
X186526314Y-110113761D01*
X186520667Y-110024333D01*
X186555636Y-109863211D01*
X186693326Y-109813560D01*
X186732333Y-109812667D01*
X186897610Y-109773652D01*
X186944000Y-109639293D01*
X186929137Y-109545076D01*
X186858950Y-109496288D01*
X186695044Y-109482161D01*
X186415683Y-109491126D01*
X186113016Y-109515006D01*
X185942936Y-109557868D01*
X185868867Y-109631109D01*
X185859142Y-109664500D01*
X185883056Y-109777924D01*
X186035889Y-109812582D01*
X186048792Y-109812667D01*
X186213042Y-109845373D01*
X186265252Y-109975861D01*
X186266667Y-110024333D01*
X186231697Y-110185455D01*
X186094007Y-110235106D01*
X186055000Y-110236000D01*
X185884761Y-110280160D01*
X185843333Y-110363000D01*
X185880524Y-110434748D01*
G36*
X185878780Y-111025386D02*
X186005988Y-111064920D01*
X186256262Y-111081141D01*
X186421889Y-111082667D01*
X186739499Y-111074886D01*
X186919600Y-111046962D01*
X186993496Y-110992024D01*
X187000444Y-110955667D01*
X186964998Y-110885947D01*
X186837789Y-110846413D01*
X186587516Y-110830192D01*
X186421889Y-110828667D01*
X186104278Y-110836447D01*
X185924177Y-110864371D01*
X185850281Y-110919309D01*
X185843333Y-110955667D01*
X185878780Y-111025386D01*
X185878780Y-111025386D01*
G37*
X185878780Y-111025386D02*
X186005988Y-111064920D01*
X186256262Y-111081141D01*
X186421889Y-111082667D01*
X186739499Y-111074886D01*
X186919600Y-111046962D01*
X186993496Y-110992024D01*
X187000444Y-110955667D01*
X186964998Y-110885947D01*
X186837789Y-110846413D01*
X186587516Y-110830192D01*
X186421889Y-110828667D01*
X186104278Y-110836447D01*
X185924177Y-110864371D01*
X185850281Y-110919309D01*
X185843333Y-110955667D01*
X185878780Y-111025386D01*
G36*
X185859676Y-113261112D02*
X185903778Y-113471948D01*
X185978698Y-113595111D01*
X185993431Y-113602655D01*
X186071527Y-113566129D01*
X186082684Y-113395110D01*
X186099977Y-113127914D01*
X186216258Y-112986037D01*
X186443654Y-112945333D01*
X186670197Y-113001501D01*
X186765712Y-113156996D01*
X186735345Y-113347500D01*
X186681877Y-113449548D01*
X186616887Y-113410554D01*
X186569748Y-113348816D01*
X186453781Y-113251903D01*
X186377196Y-113313574D01*
X186351333Y-113509778D01*
X186377377Y-113645616D01*
X186488277Y-113699814D01*
X186637792Y-113707333D01*
X186850131Y-113680582D01*
X186953530Y-113579710D01*
X186975302Y-113516833D01*
X187022606Y-113215968D01*
X186961674Y-112990059D01*
X186820848Y-112814485D01*
X186557621Y-112644735D01*
X186291273Y-112621207D01*
X186060328Y-112726000D01*
X185903307Y-112941215D01*
X185858732Y-113248953D01*
X185859676Y-113261112D01*
X185859676Y-113261112D01*
G37*
X185859676Y-113261112D02*
X185903778Y-113471948D01*
X185978698Y-113595111D01*
X185993431Y-113602655D01*
X186071527Y-113566129D01*
X186082684Y-113395110D01*
X186099977Y-113127914D01*
X186216258Y-112986037D01*
X186443654Y-112945333D01*
X186670197Y-113001501D01*
X186765712Y-113156996D01*
X186735345Y-113347500D01*
X186681877Y-113449548D01*
X186616887Y-113410554D01*
X186569748Y-113348816D01*
X186453781Y-113251903D01*
X186377196Y-113313574D01*
X186351333Y-113509778D01*
X186377377Y-113645616D01*
X186488277Y-113699814D01*
X186637792Y-113707333D01*
X186850131Y-113680582D01*
X186953530Y-113579710D01*
X186975302Y-113516833D01*
X187022606Y-113215968D01*
X186961674Y-112990059D01*
X186820848Y-112814485D01*
X186557621Y-112644735D01*
X186291273Y-112621207D01*
X186060328Y-112726000D01*
X185903307Y-112941215D01*
X185858732Y-113248953D01*
X185859676Y-113261112D01*
G36*
X185909502Y-114638569D02*
X185991500Y-114702206D01*
X186072099Y-114658500D01*
X186097333Y-114476389D01*
X186125907Y-114272450D01*
X186193722Y-114226644D01*
X186273918Y-114342703D01*
X186306534Y-114447318D01*
X186423193Y-114696438D01*
X186596035Y-114801851D01*
X186798455Y-114753277D01*
X186895619Y-114674952D01*
X187005354Y-114458552D01*
X187006905Y-114182678D01*
X186972593Y-114067167D01*
X186883099Y-113956316D01*
X186794958Y-113982907D01*
X186750467Y-114120069D01*
X186755135Y-114205307D01*
X186754277Y-114424107D01*
X186688861Y-114497054D01*
X186591971Y-114416642D01*
X186520924Y-114258446D01*
X186430776Y-114055652D01*
X186307595Y-113973098D01*
X186177047Y-113961333D01*
X185981880Y-113998388D01*
X185888351Y-114135412D01*
X185879782Y-114166303D01*
X185850772Y-114442838D01*
X185909502Y-114638569D01*
X185909502Y-114638569D01*
G37*
X185909502Y-114638569D02*
X185991500Y-114702206D01*
X186072099Y-114658500D01*
X186097333Y-114476389D01*
X186125907Y-114272450D01*
X186193722Y-114226644D01*
X186273918Y-114342703D01*
X186306534Y-114447318D01*
X186423193Y-114696438D01*
X186596035Y-114801851D01*
X186798455Y-114753277D01*
X186895619Y-114674952D01*
X187005354Y-114458552D01*
X187006905Y-114182678D01*
X186972593Y-114067167D01*
X186883099Y-113956316D01*
X186794958Y-113982907D01*
X186750467Y-114120069D01*
X186755135Y-114205307D01*
X186754277Y-114424107D01*
X186688861Y-114497054D01*
X186591971Y-114416642D01*
X186520924Y-114258446D01*
X186430776Y-114055652D01*
X186307595Y-113973098D01*
X186177047Y-113961333D01*
X185981880Y-113998388D01*
X185888351Y-114135412D01*
X185879782Y-114166303D01*
X185850772Y-114442838D01*
X185909502Y-114638569D01*
G36*
X185853087Y-105196972D02*
X185887662Y-105355342D01*
X185955031Y-105408998D01*
X185970333Y-105410000D01*
X186073761Y-105339414D01*
X186097333Y-105240667D01*
X186119621Y-105139100D01*
X186214224Y-105088444D01*
X186422750Y-105072058D01*
X186520667Y-105071333D01*
X186774584Y-105062418D01*
X186901222Y-105024577D01*
X186942188Y-104941166D01*
X186944000Y-104902000D01*
X186921712Y-104800433D01*
X186827109Y-104749778D01*
X186618583Y-104733391D01*
X186520667Y-104732667D01*
X186266749Y-104723751D01*
X186140111Y-104685910D01*
X186099145Y-104602500D01*
X186097333Y-104563333D01*
X186044394Y-104425429D01*
X185970333Y-104394000D01*
X185896590Y-104433013D01*
X185856998Y-104571314D01*
X185843584Y-104840792D01*
X185843333Y-104902000D01*
X185853087Y-105196972D01*
X185853087Y-105196972D01*
G37*
X185853087Y-105196972D02*
X185887662Y-105355342D01*
X185955031Y-105408998D01*
X185970333Y-105410000D01*
X186073761Y-105339414D01*
X186097333Y-105240667D01*
X186119621Y-105139100D01*
X186214224Y-105088444D01*
X186422750Y-105072058D01*
X186520667Y-105071333D01*
X186774584Y-105062418D01*
X186901222Y-105024577D01*
X186942188Y-104941166D01*
X186944000Y-104902000D01*
X186921712Y-104800433D01*
X186827109Y-104749778D01*
X186618583Y-104733391D01*
X186520667Y-104732667D01*
X186266749Y-104723751D01*
X186140111Y-104685910D01*
X186099145Y-104602500D01*
X186097333Y-104563333D01*
X186044394Y-104425429D01*
X185970333Y-104394000D01*
X185896590Y-104433013D01*
X185856998Y-104571314D01*
X185843584Y-104840792D01*
X185843333Y-104902000D01*
X185853087Y-105196972D01*
G36*
X185859954Y-107481455D02*
X185916467Y-107595841D01*
X185970333Y-107611333D01*
X186072476Y-107537732D01*
X186097333Y-107399667D01*
X186126316Y-107240552D01*
X186182000Y-107188000D01*
X186245646Y-107260456D01*
X186266667Y-107399667D01*
X186310827Y-107569905D01*
X186393667Y-107611333D01*
X186495810Y-107537732D01*
X186520667Y-107399667D01*
X186564827Y-107229428D01*
X186647667Y-107188000D01*
X186748493Y-107263728D01*
X186774667Y-107442000D01*
X186799191Y-107620342D01*
X186858280Y-107695980D01*
X186859333Y-107696000D01*
X186907631Y-107619853D01*
X186938286Y-107425158D01*
X186944000Y-107272667D01*
X186944000Y-106849333D01*
X185843333Y-106849333D01*
X185843333Y-107230333D01*
X185859954Y-107481455D01*
X185859954Y-107481455D01*
G37*
X185859954Y-107481455D02*
X185916467Y-107595841D01*
X185970333Y-107611333D01*
X186072476Y-107537732D01*
X186097333Y-107399667D01*
X186126316Y-107240552D01*
X186182000Y-107188000D01*
X186245646Y-107260456D01*
X186266667Y-107399667D01*
X186310827Y-107569905D01*
X186393667Y-107611333D01*
X186495810Y-107537732D01*
X186520667Y-107399667D01*
X186564827Y-107229428D01*
X186647667Y-107188000D01*
X186748493Y-107263728D01*
X186774667Y-107442000D01*
X186799191Y-107620342D01*
X186858280Y-107695980D01*
X186859333Y-107696000D01*
X186907631Y-107619853D01*
X186938286Y-107425158D01*
X186944000Y-107272667D01*
X186944000Y-106849333D01*
X185843333Y-106849333D01*
X185843333Y-107230333D01*
X185859954Y-107481455D01*
G36*
X185921352Y-111716631D02*
X186137548Y-111872653D01*
X186203167Y-111907400D01*
X186563000Y-112088162D01*
X186196958Y-112093414D01*
X185965567Y-112109325D01*
X185866079Y-112158767D01*
X185858292Y-112240812D01*
X185912210Y-112354892D01*
X185949167Y-112367812D01*
X186063291Y-112359404D01*
X186289228Y-112353905D01*
X186478333Y-112352667D01*
X186749750Y-112344264D01*
X186891039Y-112310535D01*
X186940941Y-112238697D01*
X186944000Y-112199014D01*
X186868502Y-112055061D01*
X186667147Y-111904812D01*
X186626500Y-111883068D01*
X186309000Y-111720774D01*
X186626500Y-111692943D01*
X186862179Y-111641398D01*
X186943994Y-111544237D01*
X186944000Y-111543222D01*
X186902519Y-111474119D01*
X186758435Y-111435823D01*
X186482285Y-111421809D01*
X186393667Y-111421333D01*
X186093575Y-111427529D01*
X185926213Y-111452839D01*
X185855216Y-111507352D01*
X185843333Y-111573986D01*
X185921352Y-111716631D01*
X185921352Y-111716631D01*
G37*
X185921352Y-111716631D02*
X186137548Y-111872653D01*
X186203167Y-111907400D01*
X186563000Y-112088162D01*
X186196958Y-112093414D01*
X185965567Y-112109325D01*
X185866079Y-112158767D01*
X185858292Y-112240812D01*
X185912210Y-112354892D01*
X185949167Y-112367812D01*
X186063291Y-112359404D01*
X186289228Y-112353905D01*
X186478333Y-112352667D01*
X186749750Y-112344264D01*
X186891039Y-112310535D01*
X186940941Y-112238697D01*
X186944000Y-112199014D01*
X186868502Y-112055061D01*
X186667147Y-111904812D01*
X186626500Y-111883068D01*
X186309000Y-111720774D01*
X186626500Y-111692943D01*
X186862179Y-111641398D01*
X186943994Y-111544237D01*
X186944000Y-111543222D01*
X186902519Y-111474119D01*
X186758435Y-111435823D01*
X186482285Y-111421809D01*
X186393667Y-111421333D01*
X186093575Y-111427529D01*
X185926213Y-111452839D01*
X185855216Y-111507352D01*
X185843333Y-111573986D01*
X185921352Y-111716631D01*
G36*
X178939373Y-110395050D02*
X179077195Y-110887809D01*
X179322108Y-111327980D01*
X179653561Y-111683312D01*
X180050998Y-111921552D01*
X180270782Y-111987238D01*
X180390725Y-112018440D01*
X180454792Y-112078110D01*
X180474913Y-112206899D01*
X180463018Y-112445454D01*
X180450412Y-112599291D01*
X180442246Y-113035460D01*
X180516685Y-113372325D01*
X180695037Y-113668428D01*
X180930738Y-113919000D01*
X181086125Y-114052597D01*
X181236707Y-114129396D01*
X181437165Y-114165389D01*
X181742180Y-114176568D01*
X181813523Y-114177186D01*
X182169699Y-114190103D01*
X182409846Y-114230706D01*
X182586502Y-114310581D01*
X182661541Y-114364197D01*
X182872060Y-114507085D01*
X183059154Y-114599413D01*
X183063676Y-114600885D01*
X183357094Y-114622867D01*
X183694859Y-114545339D01*
X184000008Y-114386934D01*
X184024671Y-114368226D01*
X184208383Y-114190741D01*
X184338581Y-113973511D01*
X184423251Y-113686423D01*
X184470379Y-113299364D01*
X184487952Y-112782220D01*
X184488667Y-112618793D01*
X184490877Y-112189883D01*
X184500213Y-111902953D01*
X184520735Y-111730679D01*
X184556499Y-111645735D01*
X184611566Y-111620796D01*
X184636833Y-111621241D01*
X184750881Y-111578088D01*
X184758171Y-111476337D01*
X184770758Y-111370783D01*
X184815575Y-111371733D01*
X184900709Y-111348156D01*
X184969424Y-111188045D01*
X185011511Y-110924085D01*
X185019757Y-110718117D01*
X185033678Y-110520382D01*
X185074058Y-110482217D01*
X185091582Y-110503684D01*
X185137154Y-110513527D01*
X185155431Y-110365478D01*
X185154882Y-110278333D01*
X185142257Y-110101474D01*
X185120392Y-110051510D01*
X185109909Y-110076036D01*
X185010646Y-110210914D01*
X184860956Y-110309230D01*
X184724515Y-110406255D01*
X184702857Y-110494083D01*
X184698791Y-110619115D01*
X184614461Y-110801414D01*
X184608178Y-110811223D01*
X184529355Y-110951282D01*
X184558271Y-110962922D01*
X184579713Y-110947643D01*
X184764942Y-110832552D01*
X184901817Y-110794296D01*
X184950302Y-110841418D01*
X184942948Y-110870138D01*
X184834531Y-110971332D01*
X184650188Y-111042049D01*
X184531000Y-111084996D01*
X184531000Y-111421333D01*
X184573333Y-111463667D01*
X184531000Y-111506000D01*
X184488667Y-111463667D01*
X184531000Y-111421333D01*
X184531000Y-111084996D01*
X184489990Y-111099774D01*
X184444536Y-111164226D01*
X184445711Y-111166327D01*
X184411948Y-111204677D01*
X184298283Y-111194426D01*
X184173667Y-111176479D01*
X184196508Y-111220523D01*
X184234667Y-111251503D01*
X184294869Y-111314190D01*
X184219782Y-111317261D01*
X184121739Y-111297788D01*
X183954939Y-111281019D01*
X183938333Y-111336667D01*
X183920931Y-111392483D01*
X183754927Y-111375545D01*
X183604879Y-111351421D01*
X183601710Y-111382569D01*
X183642000Y-111414367D01*
X183689821Y-111468854D01*
X183599622Y-111474631D01*
X183472667Y-111456420D01*
X183291907Y-111434895D01*
X183258744Y-111459648D01*
X183303333Y-111498753D01*
X183351395Y-111553453D01*
X183261770Y-111559397D01*
X183134000Y-111541087D01*
X182952574Y-111519143D01*
X182917201Y-111543335D01*
X182964667Y-111586679D01*
X183010897Y-111642345D01*
X182925453Y-111654087D01*
X182753000Y-111635231D01*
X182561184Y-111616218D01*
X182529017Y-111634754D01*
X182583667Y-111664163D01*
X182643174Y-111707382D01*
X182554562Y-111723046D01*
X182357829Y-111716726D01*
X182202667Y-111699486D01*
X182202667Y-111760000D01*
X182272357Y-111790978D01*
X182259111Y-111816444D01*
X182158631Y-111826577D01*
X182146222Y-111816444D01*
X182157844Y-111766110D01*
X182202667Y-111760000D01*
X182202667Y-111699486D01*
X182026435Y-111679903D01*
X181846156Y-111611622D01*
X181800408Y-111503916D01*
X181813237Y-111455102D01*
X181814498Y-111351232D01*
X181784602Y-111336667D01*
X181744807Y-111268583D01*
X181758263Y-111154094D01*
X181768413Y-111026669D01*
X181709278Y-111031303D01*
X181649483Y-111023351D01*
X181656429Y-110874092D01*
X181664191Y-110832875D01*
X181679252Y-110654900D01*
X181645425Y-110575041D01*
X181641750Y-110574716D01*
X181613922Y-110495914D01*
X181595796Y-110282475D01*
X181589196Y-109968911D01*
X181593575Y-109664549D01*
X181609210Y-109145663D01*
X181623902Y-108769675D01*
X181640489Y-108510191D01*
X181661810Y-108340816D01*
X181690706Y-108235157D01*
X181730014Y-108166821D01*
X181758167Y-108134452D01*
X181848898Y-108007976D01*
X181864000Y-107959793D01*
X181798394Y-107837736D01*
X181637610Y-107678610D01*
X181435698Y-107525379D01*
X181246708Y-107421003D01*
X181159307Y-107399667D01*
X181017530Y-107356403D01*
X180951530Y-107198340D01*
X180943816Y-107145667D01*
X180916840Y-106984390D01*
X180883510Y-106976630D01*
X180843933Y-107061000D01*
X180789855Y-107159670D01*
X180769284Y-107098131D01*
X180828647Y-106922498D01*
X180979668Y-106742392D01*
X181161159Y-106620603D01*
X181253465Y-106601284D01*
X181338865Y-106616171D01*
X181271955Y-106661031D01*
X181229000Y-106680000D01*
X181131519Y-106738622D01*
X181186667Y-106761290D01*
X181257664Y-106783894D01*
X181179273Y-106847946D01*
X181163719Y-106857111D01*
X181062651Y-106959101D01*
X181061811Y-107022136D01*
X181162513Y-107046211D01*
X181269782Y-106999986D01*
X181376053Y-106891074D01*
X181379775Y-106819305D01*
X181386578Y-106781030D01*
X181440411Y-106806842D01*
X181505168Y-106882212D01*
X181429244Y-106968090D01*
X181340066Y-107087263D01*
X181366220Y-107237459D01*
X181517367Y-107436526D01*
X181803166Y-107702314D01*
X181846549Y-107739185D01*
X182329667Y-108146917D01*
X181866892Y-107667458D01*
X181618290Y-107399204D01*
X181495080Y-107243450D01*
X181493924Y-107202683D01*
X181611486Y-107279393D01*
X181844426Y-107476069D01*
X181970553Y-107590167D01*
X182186374Y-107782304D01*
X182292913Y-107859693D01*
X182300024Y-107827918D01*
X182256494Y-107752154D01*
X182155618Y-107547564D01*
X182177876Y-107451748D01*
X182321998Y-107469703D01*
X182327732Y-107471875D01*
X182437303Y-107584704D01*
X182511300Y-107778668D01*
X182575615Y-107957614D01*
X182659855Y-108034606D01*
X182662037Y-108034667D01*
X182816099Y-108000246D01*
X183005345Y-107919450D01*
X183161691Y-107825975D01*
X183218006Y-107759500D01*
X183194452Y-107704561D01*
X183098847Y-107719443D01*
X182896513Y-107811061D01*
X182854629Y-107831943D01*
X182679568Y-107917372D01*
X182638541Y-107921340D01*
X182714266Y-107838398D01*
X182753000Y-107799888D01*
X182964544Y-107656069D01*
X183176333Y-107576706D01*
X183334751Y-107550725D01*
X183347426Y-107578961D01*
X183303333Y-107615609D01*
X183247708Y-107674141D01*
X183329595Y-107677667D01*
X183430333Y-107660062D01*
X183561698Y-107640142D01*
X183575086Y-107663733D01*
X183459832Y-107746350D01*
X183304725Y-107842822D01*
X183094749Y-107980834D01*
X183020556Y-108060906D01*
X183066932Y-108101739D01*
X183089837Y-108106939D01*
X183238216Y-108092542D01*
X183286001Y-108044331D01*
X183385215Y-107956314D01*
X183416222Y-107952817D01*
X183429782Y-107999349D01*
X183330608Y-108108982D01*
X183315120Y-108122150D01*
X183196648Y-108244349D01*
X183207332Y-108286664D01*
X183322740Y-108240516D01*
X183435318Y-108164359D01*
X183603725Y-108060285D01*
X183688086Y-108047452D01*
X183661948Y-108117466D01*
X183569120Y-108206817D01*
X183450292Y-108325194D01*
X183471724Y-108371437D01*
X183499573Y-108373333D01*
X183663750Y-108317176D01*
X183756905Y-108246333D01*
X183895879Y-108133657D01*
X183950339Y-108149019D01*
X183930626Y-108235887D01*
X183964769Y-108334999D01*
X184106797Y-108408262D01*
X184295325Y-108434341D01*
X184431041Y-108409819D01*
X184559631Y-108411829D01*
X184625856Y-108488404D01*
X184580805Y-108580197D01*
X184574714Y-108584146D01*
X184494072Y-108708198D01*
X184491483Y-108738163D01*
X184537832Y-108754123D01*
X184646578Y-108656189D01*
X184656063Y-108644991D01*
X184817826Y-108450981D01*
X184782903Y-108771991D01*
X184771382Y-108936367D01*
X184783843Y-108968753D01*
X184794767Y-108940148D01*
X184867594Y-108814514D01*
X184952477Y-108843348D01*
X185039419Y-109013228D01*
X185118421Y-109310729D01*
X185134497Y-109396250D01*
X185181807Y-109625271D01*
X185213943Y-109704981D01*
X185229727Y-109654823D01*
X185227982Y-109494241D01*
X185207530Y-109242678D01*
X185167194Y-108919577D01*
X185164493Y-108900919D01*
X185096027Y-108560240D01*
X184992576Y-108341717D01*
X184851602Y-108221436D01*
X184851602Y-108302314D01*
X184898918Y-108322915D01*
X184989812Y-108408165D01*
X184971166Y-108457176D01*
X184959330Y-108458000D01*
X184954333Y-108453804D01*
X184954333Y-108542667D01*
X184996667Y-108585000D01*
X184954333Y-108627333D01*
X184912000Y-108585000D01*
X184954333Y-108542667D01*
X184954333Y-108453804D01*
X184887717Y-108397863D01*
X184861582Y-108360251D01*
X184851602Y-108302314D01*
X184851602Y-108221436D01*
X184824434Y-108198255D01*
X184676359Y-108127048D01*
X184446333Y-108031878D01*
X184471046Y-106423709D01*
X184477158Y-105782311D01*
X184469453Y-105284836D01*
X184442141Y-104906067D01*
X184389437Y-104620784D01*
X184305551Y-104403767D01*
X184277000Y-104362668D01*
X184277000Y-107865333D01*
X184319333Y-107907667D01*
X184277000Y-107950000D01*
X184234667Y-107907667D01*
X184277000Y-107865333D01*
X184277000Y-104362668D01*
X184184698Y-104229798D01*
X184065333Y-104115885D01*
X184065333Y-107780667D01*
X184135023Y-107811645D01*
X184121778Y-107837111D01*
X184021298Y-107847244D01*
X184008889Y-107837111D01*
X184020511Y-107786777D01*
X184065333Y-107780667D01*
X184065333Y-104115885D01*
X184021087Y-104073659D01*
X183911842Y-103987054D01*
X183874310Y-103963923D01*
X183874310Y-107713523D01*
X183837039Y-107753704D01*
X183844754Y-107824842D01*
X184018075Y-107929227D01*
X184239206Y-108022604D01*
X184557315Y-108158730D01*
X184711158Y-108257134D01*
X184701348Y-108318680D01*
X184528498Y-108344233D01*
X184467500Y-108345111D01*
X184312505Y-108336302D01*
X184286341Y-108314624D01*
X184298167Y-108309833D01*
X184383278Y-108241101D01*
X184402914Y-108159212D01*
X184340500Y-108138350D01*
X184212689Y-108130979D01*
X184107667Y-108105735D01*
X184107667Y-108204000D01*
X184150000Y-108246333D01*
X184107667Y-108288667D01*
X184065333Y-108246333D01*
X184107667Y-108204000D01*
X184107667Y-108105735D01*
X184004120Y-108080844D01*
X183773061Y-108007015D01*
X183577776Y-107928561D01*
X183476533Y-107864550D01*
X183472667Y-107854330D01*
X183536432Y-107781867D01*
X183550408Y-107780667D01*
X183691031Y-107756550D01*
X183783242Y-107730346D01*
X183874310Y-107713523D01*
X183874310Y-103963923D01*
X183667217Y-103836291D01*
X183404447Y-103769739D01*
X183167966Y-103759000D01*
X183063289Y-103770555D01*
X183063289Y-107445286D01*
X183076012Y-107445314D01*
X183074456Y-107475508D01*
X182947736Y-107546751D01*
X182888355Y-107573613D01*
X182691163Y-107644895D01*
X182569508Y-107662347D01*
X182559113Y-107657335D01*
X182595964Y-107605336D01*
X182733962Y-107535564D01*
X182910579Y-107473664D01*
X183063289Y-107445286D01*
X183063289Y-103770555D01*
X182789751Y-103800752D01*
X182673330Y-103853915D01*
X182673330Y-107357333D01*
X182786824Y-107377555D01*
X182745803Y-107425582D01*
X182625883Y-107466562D01*
X182511296Y-107472138D01*
X182503880Y-107434104D01*
X182621356Y-107363589D01*
X182673330Y-107357333D01*
X182673330Y-103853915D01*
X182479808Y-103942288D01*
X182254079Y-104155129D01*
X182254079Y-107273311D01*
X182401612Y-107275797D01*
X182456667Y-107305390D01*
X182383471Y-107339230D01*
X182207453Y-107374691D01*
X182207138Y-107374737D01*
X182046416Y-107380673D01*
X181998885Y-107344898D01*
X182000468Y-107342013D01*
X182093505Y-107297540D01*
X182254079Y-107273311D01*
X182254079Y-104155129D01*
X182197979Y-104208027D01*
X182006570Y-104465229D01*
X181853300Y-104667941D01*
X181726286Y-104795213D01*
X181680974Y-104817333D01*
X181494930Y-104885238D01*
X181275240Y-105060328D01*
X181066598Y-105299667D01*
X180918104Y-105550202D01*
X180744550Y-105837017D01*
X180535819Y-106030368D01*
X180512919Y-106043146D01*
X180167283Y-106308306D01*
X179943223Y-106660882D01*
X179848235Y-107063151D01*
X179889817Y-107477388D01*
X180075467Y-107865868D01*
X180135343Y-107942890D01*
X180339675Y-108185724D01*
X180129723Y-108238419D01*
X179791813Y-108401475D01*
X179473755Y-108694991D01*
X179203793Y-109080298D01*
X179010172Y-109518732D01*
X178929196Y-109881957D01*
X178939373Y-110395050D01*
X178939373Y-110395050D01*
G37*
X178939373Y-110395050D02*
X179077195Y-110887809D01*
X179322108Y-111327980D01*
X179653561Y-111683312D01*
X180050998Y-111921552D01*
X180270782Y-111987238D01*
X180390725Y-112018440D01*
X180454792Y-112078110D01*
X180474913Y-112206899D01*
X180463018Y-112445454D01*
X180450412Y-112599291D01*
X180442246Y-113035460D01*
X180516685Y-113372325D01*
X180695037Y-113668428D01*
X180930738Y-113919000D01*
X181086125Y-114052597D01*
X181236707Y-114129396D01*
X181437165Y-114165389D01*
X181742180Y-114176568D01*
X181813523Y-114177186D01*
X182169699Y-114190103D01*
X182409846Y-114230706D01*
X182586502Y-114310581D01*
X182661541Y-114364197D01*
X182872060Y-114507085D01*
X183059154Y-114599413D01*
X183063676Y-114600885D01*
X183357094Y-114622867D01*
X183694859Y-114545339D01*
X184000008Y-114386934D01*
X184024671Y-114368226D01*
X184208383Y-114190741D01*
X184338581Y-113973511D01*
X184423251Y-113686423D01*
X184470379Y-113299364D01*
X184487952Y-112782220D01*
X184488667Y-112618793D01*
X184490877Y-112189883D01*
X184500213Y-111902953D01*
X184520735Y-111730679D01*
X184556499Y-111645735D01*
X184611566Y-111620796D01*
X184636833Y-111621241D01*
X184750881Y-111578088D01*
X184758171Y-111476337D01*
X184770758Y-111370783D01*
X184815575Y-111371733D01*
X184900709Y-111348156D01*
X184969424Y-111188045D01*
X185011511Y-110924085D01*
X185019757Y-110718117D01*
X185033678Y-110520382D01*
X185074058Y-110482217D01*
X185091582Y-110503684D01*
X185137154Y-110513527D01*
X185155431Y-110365478D01*
X185154882Y-110278333D01*
X185142257Y-110101474D01*
X185120392Y-110051510D01*
X185109909Y-110076036D01*
X185010646Y-110210914D01*
X184860956Y-110309230D01*
X184724515Y-110406255D01*
X184702857Y-110494083D01*
X184698791Y-110619115D01*
X184614461Y-110801414D01*
X184608178Y-110811223D01*
X184529355Y-110951282D01*
X184558271Y-110962922D01*
X184579713Y-110947643D01*
X184764942Y-110832552D01*
X184901817Y-110794296D01*
X184950302Y-110841418D01*
X184942948Y-110870138D01*
X184834531Y-110971332D01*
X184650188Y-111042049D01*
X184531000Y-111084996D01*
X184531000Y-111421333D01*
X184573333Y-111463667D01*
X184531000Y-111506000D01*
X184488667Y-111463667D01*
X184531000Y-111421333D01*
X184531000Y-111084996D01*
X184489990Y-111099774D01*
X184444536Y-111164226D01*
X184445711Y-111166327D01*
X184411948Y-111204677D01*
X184298283Y-111194426D01*
X184173667Y-111176479D01*
X184196508Y-111220523D01*
X184234667Y-111251503D01*
X184294869Y-111314190D01*
X184219782Y-111317261D01*
X184121739Y-111297788D01*
X183954939Y-111281019D01*
X183938333Y-111336667D01*
X183920931Y-111392483D01*
X183754927Y-111375545D01*
X183604879Y-111351421D01*
X183601710Y-111382569D01*
X183642000Y-111414367D01*
X183689821Y-111468854D01*
X183599622Y-111474631D01*
X183472667Y-111456420D01*
X183291907Y-111434895D01*
X183258744Y-111459648D01*
X183303333Y-111498753D01*
X183351395Y-111553453D01*
X183261770Y-111559397D01*
X183134000Y-111541087D01*
X182952574Y-111519143D01*
X182917201Y-111543335D01*
X182964667Y-111586679D01*
X183010897Y-111642345D01*
X182925453Y-111654087D01*
X182753000Y-111635231D01*
X182561184Y-111616218D01*
X182529017Y-111634754D01*
X182583667Y-111664163D01*
X182643174Y-111707382D01*
X182554562Y-111723046D01*
X182357829Y-111716726D01*
X182202667Y-111699486D01*
X182202667Y-111760000D01*
X182272357Y-111790978D01*
X182259111Y-111816444D01*
X182158631Y-111826577D01*
X182146222Y-111816444D01*
X182157844Y-111766110D01*
X182202667Y-111760000D01*
X182202667Y-111699486D01*
X182026435Y-111679903D01*
X181846156Y-111611622D01*
X181800408Y-111503916D01*
X181813237Y-111455102D01*
X181814498Y-111351232D01*
X181784602Y-111336667D01*
X181744807Y-111268583D01*
X181758263Y-111154094D01*
X181768413Y-111026669D01*
X181709278Y-111031303D01*
X181649483Y-111023351D01*
X181656429Y-110874092D01*
X181664191Y-110832875D01*
X181679252Y-110654900D01*
X181645425Y-110575041D01*
X181641750Y-110574716D01*
X181613922Y-110495914D01*
X181595796Y-110282475D01*
X181589196Y-109968911D01*
X181593575Y-109664549D01*
X181609210Y-109145663D01*
X181623902Y-108769675D01*
X181640489Y-108510191D01*
X181661810Y-108340816D01*
X181690706Y-108235157D01*
X181730014Y-108166821D01*
X181758167Y-108134452D01*
X181848898Y-108007976D01*
X181864000Y-107959793D01*
X181798394Y-107837736D01*
X181637610Y-107678610D01*
X181435698Y-107525379D01*
X181246708Y-107421003D01*
X181159307Y-107399667D01*
X181017530Y-107356403D01*
X180951530Y-107198340D01*
X180943816Y-107145667D01*
X180916840Y-106984390D01*
X180883510Y-106976630D01*
X180843933Y-107061000D01*
X180789855Y-107159670D01*
X180769284Y-107098131D01*
X180828647Y-106922498D01*
X180979668Y-106742392D01*
X181161159Y-106620603D01*
X181253465Y-106601284D01*
X181338865Y-106616171D01*
X181271955Y-106661031D01*
X181229000Y-106680000D01*
X181131519Y-106738622D01*
X181186667Y-106761290D01*
X181257664Y-106783894D01*
X181179273Y-106847946D01*
X181163719Y-106857111D01*
X181062651Y-106959101D01*
X181061811Y-107022136D01*
X181162513Y-107046211D01*
X181269782Y-106999986D01*
X181376053Y-106891074D01*
X181379775Y-106819305D01*
X181386578Y-106781030D01*
X181440411Y-106806842D01*
X181505168Y-106882212D01*
X181429244Y-106968090D01*
X181340066Y-107087263D01*
X181366220Y-107237459D01*
X181517367Y-107436526D01*
X181803166Y-107702314D01*
X181846549Y-107739185D01*
X182329667Y-108146917D01*
X181866892Y-107667458D01*
X181618290Y-107399204D01*
X181495080Y-107243450D01*
X181493924Y-107202683D01*
X181611486Y-107279393D01*
X181844426Y-107476069D01*
X181970553Y-107590167D01*
X182186374Y-107782304D01*
X182292913Y-107859693D01*
X182300024Y-107827918D01*
X182256494Y-107752154D01*
X182155618Y-107547564D01*
X182177876Y-107451748D01*
X182321998Y-107469703D01*
X182327732Y-107471875D01*
X182437303Y-107584704D01*
X182511300Y-107778668D01*
X182575615Y-107957614D01*
X182659855Y-108034606D01*
X182662037Y-108034667D01*
X182816099Y-108000246D01*
X183005345Y-107919450D01*
X183161691Y-107825975D01*
X183218006Y-107759500D01*
X183194452Y-107704561D01*
X183098847Y-107719443D01*
X182896513Y-107811061D01*
X182854629Y-107831943D01*
X182679568Y-107917372D01*
X182638541Y-107921340D01*
X182714266Y-107838398D01*
X182753000Y-107799888D01*
X182964544Y-107656069D01*
X183176333Y-107576706D01*
X183334751Y-107550725D01*
X183347426Y-107578961D01*
X183303333Y-107615609D01*
X183247708Y-107674141D01*
X183329595Y-107677667D01*
X183430333Y-107660062D01*
X183561698Y-107640142D01*
X183575086Y-107663733D01*
X183459832Y-107746350D01*
X183304725Y-107842822D01*
X183094749Y-107980834D01*
X183020556Y-108060906D01*
X183066932Y-108101739D01*
X183089837Y-108106939D01*
X183238216Y-108092542D01*
X183286001Y-108044331D01*
X183385215Y-107956314D01*
X183416222Y-107952817D01*
X183429782Y-107999349D01*
X183330608Y-108108982D01*
X183315120Y-108122150D01*
X183196648Y-108244349D01*
X183207332Y-108286664D01*
X183322740Y-108240516D01*
X183435318Y-108164359D01*
X183603725Y-108060285D01*
X183688086Y-108047452D01*
X183661948Y-108117466D01*
X183569120Y-108206817D01*
X183450292Y-108325194D01*
X183471724Y-108371437D01*
X183499573Y-108373333D01*
X183663750Y-108317176D01*
X183756905Y-108246333D01*
X183895879Y-108133657D01*
X183950339Y-108149019D01*
X183930626Y-108235887D01*
X183964769Y-108334999D01*
X184106797Y-108408262D01*
X184295325Y-108434341D01*
X184431041Y-108409819D01*
X184559631Y-108411829D01*
X184625856Y-108488404D01*
X184580805Y-108580197D01*
X184574714Y-108584146D01*
X184494072Y-108708198D01*
X184491483Y-108738163D01*
X184537832Y-108754123D01*
X184646578Y-108656189D01*
X184656063Y-108644991D01*
X184817826Y-108450981D01*
X184782903Y-108771991D01*
X184771382Y-108936367D01*
X184783843Y-108968753D01*
X184794767Y-108940148D01*
X184867594Y-108814514D01*
X184952477Y-108843348D01*
X185039419Y-109013228D01*
X185118421Y-109310729D01*
X185134497Y-109396250D01*
X185181807Y-109625271D01*
X185213943Y-109704981D01*
X185229727Y-109654823D01*
X185227982Y-109494241D01*
X185207530Y-109242678D01*
X185167194Y-108919577D01*
X185164493Y-108900919D01*
X185096027Y-108560240D01*
X184992576Y-108341717D01*
X184851602Y-108221436D01*
X184851602Y-108302314D01*
X184898918Y-108322915D01*
X184989812Y-108408165D01*
X184971166Y-108457176D01*
X184959330Y-108458000D01*
X184954333Y-108453804D01*
X184954333Y-108542667D01*
X184996667Y-108585000D01*
X184954333Y-108627333D01*
X184912000Y-108585000D01*
X184954333Y-108542667D01*
X184954333Y-108453804D01*
X184887717Y-108397863D01*
X184861582Y-108360251D01*
X184851602Y-108302314D01*
X184851602Y-108221436D01*
X184824434Y-108198255D01*
X184676359Y-108127048D01*
X184446333Y-108031878D01*
X184471046Y-106423709D01*
X184477158Y-105782311D01*
X184469453Y-105284836D01*
X184442141Y-104906067D01*
X184389437Y-104620784D01*
X184305551Y-104403767D01*
X184277000Y-104362668D01*
X184277000Y-107865333D01*
X184319333Y-107907667D01*
X184277000Y-107950000D01*
X184234667Y-107907667D01*
X184277000Y-107865333D01*
X184277000Y-104362668D01*
X184184698Y-104229798D01*
X184065333Y-104115885D01*
X184065333Y-107780667D01*
X184135023Y-107811645D01*
X184121778Y-107837111D01*
X184021298Y-107847244D01*
X184008889Y-107837111D01*
X184020511Y-107786777D01*
X184065333Y-107780667D01*
X184065333Y-104115885D01*
X184021087Y-104073659D01*
X183911842Y-103987054D01*
X183874310Y-103963923D01*
X183874310Y-107713523D01*
X183837039Y-107753704D01*
X183844754Y-107824842D01*
X184018075Y-107929227D01*
X184239206Y-108022604D01*
X184557315Y-108158730D01*
X184711158Y-108257134D01*
X184701348Y-108318680D01*
X184528498Y-108344233D01*
X184467500Y-108345111D01*
X184312505Y-108336302D01*
X184286341Y-108314624D01*
X184298167Y-108309833D01*
X184383278Y-108241101D01*
X184402914Y-108159212D01*
X184340500Y-108138350D01*
X184212689Y-108130979D01*
X184107667Y-108105735D01*
X184107667Y-108204000D01*
X184150000Y-108246333D01*
X184107667Y-108288667D01*
X184065333Y-108246333D01*
X184107667Y-108204000D01*
X184107667Y-108105735D01*
X184004120Y-108080844D01*
X183773061Y-108007015D01*
X183577776Y-107928561D01*
X183476533Y-107864550D01*
X183472667Y-107854330D01*
X183536432Y-107781867D01*
X183550408Y-107780667D01*
X183691031Y-107756550D01*
X183783242Y-107730346D01*
X183874310Y-107713523D01*
X183874310Y-103963923D01*
X183667217Y-103836291D01*
X183404447Y-103769739D01*
X183167966Y-103759000D01*
X183063289Y-103770555D01*
X183063289Y-107445286D01*
X183076012Y-107445314D01*
X183074456Y-107475508D01*
X182947736Y-107546751D01*
X182888355Y-107573613D01*
X182691163Y-107644895D01*
X182569508Y-107662347D01*
X182559113Y-107657335D01*
X182595964Y-107605336D01*
X182733962Y-107535564D01*
X182910579Y-107473664D01*
X183063289Y-107445286D01*
X183063289Y-103770555D01*
X182789751Y-103800752D01*
X182673330Y-103853915D01*
X182673330Y-107357333D01*
X182786824Y-107377555D01*
X182745803Y-107425582D01*
X182625883Y-107466562D01*
X182511296Y-107472138D01*
X182503880Y-107434104D01*
X182621356Y-107363589D01*
X182673330Y-107357333D01*
X182673330Y-103853915D01*
X182479808Y-103942288D01*
X182254079Y-104155129D01*
X182254079Y-107273311D01*
X182401612Y-107275797D01*
X182456667Y-107305390D01*
X182383471Y-107339230D01*
X182207453Y-107374691D01*
X182207138Y-107374737D01*
X182046416Y-107380673D01*
X181998885Y-107344898D01*
X182000468Y-107342013D01*
X182093505Y-107297540D01*
X182254079Y-107273311D01*
X182254079Y-104155129D01*
X182197979Y-104208027D01*
X182006570Y-104465229D01*
X181853300Y-104667941D01*
X181726286Y-104795213D01*
X181680974Y-104817333D01*
X181494930Y-104885238D01*
X181275240Y-105060328D01*
X181066598Y-105299667D01*
X180918104Y-105550202D01*
X180744550Y-105837017D01*
X180535819Y-106030368D01*
X180512919Y-106043146D01*
X180167283Y-106308306D01*
X179943223Y-106660882D01*
X179848235Y-107063151D01*
X179889817Y-107477388D01*
X180075467Y-107865868D01*
X180135343Y-107942890D01*
X180339675Y-108185724D01*
X180129723Y-108238419D01*
X179791813Y-108401475D01*
X179473755Y-108694991D01*
X179203793Y-109080298D01*
X179010172Y-109518732D01*
X178929196Y-109881957D01*
X178939373Y-110395050D01*
G36*
X184853827Y-109877154D02*
X184876713Y-109896945D01*
X184889555Y-109775359D01*
X184890648Y-109685667D01*
X184882312Y-109521702D01*
X184863190Y-109496827D01*
X184852118Y-109538487D01*
X184838487Y-109759097D01*
X184853827Y-109877154D01*
X184853827Y-109877154D01*
G37*
X184853827Y-109877154D02*
X184876713Y-109896945D01*
X184889555Y-109775359D01*
X184890648Y-109685667D01*
X184882312Y-109521702D01*
X184863190Y-109496827D01*
X184852118Y-109538487D01*
X184838487Y-109759097D01*
X184853827Y-109877154D01*
G36*
X184785000Y-111844667D02*
X184827333Y-111802333D01*
X184785000Y-111760000D01*
X184742667Y-111802333D01*
X184785000Y-111844667D01*
X184785000Y-111844667D01*
G37*
X184785000Y-111844667D02*
X184827333Y-111802333D01*
X184785000Y-111760000D01*
X184742667Y-111802333D01*
X184785000Y-111844667D01*
G36*
X182861899Y-108631053D02*
X183033500Y-108770608D01*
X183197500Y-108880213D01*
X183440987Y-109035449D01*
X183633847Y-109166200D01*
X183705500Y-109220353D01*
X183803951Y-109260156D01*
X183826367Y-109150685D01*
X183822073Y-109116307D01*
X183880134Y-109101880D01*
X184026116Y-109152158D01*
X184155628Y-109239627D01*
X184148395Y-109305658D01*
X184113483Y-109386651D01*
X184189547Y-109470666D01*
X184323242Y-109519836D01*
X184434888Y-109509009D01*
X184569118Y-109518237D01*
X184635139Y-109641570D01*
X184620842Y-109833343D01*
X184559473Y-109978826D01*
X184506461Y-110128260D01*
X184487881Y-110295465D01*
X184500376Y-110431729D01*
X184540593Y-110488345D01*
X184591381Y-110442047D01*
X184643661Y-110271698D01*
X184680480Y-110003464D01*
X184697043Y-109708460D01*
X184688555Y-109457797D01*
X184665224Y-109347000D01*
X184623283Y-109184348D01*
X184631258Y-109114167D01*
X184625880Y-108995167D01*
X184601292Y-108944833D01*
X184541507Y-108926494D01*
X184492391Y-109075450D01*
X184490462Y-109086015D01*
X184422579Y-109275756D01*
X184328715Y-109372166D01*
X184253617Y-109363484D01*
X184265089Y-109323939D01*
X184233733Y-109231809D01*
X184090474Y-109105374D01*
X184018034Y-109058955D01*
X183784773Y-108928446D01*
X183673981Y-108888511D01*
X183667902Y-108934796D01*
X183692418Y-108979082D01*
X183706720Y-109032476D01*
X183624254Y-109001298D01*
X183429782Y-108878142D01*
X183293776Y-108785286D01*
X183121985Y-108696572D01*
X183008260Y-108690769D01*
X183005035Y-108693335D01*
X182977320Y-108693168D01*
X182999370Y-108646967D01*
X183077450Y-108597739D01*
X183220627Y-108656895D01*
X183314152Y-108719703D01*
X183487471Y-108828121D01*
X183594243Y-108867096D01*
X183603258Y-108863630D01*
X183559808Y-108803143D01*
X183420311Y-108683822D01*
X183230489Y-108539436D01*
X183036063Y-108403757D01*
X182882756Y-108310555D01*
X182824824Y-108288667D01*
X182829356Y-108342558D01*
X182890800Y-108431919D01*
X182952674Y-108525965D01*
X182901167Y-108511589D01*
X182808540Y-108503045D01*
X182795333Y-108539534D01*
X182861899Y-108631053D01*
X182861899Y-108631053D01*
G37*
X182861899Y-108631053D02*
X183033500Y-108770608D01*
X183197500Y-108880213D01*
X183440987Y-109035449D01*
X183633847Y-109166200D01*
X183705500Y-109220353D01*
X183803951Y-109260156D01*
X183826367Y-109150685D01*
X183822073Y-109116307D01*
X183880134Y-109101880D01*
X184026116Y-109152158D01*
X184155628Y-109239627D01*
X184148395Y-109305658D01*
X184113483Y-109386651D01*
X184189547Y-109470666D01*
X184323242Y-109519836D01*
X184434888Y-109509009D01*
X184569118Y-109518237D01*
X184635139Y-109641570D01*
X184620842Y-109833343D01*
X184559473Y-109978826D01*
X184506461Y-110128260D01*
X184487881Y-110295465D01*
X184500376Y-110431729D01*
X184540593Y-110488345D01*
X184591381Y-110442047D01*
X184643661Y-110271698D01*
X184680480Y-110003464D01*
X184697043Y-109708460D01*
X184688555Y-109457797D01*
X184665224Y-109347000D01*
X184623283Y-109184348D01*
X184631258Y-109114167D01*
X184625880Y-108995167D01*
X184601292Y-108944833D01*
X184541507Y-108926494D01*
X184492391Y-109075450D01*
X184490462Y-109086015D01*
X184422579Y-109275756D01*
X184328715Y-109372166D01*
X184253617Y-109363484D01*
X184265089Y-109323939D01*
X184233733Y-109231809D01*
X184090474Y-109105374D01*
X184018034Y-109058955D01*
X183784773Y-108928446D01*
X183673981Y-108888511D01*
X183667902Y-108934796D01*
X183692418Y-108979082D01*
X183706720Y-109032476D01*
X183624254Y-109001298D01*
X183429782Y-108878142D01*
X183293776Y-108785286D01*
X183121985Y-108696572D01*
X183008260Y-108690769D01*
X183005035Y-108693335D01*
X182977320Y-108693168D01*
X182999370Y-108646967D01*
X183077450Y-108597739D01*
X183220627Y-108656895D01*
X183314152Y-108719703D01*
X183487471Y-108828121D01*
X183594243Y-108867096D01*
X183603258Y-108863630D01*
X183559808Y-108803143D01*
X183420311Y-108683822D01*
X183230489Y-108539436D01*
X183036063Y-108403757D01*
X182882756Y-108310555D01*
X182824824Y-108288667D01*
X182829356Y-108342558D01*
X182890800Y-108431919D01*
X182952674Y-108525965D01*
X182901167Y-108511589D01*
X182808540Y-108503045D01*
X182795333Y-108539534D01*
X182861899Y-108631053D01*
G36*
X184254253Y-108675142D02*
X184349332Y-108668537D01*
X184448349Y-108595079D01*
X184528128Y-108491184D01*
X184515881Y-108459296D01*
X184380641Y-108501909D01*
X184271087Y-108590036D01*
X184250816Y-108671207D01*
X184254253Y-108675142D01*
X184254253Y-108675142D01*
G37*
X184254253Y-108675142D02*
X184349332Y-108668537D01*
X184448349Y-108595079D01*
X184528128Y-108491184D01*
X184515881Y-108459296D01*
X184380641Y-108501909D01*
X184271087Y-108590036D01*
X184250816Y-108671207D01*
X184254253Y-108675142D01*
G36*
X183571552Y-110088735D02*
X183676289Y-110214833D01*
X183907386Y-110375928D01*
X184171954Y-110385882D01*
X184319333Y-110320667D01*
X184403628Y-110254115D01*
X184340283Y-110235503D01*
X184319333Y-110234722D01*
X184249387Y-110215141D01*
X184329298Y-110151189D01*
X184342281Y-110143555D01*
X184442903Y-110040877D01*
X184443117Y-109976796D01*
X184454939Y-109902585D01*
X184483670Y-109897333D01*
X184555514Y-109826167D01*
X184573333Y-109720944D01*
X184537834Y-109593247D01*
X184482317Y-109574894D01*
X184400987Y-109648011D01*
X184399365Y-109667504D01*
X184369544Y-109779287D01*
X184286329Y-109963916D01*
X184282092Y-109972153D01*
X184209272Y-110152220D01*
X184202793Y-110260014D01*
X184205280Y-110263058D01*
X184206142Y-110308469D01*
X184099756Y-110307888D01*
X183938478Y-110271899D01*
X183774662Y-110211090D01*
X183684333Y-110157722D01*
X183571357Y-110071307D01*
X183571552Y-110088735D01*
X183571552Y-110088735D01*
G37*
X183571552Y-110088735D02*
X183676289Y-110214833D01*
X183907386Y-110375928D01*
X184171954Y-110385882D01*
X184319333Y-110320667D01*
X184403628Y-110254115D01*
X184340283Y-110235503D01*
X184319333Y-110234722D01*
X184249387Y-110215141D01*
X184329298Y-110151189D01*
X184342281Y-110143555D01*
X184442903Y-110040877D01*
X184443117Y-109976796D01*
X184454939Y-109902585D01*
X184483670Y-109897333D01*
X184555514Y-109826167D01*
X184573333Y-109720944D01*
X184537834Y-109593247D01*
X184482317Y-109574894D01*
X184400987Y-109648011D01*
X184399365Y-109667504D01*
X184369544Y-109779287D01*
X184286329Y-109963916D01*
X184282092Y-109972153D01*
X184209272Y-110152220D01*
X184202793Y-110260014D01*
X184205280Y-110263058D01*
X184206142Y-110308469D01*
X184099756Y-110307888D01*
X183938478Y-110271899D01*
X183774662Y-110211090D01*
X183684333Y-110157722D01*
X183571357Y-110071307D01*
X183571552Y-110088735D01*
G36*
X184347555Y-110800444D02*
X184448035Y-110810577D01*
X184460444Y-110800444D01*
X184448822Y-110750110D01*
X184404000Y-110744000D01*
X184334310Y-110774978D01*
X184347555Y-110800444D01*
X184347555Y-110800444D01*
G37*
X184347555Y-110800444D02*
X184448035Y-110810577D01*
X184460444Y-110800444D01*
X184448822Y-110750110D01*
X184404000Y-110744000D01*
X184334310Y-110774978D01*
X184347555Y-110800444D01*
G36*
X184347555Y-108937778D02*
X184397890Y-108926155D01*
X184404000Y-108881333D01*
X184373022Y-108811643D01*
X184347555Y-108824889D01*
X184337422Y-108925368D01*
X184347555Y-108937778D01*
X184347555Y-108937778D01*
G37*
X184347555Y-108937778D02*
X184397890Y-108926155D01*
X184404000Y-108881333D01*
X184373022Y-108811643D01*
X184347555Y-108824889D01*
X184337422Y-108925368D01*
X184347555Y-108937778D01*
G36*
X184255833Y-110658037D02*
X184381344Y-110593473D01*
X184404000Y-110518222D01*
X184375655Y-110435074D01*
X184340500Y-110453737D01*
X184212554Y-110577741D01*
X184192333Y-110593552D01*
X184184044Y-110645933D01*
X184255833Y-110658037D01*
X184255833Y-110658037D01*
G37*
X184255833Y-110658037D02*
X184381344Y-110593473D01*
X184404000Y-110518222D01*
X184375655Y-110435074D01*
X184340500Y-110453737D01*
X184212554Y-110577741D01*
X184192333Y-110593552D01*
X184184044Y-110645933D01*
X184255833Y-110658037D01*
G36*
X184201870Y-109868229D02*
X184234667Y-109855000D01*
X184315437Y-109778918D01*
X184319333Y-109765336D01*
X184253827Y-109728971D01*
X184234667Y-109728000D01*
X184153253Y-109793088D01*
X184150000Y-109817663D01*
X184201870Y-109868229D01*
X184201870Y-109868229D01*
G37*
X184201870Y-109868229D02*
X184234667Y-109855000D01*
X184315437Y-109778918D01*
X184319333Y-109765336D01*
X184253827Y-109728971D01*
X184234667Y-109728000D01*
X184153253Y-109793088D01*
X184150000Y-109817663D01*
X184201870Y-109868229D01*
G36*
X183889014Y-108825779D02*
X183944444Y-108853061D01*
X184108962Y-108902425D01*
X184191691Y-108882372D01*
X184152732Y-108815917D01*
X184012424Y-108759244D01*
X183817968Y-108724262D01*
X183774999Y-108748969D01*
X183889014Y-108825779D01*
X183889014Y-108825779D01*
G37*
X183889014Y-108825779D02*
X183944444Y-108853061D01*
X184108962Y-108902425D01*
X184191691Y-108882372D01*
X184152732Y-108815917D01*
X184012424Y-108759244D01*
X183817968Y-108724262D01*
X183774999Y-108748969D01*
X183889014Y-108825779D01*
G36*
X183769599Y-109474970D02*
X183892030Y-109553308D01*
X183935403Y-109558667D01*
X184013533Y-109623485D01*
X184002572Y-109749167D01*
X183976648Y-109877716D01*
X184007280Y-109875606D01*
X184114731Y-109739277D01*
X184123134Y-109728000D01*
X184168552Y-109590167D01*
X184097316Y-109490091D01*
X184019351Y-109363202D01*
X184026137Y-109299591D01*
X184010895Y-109226211D01*
X183976605Y-109220000D01*
X183916878Y-109281706D01*
X183930235Y-109356427D01*
X183937070Y-109453228D01*
X183850229Y-109442063D01*
X183762033Y-109435627D01*
X183769599Y-109474970D01*
X183769599Y-109474970D01*
G37*
X183769599Y-109474970D02*
X183892030Y-109553308D01*
X183935403Y-109558667D01*
X184013533Y-109623485D01*
X184002572Y-109749167D01*
X183976648Y-109877716D01*
X184007280Y-109875606D01*
X184114731Y-109739277D01*
X184123134Y-109728000D01*
X184168552Y-109590167D01*
X184097316Y-109490091D01*
X184019351Y-109363202D01*
X184026137Y-109299591D01*
X184010895Y-109226211D01*
X183976605Y-109220000D01*
X183916878Y-109281706D01*
X183930235Y-109356427D01*
X183937070Y-109453228D01*
X183850229Y-109442063D01*
X183762033Y-109435627D01*
X183769599Y-109474970D01*
G36*
X182686418Y-111473973D02*
X182696517Y-111471093D01*
X182847143Y-111431961D01*
X183107112Y-111369396D01*
X183420497Y-111296853D01*
X183424465Y-111295952D01*
X183839166Y-111186038D01*
X184099769Y-111077092D01*
X184221307Y-110961822D01*
X184234667Y-110902966D01*
X184169769Y-110830935D01*
X184148722Y-110828667D01*
X183994986Y-110852062D01*
X183752843Y-110911646D01*
X183738063Y-110915896D01*
X183738063Y-111053304D01*
X183767689Y-111084788D01*
X183663354Y-111146705D01*
X183518813Y-111187326D01*
X183376603Y-111196696D01*
X183346978Y-111165212D01*
X183451312Y-111103295D01*
X183595853Y-111062673D01*
X183738063Y-111053304D01*
X183738063Y-110915896D01*
X183475105Y-110991513D01*
X183214590Y-111075757D01*
X183024112Y-111148473D01*
X182957897Y-111187287D01*
X182848349Y-111223121D01*
X182778524Y-111207746D01*
X182653866Y-111228999D01*
X182601810Y-111335356D01*
X182593606Y-111464613D01*
X182686418Y-111473973D01*
X182686418Y-111473973D01*
G37*
X182686418Y-111473973D02*
X182696517Y-111471093D01*
X182847143Y-111431961D01*
X183107112Y-111369396D01*
X183420497Y-111296853D01*
X183424465Y-111295952D01*
X183839166Y-111186038D01*
X184099769Y-111077092D01*
X184221307Y-110961822D01*
X184234667Y-110902966D01*
X184169769Y-110830935D01*
X184148722Y-110828667D01*
X183994986Y-110852062D01*
X183752843Y-110911646D01*
X183738063Y-110915896D01*
X183738063Y-111053304D01*
X183767689Y-111084788D01*
X183663354Y-111146705D01*
X183518813Y-111187326D01*
X183376603Y-111196696D01*
X183346978Y-111165212D01*
X183451312Y-111103295D01*
X183595853Y-111062673D01*
X183738063Y-111053304D01*
X183738063Y-110915896D01*
X183475105Y-110991513D01*
X183214590Y-111075757D01*
X183024112Y-111148473D01*
X182957897Y-111187287D01*
X182848349Y-111223121D01*
X182778524Y-111207746D01*
X182653866Y-111228999D01*
X182601810Y-111335356D01*
X182593606Y-111464613D01*
X182686418Y-111473973D01*
G36*
X184032536Y-108598229D02*
X184065333Y-108585000D01*
X184146104Y-108508918D01*
X184150000Y-108495336D01*
X184084494Y-108458971D01*
X184065333Y-108458000D01*
X183983920Y-108523088D01*
X183980667Y-108547663D01*
X184032536Y-108598229D01*
X184032536Y-108598229D01*
G37*
X184032536Y-108598229D02*
X184065333Y-108585000D01*
X184146104Y-108508918D01*
X184150000Y-108495336D01*
X184084494Y-108458971D01*
X184065333Y-108458000D01*
X183983920Y-108523088D01*
X183980667Y-108547663D01*
X184032536Y-108598229D01*
G36*
X182691820Y-110710809D02*
X182837592Y-110883014D01*
X183022545Y-110977851D01*
X183152454Y-110970311D01*
X183177379Y-110933551D01*
X183095900Y-110920017D01*
X182988215Y-110890749D01*
X183022418Y-110821715D01*
X183152475Y-110775729D01*
X183272184Y-110826508D01*
X183424455Y-110875351D01*
X183628472Y-110840072D01*
X183769000Y-110789414D01*
X183926428Y-110719714D01*
X183950756Y-110690649D01*
X183900406Y-110696411D01*
X183704207Y-110698404D01*
X183597481Y-110657520D01*
X183477663Y-110630742D01*
X183477663Y-110659333D01*
X183555053Y-110723912D01*
X183557333Y-110744000D01*
X183488418Y-110818304D01*
X183425336Y-110828667D01*
X183337702Y-110787621D01*
X183345667Y-110744000D01*
X183453909Y-110662563D01*
X183477663Y-110659333D01*
X183477663Y-110630742D01*
X183436833Y-110621616D01*
X183212635Y-110661063D01*
X182941628Y-110727693D01*
X182788969Y-110722944D01*
X182714650Y-110635414D01*
X182686643Y-110511167D01*
X182651371Y-110278333D01*
X182638686Y-110509215D01*
X182691820Y-110710809D01*
X182691820Y-110710809D01*
G37*
X182691820Y-110710809D02*
X182837592Y-110883014D01*
X183022545Y-110977851D01*
X183152454Y-110970311D01*
X183177379Y-110933551D01*
X183095900Y-110920017D01*
X182988215Y-110890749D01*
X183022418Y-110821715D01*
X183152475Y-110775729D01*
X183272184Y-110826508D01*
X183424455Y-110875351D01*
X183628472Y-110840072D01*
X183769000Y-110789414D01*
X183926428Y-110719714D01*
X183950756Y-110690649D01*
X183900406Y-110696411D01*
X183704207Y-110698404D01*
X183597481Y-110657520D01*
X183477663Y-110630742D01*
X183477663Y-110659333D01*
X183555053Y-110723912D01*
X183557333Y-110744000D01*
X183488418Y-110818304D01*
X183425336Y-110828667D01*
X183337702Y-110787621D01*
X183345667Y-110744000D01*
X183453909Y-110662563D01*
X183477663Y-110659333D01*
X183477663Y-110630742D01*
X183436833Y-110621616D01*
X183212635Y-110661063D01*
X182941628Y-110727693D01*
X182788969Y-110722944D01*
X182714650Y-110635414D01*
X182686643Y-110511167D01*
X182651371Y-110278333D01*
X182638686Y-110509215D01*
X182691820Y-110710809D01*
G36*
X183688203Y-108536143D02*
X183716673Y-108542667D01*
X183836364Y-108480881D01*
X183853667Y-108458000D01*
X183849796Y-108379856D01*
X183821327Y-108373333D01*
X183701635Y-108435119D01*
X183684333Y-108458000D01*
X183688203Y-108536143D01*
X183688203Y-108536143D01*
G37*
X183688203Y-108536143D02*
X183716673Y-108542667D01*
X183836364Y-108480881D01*
X183853667Y-108458000D01*
X183849796Y-108379856D01*
X183821327Y-108373333D01*
X183701635Y-108435119D01*
X183684333Y-108458000D01*
X183688203Y-108536143D01*
G36*
X183839555Y-110123111D02*
X183889890Y-110111489D01*
X183896000Y-110066667D01*
X183865022Y-109996976D01*
X183839555Y-110010222D01*
X183829422Y-110110702D01*
X183839555Y-110123111D01*
X183839555Y-110123111D01*
G37*
X183839555Y-110123111D02*
X183889890Y-110111489D01*
X183896000Y-110066667D01*
X183865022Y-109996976D01*
X183839555Y-110010222D01*
X183829422Y-110110702D01*
X183839555Y-110123111D01*
G36*
X183599667Y-109304667D02*
X183642000Y-109262333D01*
X183599667Y-109220000D01*
X183557333Y-109262333D01*
X183599667Y-109304667D01*
X183599667Y-109304667D01*
G37*
X183599667Y-109304667D02*
X183642000Y-109262333D01*
X183599667Y-109220000D01*
X183557333Y-109262333D01*
X183599667Y-109304667D01*
G36*
X182724371Y-109538238D02*
X182725280Y-109579833D01*
X182739893Y-110193667D01*
X182795333Y-109643333D01*
X182825575Y-109379103D01*
X182851941Y-109211753D01*
X182868809Y-109176835D01*
X182868996Y-109177667D01*
X182923743Y-109269645D01*
X183046648Y-109430614D01*
X183204449Y-109621658D01*
X183363883Y-109803860D01*
X183491688Y-109938305D01*
X183554602Y-109986077D01*
X183556475Y-109982000D01*
X183507359Y-109899962D01*
X183378121Y-109722616D01*
X183195291Y-109486180D01*
X183168844Y-109452833D01*
X182976901Y-109217130D01*
X182827588Y-109044227D01*
X182749661Y-108967239D01*
X182746140Y-108966000D01*
X182730776Y-109043600D01*
X182723044Y-109248365D01*
X182724371Y-109538238D01*
X182724371Y-109538238D01*
G37*
X182724371Y-109538238D02*
X182725280Y-109579833D01*
X182739893Y-110193667D01*
X182795333Y-109643333D01*
X182825575Y-109379103D01*
X182851941Y-109211753D01*
X182868809Y-109176835D01*
X182868996Y-109177667D01*
X182923743Y-109269645D01*
X183046648Y-109430614D01*
X183204449Y-109621658D01*
X183363883Y-109803860D01*
X183491688Y-109938305D01*
X183554602Y-109986077D01*
X183556475Y-109982000D01*
X183507359Y-109899962D01*
X183378121Y-109722616D01*
X183195291Y-109486180D01*
X183168844Y-109452833D01*
X182976901Y-109217130D01*
X182827588Y-109044227D01*
X182749661Y-108967239D01*
X182746140Y-108966000D01*
X182730776Y-109043600D01*
X182723044Y-109248365D01*
X182724371Y-109538238D01*
G36*
X182635518Y-108706063D02*
X182661512Y-108776975D01*
X182700140Y-108679421D01*
X182737594Y-108479560D01*
X182745838Y-108278157D01*
X182707904Y-108160531D01*
X182703218Y-108157063D01*
X182656511Y-108201555D01*
X182629055Y-108369532D01*
X182626000Y-108467114D01*
X182635518Y-108706063D01*
X182635518Y-108706063D01*
G37*
X182635518Y-108706063D02*
X182661512Y-108776975D01*
X182700140Y-108679421D01*
X182737594Y-108479560D01*
X182745838Y-108278157D01*
X182707904Y-108160531D01*
X182703218Y-108157063D01*
X182656511Y-108201555D01*
X182629055Y-108369532D01*
X182626000Y-108467114D01*
X182635518Y-108706063D01*
G36*
X182753000Y-111082667D02*
X182795333Y-111040333D01*
X182753000Y-110998000D01*
X182710667Y-111040333D01*
X182753000Y-111082667D01*
X182753000Y-111082667D01*
G37*
X182753000Y-111082667D02*
X182795333Y-111040333D01*
X182753000Y-110998000D01*
X182710667Y-111040333D01*
X182753000Y-111082667D01*
G36*
X182574847Y-111059736D02*
X182613329Y-111034485D01*
X182619316Y-110948611D01*
X182598638Y-110858269D01*
X182568163Y-110897458D01*
X182558069Y-111029782D01*
X182574847Y-111059736D01*
X182574847Y-111059736D01*
G37*
X182574847Y-111059736D02*
X182613329Y-111034485D01*
X182619316Y-110948611D01*
X182598638Y-110858269D01*
X182568163Y-110897458D01*
X182558069Y-111029782D01*
X182574847Y-111059736D01*
G36*
X182473629Y-109841029D02*
X182479465Y-109921054D01*
X182493012Y-110000217D01*
X182503662Y-109927347D01*
X182510054Y-109719741D01*
X182511280Y-109516333D01*
X182508145Y-109234751D01*
X182500060Y-109082251D01*
X182488381Y-109073819D01*
X182478995Y-109159054D01*
X182466184Y-109497962D01*
X182473629Y-109841029D01*
X182473629Y-109841029D01*
G37*
X182473629Y-109841029D02*
X182479465Y-109921054D01*
X182493012Y-110000217D01*
X182503662Y-109927347D01*
X182510054Y-109719741D01*
X182511280Y-109516333D01*
X182508145Y-109234751D01*
X182500060Y-109082251D01*
X182488381Y-109073819D01*
X182478995Y-109159054D01*
X182466184Y-109497962D01*
X182473629Y-109841029D01*
G36*
X182484889Y-111308444D02*
X182535223Y-111296822D01*
X182541333Y-111252000D01*
X182510355Y-111182310D01*
X182484889Y-111195555D01*
X182474756Y-111296035D01*
X182484889Y-111308444D01*
X182484889Y-111308444D01*
G37*
X182484889Y-111308444D02*
X182535223Y-111296822D01*
X182541333Y-111252000D01*
X182510355Y-111182310D01*
X182484889Y-111195555D01*
X182474756Y-111296035D01*
X182484889Y-111308444D01*
G36*
X181776862Y-109037581D02*
X181802093Y-109251432D01*
X181821308Y-109306481D01*
X181839799Y-109212883D01*
X181844865Y-109168038D01*
X181929386Y-108927034D01*
X182090304Y-108805403D01*
X182240323Y-108748722D01*
X182275754Y-108779557D01*
X182262967Y-108822709D01*
X182262559Y-108995086D01*
X182285471Y-109047653D01*
X182332559Y-109058059D01*
X182355978Y-108914275D01*
X182357278Y-108870642D01*
X182375307Y-108580799D01*
X182407734Y-108331000D01*
X182430185Y-108187022D01*
X182414991Y-108203449D01*
X182390265Y-108278124D01*
X182327009Y-108479249D01*
X182160076Y-108256958D01*
X182017758Y-108096004D01*
X181971629Y-108067904D01*
X181971629Y-108399267D01*
X182065808Y-108449885D01*
X182074734Y-108457226D01*
X182149957Y-108571862D01*
X182136875Y-108666832D01*
X182050003Y-108677995D01*
X182027483Y-108666051D01*
X181956690Y-108547943D01*
X181948667Y-108484969D01*
X181971629Y-108399267D01*
X181971629Y-108067904D01*
X181921147Y-108037151D01*
X181896473Y-108091505D01*
X181914762Y-108153102D01*
X181909693Y-108287304D01*
X181877720Y-108322520D01*
X181831056Y-108434360D01*
X181842952Y-108555990D01*
X181852035Y-108678412D01*
X181813837Y-108690987D01*
X181775444Y-108735944D01*
X181767674Y-108910355D01*
X181776862Y-109037581D01*
X181776862Y-109037581D01*
G37*
X181776862Y-109037581D02*
X181802093Y-109251432D01*
X181821308Y-109306481D01*
X181839799Y-109212883D01*
X181844865Y-109168038D01*
X181929386Y-108927034D01*
X182090304Y-108805403D01*
X182240323Y-108748722D01*
X182275754Y-108779557D01*
X182262967Y-108822709D01*
X182262559Y-108995086D01*
X182285471Y-109047653D01*
X182332559Y-109058059D01*
X182355978Y-108914275D01*
X182357278Y-108870642D01*
X182375307Y-108580799D01*
X182407734Y-108331000D01*
X182430185Y-108187022D01*
X182414991Y-108203449D01*
X182390265Y-108278124D01*
X182327009Y-108479249D01*
X182160076Y-108256958D01*
X182017758Y-108096004D01*
X181971629Y-108067904D01*
X181971629Y-108399267D01*
X182065808Y-108449885D01*
X182074734Y-108457226D01*
X182149957Y-108571862D01*
X182136875Y-108666832D01*
X182050003Y-108677995D01*
X182027483Y-108666051D01*
X181956690Y-108547943D01*
X181948667Y-108484969D01*
X181971629Y-108399267D01*
X181971629Y-108067904D01*
X181921147Y-108037151D01*
X181896473Y-108091505D01*
X181914762Y-108153102D01*
X181909693Y-108287304D01*
X181877720Y-108322520D01*
X181831056Y-108434360D01*
X181842952Y-108555990D01*
X181852035Y-108678412D01*
X181813837Y-108690987D01*
X181775444Y-108735944D01*
X181767674Y-108910355D01*
X181776862Y-109037581D01*
G36*
X181803498Y-110401994D02*
X181855043Y-110489185D01*
X181861343Y-110490000D01*
X181908594Y-110551788D01*
X181895957Y-110613508D01*
X181891157Y-110776385D01*
X181940954Y-111008043D01*
X182022759Y-111232822D01*
X182113987Y-111375062D01*
X182125951Y-111383914D01*
X182202846Y-111347613D01*
X182297604Y-111199175D01*
X182386409Y-110990586D01*
X182445443Y-110773831D01*
X182456667Y-110662053D01*
X182424955Y-110522953D01*
X182379926Y-110490000D01*
X182335440Y-110557086D01*
X182345663Y-110652431D01*
X182338031Y-110856411D01*
X182291720Y-110969931D01*
X182231519Y-111049911D01*
X182223268Y-110994292D01*
X182246274Y-110857893D01*
X182257004Y-110650566D01*
X182207623Y-110535397D01*
X182160333Y-110547670D01*
X182160333Y-111167333D01*
X182202667Y-111209667D01*
X182160333Y-111252000D01*
X182118000Y-111209667D01*
X182160333Y-111167333D01*
X182160333Y-110547670D01*
X182131112Y-110555255D01*
X182111316Y-110633170D01*
X182096568Y-110725496D01*
X182062791Y-110659333D01*
X181995111Y-110476643D01*
X181995111Y-110863870D01*
X182034303Y-110871599D01*
X182104489Y-110962156D01*
X182116267Y-111059201D01*
X182084725Y-111082667D01*
X182030348Y-111016254D01*
X182001028Y-110951269D01*
X181995111Y-110863870D01*
X181995111Y-110476643D01*
X181994628Y-110475339D01*
X181948667Y-110363000D01*
X181868889Y-110162855D01*
X181834542Y-110066667D01*
X181805480Y-110051183D01*
X181787453Y-110175785D01*
X181786017Y-110214833D01*
X181803498Y-110401994D01*
X181803498Y-110401994D01*
G37*
X181803498Y-110401994D02*
X181855043Y-110489185D01*
X181861343Y-110490000D01*
X181908594Y-110551788D01*
X181895957Y-110613508D01*
X181891157Y-110776385D01*
X181940954Y-111008043D01*
X182022759Y-111232822D01*
X182113987Y-111375062D01*
X182125951Y-111383914D01*
X182202846Y-111347613D01*
X182297604Y-111199175D01*
X182386409Y-110990586D01*
X182445443Y-110773831D01*
X182456667Y-110662053D01*
X182424955Y-110522953D01*
X182379926Y-110490000D01*
X182335440Y-110557086D01*
X182345663Y-110652431D01*
X182338031Y-110856411D01*
X182291720Y-110969931D01*
X182231519Y-111049911D01*
X182223268Y-110994292D01*
X182246274Y-110857893D01*
X182257004Y-110650566D01*
X182207623Y-110535397D01*
X182160333Y-110547670D01*
X182160333Y-111167333D01*
X182202667Y-111209667D01*
X182160333Y-111252000D01*
X182118000Y-111209667D01*
X182160333Y-111167333D01*
X182160333Y-110547670D01*
X182131112Y-110555255D01*
X182111316Y-110633170D01*
X182096568Y-110725496D01*
X182062791Y-110659333D01*
X181995111Y-110476643D01*
X181995111Y-110863870D01*
X182034303Y-110871599D01*
X182104489Y-110962156D01*
X182116267Y-111059201D01*
X182084725Y-111082667D01*
X182030348Y-111016254D01*
X182001028Y-110951269D01*
X181995111Y-110863870D01*
X181995111Y-110476643D01*
X181994628Y-110475339D01*
X181948667Y-110363000D01*
X181868889Y-110162855D01*
X181834542Y-110066667D01*
X181805480Y-110051183D01*
X181787453Y-110175785D01*
X181786017Y-110214833D01*
X181803498Y-110401994D01*
G36*
X182414333Y-111506000D02*
X182456667Y-111463667D01*
X182414333Y-111421333D01*
X182372000Y-111463667D01*
X182414333Y-111506000D01*
X182414333Y-111506000D01*
G37*
X182414333Y-111506000D02*
X182456667Y-111463667D01*
X182414333Y-111421333D01*
X182372000Y-111463667D01*
X182414333Y-111506000D01*
G36*
X182236915Y-110307585D02*
X182315620Y-110397765D01*
X182334663Y-110405333D01*
X182369462Y-110365152D01*
X182291487Y-110281497D01*
X182274251Y-110270248D01*
X182216314Y-110260269D01*
X182236915Y-110307585D01*
X182236915Y-110307585D01*
G37*
X182236915Y-110307585D02*
X182315620Y-110397765D01*
X182334663Y-110405333D01*
X182369462Y-110365152D01*
X182291487Y-110281497D01*
X182274251Y-110270248D01*
X182216314Y-110260269D01*
X182236915Y-110307585D01*
G36*
X181991000Y-109050667D02*
X182033333Y-109008333D01*
X181991000Y-108966000D01*
X181948667Y-109008333D01*
X181991000Y-109050667D01*
X181991000Y-109050667D01*
G37*
X181991000Y-109050667D02*
X182033333Y-109008333D01*
X181991000Y-108966000D01*
X181948667Y-109008333D01*
X181991000Y-109050667D01*
G36*
X181898248Y-111577585D02*
X181976953Y-111667765D01*
X181995997Y-111675333D01*
X182030796Y-111635152D01*
X181952820Y-111551497D01*
X181935585Y-111540248D01*
X181877648Y-111530269D01*
X181898248Y-111577585D01*
X181898248Y-111577585D01*
G37*
X181898248Y-111577585D02*
X181976953Y-111667765D01*
X181995997Y-111675333D01*
X182030796Y-111635152D01*
X181952820Y-111551497D01*
X181935585Y-111540248D01*
X181877648Y-111530269D01*
X181898248Y-111577585D01*
G36*
X179069072Y-114042765D02*
X179303658Y-114568186D01*
X179669485Y-115024434D01*
X180134576Y-115387432D01*
X180666954Y-115633104D01*
X181234644Y-115737376D01*
X181322409Y-115739333D01*
X181704694Y-115702350D01*
X181943486Y-115593311D01*
X182032821Y-115415082D01*
X182033333Y-115397688D01*
X182015476Y-115307743D01*
X181937102Y-115257499D01*
X181761011Y-115235766D01*
X181480280Y-115231333D01*
X180878323Y-115171197D01*
X180385575Y-114985573D01*
X179989469Y-114666638D01*
X179677439Y-114206568D01*
X179610460Y-114067167D01*
X179484434Y-113826327D01*
X179365788Y-113664907D01*
X179299667Y-113622667D01*
X179120297Y-113689456D01*
X179047192Y-113868023D01*
X179069072Y-114042765D01*
X179069072Y-114042765D01*
G37*
X179069072Y-114042765D02*
X179303658Y-114568186D01*
X179669485Y-115024434D01*
X180134576Y-115387432D01*
X180666954Y-115633104D01*
X181234644Y-115737376D01*
X181322409Y-115739333D01*
X181704694Y-115702350D01*
X181943486Y-115593311D01*
X182032821Y-115415082D01*
X182033333Y-115397688D01*
X182015476Y-115307743D01*
X181937102Y-115257499D01*
X181761011Y-115235766D01*
X181480280Y-115231333D01*
X180878323Y-115171197D01*
X180385575Y-114985573D01*
X179989469Y-114666638D01*
X179677439Y-114206568D01*
X179610460Y-114067167D01*
X179484434Y-113826327D01*
X179365788Y-113664907D01*
X179299667Y-113622667D01*
X179120297Y-113689456D01*
X179047192Y-113868023D01*
X179069072Y-114042765D01*
G36*
X179977378Y-114135808D02*
X180137056Y-114416897D01*
X180377843Y-114673382D01*
X180592679Y-114820563D01*
X180878631Y-114927167D01*
X181182915Y-114970375D01*
X181462562Y-114953709D01*
X181674609Y-114880690D01*
X181776086Y-114754837D01*
X181779333Y-114723333D01*
X181727196Y-114626865D01*
X181677733Y-114570933D01*
X181526280Y-114499504D01*
X181303394Y-114469338D01*
X181300717Y-114469333D01*
X180898378Y-114402436D01*
X180591937Y-114197544D01*
X180413425Y-113939298D01*
X180259880Y-113719987D01*
X180110485Y-113639322D01*
X179992033Y-113700599D01*
X179933971Y-113880305D01*
X179977378Y-114135808D01*
X179977378Y-114135808D01*
G37*
X179977378Y-114135808D02*
X180137056Y-114416897D01*
X180377843Y-114673382D01*
X180592679Y-114820563D01*
X180878631Y-114927167D01*
X181182915Y-114970375D01*
X181462562Y-114953709D01*
X181674609Y-114880690D01*
X181776086Y-114754837D01*
X181779333Y-114723333D01*
X181727196Y-114626865D01*
X181677733Y-114570933D01*
X181526280Y-114499504D01*
X181303394Y-114469338D01*
X181300717Y-114469333D01*
X180898378Y-114402436D01*
X180591937Y-114197544D01*
X180413425Y-113939298D01*
X180259880Y-113719987D01*
X180110485Y-113639322D01*
X179992033Y-113700599D01*
X179933971Y-113880305D01*
X179977378Y-114135808D01*
G36*
X181214889Y-107244444D02*
X181265223Y-107232822D01*
X181271333Y-107188000D01*
X181240355Y-107118310D01*
X181214889Y-107131555D01*
X181204756Y-107232035D01*
X181214889Y-107244444D01*
X181214889Y-107244444D01*
G37*
X181214889Y-107244444D02*
X181265223Y-107232822D01*
X181271333Y-107188000D01*
X181240355Y-107118310D01*
X181214889Y-107131555D01*
X181204756Y-107232035D01*
X181214889Y-107244444D01*
G36*
X180987357Y-106907437D02*
X181017333Y-106891667D01*
X181098190Y-106811892D01*
X181102000Y-106797006D01*
X181047310Y-106791230D01*
X181017333Y-106807000D01*
X180936476Y-106886774D01*
X180932667Y-106901660D01*
X180987357Y-106907437D01*
X180987357Y-106907437D01*
G37*
X180987357Y-106907437D02*
X181017333Y-106891667D01*
X181098190Y-106811892D01*
X181102000Y-106797006D01*
X181047310Y-106791230D01*
X181017333Y-106807000D01*
X180936476Y-106886774D01*
X180932667Y-106901660D01*
X180987357Y-106907437D01*
G36*
X181050847Y-107334403D02*
X181089329Y-107309152D01*
X181095316Y-107223278D01*
X181074638Y-107132935D01*
X181044163Y-107172125D01*
X181034069Y-107304449D01*
X181050847Y-107334403D01*
X181050847Y-107334403D01*
G37*
X181050847Y-107334403D02*
X181089329Y-107309152D01*
X181095316Y-107223278D01*
X181074638Y-107132935D01*
X181044163Y-107172125D01*
X181034069Y-107304449D01*
X181050847Y-107334403D01*
D14*
X130810000Y-120650000D02*
G75*
G03X130810000Y-120650000I-1270000J0D01*
G01*
X130810000Y-123190000D02*
G75*
G03X130810000Y-123190000I-1270000J0D01*
G01*
X132080000Y-129540000D02*
X132080000Y-125730000D01*
X132080000Y-125730000D02*
X139700000Y-125730000D01*
X139700000Y-125730000D02*
X139700000Y-129540000D01*
X127000000Y-124460000D02*
X132080000Y-124460000D01*
X132080000Y-124460000D02*
X132080000Y-119380000D01*
X132080000Y-119380000D02*
X127000000Y-119380000D01*
X140970000Y-64770000D02*
G75*
G03X140970000Y-64770000I-1270000J0D01*
G01*
X127000000Y-91440000D02*
X127000000Y-129540000D01*
X127000000Y-129540000D02*
X144780000Y-129540000D01*
X144780000Y-129540000D02*
X144780000Y-62230000D01*
X144780000Y-62230000D02*
X127000000Y-62230000D01*
X127000000Y-62230000D02*
X127000000Y-91440000D01*
X121459523Y-108037381D02*
X121459523Y-108751667D01*
X121507143Y-108894524D01*
X121602381Y-108989762D01*
X121745238Y-109037381D01*
X121840476Y-109037381D01*
X121078571Y-108037381D02*
X120459523Y-108037381D01*
X120792857Y-108418333D01*
X120649999Y-108418333D01*
X120554761Y-108465952D01*
X120507142Y-108513571D01*
X120459523Y-108608810D01*
X120459523Y-108846905D01*
X120507142Y-108942143D01*
X120554761Y-108989762D01*
X120649999Y-109037381D01*
X120935714Y-109037381D01*
X121030952Y-108989762D01*
X121078571Y-108942143D01*
X119983333Y-109037381D02*
X119792857Y-109037381D01*
X119697618Y-108989762D01*
X119649999Y-108942143D01*
X119554761Y-108799286D01*
X119507142Y-108608810D01*
X119507142Y-108227857D01*
X119554761Y-108132619D01*
X119602380Y-108085000D01*
X119697618Y-108037381D01*
X119888095Y-108037381D01*
X119983333Y-108085000D01*
X120030952Y-108132619D01*
X120078571Y-108227857D01*
X120078571Y-108465952D01*
X120030952Y-108561190D01*
X119983333Y-108608810D01*
X119888095Y-108656429D01*
X119697618Y-108656429D01*
X119602380Y-108608810D01*
X119554761Y-108561190D01*
X119507142Y-108465952D01*
X121459523Y-97242381D02*
X121459523Y-97956667D01*
X121507143Y-98099524D01*
X121602381Y-98194762D01*
X121745238Y-98242381D01*
X121840476Y-98242381D01*
X120554761Y-97575714D02*
X120554761Y-98242381D01*
X120792857Y-97194762D02*
X121030952Y-97909048D01*
X120411904Y-97909048D01*
X119840476Y-97242381D02*
X119745237Y-97242381D01*
X119649999Y-97290000D01*
X119602380Y-97337619D01*
X119554761Y-97432857D01*
X119507142Y-97623333D01*
X119507142Y-97861429D01*
X119554761Y-98051905D01*
X119602380Y-98147143D01*
X119649999Y-98194762D01*
X119745237Y-98242381D01*
X119840476Y-98242381D01*
X119935714Y-98194762D01*
X119983333Y-98147143D01*
X120030952Y-98051905D01*
X120078571Y-97861429D01*
X120078571Y-97623333D01*
X120030952Y-97432857D01*
X119983333Y-97337619D01*
X119935714Y-97290000D01*
X119840476Y-97242381D01*
X121459523Y-94702381D02*
X121459523Y-95416667D01*
X121507143Y-95559524D01*
X121602381Y-95654762D01*
X121745238Y-95702381D01*
X121840476Y-95702381D01*
X120554761Y-95035714D02*
X120554761Y-95702381D01*
X120792857Y-94654762D02*
X121030952Y-95369048D01*
X120411904Y-95369048D01*
X119507142Y-95702381D02*
X120078571Y-95702381D01*
X119792857Y-95702381D02*
X119792857Y-94702381D01*
X119888095Y-94845238D01*
X119983333Y-94940476D01*
X120078571Y-94988095D01*
X121459523Y-92162381D02*
X121459523Y-92876667D01*
X121507143Y-93019524D01*
X121602381Y-93114762D01*
X121745238Y-93162381D01*
X121840476Y-93162381D01*
X120554761Y-92495714D02*
X120554761Y-93162381D01*
X120792857Y-92114762D02*
X121030952Y-92829048D01*
X120411904Y-92829048D01*
X120078571Y-92257619D02*
X120030952Y-92210000D01*
X119935714Y-92162381D01*
X119697618Y-92162381D01*
X119602380Y-92210000D01*
X119554761Y-92257619D01*
X119507142Y-92352857D01*
X119507142Y-92448095D01*
X119554761Y-92590952D01*
X120126190Y-93162381D01*
X119507142Y-93162381D01*
X121459523Y-89622381D02*
X121459523Y-90336667D01*
X121507143Y-90479524D01*
X121602381Y-90574762D01*
X121745238Y-90622381D01*
X121840476Y-90622381D01*
X120554761Y-89955714D02*
X120554761Y-90622381D01*
X120792857Y-89574762D02*
X121030952Y-90289048D01*
X120411904Y-90289048D01*
X120126190Y-89622381D02*
X119507142Y-89622381D01*
X119840476Y-90003333D01*
X119697618Y-90003333D01*
X119602380Y-90050952D01*
X119554761Y-90098571D01*
X119507142Y-90193810D01*
X119507142Y-90431905D01*
X119554761Y-90527143D01*
X119602380Y-90574762D01*
X119697618Y-90622381D01*
X119983333Y-90622381D01*
X120078571Y-90574762D01*
X120126190Y-90527143D01*
X151939523Y-102322381D02*
X151939523Y-103036667D01*
X151987143Y-103179524D01*
X152082381Y-103274762D01*
X152225238Y-103322381D01*
X152320476Y-103322381D01*
X151034761Y-102655714D02*
X151034761Y-103322381D01*
X151272857Y-102274762D02*
X151510952Y-102989048D01*
X150891904Y-102989048D01*
X150034761Y-102322381D02*
X150510952Y-102322381D01*
X150558571Y-102798571D01*
X150510952Y-102750952D01*
X150415714Y-102703333D01*
X150177618Y-102703333D01*
X150082380Y-102750952D01*
X150034761Y-102798571D01*
X149987142Y-102893810D01*
X149987142Y-103131905D01*
X150034761Y-103227143D01*
X150082380Y-103274762D01*
X150177618Y-103322381D01*
X150415714Y-103322381D01*
X150510952Y-103274762D01*
X150558571Y-103227143D01*
X151939523Y-97242381D02*
X151939523Y-97956667D01*
X151987143Y-98099524D01*
X152082381Y-98194762D01*
X152225238Y-98242381D01*
X152320476Y-98242381D01*
X151034761Y-97575714D02*
X151034761Y-98242381D01*
X151272857Y-97194762D02*
X151510952Y-97909048D01*
X150891904Y-97909048D01*
X150082380Y-97242381D02*
X150272857Y-97242381D01*
X150368095Y-97290000D01*
X150415714Y-97337619D01*
X150510952Y-97480476D01*
X150558571Y-97670952D01*
X150558571Y-98051905D01*
X150510952Y-98147143D01*
X150463333Y-98194762D01*
X150368095Y-98242381D01*
X150177618Y-98242381D01*
X150082380Y-98194762D01*
X150034761Y-98147143D01*
X149987142Y-98051905D01*
X149987142Y-97813810D01*
X150034761Y-97718571D01*
X150082380Y-97670952D01*
X150177618Y-97623333D01*
X150368095Y-97623333D01*
X150463333Y-97670952D01*
X150510952Y-97718571D01*
X150558571Y-97813810D01*
X151939523Y-76922381D02*
X151939523Y-77636667D01*
X151987143Y-77779524D01*
X152082381Y-77874762D01*
X152225238Y-77922381D01*
X152320476Y-77922381D01*
X151034761Y-77255714D02*
X151034761Y-77922381D01*
X151272857Y-76874762D02*
X151510952Y-77589048D01*
X150891904Y-77589048D01*
X150606190Y-76922381D02*
X149939523Y-76922381D01*
X150368095Y-77922381D01*
X151939523Y-74382381D02*
X151939523Y-75096667D01*
X151987143Y-75239524D01*
X152082381Y-75334762D01*
X152225238Y-75382381D01*
X152320476Y-75382381D01*
X151034761Y-74715714D02*
X151034761Y-75382381D01*
X151272857Y-74334762D02*
X151510952Y-75049048D01*
X150891904Y-75049048D01*
X150368095Y-74810952D02*
X150463333Y-74763333D01*
X150510952Y-74715714D01*
X150558571Y-74620476D01*
X150558571Y-74572857D01*
X150510952Y-74477619D01*
X150463333Y-74430000D01*
X150368095Y-74382381D01*
X150177618Y-74382381D01*
X150082380Y-74430000D01*
X150034761Y-74477619D01*
X149987142Y-74572857D01*
X149987142Y-74620476D01*
X150034761Y-74715714D01*
X150082380Y-74763333D01*
X150177618Y-74810952D01*
X150368095Y-74810952D01*
X150463333Y-74858571D01*
X150510952Y-74906190D01*
X150558571Y-75001429D01*
X150558571Y-75191905D01*
X150510952Y-75287143D01*
X150463333Y-75334762D01*
X150368095Y-75382381D01*
X150177618Y-75382381D01*
X150082380Y-75334762D01*
X150034761Y-75287143D01*
X149987142Y-75191905D01*
X149987142Y-75001429D01*
X150034761Y-74906190D01*
X150082380Y-74858571D01*
X150177618Y-74810952D01*
X176069523Y-82732381D02*
X176069523Y-83446667D01*
X176117143Y-83589524D01*
X176212381Y-83684762D01*
X176355238Y-83732381D01*
X176450476Y-83732381D01*
X175164761Y-83065714D02*
X175164761Y-83732381D01*
X175402857Y-82684762D02*
X175640952Y-83399048D01*
X175021904Y-83399048D01*
X174593333Y-83732381D02*
X174402857Y-83732381D01*
X174307618Y-83684762D01*
X174259999Y-83637143D01*
X174164761Y-83494286D01*
X174117142Y-83303810D01*
X174117142Y-82922857D01*
X174164761Y-82827619D01*
X174212380Y-82780000D01*
X174307618Y-82732381D01*
X174498095Y-82732381D01*
X174593333Y-82780000D01*
X174640952Y-82827619D01*
X174688571Y-82922857D01*
X174688571Y-83160952D01*
X174640952Y-83256190D01*
X174593333Y-83303810D01*
X174498095Y-83351429D01*
X174307618Y-83351429D01*
X174212380Y-83303810D01*
X174164761Y-83256190D01*
X174117142Y-83160952D01*
X150669523Y-106132381D02*
X150669523Y-106846667D01*
X150717143Y-106989524D01*
X150812381Y-107084762D01*
X150955238Y-107132381D01*
X151050476Y-107132381D01*
X149764761Y-106132381D02*
X149955238Y-106132381D01*
X150050476Y-106180000D01*
X150098095Y-106227619D01*
X150193333Y-106370476D01*
X150240952Y-106560952D01*
X150240952Y-106941905D01*
X150193333Y-107037143D01*
X150145714Y-107084762D01*
X150050476Y-107132381D01*
X149859999Y-107132381D01*
X149764761Y-107084762D01*
X149717142Y-107037143D01*
X149669523Y-106941905D01*
X149669523Y-106703810D01*
X149717142Y-106608571D01*
X149764761Y-106560952D01*
X149859999Y-106513333D01*
X150050476Y-106513333D01*
X150145714Y-106560952D01*
X150193333Y-106608571D01*
X150240952Y-106703810D01*
X149050476Y-106132381D02*
X148955237Y-106132381D01*
X148859999Y-106180000D01*
X148812380Y-106227619D01*
X148764761Y-106322857D01*
X148717142Y-106513333D01*
X148717142Y-106751429D01*
X148764761Y-106941905D01*
X148812380Y-107037143D01*
X148859999Y-107084762D01*
X148955237Y-107132381D01*
X149050476Y-107132381D01*
X149145714Y-107084762D01*
X149193333Y-107037143D01*
X149240952Y-106941905D01*
X149288571Y-106751429D01*
X149288571Y-106513333D01*
X149240952Y-106322857D01*
X149193333Y-106227619D01*
X149145714Y-106180000D01*
X149050476Y-106132381D01*
X150669523Y-108672381D02*
X150669523Y-109386667D01*
X150717143Y-109529524D01*
X150812381Y-109624762D01*
X150955238Y-109672381D01*
X151050476Y-109672381D01*
X149764761Y-108672381D02*
X149955238Y-108672381D01*
X150050476Y-108720000D01*
X150098095Y-108767619D01*
X150193333Y-108910476D01*
X150240952Y-109100952D01*
X150240952Y-109481905D01*
X150193333Y-109577143D01*
X150145714Y-109624762D01*
X150050476Y-109672381D01*
X149859999Y-109672381D01*
X149764761Y-109624762D01*
X149717142Y-109577143D01*
X149669523Y-109481905D01*
X149669523Y-109243810D01*
X149717142Y-109148571D01*
X149764761Y-109100952D01*
X149859999Y-109053333D01*
X150050476Y-109053333D01*
X150145714Y-109100952D01*
X150193333Y-109148571D01*
X150240952Y-109243810D01*
X148717142Y-109672381D02*
X149288571Y-109672381D01*
X149002857Y-109672381D02*
X149002857Y-108672381D01*
X149098095Y-108815238D01*
X149193333Y-108910476D01*
X149288571Y-108958095D01*
M02*
