G04 #@! TF.FileFunction,Legend,Top*
%FSLAX46Y46*%
G04 Gerber Fmt 4.6, Leading zero omitted, Abs format (unit mm)*
G04 Created by KiCad (PCBNEW 4.0.7+dfsg1-1~bpo8+1) date Mon Jun  4 12:39:51 2018*
%MOMM*%
%LPD*%
G01*
G04 APERTURE LIST*
%ADD10C,0.100000*%
%ADD11C,0.300000*%
%ADD12C,0.200000*%
%ADD13C,0.250000*%
%ADD14C,0.150000*%
%ADD15C,0.010000*%
G04 APERTURE END LIST*
D10*
D11*
X122495285Y-68536429D02*
X122495285Y-70036429D01*
X121852428Y-69893571D02*
X121780999Y-69965000D01*
X121638142Y-70036429D01*
X121280999Y-70036429D01*
X121138142Y-69965000D01*
X121066713Y-69893571D01*
X120995285Y-69750714D01*
X120995285Y-69607857D01*
X121066713Y-69393571D01*
X121923856Y-68536429D01*
X120995285Y-68536429D01*
X119495285Y-68679286D02*
X119566714Y-68607857D01*
X119781000Y-68536429D01*
X119923857Y-68536429D01*
X120138142Y-68607857D01*
X120281000Y-68750714D01*
X120352428Y-68893571D01*
X120423857Y-69179286D01*
X120423857Y-69393571D01*
X120352428Y-69679286D01*
X120281000Y-69822143D01*
X120138142Y-69965000D01*
X119923857Y-70036429D01*
X119781000Y-70036429D01*
X119566714Y-69965000D01*
X119495285Y-69893571D01*
X121910429Y-126158571D02*
X121853286Y-126215714D01*
X121681857Y-126272857D01*
X121567571Y-126272857D01*
X121396143Y-126215714D01*
X121281857Y-126101429D01*
X121224714Y-125987143D01*
X121167571Y-125758571D01*
X121167571Y-125587143D01*
X121224714Y-125358571D01*
X121281857Y-125244286D01*
X121396143Y-125130000D01*
X121567571Y-125072857D01*
X121681857Y-125072857D01*
X121853286Y-125130000D01*
X121910429Y-125187143D01*
D12*
X165735000Y-76962000D02*
X171323000Y-76962000D01*
D11*
X170358142Y-78647857D02*
X170358142Y-77447857D01*
X170872428Y-77562143D02*
X170929571Y-77505000D01*
X171043857Y-77447857D01*
X171329571Y-77447857D01*
X171443857Y-77505000D01*
X171501000Y-77562143D01*
X171558143Y-77676429D01*
X171558143Y-77790714D01*
X171501000Y-77962143D01*
X170815286Y-78647857D01*
X171558143Y-78647857D01*
X172758143Y-78533571D02*
X172701000Y-78590714D01*
X172529571Y-78647857D01*
X172415285Y-78647857D01*
X172243857Y-78590714D01*
X172129571Y-78476429D01*
X172072428Y-78362143D01*
X172015285Y-78133571D01*
X172015285Y-77962143D01*
X172072428Y-77733571D01*
X172129571Y-77619286D01*
X172243857Y-77505000D01*
X172415285Y-77447857D01*
X172529571Y-77447857D01*
X172701000Y-77505000D01*
X172758143Y-77562143D01*
X172986714Y-78762143D02*
X173901000Y-78762143D01*
X174415286Y-77447857D02*
X174643857Y-77447857D01*
X174758143Y-77505000D01*
X174872429Y-77619286D01*
X174929571Y-77847857D01*
X174929571Y-78247857D01*
X174872429Y-78476429D01*
X174758143Y-78590714D01*
X174643857Y-78647857D01*
X174415286Y-78647857D01*
X174301000Y-78590714D01*
X174186714Y-78476429D01*
X174129571Y-78247857D01*
X174129571Y-77847857D01*
X174186714Y-77619286D01*
X174301000Y-77505000D01*
X174415286Y-77447857D01*
X176015286Y-78647857D02*
X175443857Y-78647857D01*
X175443857Y-77447857D01*
X164493857Y-78647857D02*
X164493857Y-77447857D01*
X165008143Y-77562143D02*
X165065286Y-77505000D01*
X165179572Y-77447857D01*
X165465286Y-77447857D01*
X165579572Y-77505000D01*
X165636715Y-77562143D01*
X165693858Y-77676429D01*
X165693858Y-77790714D01*
X165636715Y-77962143D01*
X164951001Y-78647857D01*
X165693858Y-78647857D01*
X166893858Y-78533571D02*
X166836715Y-78590714D01*
X166665286Y-78647857D01*
X166551000Y-78647857D01*
X166379572Y-78590714D01*
X166265286Y-78476429D01*
X166208143Y-78362143D01*
X166151000Y-78133571D01*
X166151000Y-77962143D01*
X166208143Y-77733571D01*
X166265286Y-77619286D01*
X166379572Y-77505000D01*
X166551000Y-77447857D01*
X166665286Y-77447857D01*
X166836715Y-77505000D01*
X166893858Y-77562143D01*
X167122429Y-78762143D02*
X168036715Y-78762143D01*
X168322429Y-78647857D02*
X168322429Y-77447857D01*
X169008144Y-78647857D01*
X169008144Y-77447857D01*
D12*
X165735000Y-73025000D02*
X171323000Y-73025000D01*
D11*
X174437714Y-75472857D02*
X174437714Y-74272857D01*
X174723429Y-74272857D01*
X174894857Y-74330000D01*
X175009143Y-74444286D01*
X175066286Y-74558571D01*
X175123429Y-74787143D01*
X175123429Y-74958571D01*
X175066286Y-75187143D01*
X175009143Y-75301429D01*
X174894857Y-75415714D01*
X174723429Y-75472857D01*
X174437714Y-75472857D01*
X175123429Y-71675571D02*
X175066286Y-71732714D01*
X174894857Y-71789857D01*
X174780571Y-71789857D01*
X174609143Y-71732714D01*
X174494857Y-71618429D01*
X174437714Y-71504143D01*
X174380571Y-71275571D01*
X174380571Y-71104143D01*
X174437714Y-70875571D01*
X174494857Y-70761286D01*
X174609143Y-70647000D01*
X174780571Y-70589857D01*
X174894857Y-70589857D01*
X175066286Y-70647000D01*
X175123429Y-70704143D01*
X175446571Y-112847000D02*
X175446571Y-112275571D01*
X174946571Y-112632714D02*
X176232286Y-112632714D01*
X176375143Y-112561286D01*
X176446571Y-112418428D01*
X176446571Y-112275571D01*
X175446571Y-111989857D02*
X175446571Y-111418428D01*
X174946571Y-111775571D02*
X176232286Y-111775571D01*
X176375143Y-111704143D01*
X176446571Y-111561285D01*
X176446571Y-111418428D01*
X175446571Y-110918428D02*
X176446571Y-110918428D01*
X175589429Y-110918428D02*
X175518000Y-110847000D01*
X175446571Y-110704142D01*
X175446571Y-110489857D01*
X175518000Y-110347000D01*
X175660857Y-110275571D01*
X176446571Y-110275571D01*
X176303714Y-109561285D02*
X176375143Y-109489857D01*
X176446571Y-109561285D01*
X176375143Y-109632714D01*
X176303714Y-109561285D01*
X176446571Y-109561285D01*
X176375143Y-108204142D02*
X176446571Y-108346999D01*
X176446571Y-108632713D01*
X176375143Y-108775571D01*
X176303714Y-108846999D01*
X176160857Y-108918428D01*
X175732286Y-108918428D01*
X175589429Y-108846999D01*
X175518000Y-108775571D01*
X175446571Y-108632713D01*
X175446571Y-108346999D01*
X175518000Y-108204142D01*
X176446571Y-106918428D02*
X175660857Y-106918428D01*
X175518000Y-106989857D01*
X175446571Y-107132714D01*
X175446571Y-107418428D01*
X175518000Y-107561285D01*
X176375143Y-106918428D02*
X176446571Y-107061285D01*
X176446571Y-107418428D01*
X176375143Y-107561285D01*
X176232286Y-107632714D01*
X176089429Y-107632714D01*
X175946571Y-107561285D01*
X175875143Y-107418428D01*
X175875143Y-107061285D01*
X175803714Y-106918428D01*
X175446571Y-106418428D02*
X175446571Y-105846999D01*
X174946571Y-106204142D02*
X176232286Y-106204142D01*
X176375143Y-106132714D01*
X176446571Y-105989856D01*
X176446571Y-105846999D01*
X109847143Y-128694571D02*
X109347143Y-127980286D01*
X108990000Y-128694571D02*
X108990000Y-127194571D01*
X109561428Y-127194571D01*
X109704286Y-127266000D01*
X109775714Y-127337429D01*
X109847143Y-127480286D01*
X109847143Y-127694571D01*
X109775714Y-127837429D01*
X109704286Y-127908857D01*
X109561428Y-127980286D01*
X108990000Y-127980286D01*
X110490000Y-128694571D02*
X110490000Y-127194571D01*
X111061428Y-127194571D01*
X111204286Y-127266000D01*
X111275714Y-127337429D01*
X111347143Y-127480286D01*
X111347143Y-127694571D01*
X111275714Y-127837429D01*
X111204286Y-127908857D01*
X111061428Y-127980286D01*
X110490000Y-127980286D01*
X111990000Y-128694571D02*
X111990000Y-127694571D01*
X111990000Y-127194571D02*
X111918571Y-127266000D01*
X111990000Y-127337429D01*
X112061428Y-127266000D01*
X111990000Y-127194571D01*
X111990000Y-127337429D01*
X107343643Y-73621858D02*
X107343643Y-72936143D01*
X107343643Y-73279001D02*
X108543643Y-73279001D01*
X108372214Y-73164715D01*
X108257929Y-73050429D01*
X108200786Y-72936143D01*
D12*
X126492000Y-70104000D02*
X123317000Y-70104000D01*
X112522000Y-70104000D02*
X118745000Y-70104000D01*
X115316000Y-71628000D02*
X115316000Y-74295000D01*
X124460000Y-71628000D02*
X115316000Y-71628000D01*
X124460000Y-72517000D02*
X124460000Y-71628000D01*
X124460000Y-87630000D02*
X124460000Y-86868000D01*
X115316000Y-87630000D02*
X124460000Y-87630000D01*
X115316000Y-83693000D02*
X115316000Y-87630000D01*
D11*
X121878714Y-72602714D02*
X121821571Y-72774143D01*
X121764429Y-72831286D01*
X121650143Y-72888429D01*
X121478714Y-72888429D01*
X121364429Y-72831286D01*
X121307286Y-72774143D01*
X121250143Y-72659857D01*
X121250143Y-72202714D01*
X122450143Y-72202714D01*
X122450143Y-72602714D01*
X122393000Y-72717000D01*
X122335857Y-72774143D01*
X122221571Y-72831286D01*
X122107286Y-72831286D01*
X121993000Y-72774143D01*
X121935857Y-72717000D01*
X121878714Y-72602714D01*
X121878714Y-72202714D01*
X115550143Y-75601143D02*
X115478714Y-75815429D01*
X115407286Y-75886857D01*
X115264429Y-75958286D01*
X115050143Y-75958286D01*
X114907286Y-75886857D01*
X114835857Y-75815429D01*
X114764429Y-75672571D01*
X114764429Y-75101143D01*
X116264429Y-75101143D01*
X116264429Y-75601143D01*
X116193000Y-75744000D01*
X116121571Y-75815429D01*
X115978714Y-75886857D01*
X115835857Y-75886857D01*
X115693000Y-75815429D01*
X115621571Y-75744000D01*
X115550143Y-75601143D01*
X115550143Y-75101143D01*
X116264429Y-76601143D02*
X115050143Y-76601143D01*
X114907286Y-76672571D01*
X114835857Y-76744000D01*
X114764429Y-76886857D01*
X114764429Y-77172571D01*
X114835857Y-77315429D01*
X114907286Y-77386857D01*
X115050143Y-77458286D01*
X116264429Y-77458286D01*
X116264429Y-77958286D02*
X116264429Y-78815429D01*
X114764429Y-78386858D02*
X116264429Y-78386858D01*
X116264429Y-79101143D02*
X116264429Y-79958286D01*
X114764429Y-79529715D02*
X116264429Y-79529715D01*
X116264429Y-80744000D02*
X116264429Y-81029714D01*
X116193000Y-81172572D01*
X116050143Y-81315429D01*
X115764429Y-81386857D01*
X115264429Y-81386857D01*
X114978714Y-81315429D01*
X114835857Y-81172572D01*
X114764429Y-81029714D01*
X114764429Y-80744000D01*
X114835857Y-80601143D01*
X114978714Y-80458286D01*
X115264429Y-80386857D01*
X115764429Y-80386857D01*
X116050143Y-80458286D01*
X116193000Y-80601143D01*
X116264429Y-80744000D01*
X114764429Y-82029715D02*
X116264429Y-82029715D01*
X114764429Y-82886858D01*
X116264429Y-82886858D01*
X119338714Y-72974143D02*
X119338714Y-72059857D01*
D12*
X135509000Y-94742000D02*
X135509000Y-93472000D01*
X128524000Y-94742000D02*
X135509000Y-94742000D01*
X128524000Y-93472000D02*
X128524000Y-94742000D01*
X135636000Y-77343000D02*
X135636000Y-78740000D01*
X134620000Y-77343000D02*
X135636000Y-77343000D01*
X128270000Y-77343000D02*
X128270000Y-78613000D01*
X129667000Y-77343000D02*
X128270000Y-77343000D01*
D11*
X130635571Y-78148571D02*
X130635571Y-76648571D01*
X132421285Y-76577143D02*
X131135571Y-78505714D01*
X133207000Y-76648571D02*
X133492714Y-76648571D01*
X133635572Y-76720000D01*
X133778429Y-76862857D01*
X133849857Y-77148571D01*
X133849857Y-77648571D01*
X133778429Y-77934286D01*
X133635572Y-78077143D01*
X133492714Y-78148571D01*
X133207000Y-78148571D01*
X133064143Y-78077143D01*
X132921286Y-77934286D01*
X132849857Y-77648571D01*
X132849857Y-77148571D01*
X132921286Y-76862857D01*
X133064143Y-76720000D01*
X133207000Y-76648571D01*
X128066857Y-92668714D02*
X128981143Y-92668714D01*
X127943001Y-90712857D02*
X127543001Y-90141429D01*
X127257286Y-90712857D02*
X127257286Y-89512857D01*
X127714429Y-89512857D01*
X127828715Y-89570000D01*
X127885858Y-89627143D01*
X127943001Y-89741429D01*
X127943001Y-89912857D01*
X127885858Y-90027143D01*
X127828715Y-90084286D01*
X127714429Y-90141429D01*
X127257286Y-90141429D01*
X128971572Y-89912857D02*
X128971572Y-90712857D01*
X128685858Y-89455714D02*
X128400143Y-90312857D01*
X129143001Y-90312857D01*
X127943001Y-88172857D02*
X127543001Y-87601429D01*
X127257286Y-88172857D02*
X127257286Y-86972857D01*
X127714429Y-86972857D01*
X127828715Y-87030000D01*
X127885858Y-87087143D01*
X127943001Y-87201429D01*
X127943001Y-87372857D01*
X127885858Y-87487143D01*
X127828715Y-87544286D01*
X127714429Y-87601429D01*
X127257286Y-87601429D01*
X128343001Y-86972857D02*
X129085858Y-86972857D01*
X128685858Y-87430000D01*
X128857286Y-87430000D01*
X128971572Y-87487143D01*
X129028715Y-87544286D01*
X129085858Y-87658571D01*
X129085858Y-87944286D01*
X129028715Y-88058571D01*
X128971572Y-88115714D01*
X128857286Y-88172857D01*
X128514429Y-88172857D01*
X128400143Y-88115714D01*
X128343001Y-88058571D01*
X127943001Y-85759857D02*
X127543001Y-85188429D01*
X127257286Y-85759857D02*
X127257286Y-84559857D01*
X127714429Y-84559857D01*
X127828715Y-84617000D01*
X127885858Y-84674143D01*
X127943001Y-84788429D01*
X127943001Y-84959857D01*
X127885858Y-85074143D01*
X127828715Y-85131286D01*
X127714429Y-85188429D01*
X127257286Y-85188429D01*
X128400143Y-84674143D02*
X128457286Y-84617000D01*
X128571572Y-84559857D01*
X128857286Y-84559857D01*
X128971572Y-84617000D01*
X129028715Y-84674143D01*
X129085858Y-84788429D01*
X129085858Y-84902714D01*
X129028715Y-85074143D01*
X128343001Y-85759857D01*
X129085858Y-85759857D01*
X135051857Y-92668714D02*
X135966143Y-92668714D01*
X135690001Y-90712857D02*
X135290001Y-90141429D01*
X135004286Y-90712857D02*
X135004286Y-89512857D01*
X135461429Y-89512857D01*
X135575715Y-89570000D01*
X135632858Y-89627143D01*
X135690001Y-89741429D01*
X135690001Y-89912857D01*
X135632858Y-90027143D01*
X135575715Y-90084286D01*
X135461429Y-90141429D01*
X135004286Y-90141429D01*
X136718572Y-89912857D02*
X136718572Y-90712857D01*
X136432858Y-89455714D02*
X136147143Y-90312857D01*
X136890001Y-90312857D01*
X135690001Y-88172857D02*
X135290001Y-87601429D01*
X135004286Y-88172857D02*
X135004286Y-86972857D01*
X135461429Y-86972857D01*
X135575715Y-87030000D01*
X135632858Y-87087143D01*
X135690001Y-87201429D01*
X135690001Y-87372857D01*
X135632858Y-87487143D01*
X135575715Y-87544286D01*
X135461429Y-87601429D01*
X135004286Y-87601429D01*
X136090001Y-86972857D02*
X136832858Y-86972857D01*
X136432858Y-87430000D01*
X136604286Y-87430000D01*
X136718572Y-87487143D01*
X136775715Y-87544286D01*
X136832858Y-87658571D01*
X136832858Y-87944286D01*
X136775715Y-88058571D01*
X136718572Y-88115714D01*
X136604286Y-88172857D01*
X136261429Y-88172857D01*
X136147143Y-88115714D01*
X136090001Y-88058571D01*
X135690001Y-85632857D02*
X135290001Y-85061429D01*
X135004286Y-85632857D02*
X135004286Y-84432857D01*
X135461429Y-84432857D01*
X135575715Y-84490000D01*
X135632858Y-84547143D01*
X135690001Y-84661429D01*
X135690001Y-84832857D01*
X135632858Y-84947143D01*
X135575715Y-85004286D01*
X135461429Y-85061429D01*
X135004286Y-85061429D01*
X136147143Y-84547143D02*
X136204286Y-84490000D01*
X136318572Y-84432857D01*
X136604286Y-84432857D01*
X136718572Y-84490000D01*
X136775715Y-84547143D01*
X136832858Y-84661429D01*
X136832858Y-84775714D01*
X136775715Y-84947143D01*
X136090001Y-85632857D01*
X136832858Y-85632857D01*
X135690001Y-83092857D02*
X135290001Y-82521429D01*
X135004286Y-83092857D02*
X135004286Y-81892857D01*
X135461429Y-81892857D01*
X135575715Y-81950000D01*
X135632858Y-82007143D01*
X135690001Y-82121429D01*
X135690001Y-82292857D01*
X135632858Y-82407143D01*
X135575715Y-82464286D01*
X135461429Y-82521429D01*
X135004286Y-82521429D01*
X136832858Y-83092857D02*
X136147143Y-83092857D01*
X136490001Y-83092857D02*
X136490001Y-81892857D01*
X136375715Y-82064286D01*
X136261429Y-82178571D01*
X136147143Y-82235714D01*
X127943001Y-83092857D02*
X127543001Y-82521429D01*
X127257286Y-83092857D02*
X127257286Y-81892857D01*
X127714429Y-81892857D01*
X127828715Y-81950000D01*
X127885858Y-82007143D01*
X127943001Y-82121429D01*
X127943001Y-82292857D01*
X127885858Y-82407143D01*
X127828715Y-82464286D01*
X127714429Y-82521429D01*
X127257286Y-82521429D01*
X129085858Y-83092857D02*
X128400143Y-83092857D01*
X128743001Y-83092857D02*
X128743001Y-81892857D01*
X128628715Y-82064286D01*
X128514429Y-82178571D01*
X128400143Y-82235714D01*
X127743001Y-79479857D02*
X128485858Y-79479857D01*
X128085858Y-79937000D01*
X128257286Y-79937000D01*
X128371572Y-79994143D01*
X128428715Y-80051286D01*
X128485858Y-80165571D01*
X128485858Y-80451286D01*
X128428715Y-80565571D01*
X128371572Y-80622714D01*
X128257286Y-80679857D01*
X127914429Y-80679857D01*
X127800143Y-80622714D01*
X127743001Y-80565571D01*
X135921715Y-79352857D02*
X135350286Y-79352857D01*
X135293143Y-79924286D01*
X135350286Y-79867143D01*
X135464572Y-79810000D01*
X135750286Y-79810000D01*
X135864572Y-79867143D01*
X135921715Y-79924286D01*
X135978858Y-80038571D01*
X135978858Y-80324286D01*
X135921715Y-80438571D01*
X135864572Y-80495714D01*
X135750286Y-80552857D01*
X135464572Y-80552857D01*
X135350286Y-80495714D01*
X135293143Y-80438571D01*
D12*
X120269000Y-99949000D02*
X120269000Y-108839000D01*
X120269000Y-89535000D02*
X120269000Y-95758000D01*
X120269000Y-89535000D02*
X118110000Y-89535000D01*
X118110000Y-108839000D02*
X120269000Y-108839000D01*
D11*
X115170001Y-106149857D02*
X115912858Y-106149857D01*
X115512858Y-106607000D01*
X115684286Y-106607000D01*
X115798572Y-106664143D01*
X115855715Y-106721286D01*
X115912858Y-106835571D01*
X115912858Y-107121286D01*
X115855715Y-107235571D01*
X115798572Y-107292714D01*
X115684286Y-107349857D01*
X115341429Y-107349857D01*
X115227143Y-107292714D01*
X115170001Y-107235571D01*
X112922285Y-104682857D02*
X112922285Y-103482857D01*
X113322285Y-104340000D01*
X113722285Y-103482857D01*
X113722285Y-104682857D01*
X114522286Y-103482857D02*
X114750857Y-103482857D01*
X114865143Y-103540000D01*
X114979429Y-103654286D01*
X115036571Y-103882857D01*
X115036571Y-104282857D01*
X114979429Y-104511429D01*
X114865143Y-104625714D01*
X114750857Y-104682857D01*
X114522286Y-104682857D01*
X114408000Y-104625714D01*
X114293714Y-104511429D01*
X114236571Y-104282857D01*
X114236571Y-103882857D01*
X114293714Y-103654286D01*
X114408000Y-103540000D01*
X114522286Y-103482857D01*
X115493714Y-104625714D02*
X115665143Y-104682857D01*
X115950857Y-104682857D01*
X116065143Y-104625714D01*
X116122286Y-104568571D01*
X116179429Y-104454286D01*
X116179429Y-104340000D01*
X116122286Y-104225714D01*
X116065143Y-104168571D01*
X115950857Y-104111429D01*
X115722286Y-104054286D01*
X115608000Y-103997143D01*
X115550857Y-103940000D01*
X115493714Y-103825714D01*
X115493714Y-103711429D01*
X115550857Y-103597143D01*
X115608000Y-103540000D01*
X115722286Y-103482857D01*
X116008000Y-103482857D01*
X116179429Y-103540000D01*
X116693714Y-104682857D02*
X116693714Y-103482857D01*
X112922285Y-102142857D02*
X112922285Y-100942857D01*
X113322285Y-101800000D01*
X113722285Y-100942857D01*
X113722285Y-102142857D01*
X114293714Y-102142857D02*
X114293714Y-100942857D01*
X114808000Y-102085714D02*
X114979429Y-102142857D01*
X115265143Y-102142857D01*
X115379429Y-102085714D01*
X115436572Y-102028571D01*
X115493715Y-101914286D01*
X115493715Y-101800000D01*
X115436572Y-101685714D01*
X115379429Y-101628571D01*
X115265143Y-101571429D01*
X115036572Y-101514286D01*
X114922286Y-101457143D01*
X114865143Y-101400000D01*
X114808000Y-101285714D01*
X114808000Y-101171429D01*
X114865143Y-101057143D01*
X114922286Y-101000000D01*
X115036572Y-100942857D01*
X115322286Y-100942857D01*
X115493715Y-101000000D01*
X116236572Y-100942857D02*
X116465143Y-100942857D01*
X116579429Y-101000000D01*
X116693715Y-101114286D01*
X116750857Y-101342857D01*
X116750857Y-101742857D01*
X116693715Y-101971429D01*
X116579429Y-102085714D01*
X116465143Y-102142857D01*
X116236572Y-102142857D01*
X116122286Y-102085714D01*
X116008000Y-101971429D01*
X115950857Y-101742857D01*
X115950857Y-101342857D01*
X116008000Y-101114286D01*
X116122286Y-101000000D01*
X116236572Y-100942857D01*
X114347715Y-99488571D02*
X114290572Y-99545714D01*
X114119143Y-99602857D01*
X114004857Y-99602857D01*
X113833429Y-99545714D01*
X113719143Y-99431429D01*
X113662000Y-99317143D01*
X113604857Y-99088571D01*
X113604857Y-98917143D01*
X113662000Y-98688571D01*
X113719143Y-98574286D01*
X113833429Y-98460000D01*
X114004857Y-98402857D01*
X114119143Y-98402857D01*
X114290572Y-98460000D01*
X114347715Y-98517143D01*
X115433429Y-99602857D02*
X114862000Y-99602857D01*
X114862000Y-98402857D01*
X115833429Y-99602857D02*
X115833429Y-98402857D01*
X116519144Y-99602857D02*
X116004858Y-98917143D01*
X116519144Y-98402857D02*
X115833429Y-99088571D01*
X114290572Y-96948571D02*
X114233429Y-97005714D01*
X114062000Y-97062857D01*
X113947714Y-97062857D01*
X113776286Y-97005714D01*
X113662000Y-96891429D01*
X113604857Y-96777143D01*
X113547714Y-96548571D01*
X113547714Y-96377143D01*
X113604857Y-96148571D01*
X113662000Y-96034286D01*
X113776286Y-95920000D01*
X113947714Y-95862857D01*
X114062000Y-95862857D01*
X114233429Y-95920000D01*
X114290572Y-95977143D01*
X114747714Y-97005714D02*
X114919143Y-97062857D01*
X115204857Y-97062857D01*
X115319143Y-97005714D01*
X115376286Y-96948571D01*
X115433429Y-96834286D01*
X115433429Y-96720000D01*
X115376286Y-96605714D01*
X115319143Y-96548571D01*
X115204857Y-96491429D01*
X114976286Y-96434286D01*
X114862000Y-96377143D01*
X114804857Y-96320000D01*
X114747714Y-96205714D01*
X114747714Y-96091429D01*
X114804857Y-95977143D01*
X114862000Y-95920000D01*
X114976286Y-95862857D01*
X115262000Y-95862857D01*
X115433429Y-95920000D01*
X116176286Y-95862857D02*
X116290571Y-95862857D01*
X116404857Y-95920000D01*
X116462000Y-95977143D01*
X116519143Y-96091429D01*
X116576286Y-96320000D01*
X116576286Y-96605714D01*
X116519143Y-96834286D01*
X116462000Y-96948571D01*
X116404857Y-97005714D01*
X116290571Y-97062857D01*
X116176286Y-97062857D01*
X116062000Y-97005714D01*
X116004857Y-96948571D01*
X115947714Y-96834286D01*
X115890571Y-96605714D01*
X115890571Y-96320000D01*
X115947714Y-96091429D01*
X116004857Y-95977143D01*
X116062000Y-95920000D01*
X116176286Y-95862857D01*
X114290572Y-94535571D02*
X114233429Y-94592714D01*
X114062000Y-94649857D01*
X113947714Y-94649857D01*
X113776286Y-94592714D01*
X113662000Y-94478429D01*
X113604857Y-94364143D01*
X113547714Y-94135571D01*
X113547714Y-93964143D01*
X113604857Y-93735571D01*
X113662000Y-93621286D01*
X113776286Y-93507000D01*
X113947714Y-93449857D01*
X114062000Y-93449857D01*
X114233429Y-93507000D01*
X114290572Y-93564143D01*
X114747714Y-94592714D02*
X114919143Y-94649857D01*
X115204857Y-94649857D01*
X115319143Y-94592714D01*
X115376286Y-94535571D01*
X115433429Y-94421286D01*
X115433429Y-94307000D01*
X115376286Y-94192714D01*
X115319143Y-94135571D01*
X115204857Y-94078429D01*
X114976286Y-94021286D01*
X114862000Y-93964143D01*
X114804857Y-93907000D01*
X114747714Y-93792714D01*
X114747714Y-93678429D01*
X114804857Y-93564143D01*
X114862000Y-93507000D01*
X114976286Y-93449857D01*
X115262000Y-93449857D01*
X115433429Y-93507000D01*
X116576286Y-94649857D02*
X115890571Y-94649857D01*
X116233429Y-94649857D02*
X116233429Y-93449857D01*
X116119143Y-93621286D01*
X116004857Y-93735571D01*
X115890571Y-93792714D01*
X115493857Y-91525714D02*
X116408143Y-91525714D01*
X120042857Y-96381286D02*
X119971429Y-96595572D01*
X119971429Y-96952715D01*
X120042857Y-97095572D01*
X120114286Y-97167001D01*
X120257143Y-97238429D01*
X120400000Y-97238429D01*
X120542857Y-97167001D01*
X120614286Y-97095572D01*
X120685714Y-96952715D01*
X120757143Y-96667001D01*
X120828571Y-96524143D01*
X120900000Y-96452715D01*
X121042857Y-96381286D01*
X121185714Y-96381286D01*
X121328571Y-96452715D01*
X121400000Y-96524143D01*
X121471429Y-96667001D01*
X121471429Y-97024143D01*
X121400000Y-97238429D01*
X119971429Y-97881286D02*
X121471429Y-97881286D01*
X121471429Y-98452714D01*
X121400000Y-98595572D01*
X121328571Y-98667000D01*
X121185714Y-98738429D01*
X120971429Y-98738429D01*
X120828571Y-98667000D01*
X120757143Y-98595572D01*
X120685714Y-98452714D01*
X120685714Y-97881286D01*
X119971429Y-99381286D02*
X121471429Y-99381286D01*
D12*
X136652000Y-95631000D02*
X136652000Y-96520000D01*
X129159000Y-95631000D02*
X136652000Y-95631000D01*
X129159000Y-101092000D02*
X129159000Y-95631000D01*
X136652000Y-112395000D02*
X136652000Y-111506000D01*
X129159000Y-112395000D02*
X136652000Y-112395000D01*
X129159000Y-106553000D02*
X129159000Y-112395000D01*
D11*
X133781857Y-110448714D02*
X134696143Y-110448714D01*
X134093000Y-107864286D02*
X133693000Y-107864286D01*
X133693000Y-108492857D02*
X133693000Y-107292857D01*
X134264429Y-107292857D01*
X134664428Y-108435714D02*
X134835857Y-108492857D01*
X135121571Y-108492857D01*
X135235857Y-108435714D01*
X135293000Y-108378571D01*
X135350143Y-108264286D01*
X135350143Y-108150000D01*
X135293000Y-108035714D01*
X135235857Y-107978571D01*
X135121571Y-107921429D01*
X134893000Y-107864286D01*
X134778714Y-107807143D01*
X134721571Y-107750000D01*
X134664428Y-107635714D01*
X134664428Y-107521429D01*
X134721571Y-107407143D01*
X134778714Y-107350000D01*
X134893000Y-107292857D01*
X135178714Y-107292857D01*
X135350143Y-107350000D01*
X134413715Y-105838571D02*
X134356572Y-105895714D01*
X134185143Y-105952857D01*
X134070857Y-105952857D01*
X133899429Y-105895714D01*
X133785143Y-105781429D01*
X133728000Y-105667143D01*
X133670857Y-105438571D01*
X133670857Y-105267143D01*
X133728000Y-105038571D01*
X133785143Y-104924286D01*
X133899429Y-104810000D01*
X134070857Y-104752857D01*
X134185143Y-104752857D01*
X134356572Y-104810000D01*
X134413715Y-104867143D01*
X135499429Y-105952857D02*
X134928000Y-105952857D01*
X134928000Y-104752857D01*
X135899429Y-105952857D02*
X135899429Y-104752857D01*
X136585144Y-105952857D02*
X136070858Y-105267143D01*
X136585144Y-104752857D02*
X135899429Y-105438571D01*
X133772428Y-103539857D02*
X133772428Y-102339857D01*
X134058143Y-102339857D01*
X134229571Y-102397000D01*
X134343857Y-102511286D01*
X134401000Y-102625571D01*
X134458143Y-102854143D01*
X134458143Y-103025571D01*
X134401000Y-103254143D01*
X134343857Y-103368429D01*
X134229571Y-103482714D01*
X134058143Y-103539857D01*
X133772428Y-103539857D01*
X134972428Y-103539857D02*
X134972428Y-102339857D01*
X135543857Y-103539857D02*
X135543857Y-102339857D01*
X136229572Y-103539857D01*
X136229572Y-102339857D01*
X133734428Y-100999857D02*
X133734428Y-99799857D01*
X134020143Y-99799857D01*
X134191571Y-99857000D01*
X134305857Y-99971286D01*
X134363000Y-100085571D01*
X134420143Y-100314143D01*
X134420143Y-100485571D01*
X134363000Y-100714143D01*
X134305857Y-100828429D01*
X134191571Y-100942714D01*
X134020143Y-100999857D01*
X133734428Y-100999857D01*
X135163000Y-99799857D02*
X135391571Y-99799857D01*
X135505857Y-99857000D01*
X135620143Y-99971286D01*
X135677285Y-100199857D01*
X135677285Y-100599857D01*
X135620143Y-100828429D01*
X135505857Y-100942714D01*
X135391571Y-100999857D01*
X135163000Y-100999857D01*
X135048714Y-100942714D01*
X134934428Y-100828429D01*
X134877285Y-100599857D01*
X134877285Y-100199857D01*
X134934428Y-99971286D01*
X135048714Y-99857000D01*
X135163000Y-99799857D01*
X136191571Y-99799857D02*
X136191571Y-100771286D01*
X136248714Y-100885571D01*
X136305857Y-100942714D01*
X136420143Y-100999857D01*
X136648714Y-100999857D01*
X136763000Y-100942714D01*
X136820143Y-100885571D01*
X136877286Y-100771286D01*
X136877286Y-99799857D01*
X137277286Y-99799857D02*
X137963000Y-99799857D01*
X137620143Y-100999857D02*
X137620143Y-99799857D01*
X134347001Y-97132857D02*
X135089858Y-97132857D01*
X134689858Y-97590000D01*
X134861286Y-97590000D01*
X134975572Y-97647143D01*
X135032715Y-97704286D01*
X135089858Y-97818571D01*
X135089858Y-98104286D01*
X135032715Y-98218571D01*
X134975572Y-98275714D01*
X134861286Y-98332857D01*
X134518429Y-98332857D01*
X134404143Y-98275714D01*
X134347001Y-98218571D01*
X130091571Y-105886000D02*
X128591571Y-105886000D01*
X128591571Y-105314572D01*
X128663000Y-105171714D01*
X128734429Y-105100286D01*
X128877286Y-105028857D01*
X129091571Y-105028857D01*
X129234429Y-105100286D01*
X129305857Y-105171714D01*
X129377286Y-105314572D01*
X129377286Y-105886000D01*
X129948714Y-103528857D02*
X130020143Y-103600286D01*
X130091571Y-103814572D01*
X130091571Y-103957429D01*
X130020143Y-104171714D01*
X129877286Y-104314572D01*
X129734429Y-104386000D01*
X129448714Y-104457429D01*
X129234429Y-104457429D01*
X128948714Y-104386000D01*
X128805857Y-104314572D01*
X128663000Y-104171714D01*
X128591571Y-103957429D01*
X128591571Y-103814572D01*
X128663000Y-103600286D01*
X128734429Y-103528857D01*
X130091571Y-102886000D02*
X128591571Y-102886000D01*
X129663000Y-102386000D01*
X128591571Y-101886000D01*
X130091571Y-101886000D01*
X121224714Y-123732857D02*
X121224714Y-122532857D01*
X121510429Y-122532857D01*
X121681857Y-122590000D01*
X121796143Y-122704286D01*
X121853286Y-122818571D01*
X121910429Y-123047143D01*
X121910429Y-123218571D01*
X121853286Y-123447143D01*
X121796143Y-123561429D01*
X121681857Y-123675714D01*
X121510429Y-123732857D01*
X121224714Y-123732857D01*
X121910429Y-121192857D02*
X121510429Y-120621429D01*
X121224714Y-121192857D02*
X121224714Y-119992857D01*
X121681857Y-119992857D01*
X121796143Y-120050000D01*
X121853286Y-120107143D01*
X121910429Y-120221429D01*
X121910429Y-120392857D01*
X121853286Y-120507143D01*
X121796143Y-120564286D01*
X121681857Y-120621429D01*
X121224714Y-120621429D01*
X121069143Y-117706857D02*
X121754857Y-117706857D01*
X121412000Y-118906857D02*
X121412000Y-117706857D01*
X114925429Y-126158571D02*
X114868286Y-126215714D01*
X114696857Y-126272857D01*
X114582571Y-126272857D01*
X114411143Y-126215714D01*
X114296857Y-126101429D01*
X114239714Y-125987143D01*
X114182571Y-125758571D01*
X114182571Y-125587143D01*
X114239714Y-125358571D01*
X114296857Y-125244286D01*
X114411143Y-125130000D01*
X114582571Y-125072857D01*
X114696857Y-125072857D01*
X114868286Y-125130000D01*
X114925429Y-125187143D01*
X114366714Y-123732857D02*
X114366714Y-122532857D01*
X114652429Y-122532857D01*
X114823857Y-122590000D01*
X114938143Y-122704286D01*
X114995286Y-122818571D01*
X115052429Y-123047143D01*
X115052429Y-123218571D01*
X114995286Y-123447143D01*
X114938143Y-123561429D01*
X114823857Y-123675714D01*
X114652429Y-123732857D01*
X114366714Y-123732857D01*
X114925429Y-121192857D02*
X114525429Y-120621429D01*
X114239714Y-121192857D02*
X114239714Y-119992857D01*
X114696857Y-119992857D01*
X114811143Y-120050000D01*
X114868286Y-120107143D01*
X114925429Y-120221429D01*
X114925429Y-120392857D01*
X114868286Y-120507143D01*
X114811143Y-120564286D01*
X114696857Y-120621429D01*
X114239714Y-120621429D01*
X114084143Y-117579857D02*
X114769857Y-117579857D01*
X114427000Y-118779857D02*
X114427000Y-117579857D01*
X114027001Y-114912857D02*
X114769858Y-114912857D01*
X114369858Y-115370000D01*
X114541286Y-115370000D01*
X114655572Y-115427143D01*
X114712715Y-115484286D01*
X114769858Y-115598571D01*
X114769858Y-115884286D01*
X114712715Y-115998571D01*
X114655572Y-116055714D01*
X114541286Y-116112857D01*
X114198429Y-116112857D01*
X114084143Y-116055714D01*
X114027001Y-115998571D01*
X121697715Y-114912857D02*
X121126286Y-114912857D01*
X121069143Y-115484286D01*
X121126286Y-115427143D01*
X121240572Y-115370000D01*
X121526286Y-115370000D01*
X121640572Y-115427143D01*
X121697715Y-115484286D01*
X121754858Y-115598571D01*
X121754858Y-115884286D01*
X121697715Y-115998571D01*
X121640572Y-116055714D01*
X121526286Y-116112857D01*
X121240572Y-116112857D01*
X121126286Y-116055714D01*
X121069143Y-115998571D01*
X114223857Y-128355714D02*
X115138143Y-128355714D01*
X121081857Y-128355714D02*
X121996143Y-128355714D01*
X126034857Y-123275714D02*
X126949143Y-123275714D01*
X132130857Y-123148714D02*
X133045143Y-123148714D01*
X126092001Y-120119857D02*
X126834858Y-120119857D01*
X126434858Y-120577000D01*
X126606286Y-120577000D01*
X126720572Y-120634143D01*
X126777715Y-120691286D01*
X126834858Y-120805571D01*
X126834858Y-121091286D01*
X126777715Y-121205571D01*
X126720572Y-121262714D01*
X126606286Y-121319857D01*
X126263429Y-121319857D01*
X126149143Y-121262714D01*
X126092001Y-121205571D01*
X133000715Y-119992857D02*
X132429286Y-119992857D01*
X132372143Y-120564286D01*
X132429286Y-120507143D01*
X132543572Y-120450000D01*
X132829286Y-120450000D01*
X132943572Y-120507143D01*
X133000715Y-120564286D01*
X133057858Y-120678571D01*
X133057858Y-120964286D01*
X133000715Y-121078571D01*
X132943572Y-121135714D01*
X132829286Y-121192857D01*
X132543572Y-121192857D01*
X132429286Y-121135714D01*
X132372143Y-121078571D01*
X129070571Y-121395857D02*
X129070571Y-122110143D01*
X127570571Y-122110143D01*
X128284857Y-120895857D02*
X128284857Y-120395857D01*
X129070571Y-120181571D02*
X129070571Y-120895857D01*
X127570571Y-120895857D01*
X127570571Y-120181571D01*
X127570571Y-119753000D02*
X129070571Y-119253000D01*
X127570571Y-118753000D01*
X128284857Y-118253000D02*
X128284857Y-117753000D01*
X129070571Y-117538714D02*
X129070571Y-118253000D01*
X127570571Y-118253000D01*
X127570571Y-117538714D01*
X129070571Y-116181571D02*
X129070571Y-116895857D01*
X127570571Y-116895857D01*
X131549143Y-123467286D02*
X131620571Y-123253000D01*
X131620571Y-122895857D01*
X131549143Y-122753000D01*
X131477714Y-122681571D01*
X131334857Y-122610143D01*
X131192000Y-122610143D01*
X131049143Y-122681571D01*
X130977714Y-122753000D01*
X130906286Y-122895857D01*
X130834857Y-123181571D01*
X130763429Y-123324429D01*
X130692000Y-123395857D01*
X130549143Y-123467286D01*
X130406286Y-123467286D01*
X130263429Y-123395857D01*
X130192000Y-123324429D01*
X130120571Y-123181571D01*
X130120571Y-122824429D01*
X130192000Y-122610143D01*
X131620571Y-121967286D02*
X130120571Y-121967286D01*
X130834857Y-121967286D02*
X130834857Y-121110143D01*
X131620571Y-121110143D02*
X130120571Y-121110143D01*
X131620571Y-120395857D02*
X130120571Y-120395857D01*
X130834857Y-119181571D02*
X130834857Y-119681571D01*
X131620571Y-119681571D02*
X130120571Y-119681571D01*
X130120571Y-118967285D01*
X130120571Y-118610143D02*
X130120571Y-117753000D01*
X131620571Y-118181571D02*
X130120571Y-118181571D01*
X130834857Y-117253000D02*
X130834857Y-116753000D01*
X131620571Y-116538714D02*
X131620571Y-117253000D01*
X130120571Y-117253000D01*
X130120571Y-116538714D01*
X131620571Y-115038714D02*
X130906286Y-115538714D01*
X131620571Y-115895857D02*
X130120571Y-115895857D01*
X130120571Y-115324429D01*
X130192000Y-115181571D01*
X130263429Y-115110143D01*
X130406286Y-115038714D01*
X130620571Y-115038714D01*
X130763429Y-115110143D01*
X130834857Y-115181571D01*
X130906286Y-115324429D01*
X130906286Y-115895857D01*
X172250571Y-121776857D02*
X172250571Y-122491143D01*
X170750571Y-122491143D01*
X171464857Y-121276857D02*
X171464857Y-120776857D01*
X172250571Y-120562571D02*
X172250571Y-121276857D01*
X170750571Y-121276857D01*
X170750571Y-120562571D01*
X170750571Y-120134000D02*
X172250571Y-119634000D01*
X170750571Y-119134000D01*
X171464857Y-118634000D02*
X171464857Y-118134000D01*
X172250571Y-117919714D02*
X172250571Y-118634000D01*
X170750571Y-118634000D01*
X170750571Y-117919714D01*
X172250571Y-116562571D02*
X172250571Y-117276857D01*
X170750571Y-117276857D01*
X174729143Y-123848286D02*
X174800571Y-123634000D01*
X174800571Y-123276857D01*
X174729143Y-123134000D01*
X174657714Y-123062571D01*
X174514857Y-122991143D01*
X174372000Y-122991143D01*
X174229143Y-123062571D01*
X174157714Y-123134000D01*
X174086286Y-123276857D01*
X174014857Y-123562571D01*
X173943429Y-123705429D01*
X173872000Y-123776857D01*
X173729143Y-123848286D01*
X173586286Y-123848286D01*
X173443429Y-123776857D01*
X173372000Y-123705429D01*
X173300571Y-123562571D01*
X173300571Y-123205429D01*
X173372000Y-122991143D01*
X174800571Y-122348286D02*
X173300571Y-122348286D01*
X174014857Y-122348286D02*
X174014857Y-121491143D01*
X174800571Y-121491143D02*
X173300571Y-121491143D01*
X174800571Y-120776857D02*
X173300571Y-120776857D01*
X174014857Y-119562571D02*
X174014857Y-120062571D01*
X174800571Y-120062571D02*
X173300571Y-120062571D01*
X173300571Y-119348285D01*
X173300571Y-118991143D02*
X173300571Y-118134000D01*
X174800571Y-118562571D02*
X173300571Y-118562571D01*
X174014857Y-117634000D02*
X174014857Y-117134000D01*
X174800571Y-116919714D02*
X174800571Y-117634000D01*
X173300571Y-117634000D01*
X173300571Y-116919714D01*
X174800571Y-115419714D02*
X174086286Y-115919714D01*
X174800571Y-116276857D02*
X173300571Y-116276857D01*
X173300571Y-115705429D01*
X173372000Y-115562571D01*
X173443429Y-115491143D01*
X173586286Y-115419714D01*
X173800571Y-115419714D01*
X173943429Y-115491143D01*
X174014857Y-115562571D01*
X174086286Y-115705429D01*
X174086286Y-116276857D01*
X169341857Y-123148714D02*
X170256143Y-123148714D01*
X175183857Y-123275714D02*
X176098143Y-123275714D01*
X169399001Y-119992857D02*
X170141858Y-119992857D01*
X169741858Y-120450000D01*
X169913286Y-120450000D01*
X170027572Y-120507143D01*
X170084715Y-120564286D01*
X170141858Y-120678571D01*
X170141858Y-120964286D01*
X170084715Y-121078571D01*
X170027572Y-121135714D01*
X169913286Y-121192857D01*
X169570429Y-121192857D01*
X169456143Y-121135714D01*
X169399001Y-121078571D01*
X175926715Y-119992857D02*
X175355286Y-119992857D01*
X175298143Y-120564286D01*
X175355286Y-120507143D01*
X175469572Y-120450000D01*
X175755286Y-120450000D01*
X175869572Y-120507143D01*
X175926715Y-120564286D01*
X175983858Y-120678571D01*
X175983858Y-120964286D01*
X175926715Y-121078571D01*
X175869572Y-121135714D01*
X175755286Y-121192857D01*
X175469572Y-121192857D01*
X175355286Y-121135714D01*
X175298143Y-121078571D01*
X187410714Y-124917143D02*
X187410714Y-124002857D01*
X186794857Y-122319999D02*
X186794857Y-121577142D01*
X187252000Y-121977142D01*
X187252000Y-121805714D01*
X187309143Y-121691428D01*
X187366286Y-121634285D01*
X187480571Y-121577142D01*
X187766286Y-121577142D01*
X187880571Y-121634285D01*
X187937714Y-121691428D01*
X187994857Y-121805714D01*
X187994857Y-122148571D01*
X187937714Y-122262857D01*
X187880571Y-122319999D01*
X187880571Y-119135571D02*
X187937714Y-119192714D01*
X187994857Y-119364143D01*
X187994857Y-119478429D01*
X187937714Y-119649857D01*
X187823429Y-119764143D01*
X187709143Y-119821286D01*
X187480571Y-119878429D01*
X187309143Y-119878429D01*
X187080571Y-119821286D01*
X186966286Y-119764143D01*
X186852000Y-119649857D01*
X186794857Y-119478429D01*
X186794857Y-119364143D01*
X186852000Y-119192714D01*
X186909143Y-119135571D01*
X187994857Y-117281286D02*
X186794857Y-117281286D01*
X186794857Y-116995571D01*
X186852000Y-116824143D01*
X186966286Y-116709857D01*
X187080571Y-116652714D01*
X187309143Y-116595571D01*
X187480571Y-116595571D01*
X187709143Y-116652714D01*
X187823429Y-116709857D01*
X187937714Y-116824143D01*
X187994857Y-116995571D01*
X187994857Y-117281286D01*
X180915571Y-122828572D02*
X180915571Y-122542858D01*
X180987000Y-122400000D01*
X181129857Y-122257143D01*
X181415571Y-122185715D01*
X181915571Y-122185715D01*
X182201286Y-122257143D01*
X182344143Y-122400000D01*
X182415571Y-122542858D01*
X182415571Y-122828572D01*
X182344143Y-122971429D01*
X182201286Y-123114286D01*
X181915571Y-123185715D01*
X181415571Y-123185715D01*
X181129857Y-123114286D01*
X180987000Y-122971429D01*
X180915571Y-122828572D01*
X182415571Y-120828571D02*
X182415571Y-121542857D01*
X180915571Y-121542857D01*
X181629857Y-120328571D02*
X181629857Y-119828571D01*
X182415571Y-119614285D02*
X182415571Y-120328571D01*
X180915571Y-120328571D01*
X180915571Y-119614285D01*
X182415571Y-118971428D02*
X180915571Y-118971428D01*
X180915571Y-118614285D01*
X180987000Y-118400000D01*
X181129857Y-118257142D01*
X181272714Y-118185714D01*
X181558429Y-118114285D01*
X181772714Y-118114285D01*
X182058429Y-118185714D01*
X182201286Y-118257142D01*
X182344143Y-118400000D01*
X182415571Y-118614285D01*
X182415571Y-118971428D01*
D12*
X174879000Y-102870000D02*
X174879000Y-101727000D01*
X174752000Y-95250000D02*
X177419000Y-95250000D01*
X174752000Y-96393000D02*
X174752000Y-95250000D01*
X174879000Y-102870000D02*
X177800000Y-102870000D01*
D11*
X175811571Y-100810000D02*
X174311571Y-100810000D01*
X174311571Y-100238572D01*
X174383000Y-100095714D01*
X174454429Y-100024286D01*
X174597286Y-99952857D01*
X174811571Y-99952857D01*
X174954429Y-100024286D01*
X175025857Y-100095714D01*
X175097286Y-100238572D01*
X175097286Y-100810000D01*
X174311571Y-99024286D02*
X174311571Y-98738572D01*
X174383000Y-98595714D01*
X174525857Y-98452857D01*
X174811571Y-98381429D01*
X175311571Y-98381429D01*
X175597286Y-98452857D01*
X175740143Y-98595714D01*
X175811571Y-98738572D01*
X175811571Y-99024286D01*
X175740143Y-99167143D01*
X175597286Y-99310000D01*
X175311571Y-99381429D01*
X174811571Y-99381429D01*
X174525857Y-99310000D01*
X174383000Y-99167143D01*
X174311571Y-99024286D01*
X174311571Y-97952857D02*
X174311571Y-97095714D01*
X175811571Y-97524285D02*
X174311571Y-97524285D01*
X176742714Y-97104143D02*
X176742714Y-96189857D01*
X176253857Y-99332999D02*
X176253857Y-98590142D01*
X176711000Y-98990142D01*
X176711000Y-98818714D01*
X176768143Y-98704428D01*
X176825286Y-98647285D01*
X176939571Y-98590142D01*
X177225286Y-98590142D01*
X177339571Y-98647285D01*
X177396714Y-98704428D01*
X177453857Y-98818714D01*
X177453857Y-99161571D01*
X177396714Y-99275857D01*
X177339571Y-99332999D01*
X182899857Y-90312428D02*
X182971286Y-90098142D01*
X183042714Y-90026714D01*
X183185571Y-89955285D01*
X183399857Y-89955285D01*
X183542714Y-90026714D01*
X183614143Y-90098142D01*
X183685571Y-90241000D01*
X183685571Y-90812428D01*
X182185571Y-90812428D01*
X182185571Y-90312428D01*
X182257000Y-90169571D01*
X182328429Y-90098142D01*
X182471286Y-90026714D01*
X182614143Y-90026714D01*
X182757000Y-90098142D01*
X182828429Y-90169571D01*
X182899857Y-90312428D01*
X182899857Y-90812428D01*
X183685571Y-89312428D02*
X182185571Y-89312428D01*
X183257000Y-88812428D01*
X182185571Y-88312428D01*
X183685571Y-88312428D01*
X182899857Y-87598142D02*
X182899857Y-87098142D01*
X183685571Y-86883856D02*
X183685571Y-87598142D01*
X182185571Y-87598142D01*
X182185571Y-86883856D01*
X182328429Y-86312428D02*
X182257000Y-86240999D01*
X182185571Y-86098142D01*
X182185571Y-85740999D01*
X182257000Y-85598142D01*
X182328429Y-85526713D01*
X182471286Y-85455285D01*
X182614143Y-85455285D01*
X182828429Y-85526713D01*
X183685571Y-86383856D01*
X183685571Y-85455285D01*
X182828429Y-84598142D02*
X182757000Y-84741000D01*
X182685571Y-84812428D01*
X182542714Y-84883857D01*
X182471286Y-84883857D01*
X182328429Y-84812428D01*
X182257000Y-84741000D01*
X182185571Y-84598142D01*
X182185571Y-84312428D01*
X182257000Y-84169571D01*
X182328429Y-84098142D01*
X182471286Y-84026714D01*
X182542714Y-84026714D01*
X182685571Y-84098142D01*
X182757000Y-84169571D01*
X182828429Y-84312428D01*
X182828429Y-84598142D01*
X182899857Y-84741000D01*
X182971286Y-84812428D01*
X183114143Y-84883857D01*
X183399857Y-84883857D01*
X183542714Y-84812428D01*
X183614143Y-84741000D01*
X183685571Y-84598142D01*
X183685571Y-84312428D01*
X183614143Y-84169571D01*
X183542714Y-84098142D01*
X183399857Y-84026714D01*
X183114143Y-84026714D01*
X182971286Y-84098142D01*
X182899857Y-84169571D01*
X182828429Y-84312428D01*
X182185571Y-83098143D02*
X182185571Y-82955286D01*
X182257000Y-82812429D01*
X182328429Y-82741000D01*
X182471286Y-82669571D01*
X182757000Y-82598143D01*
X183114143Y-82598143D01*
X183399857Y-82669571D01*
X183542714Y-82741000D01*
X183614143Y-82812429D01*
X183685571Y-82955286D01*
X183685571Y-83098143D01*
X183614143Y-83241000D01*
X183542714Y-83312429D01*
X183399857Y-83383857D01*
X183114143Y-83455286D01*
X182757000Y-83455286D01*
X182471286Y-83383857D01*
X182328429Y-83312429D01*
X182257000Y-83241000D01*
X182185571Y-83098143D01*
X188756857Y-87817286D02*
X187556857Y-87817286D01*
X187556857Y-87531571D01*
X187614000Y-87360143D01*
X187728286Y-87245857D01*
X187842571Y-87188714D01*
X188071143Y-87131571D01*
X188242571Y-87131571D01*
X188471143Y-87188714D01*
X188585429Y-87245857D01*
X188699714Y-87360143D01*
X188756857Y-87531571D01*
X188756857Y-87817286D01*
X188642571Y-84845571D02*
X188699714Y-84902714D01*
X188756857Y-85074143D01*
X188756857Y-85188429D01*
X188699714Y-85359857D01*
X188585429Y-85474143D01*
X188471143Y-85531286D01*
X188242571Y-85588429D01*
X188071143Y-85588429D01*
X187842571Y-85531286D01*
X187728286Y-85474143D01*
X187614000Y-85359857D01*
X187556857Y-85188429D01*
X187556857Y-85074143D01*
X187614000Y-84902714D01*
X187671143Y-84845571D01*
X188172714Y-83134143D02*
X188172714Y-82219857D01*
X187556857Y-80536999D02*
X187556857Y-79794142D01*
X188014000Y-80194142D01*
X188014000Y-80022714D01*
X188071143Y-79908428D01*
X188128286Y-79851285D01*
X188242571Y-79794142D01*
X188528286Y-79794142D01*
X188642571Y-79851285D01*
X188699714Y-79908428D01*
X188756857Y-80022714D01*
X188756857Y-80365571D01*
X188699714Y-80479857D01*
X188642571Y-80536999D01*
X177377714Y-75260143D02*
X177377714Y-74345857D01*
X177580857Y-67424285D02*
X177009429Y-67824285D01*
X177580857Y-68110000D02*
X176380857Y-68110000D01*
X176380857Y-67652857D01*
X176438000Y-67538571D01*
X176495143Y-67481428D01*
X176609429Y-67424285D01*
X176780857Y-67424285D01*
X176895143Y-67481428D01*
X176952286Y-67538571D01*
X177009429Y-67652857D01*
X177009429Y-68110000D01*
X177580857Y-67024285D02*
X176780857Y-66395714D01*
X176780857Y-67024285D02*
X177580857Y-66395714D01*
X176380857Y-65725571D02*
X176380857Y-65039857D01*
X177580857Y-65382714D02*
X176380857Y-65382714D01*
X177580857Y-64754142D02*
X176780857Y-64125571D01*
X176780857Y-64754142D02*
X177580857Y-64125571D01*
X176126857Y-59150285D02*
X176126857Y-59721714D01*
X176698286Y-59778857D01*
X176641143Y-59721714D01*
X176584000Y-59607428D01*
X176584000Y-59321714D01*
X176641143Y-59207428D01*
X176698286Y-59150285D01*
X176812571Y-59093142D01*
X177098286Y-59093142D01*
X177212571Y-59150285D01*
X177269714Y-59207428D01*
X177326857Y-59321714D01*
X177326857Y-59607428D01*
X177269714Y-59721714D01*
X177212571Y-59778857D01*
D12*
X175387000Y-66040000D02*
X175387000Y-62484000D01*
X173990000Y-68453000D02*
X175387000Y-66040000D01*
X168910000Y-68453000D02*
X173990000Y-68453000D01*
X167259000Y-65786000D02*
X168910000Y-68453000D01*
X167259000Y-62357000D02*
X167259000Y-65786000D01*
D11*
X174320143Y-57318286D02*
X173405857Y-57318286D01*
X168624285Y-57680143D02*
X169195714Y-57680143D01*
X169252857Y-57108714D01*
X169195714Y-57165857D01*
X169081428Y-57223000D01*
X168795714Y-57223000D01*
X168681428Y-57165857D01*
X168624285Y-57108714D01*
X168567142Y-56994429D01*
X168567142Y-56708714D01*
X168624285Y-56594429D01*
X168681428Y-56537286D01*
X168795714Y-56480143D01*
X169081428Y-56480143D01*
X169195714Y-56537286D01*
X169252857Y-56594429D01*
X172890428Y-61678429D02*
X173604714Y-61678429D01*
X173604714Y-63178429D01*
X172390428Y-61678429D02*
X172390428Y-63178429D01*
X171890428Y-62107000D01*
X171390428Y-63178429D01*
X171390428Y-61678429D01*
X170818999Y-63178429D02*
X169890428Y-63178429D01*
X170390428Y-62607000D01*
X170176142Y-62607000D01*
X170033285Y-62535571D01*
X169961856Y-62464143D01*
X169890428Y-62321286D01*
X169890428Y-61964143D01*
X169961856Y-61821286D01*
X170033285Y-61749857D01*
X170176142Y-61678429D01*
X170604714Y-61678429D01*
X170747571Y-61749857D01*
X170818999Y-61821286D01*
X168533285Y-63178429D02*
X169247571Y-63178429D01*
X169319000Y-62464143D01*
X169247571Y-62535571D01*
X169104714Y-62607000D01*
X168747571Y-62607000D01*
X168604714Y-62535571D01*
X168533285Y-62464143D01*
X168461857Y-62321286D01*
X168461857Y-61964143D01*
X168533285Y-61821286D01*
X168604714Y-61749857D01*
X168747571Y-61678429D01*
X169104714Y-61678429D01*
X169247571Y-61749857D01*
X169319000Y-61821286D01*
D12*
X151765000Y-72263000D02*
X153289000Y-72263000D01*
X149606000Y-70104000D02*
X151765000Y-72263000D01*
X149606000Y-68580000D02*
X149606000Y-70104000D01*
X163322000Y-72263000D02*
X162306000Y-72263000D01*
X165608000Y-70104000D02*
X163322000Y-72263000D01*
X165608000Y-67310000D02*
X165608000Y-70104000D01*
D11*
X151171286Y-68503857D02*
X151171286Y-69418143D01*
X153127143Y-68888001D02*
X153698571Y-68488001D01*
X153127143Y-68202286D02*
X154327143Y-68202286D01*
X154327143Y-68659429D01*
X154270000Y-68773715D01*
X154212857Y-68830858D01*
X154098571Y-68888001D01*
X153927143Y-68888001D01*
X153812857Y-68830858D01*
X153755714Y-68773715D01*
X153698571Y-68659429D01*
X153698571Y-68202286D01*
X153127143Y-70030858D02*
X153127143Y-69345143D01*
X153127143Y-69688001D02*
X154327143Y-69688001D01*
X154155714Y-69573715D01*
X154041429Y-69459429D01*
X153984286Y-69345143D01*
X155667143Y-68888001D02*
X156238571Y-68488001D01*
X155667143Y-68202286D02*
X156867143Y-68202286D01*
X156867143Y-68659429D01*
X156810000Y-68773715D01*
X156752857Y-68830858D01*
X156638571Y-68888001D01*
X156467143Y-68888001D01*
X156352857Y-68830858D01*
X156295714Y-68773715D01*
X156238571Y-68659429D01*
X156238571Y-68202286D01*
X156752857Y-69345143D02*
X156810000Y-69402286D01*
X156867143Y-69516572D01*
X156867143Y-69802286D01*
X156810000Y-69916572D01*
X156752857Y-69973715D01*
X156638571Y-70030858D01*
X156524286Y-70030858D01*
X156352857Y-69973715D01*
X155667143Y-69288001D01*
X155667143Y-70030858D01*
X158207143Y-68888001D02*
X158778571Y-68488001D01*
X158207143Y-68202286D02*
X159407143Y-68202286D01*
X159407143Y-68659429D01*
X159350000Y-68773715D01*
X159292857Y-68830858D01*
X159178571Y-68888001D01*
X159007143Y-68888001D01*
X158892857Y-68830858D01*
X158835714Y-68773715D01*
X158778571Y-68659429D01*
X158778571Y-68202286D01*
X159407143Y-69288001D02*
X159407143Y-70030858D01*
X158950000Y-69630858D01*
X158950000Y-69802286D01*
X158892857Y-69916572D01*
X158835714Y-69973715D01*
X158721429Y-70030858D01*
X158435714Y-70030858D01*
X158321429Y-69973715D01*
X158264286Y-69916572D01*
X158207143Y-69802286D01*
X158207143Y-69459429D01*
X158264286Y-69345143D01*
X158321429Y-69288001D01*
X160747143Y-68888001D02*
X161318571Y-68488001D01*
X160747143Y-68202286D02*
X161947143Y-68202286D01*
X161947143Y-68659429D01*
X161890000Y-68773715D01*
X161832857Y-68830858D01*
X161718571Y-68888001D01*
X161547143Y-68888001D01*
X161432857Y-68830858D01*
X161375714Y-68773715D01*
X161318571Y-68659429D01*
X161318571Y-68202286D01*
X161547143Y-69916572D02*
X160747143Y-69916572D01*
X162004286Y-69630858D02*
X161147143Y-69345143D01*
X161147143Y-70088001D01*
X164487143Y-69500715D02*
X164487143Y-68929286D01*
X163915714Y-68872143D01*
X163972857Y-68929286D01*
X164030000Y-69043572D01*
X164030000Y-69329286D01*
X163972857Y-69443572D01*
X163915714Y-69500715D01*
X163801429Y-69557858D01*
X163515714Y-69557858D01*
X163401429Y-69500715D01*
X163344286Y-69443572D01*
X163287143Y-69329286D01*
X163287143Y-69043572D01*
X163344286Y-68929286D01*
X163401429Y-68872143D01*
X160682428Y-71457429D02*
X161182428Y-72171714D01*
X161539571Y-71457429D02*
X161539571Y-72957429D01*
X160968143Y-72957429D01*
X160825285Y-72886000D01*
X160753857Y-72814571D01*
X160682428Y-72671714D01*
X160682428Y-72457429D01*
X160753857Y-72314571D01*
X160825285Y-72243143D01*
X160968143Y-72171714D01*
X161539571Y-72171714D01*
X160039571Y-72243143D02*
X159539571Y-72243143D01*
X159325285Y-71457429D02*
X160039571Y-71457429D01*
X160039571Y-72957429D01*
X159325285Y-72957429D01*
X157968142Y-71457429D02*
X158682428Y-71457429D01*
X158682428Y-72957429D01*
X157539571Y-71886000D02*
X156825285Y-71886000D01*
X157682428Y-71457429D02*
X157182428Y-72957429D01*
X156682428Y-71457429D01*
X155896714Y-72171714D02*
X155896714Y-71457429D01*
X156396714Y-72957429D02*
X155896714Y-72171714D01*
X155396714Y-72957429D01*
X154968143Y-71528857D02*
X154753857Y-71457429D01*
X154396714Y-71457429D01*
X154253857Y-71528857D01*
X154182428Y-71600286D01*
X154111000Y-71743143D01*
X154111000Y-71886000D01*
X154182428Y-72028857D01*
X154253857Y-72100286D01*
X154396714Y-72171714D01*
X154682428Y-72243143D01*
X154825286Y-72314571D01*
X154896714Y-72386000D01*
X154968143Y-72528857D01*
X154968143Y-72671714D01*
X154896714Y-72814571D01*
X154825286Y-72886000D01*
X154682428Y-72957429D01*
X154325286Y-72957429D01*
X154111000Y-72886000D01*
X135722143Y-69186357D02*
X135722143Y-67986357D01*
X136179286Y-67986357D01*
X136293572Y-68043500D01*
X136350715Y-68100643D01*
X136407858Y-68214929D01*
X136407858Y-68386357D01*
X136350715Y-68500643D01*
X136293572Y-68557786D01*
X136179286Y-68614929D01*
X135722143Y-68614929D01*
X136865000Y-68100643D02*
X136922143Y-68043500D01*
X137036429Y-67986357D01*
X137322143Y-67986357D01*
X137436429Y-68043500D01*
X137493572Y-68100643D01*
X137550715Y-68214929D01*
X137550715Y-68329214D01*
X137493572Y-68500643D01*
X136807858Y-69186357D01*
X137550715Y-69186357D01*
X137779286Y-69300643D02*
X138693572Y-69300643D01*
X139436429Y-69129214D02*
X139322143Y-69186357D01*
X139093572Y-69186357D01*
X138979286Y-69129214D01*
X138922143Y-69014929D01*
X138922143Y-68557786D01*
X138979286Y-68443500D01*
X139093572Y-68386357D01*
X139322143Y-68386357D01*
X139436429Y-68443500D01*
X139493572Y-68557786D01*
X139493572Y-68672071D01*
X138922143Y-68786357D01*
X140693572Y-69072071D02*
X140636429Y-69129214D01*
X140465000Y-69186357D01*
X140350714Y-69186357D01*
X140179286Y-69129214D01*
X140065000Y-69014929D01*
X140007857Y-68900643D01*
X139950714Y-68672071D01*
X139950714Y-68500643D01*
X140007857Y-68272071D01*
X140065000Y-68157786D01*
X140179286Y-68043500D01*
X140350714Y-67986357D01*
X140465000Y-67986357D01*
X140636429Y-68043500D01*
X140693572Y-68100643D01*
X141722143Y-69186357D02*
X141722143Y-68557786D01*
X141665000Y-68443500D01*
X141550714Y-68386357D01*
X141322143Y-68386357D01*
X141207857Y-68443500D01*
X141722143Y-69129214D02*
X141607857Y-69186357D01*
X141322143Y-69186357D01*
X141207857Y-69129214D01*
X141150714Y-69014929D01*
X141150714Y-68900643D01*
X141207857Y-68786357D01*
X141322143Y-68729214D01*
X141607857Y-68729214D01*
X141722143Y-68672071D01*
X142122143Y-68386357D02*
X142579286Y-68386357D01*
X142293571Y-67986357D02*
X142293571Y-69014929D01*
X142350714Y-69129214D01*
X142465000Y-69186357D01*
X142579286Y-69186357D01*
X148268429Y-57245857D02*
X148268429Y-58103000D01*
X146768429Y-57674429D02*
X148268429Y-57674429D01*
X148268429Y-58888714D02*
X148268429Y-59174428D01*
X148197000Y-59317286D01*
X148054143Y-59460143D01*
X147768429Y-59531571D01*
X147268429Y-59531571D01*
X146982714Y-59460143D01*
X146839857Y-59317286D01*
X146768429Y-59174428D01*
X146768429Y-58888714D01*
X146839857Y-58745857D01*
X146982714Y-58603000D01*
X147268429Y-58531571D01*
X147768429Y-58531571D01*
X148054143Y-58603000D01*
X148197000Y-58745857D01*
X148268429Y-58888714D01*
X148268429Y-60174429D02*
X147054143Y-60174429D01*
X146911286Y-60245857D01*
X146839857Y-60317286D01*
X146768429Y-60460143D01*
X146768429Y-60745857D01*
X146839857Y-60888715D01*
X146911286Y-60960143D01*
X147054143Y-61031572D01*
X148268429Y-61031572D01*
X146911286Y-62603001D02*
X146839857Y-62531572D01*
X146768429Y-62317286D01*
X146768429Y-62174429D01*
X146839857Y-61960144D01*
X146982714Y-61817286D01*
X147125571Y-61745858D01*
X147411286Y-61674429D01*
X147625571Y-61674429D01*
X147911286Y-61745858D01*
X148054143Y-61817286D01*
X148197000Y-61960144D01*
X148268429Y-62174429D01*
X148268429Y-62317286D01*
X148197000Y-62531572D01*
X148125571Y-62603001D01*
X146768429Y-63245858D02*
X148268429Y-63245858D01*
X147554143Y-63245858D02*
X147554143Y-64103001D01*
X146768429Y-64103001D02*
X148268429Y-64103001D01*
X147554143Y-66460144D02*
X147482714Y-66674430D01*
X147411286Y-66745858D01*
X147268429Y-66817287D01*
X147054143Y-66817287D01*
X146911286Y-66745858D01*
X146839857Y-66674430D01*
X146768429Y-66531572D01*
X146768429Y-65960144D01*
X148268429Y-65960144D01*
X148268429Y-66460144D01*
X148197000Y-66603001D01*
X148125571Y-66674430D01*
X147982714Y-66745858D01*
X147839857Y-66745858D01*
X147697000Y-66674430D01*
X147625571Y-66603001D01*
X147554143Y-66460144D01*
X147554143Y-65960144D01*
X129472429Y-57607000D02*
X129472429Y-58464143D01*
X127972429Y-58035572D02*
X129472429Y-58035572D01*
X129472429Y-59249857D02*
X129472429Y-59535571D01*
X129401000Y-59678429D01*
X129258143Y-59821286D01*
X128972429Y-59892714D01*
X128472429Y-59892714D01*
X128186714Y-59821286D01*
X128043857Y-59678429D01*
X127972429Y-59535571D01*
X127972429Y-59249857D01*
X128043857Y-59107000D01*
X128186714Y-58964143D01*
X128472429Y-58892714D01*
X128972429Y-58892714D01*
X129258143Y-58964143D01*
X129401000Y-59107000D01*
X129472429Y-59249857D01*
X129472429Y-60535572D02*
X128258143Y-60535572D01*
X128115286Y-60607000D01*
X128043857Y-60678429D01*
X127972429Y-60821286D01*
X127972429Y-61107000D01*
X128043857Y-61249858D01*
X128115286Y-61321286D01*
X128258143Y-61392715D01*
X129472429Y-61392715D01*
X128115286Y-62964144D02*
X128043857Y-62892715D01*
X127972429Y-62678429D01*
X127972429Y-62535572D01*
X128043857Y-62321287D01*
X128186714Y-62178429D01*
X128329571Y-62107001D01*
X128615286Y-62035572D01*
X128829571Y-62035572D01*
X129115286Y-62107001D01*
X129258143Y-62178429D01*
X129401000Y-62321287D01*
X129472429Y-62535572D01*
X129472429Y-62678429D01*
X129401000Y-62892715D01*
X129329571Y-62964144D01*
X127972429Y-63607001D02*
X129472429Y-63607001D01*
X128758143Y-63607001D02*
X128758143Y-64464144D01*
X127972429Y-64464144D02*
X129472429Y-64464144D01*
X128401000Y-66249858D02*
X128401000Y-66964144D01*
X127972429Y-66107001D02*
X129472429Y-66607001D01*
X127972429Y-67107001D01*
D12*
X126492000Y-65024000D02*
X126492000Y-56769000D01*
X126492000Y-67183000D02*
X126492000Y-70104000D01*
D11*
X126891999Y-66824143D02*
X126149142Y-66824143D01*
X126549142Y-66367000D01*
X126377714Y-66367000D01*
X126263428Y-66309857D01*
X126206285Y-66252714D01*
X126149142Y-66138429D01*
X126149142Y-65852714D01*
X126206285Y-65738429D01*
X126263428Y-65681286D01*
X126377714Y-65624143D01*
X126720571Y-65624143D01*
X126834857Y-65681286D01*
X126891999Y-65738429D01*
X118459285Y-66824143D02*
X119030714Y-66824143D01*
X119087857Y-66252714D01*
X119030714Y-66309857D01*
X118916428Y-66367000D01*
X118630714Y-66367000D01*
X118516428Y-66309857D01*
X118459285Y-66252714D01*
X118402142Y-66138429D01*
X118402142Y-65852714D01*
X118459285Y-65738429D01*
X118516428Y-65681286D01*
X118630714Y-65624143D01*
X118916428Y-65624143D01*
X119030714Y-65681286D01*
X119087857Y-65738429D01*
X122869286Y-62957143D02*
X122869286Y-64157143D01*
X122583571Y-64157143D01*
X122412143Y-64100000D01*
X122297857Y-63985714D01*
X122240714Y-63871429D01*
X122183571Y-63642857D01*
X122183571Y-63471429D01*
X122240714Y-63242857D01*
X122297857Y-63128571D01*
X122412143Y-63014286D01*
X122583571Y-62957143D01*
X122869286Y-62957143D01*
X122183571Y-60658429D02*
X122240714Y-60601286D01*
X122412143Y-60544143D01*
X122526429Y-60544143D01*
X122697857Y-60601286D01*
X122812143Y-60715571D01*
X122869286Y-60829857D01*
X122926429Y-61058429D01*
X122926429Y-61229857D01*
X122869286Y-61458429D01*
X122812143Y-61572714D01*
X122697857Y-61687000D01*
X122526429Y-61744143D01*
X122412143Y-61744143D01*
X122240714Y-61687000D01*
X122183571Y-61629857D01*
X122342286Y-58216857D02*
X122342286Y-59131143D01*
X113674571Y-57991429D02*
X113731714Y-57934286D01*
X113903143Y-57877143D01*
X114017429Y-57877143D01*
X114188857Y-57934286D01*
X114303143Y-58048571D01*
X114360286Y-58162857D01*
X114417429Y-58391429D01*
X114417429Y-58562857D01*
X114360286Y-58791429D01*
X114303143Y-58905714D01*
X114188857Y-59020000D01*
X114017429Y-59077143D01*
X113903143Y-59077143D01*
X113731714Y-59020000D01*
X113674571Y-58962857D01*
X114360286Y-60417143D02*
X114360286Y-61617143D01*
X114074571Y-61617143D01*
X113903143Y-61560000D01*
X113788857Y-61445714D01*
X113731714Y-61331429D01*
X113674571Y-61102857D01*
X113674571Y-60931429D01*
X113731714Y-60702857D01*
X113788857Y-60588571D01*
X113903143Y-60474286D01*
X114074571Y-60417143D01*
X114360286Y-60417143D01*
X114503143Y-63414286D02*
X113588857Y-63414286D01*
D13*
X113760285Y-66697143D02*
X114331714Y-66697143D01*
X114388857Y-66125714D01*
X114331714Y-66182857D01*
X114217428Y-66240000D01*
X113931714Y-66240000D01*
X113817428Y-66182857D01*
X113760285Y-66125714D01*
X113703142Y-66011429D01*
X113703142Y-65725714D01*
X113760285Y-65611429D01*
X113817428Y-65554286D01*
X113931714Y-65497143D01*
X114217428Y-65497143D01*
X114331714Y-65554286D01*
X114388857Y-65611429D01*
X114458285Y-68291143D02*
X114458285Y-69491143D01*
X114001142Y-69491143D01*
X113886856Y-69434000D01*
X113829713Y-69376857D01*
X113772570Y-69262571D01*
X113772570Y-69091143D01*
X113829713Y-68976857D01*
X113886856Y-68919714D01*
X114001142Y-68862571D01*
X114458285Y-68862571D01*
X112572570Y-68405429D02*
X112629713Y-68348286D01*
X112801142Y-68291143D01*
X112915428Y-68291143D01*
X113086856Y-68348286D01*
X113201142Y-68462571D01*
X113258285Y-68576857D01*
X113315428Y-68805429D01*
X113315428Y-68976857D01*
X113258285Y-69205429D01*
X113201142Y-69319714D01*
X113086856Y-69434000D01*
X112915428Y-69491143D01*
X112801142Y-69491143D01*
X112629713Y-69434000D01*
X112572570Y-69376857D01*
X111658285Y-68919714D02*
X112058285Y-68919714D01*
X112058285Y-68291143D02*
X112058285Y-69491143D01*
X111486856Y-69491143D01*
X110858285Y-68976857D02*
X110972571Y-69034000D01*
X111029714Y-69091143D01*
X111086857Y-69205429D01*
X111086857Y-69262571D01*
X111029714Y-69376857D01*
X110972571Y-69434000D01*
X110858285Y-69491143D01*
X110629714Y-69491143D01*
X110515428Y-69434000D01*
X110458285Y-69376857D01*
X110401142Y-69262571D01*
X110401142Y-69205429D01*
X110458285Y-69091143D01*
X110515428Y-69034000D01*
X110629714Y-68976857D01*
X110858285Y-68976857D01*
X110972571Y-68919714D01*
X111029714Y-68862571D01*
X111086857Y-68748286D01*
X111086857Y-68519714D01*
X111029714Y-68405429D01*
X110972571Y-68348286D01*
X110858285Y-68291143D01*
X110629714Y-68291143D01*
X110515428Y-68348286D01*
X110458285Y-68405429D01*
X110401142Y-68519714D01*
X110401142Y-68748286D01*
X110458285Y-68862571D01*
X110515428Y-68919714D01*
X110629714Y-68976857D01*
X109315428Y-69491143D02*
X109886857Y-69491143D01*
X109944000Y-68919714D01*
X109886857Y-68976857D01*
X109772571Y-69034000D01*
X109486857Y-69034000D01*
X109372571Y-68976857D01*
X109315428Y-68919714D01*
X109258285Y-68805429D01*
X109258285Y-68519714D01*
X109315428Y-68405429D01*
X109372571Y-68348286D01*
X109486857Y-68291143D01*
X109772571Y-68291143D01*
X109886857Y-68348286D01*
X109944000Y-68405429D01*
X108858285Y-69491143D02*
X108058285Y-69491143D01*
X108572571Y-68291143D01*
X107086857Y-69091143D02*
X107086857Y-68291143D01*
X107372571Y-69548286D02*
X107658286Y-68691143D01*
X106915428Y-68691143D01*
D12*
X106426000Y-70104000D02*
X112522000Y-70104000D01*
D14*
X177770000Y-96240000D02*
X177770000Y-97790000D01*
X179070000Y-96240000D02*
X177770000Y-96240000D01*
X183261000Y-97663000D02*
X189103000Y-97663000D01*
X189103000Y-97663000D02*
X189103000Y-97917000D01*
X189103000Y-97917000D02*
X183261000Y-97917000D01*
X183261000Y-97917000D02*
X183261000Y-97790000D01*
X183261000Y-97790000D02*
X189103000Y-97790000D01*
X180594000Y-97536000D02*
X180213000Y-97536000D01*
X180594000Y-98044000D02*
X180213000Y-98044000D01*
X180594000Y-100076000D02*
X180213000Y-100076000D01*
X180594000Y-100584000D02*
X180213000Y-100584000D01*
X180594000Y-102616000D02*
X180213000Y-102616000D01*
X180594000Y-103124000D02*
X180213000Y-103124000D01*
X183134000Y-99060000D02*
X183134000Y-96520000D01*
X189230000Y-98044000D02*
X183134000Y-98044000D01*
X189230000Y-97536000D02*
X189230000Y-98044000D01*
X183134000Y-97536000D02*
X189230000Y-97536000D01*
X180594000Y-99060000D02*
X183134000Y-99060000D01*
X180594000Y-96520000D02*
X180594000Y-99060000D01*
X180594000Y-96520000D02*
X183134000Y-96520000D01*
X180594000Y-101600000D02*
X183134000Y-101600000D01*
X180594000Y-101600000D02*
X180594000Y-104140000D01*
X183134000Y-102616000D02*
X189230000Y-102616000D01*
X189230000Y-102616000D02*
X189230000Y-103124000D01*
X189230000Y-103124000D02*
X183134000Y-103124000D01*
X183134000Y-104140000D02*
X183134000Y-101600000D01*
X183134000Y-101600000D02*
X183134000Y-99060000D01*
X189230000Y-100584000D02*
X183134000Y-100584000D01*
X189230000Y-100076000D02*
X189230000Y-100584000D01*
X183134000Y-100076000D02*
X189230000Y-100076000D01*
X180594000Y-101600000D02*
X183134000Y-101600000D01*
X180594000Y-99060000D02*
X180594000Y-101600000D01*
X180594000Y-99060000D02*
X183134000Y-99060000D01*
X180594000Y-104140000D02*
X183134000Y-104140000D01*
X177770000Y-58140000D02*
X177770000Y-59690000D01*
X179070000Y-58140000D02*
X177770000Y-58140000D01*
X183261000Y-59563000D02*
X189103000Y-59563000D01*
X189103000Y-59563000D02*
X189103000Y-59817000D01*
X189103000Y-59817000D02*
X183261000Y-59817000D01*
X183261000Y-59817000D02*
X183261000Y-59690000D01*
X183261000Y-59690000D02*
X189103000Y-59690000D01*
X180594000Y-59436000D02*
X180213000Y-59436000D01*
X180594000Y-59944000D02*
X180213000Y-59944000D01*
X180594000Y-61976000D02*
X180213000Y-61976000D01*
X180594000Y-62484000D02*
X180213000Y-62484000D01*
X180594000Y-64516000D02*
X180213000Y-64516000D01*
X180594000Y-65024000D02*
X180213000Y-65024000D01*
X180594000Y-67056000D02*
X180213000Y-67056000D01*
X180594000Y-67564000D02*
X180213000Y-67564000D01*
X180594000Y-75184000D02*
X180213000Y-75184000D01*
X180594000Y-74676000D02*
X180213000Y-74676000D01*
X180594000Y-72644000D02*
X180213000Y-72644000D01*
X180594000Y-72136000D02*
X180213000Y-72136000D01*
X180594000Y-70104000D02*
X180213000Y-70104000D01*
X180594000Y-69596000D02*
X180213000Y-69596000D01*
X183134000Y-60960000D02*
X183134000Y-58420000D01*
X189230000Y-59944000D02*
X183134000Y-59944000D01*
X189230000Y-59436000D02*
X189230000Y-59944000D01*
X183134000Y-59436000D02*
X189230000Y-59436000D01*
X180594000Y-60960000D02*
X183134000Y-60960000D01*
X180594000Y-58420000D02*
X180594000Y-60960000D01*
X180594000Y-58420000D02*
X183134000Y-58420000D01*
X180594000Y-63500000D02*
X183134000Y-63500000D01*
X180594000Y-63500000D02*
X180594000Y-66040000D01*
X180594000Y-66040000D02*
X183134000Y-66040000D01*
X183134000Y-64516000D02*
X189230000Y-64516000D01*
X189230000Y-64516000D02*
X189230000Y-65024000D01*
X189230000Y-65024000D02*
X183134000Y-65024000D01*
X183134000Y-66040000D02*
X183134000Y-63500000D01*
X183134000Y-63500000D02*
X183134000Y-60960000D01*
X189230000Y-62484000D02*
X183134000Y-62484000D01*
X189230000Y-61976000D02*
X189230000Y-62484000D01*
X183134000Y-61976000D02*
X189230000Y-61976000D01*
X180594000Y-63500000D02*
X183134000Y-63500000D01*
X180594000Y-60960000D02*
X180594000Y-63500000D01*
X180594000Y-60960000D02*
X183134000Y-60960000D01*
X180594000Y-71120000D02*
X183134000Y-71120000D01*
X180594000Y-71120000D02*
X180594000Y-73660000D01*
X180594000Y-73660000D02*
X183134000Y-73660000D01*
X183134000Y-72136000D02*
X189230000Y-72136000D01*
X189230000Y-72136000D02*
X189230000Y-72644000D01*
X189230000Y-72644000D02*
X183134000Y-72644000D01*
X183134000Y-73660000D02*
X183134000Y-71120000D01*
X183134000Y-76200000D02*
X183134000Y-73660000D01*
X189230000Y-75184000D02*
X183134000Y-75184000D01*
X189230000Y-74676000D02*
X189230000Y-75184000D01*
X183134000Y-74676000D02*
X189230000Y-74676000D01*
X180594000Y-76200000D02*
X183134000Y-76200000D01*
X180594000Y-73660000D02*
X180594000Y-76200000D01*
X180594000Y-73660000D02*
X183134000Y-73660000D01*
X180594000Y-68580000D02*
X183134000Y-68580000D01*
X180594000Y-68580000D02*
X180594000Y-71120000D01*
X180594000Y-71120000D02*
X183134000Y-71120000D01*
X183134000Y-69596000D02*
X189230000Y-69596000D01*
X189230000Y-69596000D02*
X189230000Y-70104000D01*
X189230000Y-70104000D02*
X183134000Y-70104000D01*
X183134000Y-71120000D02*
X183134000Y-68580000D01*
X183134000Y-68580000D02*
X183134000Y-66040000D01*
X189230000Y-67564000D02*
X183134000Y-67564000D01*
X189230000Y-67056000D02*
X189230000Y-67564000D01*
X183134000Y-67056000D02*
X189230000Y-67056000D01*
X180594000Y-68580000D02*
X183134000Y-68580000D01*
X180594000Y-66040000D02*
X180594000Y-68580000D01*
X180594000Y-66040000D02*
X183134000Y-66040000D01*
X120650000Y-76200000D02*
X118110000Y-76200000D01*
X123470000Y-76480000D02*
X121920000Y-76480000D01*
X120650000Y-76200000D02*
X120650000Y-73660000D01*
X121920000Y-73380000D02*
X123470000Y-73380000D01*
X123470000Y-73380000D02*
X123470000Y-76480000D01*
X120650000Y-73660000D02*
X118110000Y-73660000D01*
X118110000Y-73660000D02*
X118110000Y-76200000D01*
X120650000Y-129540000D02*
X120650000Y-114300000D01*
X115570000Y-116840000D02*
X115570000Y-129540000D01*
X120650000Y-129540000D02*
X115570000Y-129540000D01*
X120650000Y-114300000D02*
X118110000Y-114300000D01*
X116840000Y-114020000D02*
X115290000Y-114020000D01*
X118110000Y-114300000D02*
X118110000Y-116840000D01*
X118110000Y-116840000D02*
X115570000Y-116840000D01*
X115290000Y-114020000D02*
X115290000Y-115570000D01*
X134620000Y-93980000D02*
X134620000Y-78740000D01*
X129540000Y-81280000D02*
X129540000Y-93980000D01*
X134620000Y-93980000D02*
X129540000Y-93980000D01*
X134620000Y-78740000D02*
X132080000Y-78740000D01*
X130810000Y-78460000D02*
X129260000Y-78460000D01*
X132080000Y-78740000D02*
X132080000Y-81280000D01*
X132080000Y-81280000D02*
X129540000Y-81280000D01*
X129260000Y-78460000D02*
X129260000Y-80010000D01*
X119380000Y-59690000D02*
X119380000Y-67310000D01*
X121920000Y-59690000D02*
X121920000Y-67310000D01*
X122200000Y-56870000D02*
X122200000Y-58420000D01*
X119380000Y-67310000D02*
X121920000Y-67310000D01*
X121920000Y-59690000D02*
X119380000Y-59690000D01*
X119100000Y-58420000D02*
X119100000Y-56870000D01*
X119100000Y-56870000D02*
X122200000Y-56870000D01*
X133350000Y-99060000D02*
X133350000Y-111760000D01*
X133350000Y-111760000D02*
X130810000Y-111760000D01*
X130810000Y-111760000D02*
X130810000Y-99060000D01*
X133630000Y-96240000D02*
X133630000Y-97790000D01*
X133350000Y-99060000D02*
X130810000Y-99060000D01*
X130530000Y-97790000D02*
X130530000Y-96240000D01*
X130530000Y-96240000D02*
X133630000Y-96240000D01*
X123190000Y-59690000D02*
X123190000Y-67310000D01*
X125730000Y-59690000D02*
X125730000Y-67310000D01*
X126010000Y-56870000D02*
X126010000Y-58420000D01*
X123190000Y-67310000D02*
X125730000Y-67310000D01*
X125730000Y-59690000D02*
X123190000Y-59690000D01*
X122910000Y-58420000D02*
X122910000Y-56870000D01*
X122910000Y-56870000D02*
X126010000Y-56870000D01*
X116840000Y-105410000D02*
X116840000Y-90170000D01*
X116840000Y-90170000D02*
X119380000Y-90170000D01*
X119380000Y-90170000D02*
X119380000Y-105410000D01*
X116560000Y-108230000D02*
X116560000Y-106680000D01*
X116840000Y-105410000D02*
X119380000Y-105410000D01*
X119660000Y-106680000D02*
X119660000Y-108230000D01*
X119660000Y-108230000D02*
X116560000Y-108230000D01*
X186690000Y-81280000D02*
X186690000Y-93980000D01*
X186690000Y-93980000D02*
X184150000Y-93980000D01*
X184150000Y-93980000D02*
X184150000Y-81280000D01*
X186970000Y-78460000D02*
X186970000Y-80010000D01*
X186690000Y-81280000D02*
X184150000Y-81280000D01*
X183870000Y-80010000D02*
X183870000Y-78460000D01*
X183870000Y-78460000D02*
X186970000Y-78460000D01*
X149580000Y-67340000D02*
X151130000Y-67340000D01*
X149580000Y-66040000D02*
X149580000Y-67340000D01*
X151003000Y-61849000D02*
X151003000Y-56007000D01*
X151003000Y-56007000D02*
X151257000Y-56007000D01*
X151257000Y-56007000D02*
X151257000Y-61849000D01*
X151257000Y-61849000D02*
X151130000Y-61849000D01*
X151130000Y-61849000D02*
X151130000Y-56007000D01*
X150876000Y-64516000D02*
X150876000Y-64897000D01*
X151384000Y-64516000D02*
X151384000Y-64897000D01*
X153416000Y-64516000D02*
X153416000Y-64897000D01*
X153924000Y-64516000D02*
X153924000Y-64897000D01*
X155956000Y-64516000D02*
X155956000Y-64897000D01*
X156464000Y-64516000D02*
X156464000Y-64897000D01*
X164084000Y-64516000D02*
X164084000Y-64897000D01*
X163576000Y-64516000D02*
X163576000Y-64897000D01*
X161544000Y-64516000D02*
X161544000Y-64897000D01*
X161036000Y-64516000D02*
X161036000Y-64897000D01*
X159004000Y-64516000D02*
X159004000Y-64897000D01*
X158496000Y-64516000D02*
X158496000Y-64897000D01*
X149860000Y-64516000D02*
X149860000Y-61976000D01*
X152400000Y-64516000D02*
X152400000Y-61976000D01*
X152400000Y-64516000D02*
X154940000Y-64516000D01*
X154940000Y-64516000D02*
X154940000Y-61976000D01*
X153416000Y-61976000D02*
X153416000Y-55880000D01*
X153416000Y-55880000D02*
X153924000Y-55880000D01*
X153924000Y-55880000D02*
X153924000Y-61976000D01*
X154940000Y-61976000D02*
X152400000Y-61976000D01*
X152400000Y-61976000D02*
X149860000Y-61976000D01*
X151384000Y-55880000D02*
X151384000Y-61976000D01*
X150876000Y-55880000D02*
X151384000Y-55880000D01*
X150876000Y-61976000D02*
X150876000Y-55880000D01*
X152400000Y-64516000D02*
X152400000Y-61976000D01*
X149860000Y-64516000D02*
X152400000Y-64516000D01*
X160020000Y-64516000D02*
X160020000Y-61976000D01*
X160020000Y-64516000D02*
X162560000Y-64516000D01*
X162560000Y-64516000D02*
X162560000Y-61976000D01*
X161036000Y-61976000D02*
X161036000Y-55880000D01*
X161036000Y-55880000D02*
X161544000Y-55880000D01*
X161544000Y-55880000D02*
X161544000Y-61976000D01*
X162560000Y-61976000D02*
X160020000Y-61976000D01*
X165100000Y-61976000D02*
X162560000Y-61976000D01*
X164084000Y-55880000D02*
X164084000Y-61976000D01*
X163576000Y-55880000D02*
X164084000Y-55880000D01*
X163576000Y-61976000D02*
X163576000Y-55880000D01*
X165100000Y-64516000D02*
X165100000Y-61976000D01*
X162560000Y-64516000D02*
X165100000Y-64516000D01*
X162560000Y-64516000D02*
X162560000Y-61976000D01*
X157480000Y-64516000D02*
X157480000Y-61976000D01*
X157480000Y-64516000D02*
X160020000Y-64516000D01*
X160020000Y-64516000D02*
X160020000Y-61976000D01*
X158496000Y-61976000D02*
X158496000Y-55880000D01*
X158496000Y-55880000D02*
X159004000Y-55880000D01*
X159004000Y-55880000D02*
X159004000Y-61976000D01*
X160020000Y-61976000D02*
X157480000Y-61976000D01*
X157480000Y-61976000D02*
X154940000Y-61976000D01*
X156464000Y-55880000D02*
X156464000Y-61976000D01*
X155956000Y-55880000D02*
X156464000Y-55880000D01*
X155956000Y-61976000D02*
X155956000Y-55880000D01*
X157480000Y-64516000D02*
X157480000Y-61976000D01*
X154940000Y-64516000D02*
X157480000Y-64516000D01*
X154940000Y-64516000D02*
X154940000Y-61976000D01*
X170180000Y-60960000D02*
X175260000Y-60960000D01*
X175260000Y-60960000D02*
X175260000Y-58420000D01*
X175260000Y-58420000D02*
X170180000Y-58420000D01*
X167360000Y-58140000D02*
X168910000Y-58140000D01*
X170180000Y-58420000D02*
X170180000Y-60960000D01*
X168910000Y-61240000D02*
X167360000Y-61240000D01*
X167360000Y-61240000D02*
X167360000Y-58140000D01*
X182880000Y-118110000D02*
X182880000Y-125730000D01*
X185420000Y-118110000D02*
X185420000Y-125730000D01*
X185700000Y-115290000D02*
X185700000Y-116840000D01*
X182880000Y-125730000D02*
X185420000Y-125730000D01*
X185420000Y-118110000D02*
X182880000Y-118110000D01*
X182600000Y-116840000D02*
X182600000Y-115290000D01*
X182600000Y-115290000D02*
X185700000Y-115290000D01*
X168910000Y-76200000D02*
X173990000Y-76200000D01*
X173990000Y-76200000D02*
X173990000Y-73660000D01*
X173990000Y-73660000D02*
X168910000Y-73660000D01*
X166090000Y-73380000D02*
X167640000Y-73380000D01*
X168910000Y-73660000D02*
X168910000Y-76200000D01*
X167640000Y-76480000D02*
X166090000Y-76480000D01*
X166090000Y-76480000D02*
X166090000Y-73380000D01*
X168910000Y-72390000D02*
X173990000Y-72390000D01*
X173990000Y-72390000D02*
X173990000Y-69850000D01*
X173990000Y-69850000D02*
X168910000Y-69850000D01*
X166090000Y-69570000D02*
X167640000Y-69570000D01*
X168910000Y-69850000D02*
X168910000Y-72390000D01*
X167640000Y-72670000D02*
X166090000Y-72670000D01*
X166090000Y-72670000D02*
X166090000Y-69570000D01*
X118140000Y-67590000D02*
X118140000Y-66040000D01*
X116840000Y-67590000D02*
X118140000Y-67590000D01*
X112649000Y-66167000D02*
X106807000Y-66167000D01*
X106807000Y-66167000D02*
X106807000Y-65913000D01*
X106807000Y-65913000D02*
X112649000Y-65913000D01*
X112649000Y-65913000D02*
X112649000Y-66040000D01*
X112649000Y-66040000D02*
X106807000Y-66040000D01*
X115316000Y-66294000D02*
X115697000Y-66294000D01*
X115316000Y-65786000D02*
X115697000Y-65786000D01*
X115316000Y-63754000D02*
X115697000Y-63754000D01*
X115316000Y-63246000D02*
X115697000Y-63246000D01*
X115316000Y-61214000D02*
X115697000Y-61214000D01*
X115316000Y-60706000D02*
X115697000Y-60706000D01*
X115316000Y-58166000D02*
X115697000Y-58166000D01*
X115316000Y-58674000D02*
X115697000Y-58674000D01*
X115316000Y-67310000D02*
X112776000Y-67310000D01*
X115316000Y-64770000D02*
X112776000Y-64770000D01*
X115316000Y-64770000D02*
X115316000Y-62230000D01*
X115316000Y-62230000D02*
X112776000Y-62230000D01*
X112776000Y-63754000D02*
X106680000Y-63754000D01*
X106680000Y-63754000D02*
X106680000Y-63246000D01*
X106680000Y-63246000D02*
X112776000Y-63246000D01*
X112776000Y-62230000D02*
X112776000Y-64770000D01*
X112776000Y-64770000D02*
X112776000Y-67310000D01*
X106680000Y-65786000D02*
X112776000Y-65786000D01*
X106680000Y-66294000D02*
X106680000Y-65786000D01*
X112776000Y-66294000D02*
X106680000Y-66294000D01*
X115316000Y-64770000D02*
X112776000Y-64770000D01*
X115316000Y-67310000D02*
X115316000Y-64770000D01*
X115316000Y-59690000D02*
X112776000Y-59690000D01*
X115316000Y-59690000D02*
X115316000Y-57150000D01*
X115316000Y-57150000D02*
X112776000Y-57150000D01*
X112776000Y-58674000D02*
X106680000Y-58674000D01*
X106680000Y-58674000D02*
X106680000Y-58166000D01*
X106680000Y-58166000D02*
X112776000Y-58166000D01*
X112776000Y-57150000D02*
X112776000Y-59690000D01*
X112776000Y-59690000D02*
X112776000Y-62230000D01*
X106680000Y-60706000D02*
X112776000Y-60706000D01*
X106680000Y-61214000D02*
X106680000Y-60706000D01*
X112776000Y-61214000D02*
X106680000Y-61214000D01*
X115316000Y-59690000D02*
X112776000Y-59690000D01*
X115316000Y-62230000D02*
X115316000Y-59690000D01*
X115316000Y-62230000D02*
X112776000Y-62230000D01*
X169262305Y-67036990D02*
G75*
G03X169750000Y-67740000I2187695J996990D01*
G01*
X173637695Y-67036990D02*
G75*
G02X173150000Y-67740000I-2187695J996990D01*
G01*
X169750000Y-67740000D02*
X173150000Y-67740000D01*
X169265121Y-65046873D02*
G75*
G02X171450000Y-63640000I2184879J-993127D01*
G01*
X173634879Y-65046873D02*
G75*
G03X171450000Y-63640000I-2184879J-993127D01*
G01*
X105813000Y-71628000D02*
X105813000Y-130048000D01*
X106363000Y-72168000D02*
X106363000Y-98588000D01*
X106363000Y-103088000D02*
X106363000Y-129488000D01*
X106363000Y-98588000D02*
X105813000Y-98588000D01*
X106363000Y-103088000D02*
X105813000Y-103088000D01*
X114913000Y-71628000D02*
X105813000Y-71628000D01*
X114363000Y-72168000D02*
X106363000Y-72168000D01*
X114913000Y-130048000D02*
X105813000Y-130048000D01*
X114363000Y-129488000D02*
X106363000Y-129488000D01*
X114913000Y-71628000D02*
X114363000Y-72168000D01*
X114913000Y-130048000D02*
X114363000Y-129488000D01*
X105813000Y-71628000D02*
X106363000Y-72168000D01*
X105813000Y-130048000D02*
X106363000Y-129488000D01*
D15*
G36*
X179334227Y-114235937D02*
X179349456Y-114249256D01*
X179379711Y-114321613D01*
X179261263Y-114342333D01*
X179091067Y-114379364D01*
X179025374Y-114430709D01*
X179021789Y-114563609D01*
X179123026Y-114677256D01*
X179269323Y-114712570D01*
X179301746Y-114703912D01*
X179392111Y-114695316D01*
X179375226Y-114751278D01*
X179236145Y-114842675D01*
X179056058Y-114821912D01*
X178910875Y-114699321D01*
X178903949Y-114687133D01*
X178853755Y-114497979D01*
X178866458Y-114394023D01*
X178987877Y-114258268D01*
X179171021Y-114197413D01*
X179334227Y-114235937D01*
X179334227Y-114235937D01*
G37*
X179334227Y-114235937D02*
X179349456Y-114249256D01*
X179379711Y-114321613D01*
X179261263Y-114342333D01*
X179091067Y-114379364D01*
X179025374Y-114430709D01*
X179021789Y-114563609D01*
X179123026Y-114677256D01*
X179269323Y-114712570D01*
X179301746Y-114703912D01*
X179392111Y-114695316D01*
X179375226Y-114751278D01*
X179236145Y-114842675D01*
X179056058Y-114821912D01*
X178910875Y-114699321D01*
X178903949Y-114687133D01*
X178853755Y-114497979D01*
X178866458Y-114394023D01*
X178987877Y-114258268D01*
X179171021Y-114197413D01*
X179334227Y-114235937D01*
G36*
X180407469Y-114240546D02*
X180508252Y-114401546D01*
X180607316Y-114593545D01*
X180670765Y-114754088D01*
X180678667Y-114799097D01*
X180603546Y-114807155D01*
X180416359Y-114811565D01*
X180346904Y-114811848D01*
X180015141Y-114811848D01*
X180135237Y-114524418D01*
X180140351Y-114511667D01*
X180297667Y-114511667D01*
X180304379Y-114589685D01*
X180335003Y-114596333D01*
X180421221Y-114534873D01*
X180424667Y-114511667D01*
X180395780Y-114429201D01*
X180387330Y-114427000D01*
X180315044Y-114486329D01*
X180297667Y-114511667D01*
X180140351Y-114511667D01*
X180213770Y-114328624D01*
X180253964Y-114213089D01*
X180255333Y-114204993D01*
X180320777Y-114173760D01*
X180338864Y-114173000D01*
X180407469Y-114240546D01*
X180407469Y-114240546D01*
G37*
X180407469Y-114240546D02*
X180508252Y-114401546D01*
X180607316Y-114593545D01*
X180670765Y-114754088D01*
X180678667Y-114799097D01*
X180603546Y-114807155D01*
X180416359Y-114811565D01*
X180346904Y-114811848D01*
X180015141Y-114811848D01*
X180135237Y-114524418D01*
X180140351Y-114511667D01*
X180297667Y-114511667D01*
X180304379Y-114589685D01*
X180335003Y-114596333D01*
X180421221Y-114534873D01*
X180424667Y-114511667D01*
X180395780Y-114429201D01*
X180387330Y-114427000D01*
X180315044Y-114486329D01*
X180297667Y-114511667D01*
X180140351Y-114511667D01*
X180213770Y-114328624D01*
X180253964Y-114213089D01*
X180255333Y-114204993D01*
X180320777Y-114173760D01*
X180338864Y-114173000D01*
X180407469Y-114240546D01*
G36*
X181678867Y-114194265D02*
X181776774Y-114246555D01*
X181779333Y-114257667D01*
X181714904Y-114339873D01*
X181694667Y-114342333D01*
X181630468Y-114414634D01*
X181610000Y-114549003D01*
X181578782Y-114728276D01*
X181525333Y-114808000D01*
X181465370Y-114774915D01*
X181440707Y-114610190D01*
X181440667Y-114601330D01*
X181404280Y-114397503D01*
X181313667Y-114342333D01*
X181200995Y-114296616D01*
X181186667Y-114257667D01*
X181261095Y-114201704D01*
X181444110Y-114173731D01*
X181483000Y-114173000D01*
X181678867Y-114194265D01*
X181678867Y-114194265D01*
G37*
X181678867Y-114194265D02*
X181776774Y-114246555D01*
X181779333Y-114257667D01*
X181714904Y-114339873D01*
X181694667Y-114342333D01*
X181630468Y-114414634D01*
X181610000Y-114549003D01*
X181578782Y-114728276D01*
X181525333Y-114808000D01*
X181465370Y-114774915D01*
X181440707Y-114610190D01*
X181440667Y-114601330D01*
X181404280Y-114397503D01*
X181313667Y-114342333D01*
X181200995Y-114296616D01*
X181186667Y-114257667D01*
X181261095Y-114201704D01*
X181444110Y-114173731D01*
X181483000Y-114173000D01*
X181678867Y-114194265D01*
G36*
X182722598Y-114287621D02*
X182821419Y-114466209D01*
X182839219Y-114513591D01*
X182942478Y-114811848D01*
X182309521Y-114811848D01*
X182412781Y-114513591D01*
X182413711Y-114511667D01*
X182583667Y-114511667D01*
X182590379Y-114589685D01*
X182621003Y-114596333D01*
X182707221Y-114534873D01*
X182710667Y-114511667D01*
X182681780Y-114429201D01*
X182673330Y-114427000D01*
X182601044Y-114486329D01*
X182583667Y-114511667D01*
X182413711Y-114511667D01*
X182506641Y-114319459D01*
X182607221Y-114219120D01*
X182626000Y-114215333D01*
X182722598Y-114287621D01*
X182722598Y-114287621D01*
G37*
X182722598Y-114287621D02*
X182821419Y-114466209D01*
X182839219Y-114513591D01*
X182942478Y-114811848D01*
X182309521Y-114811848D01*
X182412781Y-114513591D01*
X182413711Y-114511667D01*
X182583667Y-114511667D01*
X182590379Y-114589685D01*
X182621003Y-114596333D01*
X182707221Y-114534873D01*
X182710667Y-114511667D01*
X182681780Y-114429201D01*
X182673330Y-114427000D01*
X182601044Y-114486329D01*
X182583667Y-114511667D01*
X182413711Y-114511667D01*
X182506641Y-114319459D01*
X182607221Y-114219120D01*
X182626000Y-114215333D01*
X182722598Y-114287621D01*
G36*
X183726667Y-114215333D02*
X183792205Y-114332040D01*
X183811333Y-114474330D01*
X183856392Y-114640821D01*
X183938333Y-114681000D01*
X184051005Y-114726717D01*
X184065333Y-114765667D01*
X183992877Y-114829312D01*
X183853667Y-114850333D01*
X183718020Y-114832208D01*
X183657225Y-114746276D01*
X183642127Y-114545203D01*
X183642000Y-114506670D01*
X183659852Y-114292080D01*
X183708103Y-114210290D01*
X183726667Y-114215333D01*
X183726667Y-114215333D01*
G37*
X183726667Y-114215333D02*
X183792205Y-114332040D01*
X183811333Y-114474330D01*
X183856392Y-114640821D01*
X183938333Y-114681000D01*
X184051005Y-114726717D01*
X184065333Y-114765667D01*
X183992877Y-114829312D01*
X183853667Y-114850333D01*
X183718020Y-114832208D01*
X183657225Y-114746276D01*
X183642127Y-114545203D01*
X183642000Y-114506670D01*
X183659852Y-114292080D01*
X183708103Y-114210290D01*
X183726667Y-114215333D01*
G36*
X184887235Y-114246457D02*
X184912000Y-114422003D01*
X184940395Y-114633428D01*
X185006948Y-114719505D01*
X185083714Y-114665490D01*
X185128590Y-114536296D01*
X185187306Y-114294893D01*
X185221065Y-114219492D01*
X185231633Y-114308879D01*
X185226152Y-114469333D01*
X185195289Y-114699224D01*
X185118929Y-114806898D01*
X185035516Y-114832738D01*
X184867279Y-114827074D01*
X184802682Y-114797460D01*
X184756679Y-114676465D01*
X184743567Y-114487021D01*
X184760575Y-114299318D01*
X184804933Y-114183551D01*
X184827333Y-114173000D01*
X184887235Y-114246457D01*
X184887235Y-114246457D01*
G37*
X184887235Y-114246457D02*
X184912000Y-114422003D01*
X184940395Y-114633428D01*
X185006948Y-114719505D01*
X185083714Y-114665490D01*
X185128590Y-114536296D01*
X185187306Y-114294893D01*
X185221065Y-114219492D01*
X185231633Y-114308879D01*
X185226152Y-114469333D01*
X185195289Y-114699224D01*
X185118929Y-114806898D01*
X185035516Y-114832738D01*
X184867279Y-114827074D01*
X184802682Y-114797460D01*
X184756679Y-114676465D01*
X184743567Y-114487021D01*
X184760575Y-114299318D01*
X184804933Y-114183551D01*
X184827333Y-114173000D01*
X184887235Y-114246457D01*
G36*
X186577924Y-114327919D02*
X186605004Y-114533091D01*
X186605333Y-114558997D01*
X186567352Y-114777215D01*
X186472889Y-114850318D01*
X186351159Y-114769099D01*
X186285335Y-114659833D01*
X186193460Y-114469333D01*
X186187730Y-114659833D01*
X186155522Y-114821641D01*
X186094420Y-114843706D01*
X186036246Y-114744359D01*
X186012667Y-114558997D01*
X186040436Y-114314710D01*
X186115327Y-114221467D01*
X186224712Y-114286069D01*
X186301590Y-114403321D01*
X186429220Y-114638667D01*
X186432610Y-114400836D01*
X186459848Y-114244301D01*
X186520667Y-114215333D01*
X186577924Y-114327919D01*
X186577924Y-114327919D01*
G37*
X186577924Y-114327919D02*
X186605004Y-114533091D01*
X186605333Y-114558997D01*
X186567352Y-114777215D01*
X186472889Y-114850318D01*
X186351159Y-114769099D01*
X186285335Y-114659833D01*
X186193460Y-114469333D01*
X186187730Y-114659833D01*
X186155522Y-114821641D01*
X186094420Y-114843706D01*
X186036246Y-114744359D01*
X186012667Y-114558997D01*
X186040436Y-114314710D01*
X186115327Y-114221467D01*
X186224712Y-114286069D01*
X186301590Y-114403321D01*
X186429220Y-114638667D01*
X186432610Y-114400836D01*
X186459848Y-114244301D01*
X186520667Y-114215333D01*
X186577924Y-114327919D01*
G36*
X187785758Y-114216352D02*
X187787974Y-114273836D01*
X187746120Y-114426823D01*
X187706000Y-114469333D01*
X187634874Y-114588753D01*
X187621333Y-114685997D01*
X187584914Y-114820841D01*
X187536667Y-114850333D01*
X187472468Y-114778033D01*
X187452000Y-114643663D01*
X187420782Y-114464390D01*
X187367333Y-114384667D01*
X187285657Y-114262102D01*
X187282667Y-114234527D01*
X187329397Y-114206853D01*
X187424164Y-114278212D01*
X187540319Y-114373205D01*
X187622897Y-114339765D01*
X187675472Y-114275188D01*
X187760282Y-114176823D01*
X187785758Y-114216352D01*
X187785758Y-114216352D01*
G37*
X187785758Y-114216352D02*
X187787974Y-114273836D01*
X187746120Y-114426823D01*
X187706000Y-114469333D01*
X187634874Y-114588753D01*
X187621333Y-114685997D01*
X187584914Y-114820841D01*
X187536667Y-114850333D01*
X187472468Y-114778033D01*
X187452000Y-114643663D01*
X187420782Y-114464390D01*
X187367333Y-114384667D01*
X187285657Y-114262102D01*
X187282667Y-114234527D01*
X187329397Y-114206853D01*
X187424164Y-114278212D01*
X187540319Y-114373205D01*
X187622897Y-114339765D01*
X187675472Y-114275188D01*
X187760282Y-114176823D01*
X187785758Y-114216352D01*
G36*
X188818598Y-114287621D02*
X188917419Y-114466209D01*
X188935219Y-114513591D01*
X189038478Y-114811848D01*
X188405521Y-114811848D01*
X188508781Y-114513591D01*
X188512127Y-114506670D01*
X188637333Y-114506670D01*
X188698794Y-114592888D01*
X188722000Y-114596333D01*
X188804465Y-114567446D01*
X188806667Y-114558997D01*
X188747338Y-114486711D01*
X188722000Y-114469333D01*
X188643981Y-114476046D01*
X188637333Y-114506670D01*
X188512127Y-114506670D01*
X188602641Y-114319459D01*
X188703221Y-114219120D01*
X188722000Y-114215333D01*
X188818598Y-114287621D01*
X188818598Y-114287621D01*
G37*
X188818598Y-114287621D02*
X188917419Y-114466209D01*
X188935219Y-114513591D01*
X189038478Y-114811848D01*
X188405521Y-114811848D01*
X188508781Y-114513591D01*
X188512127Y-114506670D01*
X188637333Y-114506670D01*
X188698794Y-114592888D01*
X188722000Y-114596333D01*
X188804465Y-114567446D01*
X188806667Y-114558997D01*
X188747338Y-114486711D01*
X188722000Y-114469333D01*
X188643981Y-114476046D01*
X188637333Y-114506670D01*
X188512127Y-114506670D01*
X188602641Y-114319459D01*
X188703221Y-114219120D01*
X188722000Y-114215333D01*
X188818598Y-114287621D01*
G36*
X179106484Y-113249343D02*
X179167666Y-113347500D01*
X179271289Y-113538000D01*
X179331538Y-113326333D01*
X179370534Y-113212259D01*
X179390459Y-113240320D01*
X179400005Y-113423906D01*
X179400227Y-113432167D01*
X179378414Y-113647867D01*
X179314309Y-113747283D01*
X179231213Y-113710123D01*
X179184329Y-113620178D01*
X179131925Y-113540290D01*
X179054817Y-113597459D01*
X179020346Y-113641345D01*
X178946338Y-113720822D01*
X178912941Y-113680273D01*
X178903567Y-113496041D01*
X178903359Y-113474500D01*
X178927672Y-113242194D01*
X178998867Y-113165467D01*
X179106484Y-113249343D01*
X179106484Y-113249343D01*
G37*
X179106484Y-113249343D02*
X179167666Y-113347500D01*
X179271289Y-113538000D01*
X179331538Y-113326333D01*
X179370534Y-113212259D01*
X179390459Y-113240320D01*
X179400005Y-113423906D01*
X179400227Y-113432167D01*
X179378414Y-113647867D01*
X179314309Y-113747283D01*
X179231213Y-113710123D01*
X179184329Y-113620178D01*
X179131925Y-113540290D01*
X179054817Y-113597459D01*
X179020346Y-113641345D01*
X178946338Y-113720822D01*
X178912941Y-113680273D01*
X178903567Y-113496041D01*
X178903359Y-113474500D01*
X178927672Y-113242194D01*
X178998867Y-113165467D01*
X179106484Y-113249343D01*
G36*
X180870233Y-113183298D02*
X180838447Y-113212162D01*
X180826833Y-113215363D01*
X180701329Y-113282128D01*
X180678667Y-113326333D01*
X180748324Y-113405736D01*
X180826833Y-113437304D01*
X180931180Y-113469482D01*
X180871056Y-113482747D01*
X180826833Y-113485845D01*
X180700925Y-113531418D01*
X180678667Y-113574125D01*
X180748409Y-113658837D01*
X180826833Y-113691304D01*
X180874211Y-113721088D01*
X180760928Y-113738948D01*
X180742167Y-113739845D01*
X180585694Y-113728570D01*
X180521386Y-113643816D01*
X180509333Y-113453333D01*
X180523378Y-113254779D01*
X180592102Y-113175831D01*
X180742167Y-113166821D01*
X180870233Y-113183298D01*
X180870233Y-113183298D01*
G37*
X180870233Y-113183298D02*
X180838447Y-113212162D01*
X180826833Y-113215363D01*
X180701329Y-113282128D01*
X180678667Y-113326333D01*
X180748324Y-113405736D01*
X180826833Y-113437304D01*
X180931180Y-113469482D01*
X180871056Y-113482747D01*
X180826833Y-113485845D01*
X180700925Y-113531418D01*
X180678667Y-113574125D01*
X180748409Y-113658837D01*
X180826833Y-113691304D01*
X180874211Y-113721088D01*
X180760928Y-113738948D01*
X180742167Y-113739845D01*
X180585694Y-113728570D01*
X180521386Y-113643816D01*
X180509333Y-113453333D01*
X180523378Y-113254779D01*
X180592102Y-113175831D01*
X180742167Y-113166821D01*
X180870233Y-113183298D01*
G36*
X182344619Y-113180495D02*
X182409090Y-113201782D01*
X182393167Y-113213073D01*
X182316977Y-113319791D01*
X182287333Y-113502722D01*
X182262165Y-113677990D01*
X182202667Y-113749667D01*
X182142653Y-113676238D01*
X182118000Y-113501875D01*
X182069032Y-113286317D01*
X181969833Y-113215363D01*
X181949438Y-113191379D01*
X182070623Y-113175979D01*
X182160333Y-113173505D01*
X182344619Y-113180495D01*
X182344619Y-113180495D01*
G37*
X182344619Y-113180495D02*
X182409090Y-113201782D01*
X182393167Y-113213073D01*
X182316977Y-113319791D01*
X182287333Y-113502722D01*
X182262165Y-113677990D01*
X182202667Y-113749667D01*
X182142653Y-113676238D01*
X182118000Y-113501875D01*
X182069032Y-113286317D01*
X181969833Y-113215363D01*
X181949438Y-113191379D01*
X182070623Y-113175979D01*
X182160333Y-113173505D01*
X182344619Y-113180495D01*
G36*
X183957776Y-113229599D02*
X183986397Y-113347500D01*
X183992127Y-113538000D01*
X184084002Y-113347500D01*
X184189483Y-113184212D01*
X184254283Y-113177962D01*
X184256238Y-113317468D01*
X184231369Y-113422499D01*
X184167800Y-113616897D01*
X184117791Y-113725234D01*
X184115912Y-113727310D01*
X184021302Y-113735033D01*
X183930133Y-113629209D01*
X183887560Y-113469503D01*
X183877435Y-113347716D01*
X183853388Y-113381024D01*
X183821725Y-113489389D01*
X183740340Y-113659468D01*
X183660831Y-113729278D01*
X183565455Y-113743435D01*
X183557333Y-113734996D01*
X183536408Y-113642550D01*
X183485352Y-113455337D01*
X183478577Y-113431608D01*
X183443878Y-113227635D01*
X183480487Y-113162040D01*
X183567858Y-113246759D01*
X183623331Y-113347500D01*
X183715206Y-113538000D01*
X183720936Y-113347500D01*
X183773934Y-113194612D01*
X183853667Y-113157000D01*
X183957776Y-113229599D01*
X183957776Y-113229599D01*
G37*
X183957776Y-113229599D02*
X183986397Y-113347500D01*
X183992127Y-113538000D01*
X184084002Y-113347500D01*
X184189483Y-113184212D01*
X184254283Y-113177962D01*
X184256238Y-113317468D01*
X184231369Y-113422499D01*
X184167800Y-113616897D01*
X184117791Y-113725234D01*
X184115912Y-113727310D01*
X184021302Y-113735033D01*
X183930133Y-113629209D01*
X183887560Y-113469503D01*
X183877435Y-113347716D01*
X183853388Y-113381024D01*
X183821725Y-113489389D01*
X183740340Y-113659468D01*
X183660831Y-113729278D01*
X183565455Y-113743435D01*
X183557333Y-113734996D01*
X183536408Y-113642550D01*
X183485352Y-113455337D01*
X183478577Y-113431608D01*
X183443878Y-113227635D01*
X183480487Y-113162040D01*
X183567858Y-113246759D01*
X183623331Y-113347500D01*
X183715206Y-113538000D01*
X183720936Y-113347500D01*
X183773934Y-113194612D01*
X183853667Y-113157000D01*
X183957776Y-113229599D01*
G36*
X185798234Y-113219900D02*
X185904080Y-113372960D01*
X185882083Y-113562721D01*
X185839961Y-113626729D01*
X185672602Y-113731902D01*
X185477723Y-113738302D01*
X185327509Y-113650511D01*
X185296786Y-113592261D01*
X185287744Y-113442947D01*
X185439708Y-113442947D01*
X185476919Y-113591346D01*
X185582730Y-113664803D01*
X185589333Y-113665000D01*
X185693879Y-113597047D01*
X185730233Y-113532309D01*
X185733807Y-113375802D01*
X185649605Y-113274276D01*
X185528289Y-113276636D01*
X185493424Y-113303709D01*
X185439708Y-113442947D01*
X185287744Y-113442947D01*
X185282209Y-113351552D01*
X185403384Y-113199194D01*
X185592686Y-113157000D01*
X185798234Y-113219900D01*
X185798234Y-113219900D01*
G37*
X185798234Y-113219900D02*
X185904080Y-113372960D01*
X185882083Y-113562721D01*
X185839961Y-113626729D01*
X185672602Y-113731902D01*
X185477723Y-113738302D01*
X185327509Y-113650511D01*
X185296786Y-113592261D01*
X185287744Y-113442947D01*
X185439708Y-113442947D01*
X185476919Y-113591346D01*
X185582730Y-113664803D01*
X185589333Y-113665000D01*
X185693879Y-113597047D01*
X185730233Y-113532309D01*
X185733807Y-113375802D01*
X185649605Y-113274276D01*
X185528289Y-113276636D01*
X185493424Y-113303709D01*
X185439708Y-113442947D01*
X185287744Y-113442947D01*
X185282209Y-113351552D01*
X185403384Y-113199194D01*
X185592686Y-113157000D01*
X185798234Y-113219900D01*
G36*
X187166970Y-113172537D02*
X187167017Y-113172543D01*
X187327443Y-113222832D01*
X187396693Y-113357546D01*
X187411173Y-113474500D01*
X187412717Y-113684844D01*
X187365846Y-113737347D01*
X187260519Y-113639094D01*
X187231193Y-113601500D01*
X187144763Y-113499662D01*
X187118575Y-113535228D01*
X187116026Y-113601500D01*
X187087827Y-113740654D01*
X187030403Y-113746818D01*
X186972827Y-113645985D01*
X186944172Y-113464145D01*
X186944000Y-113447709D01*
X186951556Y-113326333D01*
X187113333Y-113326333D01*
X187144311Y-113396023D01*
X187169778Y-113382778D01*
X187179911Y-113282298D01*
X187169778Y-113269889D01*
X187119443Y-113281511D01*
X187113333Y-113326333D01*
X186951556Y-113326333D01*
X186956432Y-113248029D01*
X187018413Y-113171534D01*
X187166970Y-113172537D01*
X187166970Y-113172537D01*
G37*
X187166970Y-113172537D02*
X187167017Y-113172543D01*
X187327443Y-113222832D01*
X187396693Y-113357546D01*
X187411173Y-113474500D01*
X187412717Y-113684844D01*
X187365846Y-113737347D01*
X187260519Y-113639094D01*
X187231193Y-113601500D01*
X187144763Y-113499662D01*
X187118575Y-113535228D01*
X187116026Y-113601500D01*
X187087827Y-113740654D01*
X187030403Y-113746818D01*
X186972827Y-113645985D01*
X186944172Y-113464145D01*
X186944000Y-113447709D01*
X186951556Y-113326333D01*
X187113333Y-113326333D01*
X187144311Y-113396023D01*
X187169778Y-113382778D01*
X187179911Y-113282298D01*
X187169778Y-113269889D01*
X187119443Y-113281511D01*
X187113333Y-113326333D01*
X186951556Y-113326333D01*
X186956432Y-113248029D01*
X187018413Y-113171534D01*
X187166970Y-113172537D01*
G36*
X188632074Y-113223436D02*
X188637333Y-113258600D01*
X188662324Y-113317504D01*
X188738933Y-113258600D01*
X188865426Y-113168582D01*
X188936841Y-113171968D01*
X188909116Y-113260888D01*
X188890015Y-113285588D01*
X188831977Y-113407250D01*
X188897908Y-113539002D01*
X188935104Y-113581921D01*
X189028212Y-113704415D01*
X188998609Y-113747516D01*
X188963722Y-113749667D01*
X188797960Y-113693814D01*
X188738933Y-113648067D01*
X188655038Y-113589162D01*
X188637333Y-113648067D01*
X188581970Y-113743356D01*
X188552667Y-113749667D01*
X188496704Y-113675238D01*
X188468731Y-113492223D01*
X188468000Y-113453333D01*
X188489265Y-113257466D01*
X188541555Y-113159559D01*
X188552667Y-113157000D01*
X188632074Y-113223436D01*
X188632074Y-113223436D01*
G37*
X188632074Y-113223436D02*
X188637333Y-113258600D01*
X188662324Y-113317504D01*
X188738933Y-113258600D01*
X188865426Y-113168582D01*
X188936841Y-113171968D01*
X188909116Y-113260888D01*
X188890015Y-113285588D01*
X188831977Y-113407250D01*
X188897908Y-113539002D01*
X188935104Y-113581921D01*
X189028212Y-113704415D01*
X188998609Y-113747516D01*
X188963722Y-113749667D01*
X188797960Y-113693814D01*
X188738933Y-113648067D01*
X188655038Y-113589162D01*
X188637333Y-113648067D01*
X188581970Y-113743356D01*
X188552667Y-113749667D01*
X188496704Y-113675238D01*
X188468731Y-113492223D01*
X188468000Y-113453333D01*
X188489265Y-113257466D01*
X188541555Y-113159559D01*
X188552667Y-113157000D01*
X188632074Y-113223436D01*
G36*
X180230476Y-111367934D02*
X180255333Y-111506000D01*
X180314616Y-111668885D01*
X180449573Y-111733302D01*
X180595864Y-111696017D01*
X180689150Y-111553800D01*
X180693945Y-111528031D01*
X180773394Y-111366741D01*
X180869167Y-111310157D01*
X180949173Y-111315592D01*
X180994129Y-111393083D01*
X181013623Y-111576812D01*
X181017333Y-111838458D01*
X181012170Y-112138318D01*
X180989128Y-112306204D01*
X180936880Y-112379349D01*
X180848000Y-112395000D01*
X180715215Y-112345391D01*
X180678667Y-112183333D01*
X180643697Y-112022211D01*
X180506007Y-111972560D01*
X180467000Y-111971667D01*
X180305193Y-112007310D01*
X180255934Y-112144346D01*
X180255333Y-112174275D01*
X180208043Y-112349860D01*
X180128333Y-112425618D01*
X180060797Y-112424746D01*
X180021856Y-112337516D01*
X180004467Y-112133914D01*
X180001333Y-111884343D01*
X180008859Y-111563161D01*
X180035910Y-111379653D01*
X180089197Y-111302644D01*
X180128333Y-111294333D01*
X180230476Y-111367934D01*
X180230476Y-111367934D01*
G37*
X180230476Y-111367934D02*
X180255333Y-111506000D01*
X180314616Y-111668885D01*
X180449573Y-111733302D01*
X180595864Y-111696017D01*
X180689150Y-111553800D01*
X180693945Y-111528031D01*
X180773394Y-111366741D01*
X180869167Y-111310157D01*
X180949173Y-111315592D01*
X180994129Y-111393083D01*
X181013623Y-111576812D01*
X181017333Y-111838458D01*
X181012170Y-112138318D01*
X180989128Y-112306204D01*
X180936880Y-112379349D01*
X180848000Y-112395000D01*
X180715215Y-112345391D01*
X180678667Y-112183333D01*
X180643697Y-112022211D01*
X180506007Y-111972560D01*
X180467000Y-111971667D01*
X180305193Y-112007310D01*
X180255934Y-112144346D01*
X180255333Y-112174275D01*
X180208043Y-112349860D01*
X180128333Y-112425618D01*
X180060797Y-112424746D01*
X180021856Y-112337516D01*
X180004467Y-112133914D01*
X180001333Y-111884343D01*
X180008859Y-111563161D01*
X180035910Y-111379653D01*
X180089197Y-111302644D01*
X180128333Y-111294333D01*
X180230476Y-111367934D01*
G36*
X183741770Y-111325120D02*
X183805691Y-111379343D01*
X183811333Y-111417293D01*
X183738222Y-111523589D01*
X183599667Y-111548333D01*
X183477033Y-111560928D01*
X183414032Y-111626737D01*
X183390958Y-111787799D01*
X183388000Y-111999889D01*
X183375938Y-112275897D01*
X183333787Y-112415723D01*
X183261000Y-112451444D01*
X183182924Y-112408083D01*
X183143651Y-112256822D01*
X183134000Y-112005777D01*
X183126018Y-111742839D01*
X183090128Y-111604474D01*
X183008411Y-111546218D01*
X182943500Y-111533055D01*
X182773395Y-111487482D01*
X182752412Y-111430085D01*
X182862038Y-111372977D01*
X183083762Y-111328272D01*
X183282167Y-111311460D01*
X183578772Y-111304794D01*
X183741770Y-111325120D01*
X183741770Y-111325120D01*
G37*
X183741770Y-111325120D02*
X183805691Y-111379343D01*
X183811333Y-111417293D01*
X183738222Y-111523589D01*
X183599667Y-111548333D01*
X183477033Y-111560928D01*
X183414032Y-111626737D01*
X183390958Y-111787799D01*
X183388000Y-111999889D01*
X183375938Y-112275897D01*
X183333787Y-112415723D01*
X183261000Y-112451444D01*
X183182924Y-112408083D01*
X183143651Y-112256822D01*
X183134000Y-112005777D01*
X183126018Y-111742839D01*
X183090128Y-111604474D01*
X183008411Y-111546218D01*
X182943500Y-111533055D01*
X182773395Y-111487482D01*
X182752412Y-111430085D01*
X182862038Y-111372977D01*
X183083762Y-111328272D01*
X183282167Y-111311460D01*
X183578772Y-111304794D01*
X183741770Y-111325120D01*
G36*
X184856748Y-111331524D02*
X184896351Y-111464209D01*
X184911240Y-111724058D01*
X184912000Y-111835608D01*
X184900108Y-112159431D01*
X184860045Y-112345879D01*
X184785230Y-112425529D01*
X184785000Y-112425618D01*
X184692561Y-112417990D01*
X184659134Y-112279039D01*
X184658000Y-112223009D01*
X184634643Y-112042710D01*
X184535761Y-111977314D01*
X184446333Y-111971667D01*
X184285211Y-112006636D01*
X184235560Y-112144326D01*
X184234667Y-112183333D01*
X184195652Y-112348610D01*
X184061293Y-112395000D01*
X183967076Y-112380137D01*
X183918288Y-112309950D01*
X183904161Y-112146044D01*
X183913126Y-111866683D01*
X183937006Y-111564016D01*
X183979868Y-111393936D01*
X184053109Y-111319867D01*
X184086500Y-111310142D01*
X184199924Y-111334056D01*
X184234582Y-111486889D01*
X184234667Y-111499792D01*
X184267373Y-111664042D01*
X184397861Y-111716252D01*
X184446333Y-111717667D01*
X184607455Y-111682697D01*
X184657106Y-111545007D01*
X184658000Y-111506000D01*
X184702160Y-111335761D01*
X184785000Y-111294333D01*
X184856748Y-111331524D01*
X184856748Y-111331524D01*
G37*
X184856748Y-111331524D02*
X184896351Y-111464209D01*
X184911240Y-111724058D01*
X184912000Y-111835608D01*
X184900108Y-112159431D01*
X184860045Y-112345879D01*
X184785230Y-112425529D01*
X184785000Y-112425618D01*
X184692561Y-112417990D01*
X184659134Y-112279039D01*
X184658000Y-112223009D01*
X184634643Y-112042710D01*
X184535761Y-111977314D01*
X184446333Y-111971667D01*
X184285211Y-112006636D01*
X184235560Y-112144326D01*
X184234667Y-112183333D01*
X184195652Y-112348610D01*
X184061293Y-112395000D01*
X183967076Y-112380137D01*
X183918288Y-112309950D01*
X183904161Y-112146044D01*
X183913126Y-111866683D01*
X183937006Y-111564016D01*
X183979868Y-111393936D01*
X184053109Y-111319867D01*
X184086500Y-111310142D01*
X184199924Y-111334056D01*
X184234582Y-111486889D01*
X184234667Y-111499792D01*
X184267373Y-111664042D01*
X184397861Y-111716252D01*
X184446333Y-111717667D01*
X184607455Y-111682697D01*
X184657106Y-111545007D01*
X184658000Y-111506000D01*
X184702160Y-111335761D01*
X184785000Y-111294333D01*
X184856748Y-111331524D01*
G36*
X185447386Y-111329780D02*
X185486920Y-111456988D01*
X185503141Y-111707262D01*
X185504667Y-111872889D01*
X185496886Y-112190499D01*
X185468962Y-112370600D01*
X185414024Y-112444496D01*
X185377667Y-112451444D01*
X185307947Y-112415998D01*
X185268413Y-112288789D01*
X185252192Y-112038516D01*
X185250667Y-111872889D01*
X185258447Y-111555278D01*
X185286371Y-111375177D01*
X185341309Y-111301281D01*
X185377667Y-111294333D01*
X185447386Y-111329780D01*
X185447386Y-111329780D01*
G37*
X185447386Y-111329780D02*
X185486920Y-111456988D01*
X185503141Y-111707262D01*
X185504667Y-111872889D01*
X185496886Y-112190499D01*
X185468962Y-112370600D01*
X185414024Y-112444496D01*
X185377667Y-112451444D01*
X185307947Y-112415998D01*
X185268413Y-112288789D01*
X185252192Y-112038516D01*
X185250667Y-111872889D01*
X185258447Y-111555278D01*
X185286371Y-111375177D01*
X185341309Y-111301281D01*
X185377667Y-111294333D01*
X185447386Y-111329780D01*
G36*
X187683112Y-111310676D02*
X187893948Y-111354778D01*
X188017111Y-111429698D01*
X188024655Y-111444431D01*
X187988129Y-111522527D01*
X187817110Y-111533684D01*
X187549914Y-111550977D01*
X187408037Y-111667258D01*
X187367333Y-111894654D01*
X187423501Y-112121197D01*
X187578996Y-112216712D01*
X187769500Y-112186345D01*
X187871548Y-112132877D01*
X187832554Y-112067887D01*
X187770816Y-112020748D01*
X187673903Y-111904781D01*
X187735574Y-111828196D01*
X187931778Y-111802333D01*
X188067616Y-111828377D01*
X188121814Y-111939277D01*
X188129333Y-112088792D01*
X188102582Y-112301131D01*
X188001710Y-112404530D01*
X187938833Y-112426302D01*
X187637968Y-112473606D01*
X187412059Y-112412674D01*
X187236485Y-112271848D01*
X187066735Y-112008621D01*
X187043207Y-111742273D01*
X187148000Y-111511328D01*
X187363215Y-111354307D01*
X187670953Y-111309732D01*
X187683112Y-111310676D01*
X187683112Y-111310676D01*
G37*
X187683112Y-111310676D02*
X187893948Y-111354778D01*
X188017111Y-111429698D01*
X188024655Y-111444431D01*
X187988129Y-111522527D01*
X187817110Y-111533684D01*
X187549914Y-111550977D01*
X187408037Y-111667258D01*
X187367333Y-111894654D01*
X187423501Y-112121197D01*
X187578996Y-112216712D01*
X187769500Y-112186345D01*
X187871548Y-112132877D01*
X187832554Y-112067887D01*
X187770816Y-112020748D01*
X187673903Y-111904781D01*
X187735574Y-111828196D01*
X187931778Y-111802333D01*
X188067616Y-111828377D01*
X188121814Y-111939277D01*
X188129333Y-112088792D01*
X188102582Y-112301131D01*
X188001710Y-112404530D01*
X187938833Y-112426302D01*
X187637968Y-112473606D01*
X187412059Y-112412674D01*
X187236485Y-112271848D01*
X187066735Y-112008621D01*
X187043207Y-111742273D01*
X187148000Y-111511328D01*
X187363215Y-111354307D01*
X187670953Y-111309732D01*
X187683112Y-111310676D01*
G36*
X189060569Y-111360502D02*
X189124206Y-111442500D01*
X189080500Y-111523099D01*
X188898389Y-111548333D01*
X188694450Y-111576907D01*
X188648644Y-111644722D01*
X188764703Y-111724918D01*
X188869318Y-111757534D01*
X189118438Y-111874193D01*
X189223851Y-112047035D01*
X189175277Y-112249455D01*
X189096952Y-112346619D01*
X188880552Y-112456354D01*
X188604678Y-112457905D01*
X188489167Y-112423593D01*
X188378316Y-112334099D01*
X188404907Y-112245958D01*
X188542069Y-112201467D01*
X188627307Y-112206135D01*
X188846107Y-112205277D01*
X188919054Y-112139861D01*
X188838642Y-112042971D01*
X188680446Y-111971924D01*
X188477652Y-111881776D01*
X188395098Y-111758595D01*
X188383333Y-111628047D01*
X188420388Y-111432880D01*
X188557412Y-111339351D01*
X188588303Y-111330782D01*
X188864838Y-111301772D01*
X189060569Y-111360502D01*
X189060569Y-111360502D01*
G37*
X189060569Y-111360502D02*
X189124206Y-111442500D01*
X189080500Y-111523099D01*
X188898389Y-111548333D01*
X188694450Y-111576907D01*
X188648644Y-111644722D01*
X188764703Y-111724918D01*
X188869318Y-111757534D01*
X189118438Y-111874193D01*
X189223851Y-112047035D01*
X189175277Y-112249455D01*
X189096952Y-112346619D01*
X188880552Y-112456354D01*
X188604678Y-112457905D01*
X188489167Y-112423593D01*
X188378316Y-112334099D01*
X188404907Y-112245958D01*
X188542069Y-112201467D01*
X188627307Y-112206135D01*
X188846107Y-112205277D01*
X188919054Y-112139861D01*
X188838642Y-112042971D01*
X188680446Y-111971924D01*
X188477652Y-111881776D01*
X188395098Y-111758595D01*
X188383333Y-111628047D01*
X188420388Y-111432880D01*
X188557412Y-111339351D01*
X188588303Y-111330782D01*
X188864838Y-111301772D01*
X189060569Y-111360502D01*
G36*
X179618972Y-111304087D02*
X179777342Y-111338662D01*
X179830998Y-111406031D01*
X179832000Y-111421333D01*
X179761414Y-111524761D01*
X179662667Y-111548333D01*
X179561100Y-111570621D01*
X179510444Y-111665224D01*
X179494058Y-111873750D01*
X179493333Y-111971667D01*
X179484418Y-112225584D01*
X179446577Y-112352222D01*
X179363166Y-112393188D01*
X179324000Y-112395000D01*
X179222433Y-112372712D01*
X179171778Y-112278109D01*
X179155391Y-112069583D01*
X179154667Y-111971667D01*
X179145751Y-111717749D01*
X179107910Y-111591111D01*
X179024500Y-111550145D01*
X178985333Y-111548333D01*
X178847429Y-111495394D01*
X178816000Y-111421333D01*
X178855013Y-111347590D01*
X178993314Y-111307998D01*
X179262792Y-111294584D01*
X179324000Y-111294333D01*
X179618972Y-111304087D01*
X179618972Y-111304087D01*
G37*
X179618972Y-111304087D02*
X179777342Y-111338662D01*
X179830998Y-111406031D01*
X179832000Y-111421333D01*
X179761414Y-111524761D01*
X179662667Y-111548333D01*
X179561100Y-111570621D01*
X179510444Y-111665224D01*
X179494058Y-111873750D01*
X179493333Y-111971667D01*
X179484418Y-112225584D01*
X179446577Y-112352222D01*
X179363166Y-112393188D01*
X179324000Y-112395000D01*
X179222433Y-112372712D01*
X179171778Y-112278109D01*
X179155391Y-112069583D01*
X179154667Y-111971667D01*
X179145751Y-111717749D01*
X179107910Y-111591111D01*
X179024500Y-111550145D01*
X178985333Y-111548333D01*
X178847429Y-111495394D01*
X178816000Y-111421333D01*
X178855013Y-111347590D01*
X178993314Y-111307998D01*
X179262792Y-111294584D01*
X179324000Y-111294333D01*
X179618972Y-111304087D01*
G36*
X181903455Y-111310954D02*
X182017841Y-111367467D01*
X182033333Y-111421333D01*
X181959732Y-111523476D01*
X181821667Y-111548333D01*
X181662552Y-111577316D01*
X181610000Y-111633000D01*
X181682456Y-111696646D01*
X181821667Y-111717667D01*
X181991905Y-111761827D01*
X182033333Y-111844667D01*
X181959732Y-111946810D01*
X181821667Y-111971667D01*
X181651428Y-112015827D01*
X181610000Y-112098667D01*
X181685728Y-112199493D01*
X181864000Y-112225667D01*
X182042342Y-112250191D01*
X182117980Y-112309280D01*
X182118000Y-112310333D01*
X182041853Y-112358631D01*
X181847158Y-112389286D01*
X181694667Y-112395000D01*
X181271333Y-112395000D01*
X181271333Y-111294333D01*
X181652333Y-111294333D01*
X181903455Y-111310954D01*
X181903455Y-111310954D01*
G37*
X181903455Y-111310954D02*
X182017841Y-111367467D01*
X182033333Y-111421333D01*
X181959732Y-111523476D01*
X181821667Y-111548333D01*
X181662552Y-111577316D01*
X181610000Y-111633000D01*
X181682456Y-111696646D01*
X181821667Y-111717667D01*
X181991905Y-111761827D01*
X182033333Y-111844667D01*
X181959732Y-111946810D01*
X181821667Y-111971667D01*
X181651428Y-112015827D01*
X181610000Y-112098667D01*
X181685728Y-112199493D01*
X181864000Y-112225667D01*
X182042342Y-112250191D01*
X182117980Y-112309280D01*
X182118000Y-112310333D01*
X182041853Y-112358631D01*
X181847158Y-112389286D01*
X181694667Y-112395000D01*
X181271333Y-112395000D01*
X181271333Y-111294333D01*
X181652333Y-111294333D01*
X181903455Y-111310954D01*
G36*
X186138631Y-111372352D02*
X186294653Y-111588548D01*
X186329400Y-111654167D01*
X186510162Y-112014000D01*
X186515414Y-111647958D01*
X186531325Y-111416567D01*
X186580767Y-111317079D01*
X186662812Y-111309292D01*
X186776892Y-111363210D01*
X186789812Y-111400167D01*
X186781404Y-111514291D01*
X186775905Y-111740228D01*
X186774667Y-111929333D01*
X186766264Y-112200750D01*
X186732535Y-112342039D01*
X186660697Y-112391941D01*
X186621014Y-112395000D01*
X186477061Y-112319502D01*
X186326812Y-112118147D01*
X186305068Y-112077500D01*
X186142774Y-111760000D01*
X186114943Y-112077500D01*
X186063398Y-112313179D01*
X185966237Y-112394994D01*
X185965222Y-112395000D01*
X185896119Y-112353519D01*
X185857823Y-112209435D01*
X185843809Y-111933285D01*
X185843333Y-111844667D01*
X185849529Y-111544575D01*
X185874839Y-111377213D01*
X185929352Y-111306216D01*
X185995986Y-111294333D01*
X186138631Y-111372352D01*
X186138631Y-111372352D01*
G37*
X186138631Y-111372352D02*
X186294653Y-111588548D01*
X186329400Y-111654167D01*
X186510162Y-112014000D01*
X186515414Y-111647958D01*
X186531325Y-111416567D01*
X186580767Y-111317079D01*
X186662812Y-111309292D01*
X186776892Y-111363210D01*
X186789812Y-111400167D01*
X186781404Y-111514291D01*
X186775905Y-111740228D01*
X186774667Y-111929333D01*
X186766264Y-112200750D01*
X186732535Y-112342039D01*
X186660697Y-112391941D01*
X186621014Y-112395000D01*
X186477061Y-112319502D01*
X186326812Y-112118147D01*
X186305068Y-112077500D01*
X186142774Y-111760000D01*
X186114943Y-112077500D01*
X186063398Y-112313179D01*
X185966237Y-112394994D01*
X185965222Y-112395000D01*
X185896119Y-112353519D01*
X185857823Y-112209435D01*
X185843809Y-111933285D01*
X185843333Y-111844667D01*
X185849529Y-111544575D01*
X185874839Y-111377213D01*
X185929352Y-111306216D01*
X185995986Y-111294333D01*
X186138631Y-111372352D01*
G36*
X184817050Y-104390373D02*
X185309809Y-104528195D01*
X185749980Y-104773108D01*
X186105312Y-105104561D01*
X186343552Y-105501998D01*
X186409238Y-105721782D01*
X186440440Y-105841725D01*
X186500110Y-105905792D01*
X186628899Y-105925913D01*
X186867454Y-105914018D01*
X187021291Y-105901412D01*
X187457460Y-105893246D01*
X187794325Y-105967685D01*
X188090428Y-106146037D01*
X188341000Y-106381738D01*
X188474597Y-106537125D01*
X188551396Y-106687707D01*
X188587389Y-106888165D01*
X188598568Y-107193180D01*
X188599186Y-107264523D01*
X188612103Y-107620699D01*
X188652706Y-107860846D01*
X188732581Y-108037502D01*
X188786197Y-108112541D01*
X188929085Y-108323060D01*
X189021413Y-108510154D01*
X189022885Y-108514676D01*
X189044867Y-108808094D01*
X188967339Y-109145859D01*
X188808934Y-109451008D01*
X188790226Y-109475671D01*
X188612741Y-109659383D01*
X188395511Y-109789581D01*
X188108423Y-109874251D01*
X187721364Y-109921379D01*
X187204220Y-109938952D01*
X187040793Y-109939667D01*
X186611883Y-109941877D01*
X186324953Y-109951213D01*
X186152679Y-109971735D01*
X186067735Y-110007499D01*
X186042796Y-110062566D01*
X186043241Y-110087833D01*
X186000088Y-110201881D01*
X185898337Y-110209171D01*
X185792783Y-110221758D01*
X185793733Y-110266575D01*
X185770156Y-110351709D01*
X185610045Y-110420424D01*
X185346085Y-110462511D01*
X185140117Y-110470757D01*
X184942382Y-110484678D01*
X184904217Y-110525058D01*
X184925684Y-110542582D01*
X184935527Y-110588154D01*
X184787478Y-110606431D01*
X184700333Y-110605882D01*
X184523474Y-110593257D01*
X184473510Y-110571392D01*
X184498036Y-110560909D01*
X184632914Y-110461646D01*
X184731230Y-110311956D01*
X184828255Y-110175515D01*
X184916083Y-110153857D01*
X185041115Y-110149791D01*
X185223414Y-110065461D01*
X185233223Y-110059178D01*
X185373282Y-109980355D01*
X185384922Y-110009271D01*
X185369643Y-110030713D01*
X185254552Y-110215942D01*
X185216296Y-110352817D01*
X185263418Y-110401302D01*
X185292138Y-110393948D01*
X185393332Y-110285531D01*
X185464049Y-110101188D01*
X185506996Y-109982000D01*
X185843333Y-109982000D01*
X185885667Y-110024333D01*
X185928000Y-109982000D01*
X185885667Y-109939667D01*
X185843333Y-109982000D01*
X185506996Y-109982000D01*
X185521774Y-109940990D01*
X185586226Y-109895536D01*
X185588327Y-109896711D01*
X185626677Y-109862948D01*
X185616426Y-109749283D01*
X185598479Y-109624667D01*
X185642523Y-109647508D01*
X185673503Y-109685667D01*
X185736190Y-109745869D01*
X185739261Y-109670782D01*
X185719788Y-109572739D01*
X185703019Y-109405939D01*
X185758667Y-109389333D01*
X185814483Y-109371931D01*
X185797545Y-109205927D01*
X185773421Y-109055879D01*
X185804569Y-109052710D01*
X185836367Y-109093000D01*
X185890854Y-109140821D01*
X185896631Y-109050622D01*
X185878420Y-108923667D01*
X185856895Y-108742907D01*
X185881648Y-108709744D01*
X185920753Y-108754333D01*
X185975453Y-108802395D01*
X185981397Y-108712770D01*
X185963087Y-108585000D01*
X185941143Y-108403574D01*
X185965335Y-108368201D01*
X186008679Y-108415667D01*
X186064345Y-108461897D01*
X186076087Y-108376453D01*
X186057231Y-108204000D01*
X186038218Y-108012184D01*
X186056754Y-107980017D01*
X186086163Y-108034667D01*
X186129382Y-108094174D01*
X186145046Y-108005562D01*
X186138726Y-107808829D01*
X186121486Y-107653667D01*
X186182000Y-107653667D01*
X186212978Y-107723357D01*
X186238444Y-107710111D01*
X186248577Y-107609631D01*
X186238444Y-107597222D01*
X186188110Y-107608844D01*
X186182000Y-107653667D01*
X186121486Y-107653667D01*
X186101903Y-107477435D01*
X186033622Y-107297156D01*
X185925916Y-107251408D01*
X185877102Y-107264237D01*
X185773232Y-107265498D01*
X185758667Y-107235602D01*
X185690583Y-107195807D01*
X185576094Y-107209263D01*
X185448669Y-107219413D01*
X185453303Y-107160278D01*
X185445351Y-107100483D01*
X185296092Y-107107429D01*
X185254875Y-107115191D01*
X185076900Y-107130252D01*
X184997041Y-107096425D01*
X184996716Y-107092750D01*
X184917914Y-107064922D01*
X184704475Y-107046796D01*
X184390911Y-107040196D01*
X184086549Y-107044575D01*
X183567663Y-107060210D01*
X183191675Y-107074902D01*
X182932191Y-107091489D01*
X182762816Y-107112810D01*
X182657157Y-107141706D01*
X182588821Y-107181014D01*
X182556452Y-107209167D01*
X182429976Y-107299898D01*
X182381793Y-107315000D01*
X182259736Y-107249394D01*
X182100610Y-107088610D01*
X181947379Y-106886698D01*
X181843003Y-106697708D01*
X181821667Y-106610307D01*
X181778403Y-106468530D01*
X181620340Y-106402530D01*
X181567667Y-106394816D01*
X181406390Y-106367840D01*
X181398630Y-106334510D01*
X181483000Y-106294933D01*
X181581670Y-106240855D01*
X181520131Y-106220284D01*
X181344498Y-106279647D01*
X181164392Y-106430668D01*
X181042603Y-106612159D01*
X181023284Y-106704465D01*
X181038171Y-106789865D01*
X181083031Y-106722955D01*
X181102000Y-106680000D01*
X181160622Y-106582519D01*
X181183290Y-106637667D01*
X181205894Y-106708664D01*
X181269946Y-106630273D01*
X181279111Y-106614719D01*
X181381101Y-106513651D01*
X181444136Y-106512811D01*
X181468211Y-106613513D01*
X181421986Y-106720782D01*
X181313074Y-106827053D01*
X181241305Y-106830775D01*
X181203030Y-106837578D01*
X181228842Y-106891411D01*
X181304212Y-106956168D01*
X181390090Y-106880244D01*
X181509263Y-106791066D01*
X181659459Y-106817220D01*
X181858526Y-106968367D01*
X182124314Y-107254166D01*
X182161185Y-107297549D01*
X182568917Y-107780667D01*
X182089458Y-107317892D01*
X181821204Y-107069290D01*
X181665450Y-106946080D01*
X181624683Y-106944924D01*
X181701393Y-107062486D01*
X181898069Y-107295426D01*
X182012167Y-107421553D01*
X182204304Y-107637374D01*
X182281693Y-107743913D01*
X182249918Y-107751024D01*
X182174154Y-107707494D01*
X181969564Y-107606618D01*
X181873748Y-107628876D01*
X181891703Y-107772998D01*
X181893875Y-107778732D01*
X182006704Y-107888303D01*
X182200668Y-107962300D01*
X182379614Y-108026615D01*
X182456606Y-108110855D01*
X182456667Y-108113037D01*
X182422246Y-108267099D01*
X182341450Y-108456345D01*
X182247975Y-108612691D01*
X182181500Y-108669006D01*
X182126561Y-108645452D01*
X182141443Y-108549847D01*
X182233061Y-108347513D01*
X182253943Y-108305629D01*
X182339372Y-108130568D01*
X182343340Y-108089541D01*
X182260398Y-108165266D01*
X182221888Y-108204000D01*
X182078069Y-108415544D01*
X181998706Y-108627333D01*
X181972725Y-108785751D01*
X182000961Y-108798426D01*
X182037609Y-108754333D01*
X182096141Y-108698708D01*
X182099667Y-108780595D01*
X182082062Y-108881333D01*
X182062142Y-109012698D01*
X182085733Y-109026086D01*
X182168350Y-108910832D01*
X182264822Y-108755725D01*
X182402834Y-108545749D01*
X182482906Y-108471556D01*
X182523739Y-108517932D01*
X182528939Y-108540837D01*
X182514542Y-108689216D01*
X182466331Y-108737001D01*
X182378314Y-108836215D01*
X182374817Y-108867222D01*
X182421349Y-108880782D01*
X182530982Y-108781608D01*
X182544150Y-108766120D01*
X182666349Y-108647648D01*
X182708664Y-108658332D01*
X182662516Y-108773740D01*
X182586359Y-108886318D01*
X182482285Y-109054725D01*
X182469452Y-109139086D01*
X182539466Y-109112948D01*
X182628817Y-109020120D01*
X182747194Y-108901292D01*
X182793437Y-108922724D01*
X182795333Y-108950573D01*
X182739176Y-109114750D01*
X182668333Y-109207905D01*
X182555657Y-109346879D01*
X182571019Y-109401339D01*
X182657887Y-109381626D01*
X182756999Y-109415769D01*
X182830262Y-109557797D01*
X182856341Y-109746325D01*
X182831819Y-109882041D01*
X182833829Y-110010631D01*
X182910404Y-110076856D01*
X183002197Y-110031805D01*
X183006146Y-110025714D01*
X183130198Y-109945072D01*
X183160163Y-109942483D01*
X183176123Y-109988832D01*
X183078189Y-110097578D01*
X183066991Y-110107063D01*
X182872981Y-110268826D01*
X183193991Y-110233903D01*
X183358367Y-110222382D01*
X183390753Y-110234843D01*
X183362148Y-110245767D01*
X183236514Y-110318594D01*
X183265348Y-110403477D01*
X183435228Y-110490419D01*
X183732729Y-110569421D01*
X183818250Y-110585497D01*
X184047271Y-110632807D01*
X184126981Y-110664943D01*
X184076823Y-110680727D01*
X183916241Y-110678982D01*
X183664678Y-110658530D01*
X183341577Y-110618194D01*
X183322919Y-110615493D01*
X182982240Y-110547027D01*
X182763717Y-110443576D01*
X182643436Y-110302602D01*
X182724314Y-110302602D01*
X182744915Y-110349918D01*
X182830165Y-110440812D01*
X182879176Y-110422166D01*
X182880000Y-110410330D01*
X182875804Y-110405333D01*
X182964667Y-110405333D01*
X183007000Y-110447667D01*
X183049333Y-110405333D01*
X183007000Y-110363000D01*
X182964667Y-110405333D01*
X182875804Y-110405333D01*
X182819863Y-110338717D01*
X182782251Y-110312582D01*
X182724314Y-110302602D01*
X182643436Y-110302602D01*
X182620255Y-110275434D01*
X182549048Y-110127359D01*
X182453878Y-109897333D01*
X180845709Y-109922046D01*
X180204311Y-109928158D01*
X179706836Y-109920453D01*
X179328067Y-109893141D01*
X179042784Y-109840437D01*
X178825767Y-109756551D01*
X178784668Y-109728000D01*
X182287333Y-109728000D01*
X182329667Y-109770333D01*
X182372000Y-109728000D01*
X182329667Y-109685667D01*
X182287333Y-109728000D01*
X178784668Y-109728000D01*
X178651798Y-109635698D01*
X178537885Y-109516333D01*
X182202667Y-109516333D01*
X182233645Y-109586023D01*
X182259111Y-109572778D01*
X182269244Y-109472298D01*
X182259111Y-109459889D01*
X182208777Y-109471511D01*
X182202667Y-109516333D01*
X178537885Y-109516333D01*
X178495659Y-109472087D01*
X178409054Y-109362842D01*
X178385923Y-109325310D01*
X182135523Y-109325310D01*
X182175704Y-109288039D01*
X182246842Y-109295754D01*
X182351227Y-109469075D01*
X182444604Y-109690206D01*
X182580730Y-110008315D01*
X182679134Y-110162158D01*
X182740680Y-110152348D01*
X182766233Y-109979498D01*
X182767111Y-109918500D01*
X182758302Y-109763505D01*
X182736624Y-109737341D01*
X182731833Y-109749167D01*
X182663101Y-109834278D01*
X182581212Y-109853914D01*
X182560350Y-109791500D01*
X182552979Y-109663689D01*
X182527735Y-109558667D01*
X182626000Y-109558667D01*
X182668333Y-109601000D01*
X182710667Y-109558667D01*
X182668333Y-109516333D01*
X182626000Y-109558667D01*
X182527735Y-109558667D01*
X182502844Y-109455120D01*
X182429015Y-109224061D01*
X182350561Y-109028776D01*
X182286550Y-108927533D01*
X182276330Y-108923667D01*
X182203867Y-108987432D01*
X182202667Y-109001408D01*
X182178550Y-109142031D01*
X182152346Y-109234242D01*
X182135523Y-109325310D01*
X178385923Y-109325310D01*
X178258291Y-109118217D01*
X178191739Y-108855447D01*
X178181000Y-108618966D01*
X178192555Y-108514289D01*
X181867286Y-108514289D01*
X181867314Y-108527012D01*
X181897508Y-108525456D01*
X181968751Y-108398736D01*
X181995613Y-108339355D01*
X182066895Y-108142163D01*
X182084347Y-108020508D01*
X182079335Y-108010113D01*
X182027336Y-108046964D01*
X181957564Y-108184962D01*
X181895664Y-108361579D01*
X181867286Y-108514289D01*
X178192555Y-108514289D01*
X178222752Y-108240751D01*
X178275915Y-108124330D01*
X181779333Y-108124330D01*
X181799555Y-108237824D01*
X181847582Y-108196803D01*
X181888562Y-108076883D01*
X181894138Y-107962296D01*
X181856104Y-107954880D01*
X181785589Y-108072356D01*
X181779333Y-108124330D01*
X178275915Y-108124330D01*
X178364288Y-107930808D01*
X178577129Y-107705079D01*
X181695311Y-107705079D01*
X181697797Y-107852612D01*
X181727390Y-107907667D01*
X181761230Y-107834471D01*
X181796691Y-107658453D01*
X181796737Y-107658138D01*
X181802673Y-107497416D01*
X181766898Y-107449885D01*
X181764013Y-107451468D01*
X181719540Y-107544505D01*
X181695311Y-107705079D01*
X178577129Y-107705079D01*
X178630027Y-107648979D01*
X178887229Y-107457570D01*
X179089941Y-107304300D01*
X179217213Y-107177286D01*
X179239333Y-107131974D01*
X179307238Y-106945930D01*
X179482328Y-106726240D01*
X179721667Y-106517598D01*
X179972202Y-106369104D01*
X180259017Y-106195550D01*
X180452368Y-105986819D01*
X180465146Y-105963919D01*
X180730306Y-105618283D01*
X181082882Y-105394223D01*
X181485151Y-105299235D01*
X181899388Y-105340817D01*
X182287868Y-105526467D01*
X182364890Y-105586343D01*
X182607724Y-105790675D01*
X182660419Y-105580723D01*
X182823475Y-105242813D01*
X183116991Y-104924755D01*
X183502298Y-104654793D01*
X183940732Y-104461172D01*
X184303957Y-104380196D01*
X184817050Y-104390373D01*
X184817050Y-104390373D01*
G37*
X184817050Y-104390373D02*
X185309809Y-104528195D01*
X185749980Y-104773108D01*
X186105312Y-105104561D01*
X186343552Y-105501998D01*
X186409238Y-105721782D01*
X186440440Y-105841725D01*
X186500110Y-105905792D01*
X186628899Y-105925913D01*
X186867454Y-105914018D01*
X187021291Y-105901412D01*
X187457460Y-105893246D01*
X187794325Y-105967685D01*
X188090428Y-106146037D01*
X188341000Y-106381738D01*
X188474597Y-106537125D01*
X188551396Y-106687707D01*
X188587389Y-106888165D01*
X188598568Y-107193180D01*
X188599186Y-107264523D01*
X188612103Y-107620699D01*
X188652706Y-107860846D01*
X188732581Y-108037502D01*
X188786197Y-108112541D01*
X188929085Y-108323060D01*
X189021413Y-108510154D01*
X189022885Y-108514676D01*
X189044867Y-108808094D01*
X188967339Y-109145859D01*
X188808934Y-109451008D01*
X188790226Y-109475671D01*
X188612741Y-109659383D01*
X188395511Y-109789581D01*
X188108423Y-109874251D01*
X187721364Y-109921379D01*
X187204220Y-109938952D01*
X187040793Y-109939667D01*
X186611883Y-109941877D01*
X186324953Y-109951213D01*
X186152679Y-109971735D01*
X186067735Y-110007499D01*
X186042796Y-110062566D01*
X186043241Y-110087833D01*
X186000088Y-110201881D01*
X185898337Y-110209171D01*
X185792783Y-110221758D01*
X185793733Y-110266575D01*
X185770156Y-110351709D01*
X185610045Y-110420424D01*
X185346085Y-110462511D01*
X185140117Y-110470757D01*
X184942382Y-110484678D01*
X184904217Y-110525058D01*
X184925684Y-110542582D01*
X184935527Y-110588154D01*
X184787478Y-110606431D01*
X184700333Y-110605882D01*
X184523474Y-110593257D01*
X184473510Y-110571392D01*
X184498036Y-110560909D01*
X184632914Y-110461646D01*
X184731230Y-110311956D01*
X184828255Y-110175515D01*
X184916083Y-110153857D01*
X185041115Y-110149791D01*
X185223414Y-110065461D01*
X185233223Y-110059178D01*
X185373282Y-109980355D01*
X185384922Y-110009271D01*
X185369643Y-110030713D01*
X185254552Y-110215942D01*
X185216296Y-110352817D01*
X185263418Y-110401302D01*
X185292138Y-110393948D01*
X185393332Y-110285531D01*
X185464049Y-110101188D01*
X185506996Y-109982000D01*
X185843333Y-109982000D01*
X185885667Y-110024333D01*
X185928000Y-109982000D01*
X185885667Y-109939667D01*
X185843333Y-109982000D01*
X185506996Y-109982000D01*
X185521774Y-109940990D01*
X185586226Y-109895536D01*
X185588327Y-109896711D01*
X185626677Y-109862948D01*
X185616426Y-109749283D01*
X185598479Y-109624667D01*
X185642523Y-109647508D01*
X185673503Y-109685667D01*
X185736190Y-109745869D01*
X185739261Y-109670782D01*
X185719788Y-109572739D01*
X185703019Y-109405939D01*
X185758667Y-109389333D01*
X185814483Y-109371931D01*
X185797545Y-109205927D01*
X185773421Y-109055879D01*
X185804569Y-109052710D01*
X185836367Y-109093000D01*
X185890854Y-109140821D01*
X185896631Y-109050622D01*
X185878420Y-108923667D01*
X185856895Y-108742907D01*
X185881648Y-108709744D01*
X185920753Y-108754333D01*
X185975453Y-108802395D01*
X185981397Y-108712770D01*
X185963087Y-108585000D01*
X185941143Y-108403574D01*
X185965335Y-108368201D01*
X186008679Y-108415667D01*
X186064345Y-108461897D01*
X186076087Y-108376453D01*
X186057231Y-108204000D01*
X186038218Y-108012184D01*
X186056754Y-107980017D01*
X186086163Y-108034667D01*
X186129382Y-108094174D01*
X186145046Y-108005562D01*
X186138726Y-107808829D01*
X186121486Y-107653667D01*
X186182000Y-107653667D01*
X186212978Y-107723357D01*
X186238444Y-107710111D01*
X186248577Y-107609631D01*
X186238444Y-107597222D01*
X186188110Y-107608844D01*
X186182000Y-107653667D01*
X186121486Y-107653667D01*
X186101903Y-107477435D01*
X186033622Y-107297156D01*
X185925916Y-107251408D01*
X185877102Y-107264237D01*
X185773232Y-107265498D01*
X185758667Y-107235602D01*
X185690583Y-107195807D01*
X185576094Y-107209263D01*
X185448669Y-107219413D01*
X185453303Y-107160278D01*
X185445351Y-107100483D01*
X185296092Y-107107429D01*
X185254875Y-107115191D01*
X185076900Y-107130252D01*
X184997041Y-107096425D01*
X184996716Y-107092750D01*
X184917914Y-107064922D01*
X184704475Y-107046796D01*
X184390911Y-107040196D01*
X184086549Y-107044575D01*
X183567663Y-107060210D01*
X183191675Y-107074902D01*
X182932191Y-107091489D01*
X182762816Y-107112810D01*
X182657157Y-107141706D01*
X182588821Y-107181014D01*
X182556452Y-107209167D01*
X182429976Y-107299898D01*
X182381793Y-107315000D01*
X182259736Y-107249394D01*
X182100610Y-107088610D01*
X181947379Y-106886698D01*
X181843003Y-106697708D01*
X181821667Y-106610307D01*
X181778403Y-106468530D01*
X181620340Y-106402530D01*
X181567667Y-106394816D01*
X181406390Y-106367840D01*
X181398630Y-106334510D01*
X181483000Y-106294933D01*
X181581670Y-106240855D01*
X181520131Y-106220284D01*
X181344498Y-106279647D01*
X181164392Y-106430668D01*
X181042603Y-106612159D01*
X181023284Y-106704465D01*
X181038171Y-106789865D01*
X181083031Y-106722955D01*
X181102000Y-106680000D01*
X181160622Y-106582519D01*
X181183290Y-106637667D01*
X181205894Y-106708664D01*
X181269946Y-106630273D01*
X181279111Y-106614719D01*
X181381101Y-106513651D01*
X181444136Y-106512811D01*
X181468211Y-106613513D01*
X181421986Y-106720782D01*
X181313074Y-106827053D01*
X181241305Y-106830775D01*
X181203030Y-106837578D01*
X181228842Y-106891411D01*
X181304212Y-106956168D01*
X181390090Y-106880244D01*
X181509263Y-106791066D01*
X181659459Y-106817220D01*
X181858526Y-106968367D01*
X182124314Y-107254166D01*
X182161185Y-107297549D01*
X182568917Y-107780667D01*
X182089458Y-107317892D01*
X181821204Y-107069290D01*
X181665450Y-106946080D01*
X181624683Y-106944924D01*
X181701393Y-107062486D01*
X181898069Y-107295426D01*
X182012167Y-107421553D01*
X182204304Y-107637374D01*
X182281693Y-107743913D01*
X182249918Y-107751024D01*
X182174154Y-107707494D01*
X181969564Y-107606618D01*
X181873748Y-107628876D01*
X181891703Y-107772998D01*
X181893875Y-107778732D01*
X182006704Y-107888303D01*
X182200668Y-107962300D01*
X182379614Y-108026615D01*
X182456606Y-108110855D01*
X182456667Y-108113037D01*
X182422246Y-108267099D01*
X182341450Y-108456345D01*
X182247975Y-108612691D01*
X182181500Y-108669006D01*
X182126561Y-108645452D01*
X182141443Y-108549847D01*
X182233061Y-108347513D01*
X182253943Y-108305629D01*
X182339372Y-108130568D01*
X182343340Y-108089541D01*
X182260398Y-108165266D01*
X182221888Y-108204000D01*
X182078069Y-108415544D01*
X181998706Y-108627333D01*
X181972725Y-108785751D01*
X182000961Y-108798426D01*
X182037609Y-108754333D01*
X182096141Y-108698708D01*
X182099667Y-108780595D01*
X182082062Y-108881333D01*
X182062142Y-109012698D01*
X182085733Y-109026086D01*
X182168350Y-108910832D01*
X182264822Y-108755725D01*
X182402834Y-108545749D01*
X182482906Y-108471556D01*
X182523739Y-108517932D01*
X182528939Y-108540837D01*
X182514542Y-108689216D01*
X182466331Y-108737001D01*
X182378314Y-108836215D01*
X182374817Y-108867222D01*
X182421349Y-108880782D01*
X182530982Y-108781608D01*
X182544150Y-108766120D01*
X182666349Y-108647648D01*
X182708664Y-108658332D01*
X182662516Y-108773740D01*
X182586359Y-108886318D01*
X182482285Y-109054725D01*
X182469452Y-109139086D01*
X182539466Y-109112948D01*
X182628817Y-109020120D01*
X182747194Y-108901292D01*
X182793437Y-108922724D01*
X182795333Y-108950573D01*
X182739176Y-109114750D01*
X182668333Y-109207905D01*
X182555657Y-109346879D01*
X182571019Y-109401339D01*
X182657887Y-109381626D01*
X182756999Y-109415769D01*
X182830262Y-109557797D01*
X182856341Y-109746325D01*
X182831819Y-109882041D01*
X182833829Y-110010631D01*
X182910404Y-110076856D01*
X183002197Y-110031805D01*
X183006146Y-110025714D01*
X183130198Y-109945072D01*
X183160163Y-109942483D01*
X183176123Y-109988832D01*
X183078189Y-110097578D01*
X183066991Y-110107063D01*
X182872981Y-110268826D01*
X183193991Y-110233903D01*
X183358367Y-110222382D01*
X183390753Y-110234843D01*
X183362148Y-110245767D01*
X183236514Y-110318594D01*
X183265348Y-110403477D01*
X183435228Y-110490419D01*
X183732729Y-110569421D01*
X183818250Y-110585497D01*
X184047271Y-110632807D01*
X184126981Y-110664943D01*
X184076823Y-110680727D01*
X183916241Y-110678982D01*
X183664678Y-110658530D01*
X183341577Y-110618194D01*
X183322919Y-110615493D01*
X182982240Y-110547027D01*
X182763717Y-110443576D01*
X182643436Y-110302602D01*
X182724314Y-110302602D01*
X182744915Y-110349918D01*
X182830165Y-110440812D01*
X182879176Y-110422166D01*
X182880000Y-110410330D01*
X182875804Y-110405333D01*
X182964667Y-110405333D01*
X183007000Y-110447667D01*
X183049333Y-110405333D01*
X183007000Y-110363000D01*
X182964667Y-110405333D01*
X182875804Y-110405333D01*
X182819863Y-110338717D01*
X182782251Y-110312582D01*
X182724314Y-110302602D01*
X182643436Y-110302602D01*
X182620255Y-110275434D01*
X182549048Y-110127359D01*
X182453878Y-109897333D01*
X180845709Y-109922046D01*
X180204311Y-109928158D01*
X179706836Y-109920453D01*
X179328067Y-109893141D01*
X179042784Y-109840437D01*
X178825767Y-109756551D01*
X178784668Y-109728000D01*
X182287333Y-109728000D01*
X182329667Y-109770333D01*
X182372000Y-109728000D01*
X182329667Y-109685667D01*
X182287333Y-109728000D01*
X178784668Y-109728000D01*
X178651798Y-109635698D01*
X178537885Y-109516333D01*
X182202667Y-109516333D01*
X182233645Y-109586023D01*
X182259111Y-109572778D01*
X182269244Y-109472298D01*
X182259111Y-109459889D01*
X182208777Y-109471511D01*
X182202667Y-109516333D01*
X178537885Y-109516333D01*
X178495659Y-109472087D01*
X178409054Y-109362842D01*
X178385923Y-109325310D01*
X182135523Y-109325310D01*
X182175704Y-109288039D01*
X182246842Y-109295754D01*
X182351227Y-109469075D01*
X182444604Y-109690206D01*
X182580730Y-110008315D01*
X182679134Y-110162158D01*
X182740680Y-110152348D01*
X182766233Y-109979498D01*
X182767111Y-109918500D01*
X182758302Y-109763505D01*
X182736624Y-109737341D01*
X182731833Y-109749167D01*
X182663101Y-109834278D01*
X182581212Y-109853914D01*
X182560350Y-109791500D01*
X182552979Y-109663689D01*
X182527735Y-109558667D01*
X182626000Y-109558667D01*
X182668333Y-109601000D01*
X182710667Y-109558667D01*
X182668333Y-109516333D01*
X182626000Y-109558667D01*
X182527735Y-109558667D01*
X182502844Y-109455120D01*
X182429015Y-109224061D01*
X182350561Y-109028776D01*
X182286550Y-108927533D01*
X182276330Y-108923667D01*
X182203867Y-108987432D01*
X182202667Y-109001408D01*
X182178550Y-109142031D01*
X182152346Y-109234242D01*
X182135523Y-109325310D01*
X178385923Y-109325310D01*
X178258291Y-109118217D01*
X178191739Y-108855447D01*
X178181000Y-108618966D01*
X178192555Y-108514289D01*
X181867286Y-108514289D01*
X181867314Y-108527012D01*
X181897508Y-108525456D01*
X181968751Y-108398736D01*
X181995613Y-108339355D01*
X182066895Y-108142163D01*
X182084347Y-108020508D01*
X182079335Y-108010113D01*
X182027336Y-108046964D01*
X181957564Y-108184962D01*
X181895664Y-108361579D01*
X181867286Y-108514289D01*
X178192555Y-108514289D01*
X178222752Y-108240751D01*
X178275915Y-108124330D01*
X181779333Y-108124330D01*
X181799555Y-108237824D01*
X181847582Y-108196803D01*
X181888562Y-108076883D01*
X181894138Y-107962296D01*
X181856104Y-107954880D01*
X181785589Y-108072356D01*
X181779333Y-108124330D01*
X178275915Y-108124330D01*
X178364288Y-107930808D01*
X178577129Y-107705079D01*
X181695311Y-107705079D01*
X181697797Y-107852612D01*
X181727390Y-107907667D01*
X181761230Y-107834471D01*
X181796691Y-107658453D01*
X181796737Y-107658138D01*
X181802673Y-107497416D01*
X181766898Y-107449885D01*
X181764013Y-107451468D01*
X181719540Y-107544505D01*
X181695311Y-107705079D01*
X178577129Y-107705079D01*
X178630027Y-107648979D01*
X178887229Y-107457570D01*
X179089941Y-107304300D01*
X179217213Y-107177286D01*
X179239333Y-107131974D01*
X179307238Y-106945930D01*
X179482328Y-106726240D01*
X179721667Y-106517598D01*
X179972202Y-106369104D01*
X180259017Y-106195550D01*
X180452368Y-105986819D01*
X180465146Y-105963919D01*
X180730306Y-105618283D01*
X181082882Y-105394223D01*
X181485151Y-105299235D01*
X181899388Y-105340817D01*
X182287868Y-105526467D01*
X182364890Y-105586343D01*
X182607724Y-105790675D01*
X182660419Y-105580723D01*
X182823475Y-105242813D01*
X183116991Y-104924755D01*
X183502298Y-104654793D01*
X183940732Y-104461172D01*
X184303957Y-104380196D01*
X184817050Y-104390373D01*
G36*
X184299154Y-110304827D02*
X184318945Y-110327713D01*
X184197359Y-110340555D01*
X184107667Y-110341648D01*
X183943702Y-110333312D01*
X183918827Y-110314190D01*
X183960487Y-110303118D01*
X184181097Y-110289487D01*
X184299154Y-110304827D01*
X184299154Y-110304827D01*
G37*
X184299154Y-110304827D02*
X184318945Y-110327713D01*
X184197359Y-110340555D01*
X184107667Y-110341648D01*
X183943702Y-110333312D01*
X183918827Y-110314190D01*
X183960487Y-110303118D01*
X184181097Y-110289487D01*
X184299154Y-110304827D01*
G36*
X186266667Y-110236000D02*
X186224333Y-110278333D01*
X186182000Y-110236000D01*
X186224333Y-110193667D01*
X186266667Y-110236000D01*
X186266667Y-110236000D01*
G37*
X186266667Y-110236000D02*
X186224333Y-110278333D01*
X186182000Y-110236000D01*
X186224333Y-110193667D01*
X186266667Y-110236000D01*
G36*
X183053053Y-108312899D02*
X183192608Y-108484500D01*
X183302213Y-108648500D01*
X183457449Y-108891987D01*
X183588200Y-109084847D01*
X183642353Y-109156500D01*
X183682156Y-109254951D01*
X183572685Y-109277367D01*
X183538307Y-109273073D01*
X183523880Y-109331134D01*
X183574158Y-109477116D01*
X183661627Y-109606628D01*
X183727658Y-109599395D01*
X183808651Y-109564483D01*
X183892666Y-109640547D01*
X183941836Y-109774242D01*
X183931009Y-109885888D01*
X183940237Y-110020118D01*
X184063570Y-110086139D01*
X184255343Y-110071842D01*
X184400826Y-110010473D01*
X184550260Y-109957461D01*
X184717465Y-109938881D01*
X184853729Y-109951376D01*
X184910345Y-109991593D01*
X184864047Y-110042381D01*
X184693698Y-110094661D01*
X184425464Y-110131480D01*
X184130460Y-110148043D01*
X183879797Y-110139555D01*
X183769000Y-110116224D01*
X183606348Y-110074283D01*
X183536167Y-110082258D01*
X183417167Y-110076880D01*
X183366833Y-110052292D01*
X183348494Y-109992507D01*
X183497450Y-109943391D01*
X183508015Y-109941462D01*
X183697756Y-109873579D01*
X183794166Y-109779715D01*
X183785484Y-109704617D01*
X183745939Y-109716089D01*
X183653809Y-109684733D01*
X183527374Y-109541474D01*
X183480955Y-109469034D01*
X183350446Y-109235773D01*
X183310511Y-109124981D01*
X183356796Y-109118902D01*
X183401082Y-109143418D01*
X183454476Y-109157720D01*
X183423298Y-109075254D01*
X183300142Y-108880782D01*
X183207286Y-108744776D01*
X183118572Y-108572985D01*
X183112769Y-108459260D01*
X183115335Y-108456035D01*
X183115168Y-108428320D01*
X183068967Y-108450370D01*
X183019739Y-108528450D01*
X183078895Y-108671627D01*
X183141703Y-108765152D01*
X183250121Y-108938471D01*
X183289096Y-109045243D01*
X183285630Y-109054258D01*
X183225143Y-109010808D01*
X183105822Y-108871311D01*
X182961436Y-108681489D01*
X182825757Y-108487063D01*
X182732555Y-108333756D01*
X182710667Y-108275824D01*
X182764558Y-108280356D01*
X182853919Y-108341800D01*
X182947965Y-108403674D01*
X182933589Y-108352167D01*
X182925045Y-108259540D01*
X182961534Y-108246333D01*
X183053053Y-108312899D01*
X183053053Y-108312899D01*
G37*
X183053053Y-108312899D02*
X183192608Y-108484500D01*
X183302213Y-108648500D01*
X183457449Y-108891987D01*
X183588200Y-109084847D01*
X183642353Y-109156500D01*
X183682156Y-109254951D01*
X183572685Y-109277367D01*
X183538307Y-109273073D01*
X183523880Y-109331134D01*
X183574158Y-109477116D01*
X183661627Y-109606628D01*
X183727658Y-109599395D01*
X183808651Y-109564483D01*
X183892666Y-109640547D01*
X183941836Y-109774242D01*
X183931009Y-109885888D01*
X183940237Y-110020118D01*
X184063570Y-110086139D01*
X184255343Y-110071842D01*
X184400826Y-110010473D01*
X184550260Y-109957461D01*
X184717465Y-109938881D01*
X184853729Y-109951376D01*
X184910345Y-109991593D01*
X184864047Y-110042381D01*
X184693698Y-110094661D01*
X184425464Y-110131480D01*
X184130460Y-110148043D01*
X183879797Y-110139555D01*
X183769000Y-110116224D01*
X183606348Y-110074283D01*
X183536167Y-110082258D01*
X183417167Y-110076880D01*
X183366833Y-110052292D01*
X183348494Y-109992507D01*
X183497450Y-109943391D01*
X183508015Y-109941462D01*
X183697756Y-109873579D01*
X183794166Y-109779715D01*
X183785484Y-109704617D01*
X183745939Y-109716089D01*
X183653809Y-109684733D01*
X183527374Y-109541474D01*
X183480955Y-109469034D01*
X183350446Y-109235773D01*
X183310511Y-109124981D01*
X183356796Y-109118902D01*
X183401082Y-109143418D01*
X183454476Y-109157720D01*
X183423298Y-109075254D01*
X183300142Y-108880782D01*
X183207286Y-108744776D01*
X183118572Y-108572985D01*
X183112769Y-108459260D01*
X183115335Y-108456035D01*
X183115168Y-108428320D01*
X183068967Y-108450370D01*
X183019739Y-108528450D01*
X183078895Y-108671627D01*
X183141703Y-108765152D01*
X183250121Y-108938471D01*
X183289096Y-109045243D01*
X183285630Y-109054258D01*
X183225143Y-109010808D01*
X183105822Y-108871311D01*
X182961436Y-108681489D01*
X182825757Y-108487063D01*
X182732555Y-108333756D01*
X182710667Y-108275824D01*
X182764558Y-108280356D01*
X182853919Y-108341800D01*
X182947965Y-108403674D01*
X182933589Y-108352167D01*
X182925045Y-108259540D01*
X182961534Y-108246333D01*
X183053053Y-108312899D01*
G36*
X183097142Y-109705253D02*
X183090537Y-109800332D01*
X183017079Y-109899349D01*
X182913184Y-109979128D01*
X182881296Y-109966881D01*
X182923909Y-109831641D01*
X183012036Y-109722087D01*
X183093207Y-109701816D01*
X183097142Y-109705253D01*
X183097142Y-109705253D01*
G37*
X183097142Y-109705253D02*
X183090537Y-109800332D01*
X183017079Y-109899349D01*
X182913184Y-109979128D01*
X182881296Y-109966881D01*
X182923909Y-109831641D01*
X183012036Y-109722087D01*
X183093207Y-109701816D01*
X183097142Y-109705253D01*
G36*
X184510735Y-109022552D02*
X184636833Y-109127289D01*
X184797928Y-109358386D01*
X184807882Y-109622954D01*
X184742667Y-109770333D01*
X184676115Y-109854628D01*
X184657503Y-109791283D01*
X184656722Y-109770333D01*
X184637141Y-109700387D01*
X184573189Y-109780298D01*
X184565555Y-109793281D01*
X184462877Y-109893903D01*
X184398796Y-109894117D01*
X184324585Y-109905939D01*
X184319333Y-109934670D01*
X184248167Y-110006514D01*
X184142944Y-110024333D01*
X184015247Y-109988834D01*
X183996894Y-109933317D01*
X184070011Y-109851987D01*
X184089504Y-109850365D01*
X184201287Y-109820544D01*
X184385916Y-109737329D01*
X184394153Y-109733092D01*
X184574220Y-109660272D01*
X184682014Y-109653793D01*
X184685058Y-109656280D01*
X184730469Y-109657142D01*
X184729888Y-109550756D01*
X184693899Y-109389478D01*
X184633090Y-109225662D01*
X184579722Y-109135333D01*
X184493307Y-109022357D01*
X184510735Y-109022552D01*
X184510735Y-109022552D01*
G37*
X184510735Y-109022552D02*
X184636833Y-109127289D01*
X184797928Y-109358386D01*
X184807882Y-109622954D01*
X184742667Y-109770333D01*
X184676115Y-109854628D01*
X184657503Y-109791283D01*
X184656722Y-109770333D01*
X184637141Y-109700387D01*
X184573189Y-109780298D01*
X184565555Y-109793281D01*
X184462877Y-109893903D01*
X184398796Y-109894117D01*
X184324585Y-109905939D01*
X184319333Y-109934670D01*
X184248167Y-110006514D01*
X184142944Y-110024333D01*
X184015247Y-109988834D01*
X183996894Y-109933317D01*
X184070011Y-109851987D01*
X184089504Y-109850365D01*
X184201287Y-109820544D01*
X184385916Y-109737329D01*
X184394153Y-109733092D01*
X184574220Y-109660272D01*
X184682014Y-109653793D01*
X184685058Y-109656280D01*
X184730469Y-109657142D01*
X184729888Y-109550756D01*
X184693899Y-109389478D01*
X184633090Y-109225662D01*
X184579722Y-109135333D01*
X184493307Y-109022357D01*
X184510735Y-109022552D01*
G36*
X185222444Y-109798555D02*
X185232577Y-109899035D01*
X185222444Y-109911444D01*
X185172110Y-109899822D01*
X185166000Y-109855000D01*
X185196978Y-109785310D01*
X185222444Y-109798555D01*
X185222444Y-109798555D01*
G37*
X185222444Y-109798555D02*
X185232577Y-109899035D01*
X185222444Y-109911444D01*
X185172110Y-109899822D01*
X185166000Y-109855000D01*
X185196978Y-109785310D01*
X185222444Y-109798555D01*
G36*
X183359778Y-109798555D02*
X183348155Y-109848890D01*
X183303333Y-109855000D01*
X183233643Y-109824022D01*
X183246889Y-109798555D01*
X183347368Y-109788422D01*
X183359778Y-109798555D01*
X183359778Y-109798555D01*
G37*
X183359778Y-109798555D02*
X183348155Y-109848890D01*
X183303333Y-109855000D01*
X183233643Y-109824022D01*
X183246889Y-109798555D01*
X183347368Y-109788422D01*
X183359778Y-109798555D01*
G36*
X185080037Y-109706833D02*
X185015473Y-109832344D01*
X184940222Y-109855000D01*
X184857074Y-109826655D01*
X184875737Y-109791500D01*
X184999741Y-109663554D01*
X185015552Y-109643333D01*
X185067933Y-109635044D01*
X185080037Y-109706833D01*
X185080037Y-109706833D01*
G37*
X185080037Y-109706833D02*
X185015473Y-109832344D01*
X184940222Y-109855000D01*
X184857074Y-109826655D01*
X184875737Y-109791500D01*
X184999741Y-109663554D01*
X185015552Y-109643333D01*
X185067933Y-109635044D01*
X185080037Y-109706833D01*
G36*
X184290229Y-109652870D02*
X184277000Y-109685667D01*
X184200918Y-109766437D01*
X184187336Y-109770333D01*
X184150971Y-109704827D01*
X184150000Y-109685667D01*
X184215088Y-109604253D01*
X184239663Y-109601000D01*
X184290229Y-109652870D01*
X184290229Y-109652870D01*
G37*
X184290229Y-109652870D02*
X184277000Y-109685667D01*
X184200918Y-109766437D01*
X184187336Y-109770333D01*
X184150971Y-109704827D01*
X184150000Y-109685667D01*
X184215088Y-109604253D01*
X184239663Y-109601000D01*
X184290229Y-109652870D01*
G36*
X183247779Y-109340014D02*
X183275061Y-109395444D01*
X183324425Y-109559962D01*
X183304372Y-109642691D01*
X183237917Y-109603732D01*
X183181244Y-109463424D01*
X183146262Y-109268968D01*
X183170969Y-109225999D01*
X183247779Y-109340014D01*
X183247779Y-109340014D01*
G37*
X183247779Y-109340014D02*
X183275061Y-109395444D01*
X183324425Y-109559962D01*
X183304372Y-109642691D01*
X183237917Y-109603732D01*
X183181244Y-109463424D01*
X183146262Y-109268968D01*
X183170969Y-109225999D01*
X183247779Y-109340014D01*
G36*
X183896970Y-109220599D02*
X183975308Y-109343030D01*
X183980667Y-109386403D01*
X184045485Y-109464533D01*
X184171167Y-109453572D01*
X184299716Y-109427648D01*
X184297606Y-109458280D01*
X184161277Y-109565731D01*
X184150000Y-109574134D01*
X184012167Y-109619552D01*
X183912091Y-109548316D01*
X183785202Y-109470351D01*
X183721591Y-109477137D01*
X183648211Y-109461895D01*
X183642000Y-109427605D01*
X183703706Y-109367878D01*
X183778427Y-109381235D01*
X183875228Y-109388070D01*
X183864063Y-109301229D01*
X183857627Y-109213033D01*
X183896970Y-109220599D01*
X183896970Y-109220599D01*
G37*
X183896970Y-109220599D02*
X183975308Y-109343030D01*
X183980667Y-109386403D01*
X184045485Y-109464533D01*
X184171167Y-109453572D01*
X184299716Y-109427648D01*
X184297606Y-109458280D01*
X184161277Y-109565731D01*
X184150000Y-109574134D01*
X184012167Y-109619552D01*
X183912091Y-109548316D01*
X183785202Y-109470351D01*
X183721591Y-109477137D01*
X183648211Y-109461895D01*
X183642000Y-109427605D01*
X183703706Y-109367878D01*
X183778427Y-109381235D01*
X183875228Y-109388070D01*
X183864063Y-109301229D01*
X183857627Y-109213033D01*
X183896970Y-109220599D01*
G36*
X185895973Y-108137418D02*
X185893093Y-108147517D01*
X185853961Y-108298143D01*
X185791396Y-108558112D01*
X185718853Y-108871497D01*
X185717952Y-108875465D01*
X185608038Y-109290166D01*
X185499092Y-109550769D01*
X185383822Y-109672307D01*
X185324966Y-109685667D01*
X185252935Y-109620769D01*
X185250667Y-109599722D01*
X185274062Y-109445986D01*
X185333646Y-109203843D01*
X185337896Y-109189063D01*
X185475304Y-109189063D01*
X185506788Y-109218689D01*
X185568705Y-109114354D01*
X185609326Y-108969813D01*
X185618696Y-108827603D01*
X185587212Y-108797978D01*
X185525295Y-108902312D01*
X185484673Y-109046853D01*
X185475304Y-109189063D01*
X185337896Y-109189063D01*
X185413513Y-108926105D01*
X185497757Y-108665590D01*
X185570473Y-108475112D01*
X185609287Y-108408897D01*
X185645121Y-108299349D01*
X185629746Y-108229524D01*
X185650999Y-108104866D01*
X185757356Y-108052810D01*
X185886613Y-108044606D01*
X185895973Y-108137418D01*
X185895973Y-108137418D01*
G37*
X185895973Y-108137418D02*
X185893093Y-108147517D01*
X185853961Y-108298143D01*
X185791396Y-108558112D01*
X185718853Y-108871497D01*
X185717952Y-108875465D01*
X185608038Y-109290166D01*
X185499092Y-109550769D01*
X185383822Y-109672307D01*
X185324966Y-109685667D01*
X185252935Y-109620769D01*
X185250667Y-109599722D01*
X185274062Y-109445986D01*
X185333646Y-109203843D01*
X185337896Y-109189063D01*
X185475304Y-109189063D01*
X185506788Y-109218689D01*
X185568705Y-109114354D01*
X185609326Y-108969813D01*
X185618696Y-108827603D01*
X185587212Y-108797978D01*
X185525295Y-108902312D01*
X185484673Y-109046853D01*
X185475304Y-109189063D01*
X185337896Y-109189063D01*
X185413513Y-108926105D01*
X185497757Y-108665590D01*
X185570473Y-108475112D01*
X185609287Y-108408897D01*
X185645121Y-108299349D01*
X185629746Y-108229524D01*
X185650999Y-108104866D01*
X185757356Y-108052810D01*
X185886613Y-108044606D01*
X185895973Y-108137418D01*
G36*
X183020229Y-109483536D02*
X183007000Y-109516333D01*
X182930918Y-109597104D01*
X182917336Y-109601000D01*
X182880971Y-109535494D01*
X182880000Y-109516333D01*
X182945088Y-109434920D01*
X182969663Y-109431667D01*
X183020229Y-109483536D01*
X183020229Y-109483536D01*
G37*
X183020229Y-109483536D02*
X183007000Y-109516333D01*
X182930918Y-109597104D01*
X182917336Y-109601000D01*
X182880971Y-109535494D01*
X182880000Y-109516333D01*
X182945088Y-109434920D01*
X182969663Y-109431667D01*
X183020229Y-109483536D01*
G36*
X185132809Y-108142820D02*
X185305014Y-108288592D01*
X185399851Y-108473545D01*
X185392311Y-108603454D01*
X185355551Y-108628379D01*
X185342017Y-108546900D01*
X185312749Y-108439215D01*
X185243715Y-108473418D01*
X185197729Y-108603475D01*
X185248508Y-108723184D01*
X185297351Y-108875455D01*
X185262072Y-109079472D01*
X185211414Y-109220000D01*
X185141714Y-109377428D01*
X185112649Y-109401756D01*
X185118411Y-109351406D01*
X185120404Y-109155207D01*
X185079520Y-109048481D01*
X185052742Y-108928663D01*
X185081333Y-108928663D01*
X185145912Y-109006053D01*
X185166000Y-109008333D01*
X185240304Y-108939418D01*
X185250667Y-108876336D01*
X185209621Y-108788702D01*
X185166000Y-108796667D01*
X185084563Y-108904909D01*
X185081333Y-108928663D01*
X185052742Y-108928663D01*
X185043616Y-108887833D01*
X185083063Y-108663635D01*
X185149693Y-108392628D01*
X185144944Y-108239969D01*
X185057414Y-108165650D01*
X184933167Y-108137643D01*
X184700333Y-108102371D01*
X184931215Y-108089686D01*
X185132809Y-108142820D01*
X185132809Y-108142820D01*
G37*
X185132809Y-108142820D02*
X185305014Y-108288592D01*
X185399851Y-108473545D01*
X185392311Y-108603454D01*
X185355551Y-108628379D01*
X185342017Y-108546900D01*
X185312749Y-108439215D01*
X185243715Y-108473418D01*
X185197729Y-108603475D01*
X185248508Y-108723184D01*
X185297351Y-108875455D01*
X185262072Y-109079472D01*
X185211414Y-109220000D01*
X185141714Y-109377428D01*
X185112649Y-109401756D01*
X185118411Y-109351406D01*
X185120404Y-109155207D01*
X185079520Y-109048481D01*
X185052742Y-108928663D01*
X185081333Y-108928663D01*
X185145912Y-109006053D01*
X185166000Y-109008333D01*
X185240304Y-108939418D01*
X185250667Y-108876336D01*
X185209621Y-108788702D01*
X185166000Y-108796667D01*
X185084563Y-108904909D01*
X185081333Y-108928663D01*
X185052742Y-108928663D01*
X185043616Y-108887833D01*
X185083063Y-108663635D01*
X185149693Y-108392628D01*
X185144944Y-108239969D01*
X185057414Y-108165650D01*
X184933167Y-108137643D01*
X184700333Y-108102371D01*
X184931215Y-108089686D01*
X185132809Y-108142820D01*
G36*
X182958143Y-109139203D02*
X182964667Y-109167673D01*
X182902881Y-109287364D01*
X182880000Y-109304667D01*
X182801856Y-109300796D01*
X182795333Y-109272327D01*
X182857119Y-109152635D01*
X182880000Y-109135333D01*
X182958143Y-109139203D01*
X182958143Y-109139203D01*
G37*
X182958143Y-109139203D02*
X182964667Y-109167673D01*
X182902881Y-109287364D01*
X182880000Y-109304667D01*
X182801856Y-109300796D01*
X182795333Y-109272327D01*
X182857119Y-109152635D01*
X182880000Y-109135333D01*
X182958143Y-109139203D01*
G36*
X184545111Y-109290555D02*
X184533489Y-109340890D01*
X184488667Y-109347000D01*
X184418976Y-109316022D01*
X184432222Y-109290555D01*
X184532702Y-109280422D01*
X184545111Y-109290555D01*
X184545111Y-109290555D01*
G37*
X184545111Y-109290555D02*
X184533489Y-109340890D01*
X184488667Y-109347000D01*
X184418976Y-109316022D01*
X184432222Y-109290555D01*
X184532702Y-109280422D01*
X184545111Y-109290555D01*
G36*
X183726667Y-109050667D02*
X183684333Y-109093000D01*
X183642000Y-109050667D01*
X183684333Y-109008333D01*
X183726667Y-109050667D01*
X183726667Y-109050667D01*
G37*
X183726667Y-109050667D02*
X183684333Y-109093000D01*
X183642000Y-109050667D01*
X183684333Y-109008333D01*
X183726667Y-109050667D01*
G36*
X183960238Y-108175371D02*
X184001833Y-108176280D01*
X184615667Y-108190893D01*
X184065333Y-108246333D01*
X183801103Y-108276575D01*
X183633753Y-108302941D01*
X183598835Y-108319809D01*
X183599667Y-108319996D01*
X183691645Y-108374743D01*
X183852614Y-108497648D01*
X184043658Y-108655449D01*
X184225860Y-108814883D01*
X184360305Y-108942688D01*
X184408077Y-109005602D01*
X184404000Y-109007475D01*
X184321962Y-108958359D01*
X184144616Y-108829121D01*
X183908180Y-108646291D01*
X183874833Y-108619844D01*
X183639130Y-108427901D01*
X183466227Y-108278588D01*
X183389239Y-108200661D01*
X183388000Y-108197140D01*
X183465600Y-108181776D01*
X183670365Y-108174044D01*
X183960238Y-108175371D01*
X183960238Y-108175371D01*
G37*
X183960238Y-108175371D02*
X184001833Y-108176280D01*
X184615667Y-108190893D01*
X184065333Y-108246333D01*
X183801103Y-108276575D01*
X183633753Y-108302941D01*
X183598835Y-108319809D01*
X183599667Y-108319996D01*
X183691645Y-108374743D01*
X183852614Y-108497648D01*
X184043658Y-108655449D01*
X184225860Y-108814883D01*
X184360305Y-108942688D01*
X184408077Y-109005602D01*
X184404000Y-109007475D01*
X184321962Y-108958359D01*
X184144616Y-108829121D01*
X183908180Y-108646291D01*
X183874833Y-108619844D01*
X183639130Y-108427901D01*
X183466227Y-108278588D01*
X183389239Y-108200661D01*
X183388000Y-108197140D01*
X183465600Y-108181776D01*
X183670365Y-108174044D01*
X183960238Y-108175371D01*
G36*
X183128063Y-108086518D02*
X183198975Y-108112512D01*
X183101421Y-108151140D01*
X182901560Y-108188594D01*
X182700157Y-108196838D01*
X182582531Y-108158904D01*
X182579063Y-108154218D01*
X182623555Y-108107511D01*
X182791532Y-108080055D01*
X182889114Y-108077000D01*
X183128063Y-108086518D01*
X183128063Y-108086518D01*
G37*
X183128063Y-108086518D02*
X183198975Y-108112512D01*
X183101421Y-108151140D01*
X182901560Y-108188594D01*
X182700157Y-108196838D01*
X182582531Y-108158904D01*
X182579063Y-108154218D01*
X182623555Y-108107511D01*
X182791532Y-108080055D01*
X182889114Y-108077000D01*
X183128063Y-108086518D01*
G36*
X185504667Y-108204000D02*
X185462333Y-108246333D01*
X185420000Y-108204000D01*
X185462333Y-108161667D01*
X185504667Y-108204000D01*
X185504667Y-108204000D01*
G37*
X185504667Y-108204000D02*
X185462333Y-108246333D01*
X185420000Y-108204000D01*
X185462333Y-108161667D01*
X185504667Y-108204000D01*
G36*
X185481736Y-108025847D02*
X185456485Y-108064329D01*
X185370611Y-108070316D01*
X185280269Y-108049638D01*
X185319458Y-108019163D01*
X185451782Y-108009069D01*
X185481736Y-108025847D01*
X185481736Y-108025847D01*
G37*
X185481736Y-108025847D02*
X185456485Y-108064329D01*
X185370611Y-108070316D01*
X185280269Y-108049638D01*
X185319458Y-108019163D01*
X185451782Y-108009069D01*
X185481736Y-108025847D01*
G36*
X184263029Y-107924629D02*
X184343054Y-107930465D01*
X184422217Y-107944012D01*
X184349347Y-107954662D01*
X184141741Y-107961054D01*
X183938333Y-107962280D01*
X183656751Y-107959145D01*
X183504251Y-107951060D01*
X183495819Y-107939381D01*
X183581054Y-107929995D01*
X183919962Y-107917184D01*
X184263029Y-107924629D01*
X184263029Y-107924629D01*
G37*
X184263029Y-107924629D02*
X184343054Y-107930465D01*
X184422217Y-107944012D01*
X184349347Y-107954662D01*
X184141741Y-107961054D01*
X183938333Y-107962280D01*
X183656751Y-107959145D01*
X183504251Y-107951060D01*
X183495819Y-107939381D01*
X183581054Y-107929995D01*
X183919962Y-107917184D01*
X184263029Y-107924629D01*
G36*
X185730444Y-107935889D02*
X185718822Y-107986223D01*
X185674000Y-107992333D01*
X185604310Y-107961355D01*
X185617555Y-107935889D01*
X185718035Y-107925756D01*
X185730444Y-107935889D01*
X185730444Y-107935889D01*
G37*
X185730444Y-107935889D02*
X185718822Y-107986223D01*
X185674000Y-107992333D01*
X185604310Y-107961355D01*
X185617555Y-107935889D01*
X185718035Y-107925756D01*
X185730444Y-107935889D01*
G36*
X183459581Y-107227862D02*
X183673432Y-107253093D01*
X183728481Y-107272308D01*
X183634883Y-107290799D01*
X183590038Y-107295865D01*
X183349034Y-107380386D01*
X183227403Y-107541304D01*
X183170722Y-107691323D01*
X183201557Y-107726754D01*
X183244709Y-107713967D01*
X183417086Y-107713559D01*
X183469653Y-107736471D01*
X183480059Y-107783559D01*
X183336275Y-107806978D01*
X183292642Y-107808278D01*
X183002799Y-107826307D01*
X182753000Y-107858734D01*
X182609022Y-107881185D01*
X182625449Y-107865991D01*
X182700124Y-107841265D01*
X182901249Y-107778009D01*
X182678958Y-107611076D01*
X182518004Y-107468758D01*
X182489904Y-107422629D01*
X182821267Y-107422629D01*
X182871885Y-107516808D01*
X182879226Y-107525734D01*
X182993862Y-107600957D01*
X183088832Y-107587875D01*
X183099995Y-107501003D01*
X183088051Y-107478483D01*
X182969943Y-107407690D01*
X182906969Y-107399667D01*
X182821267Y-107422629D01*
X182489904Y-107422629D01*
X182459151Y-107372147D01*
X182513505Y-107347473D01*
X182575102Y-107365762D01*
X182709304Y-107360693D01*
X182744520Y-107328720D01*
X182856360Y-107282056D01*
X182977990Y-107293952D01*
X183100412Y-107303035D01*
X183112987Y-107264837D01*
X183157944Y-107226444D01*
X183332355Y-107218674D01*
X183459581Y-107227862D01*
X183459581Y-107227862D01*
G37*
X183459581Y-107227862D02*
X183673432Y-107253093D01*
X183728481Y-107272308D01*
X183634883Y-107290799D01*
X183590038Y-107295865D01*
X183349034Y-107380386D01*
X183227403Y-107541304D01*
X183170722Y-107691323D01*
X183201557Y-107726754D01*
X183244709Y-107713967D01*
X183417086Y-107713559D01*
X183469653Y-107736471D01*
X183480059Y-107783559D01*
X183336275Y-107806978D01*
X183292642Y-107808278D01*
X183002799Y-107826307D01*
X182753000Y-107858734D01*
X182609022Y-107881185D01*
X182625449Y-107865991D01*
X182700124Y-107841265D01*
X182901249Y-107778009D01*
X182678958Y-107611076D01*
X182518004Y-107468758D01*
X182489904Y-107422629D01*
X182821267Y-107422629D01*
X182871885Y-107516808D01*
X182879226Y-107525734D01*
X182993862Y-107600957D01*
X183088832Y-107587875D01*
X183099995Y-107501003D01*
X183088051Y-107478483D01*
X182969943Y-107407690D01*
X182906969Y-107399667D01*
X182821267Y-107422629D01*
X182489904Y-107422629D01*
X182459151Y-107372147D01*
X182513505Y-107347473D01*
X182575102Y-107365762D01*
X182709304Y-107360693D01*
X182744520Y-107328720D01*
X182856360Y-107282056D01*
X182977990Y-107293952D01*
X183100412Y-107303035D01*
X183112987Y-107264837D01*
X183157944Y-107226444D01*
X183332355Y-107218674D01*
X183459581Y-107227862D01*
G36*
X184823994Y-107254498D02*
X184911185Y-107306043D01*
X184912000Y-107312343D01*
X184973788Y-107359594D01*
X185035508Y-107346957D01*
X185198385Y-107342157D01*
X185430043Y-107391954D01*
X185654822Y-107473759D01*
X185797062Y-107564987D01*
X185805914Y-107576951D01*
X185769613Y-107653846D01*
X185621175Y-107748604D01*
X185412586Y-107837409D01*
X185195831Y-107896443D01*
X185084053Y-107907667D01*
X184944953Y-107875955D01*
X184912000Y-107830926D01*
X184979086Y-107786440D01*
X185074431Y-107796663D01*
X185278411Y-107789031D01*
X185391931Y-107742720D01*
X185471911Y-107682519D01*
X185416292Y-107674268D01*
X185279893Y-107697274D01*
X185072566Y-107708004D01*
X184957397Y-107658623D01*
X184969670Y-107611333D01*
X185589333Y-107611333D01*
X185631667Y-107653667D01*
X185674000Y-107611333D01*
X185631667Y-107569000D01*
X185589333Y-107611333D01*
X184969670Y-107611333D01*
X184977255Y-107582112D01*
X185055170Y-107562316D01*
X185147496Y-107547568D01*
X185081333Y-107513791D01*
X184898643Y-107446111D01*
X185285870Y-107446111D01*
X185293599Y-107485303D01*
X185384156Y-107555489D01*
X185481201Y-107567267D01*
X185504667Y-107535725D01*
X185438254Y-107481348D01*
X185373269Y-107452028D01*
X185285870Y-107446111D01*
X184898643Y-107446111D01*
X184897339Y-107445628D01*
X184785000Y-107399667D01*
X184584855Y-107319889D01*
X184488667Y-107285542D01*
X184473183Y-107256480D01*
X184597785Y-107238453D01*
X184636833Y-107237017D01*
X184823994Y-107254498D01*
X184823994Y-107254498D01*
G37*
X184823994Y-107254498D02*
X184911185Y-107306043D01*
X184912000Y-107312343D01*
X184973788Y-107359594D01*
X185035508Y-107346957D01*
X185198385Y-107342157D01*
X185430043Y-107391954D01*
X185654822Y-107473759D01*
X185797062Y-107564987D01*
X185805914Y-107576951D01*
X185769613Y-107653846D01*
X185621175Y-107748604D01*
X185412586Y-107837409D01*
X185195831Y-107896443D01*
X185084053Y-107907667D01*
X184944953Y-107875955D01*
X184912000Y-107830926D01*
X184979086Y-107786440D01*
X185074431Y-107796663D01*
X185278411Y-107789031D01*
X185391931Y-107742720D01*
X185471911Y-107682519D01*
X185416292Y-107674268D01*
X185279893Y-107697274D01*
X185072566Y-107708004D01*
X184957397Y-107658623D01*
X184969670Y-107611333D01*
X185589333Y-107611333D01*
X185631667Y-107653667D01*
X185674000Y-107611333D01*
X185631667Y-107569000D01*
X185589333Y-107611333D01*
X184969670Y-107611333D01*
X184977255Y-107582112D01*
X185055170Y-107562316D01*
X185147496Y-107547568D01*
X185081333Y-107513791D01*
X184898643Y-107446111D01*
X185285870Y-107446111D01*
X185293599Y-107485303D01*
X185384156Y-107555489D01*
X185481201Y-107567267D01*
X185504667Y-107535725D01*
X185438254Y-107481348D01*
X185373269Y-107452028D01*
X185285870Y-107446111D01*
X184898643Y-107446111D01*
X184897339Y-107445628D01*
X184785000Y-107399667D01*
X184584855Y-107319889D01*
X184488667Y-107285542D01*
X184473183Y-107256480D01*
X184597785Y-107238453D01*
X184636833Y-107237017D01*
X184823994Y-107254498D01*
G36*
X185928000Y-107865333D02*
X185885667Y-107907667D01*
X185843333Y-107865333D01*
X185885667Y-107823000D01*
X185928000Y-107865333D01*
X185928000Y-107865333D01*
G37*
X185928000Y-107865333D02*
X185885667Y-107907667D01*
X185843333Y-107865333D01*
X185885667Y-107823000D01*
X185928000Y-107865333D01*
G36*
X184729585Y-107687915D02*
X184819765Y-107766620D01*
X184827333Y-107785663D01*
X184787152Y-107820462D01*
X184703497Y-107742487D01*
X184692248Y-107725251D01*
X184682269Y-107667314D01*
X184729585Y-107687915D01*
X184729585Y-107687915D01*
G37*
X184729585Y-107687915D02*
X184819765Y-107766620D01*
X184827333Y-107785663D01*
X184787152Y-107820462D01*
X184703497Y-107742487D01*
X184692248Y-107725251D01*
X184682269Y-107667314D01*
X184729585Y-107687915D01*
G36*
X183472667Y-107442000D02*
X183430333Y-107484333D01*
X183388000Y-107442000D01*
X183430333Y-107399667D01*
X183472667Y-107442000D01*
X183472667Y-107442000D01*
G37*
X183472667Y-107442000D02*
X183430333Y-107484333D01*
X183388000Y-107442000D01*
X183430333Y-107399667D01*
X183472667Y-107442000D01*
G36*
X185999585Y-107349248D02*
X186089765Y-107427953D01*
X186097333Y-107446997D01*
X186057152Y-107481796D01*
X185973497Y-107403820D01*
X185962248Y-107386585D01*
X185952269Y-107328648D01*
X185999585Y-107349248D01*
X185999585Y-107349248D01*
G37*
X185999585Y-107349248D02*
X186089765Y-107427953D01*
X186097333Y-107446997D01*
X186057152Y-107481796D01*
X185973497Y-107403820D01*
X185962248Y-107386585D01*
X185952269Y-107328648D01*
X185999585Y-107349248D01*
G36*
X188464765Y-104520072D02*
X188990186Y-104754658D01*
X189446434Y-105120485D01*
X189809432Y-105585576D01*
X190055104Y-106117954D01*
X190159376Y-106685644D01*
X190161333Y-106773409D01*
X190124350Y-107155694D01*
X190015311Y-107394486D01*
X189837082Y-107483821D01*
X189819688Y-107484333D01*
X189729743Y-107466476D01*
X189679499Y-107388102D01*
X189657766Y-107212011D01*
X189653333Y-106931280D01*
X189593197Y-106329323D01*
X189407573Y-105836575D01*
X189088638Y-105440469D01*
X188628568Y-105128439D01*
X188489167Y-105061460D01*
X188248327Y-104935434D01*
X188086907Y-104816788D01*
X188044667Y-104750667D01*
X188111456Y-104571297D01*
X188290023Y-104498192D01*
X188464765Y-104520072D01*
X188464765Y-104520072D01*
G37*
X188464765Y-104520072D02*
X188990186Y-104754658D01*
X189446434Y-105120485D01*
X189809432Y-105585576D01*
X190055104Y-106117954D01*
X190159376Y-106685644D01*
X190161333Y-106773409D01*
X190124350Y-107155694D01*
X190015311Y-107394486D01*
X189837082Y-107483821D01*
X189819688Y-107484333D01*
X189729743Y-107466476D01*
X189679499Y-107388102D01*
X189657766Y-107212011D01*
X189653333Y-106931280D01*
X189593197Y-106329323D01*
X189407573Y-105836575D01*
X189088638Y-105440469D01*
X188628568Y-105128439D01*
X188489167Y-105061460D01*
X188248327Y-104935434D01*
X188086907Y-104816788D01*
X188044667Y-104750667D01*
X188111456Y-104571297D01*
X188290023Y-104498192D01*
X188464765Y-104520072D01*
G36*
X188557808Y-105428378D02*
X188838897Y-105588056D01*
X189095382Y-105828843D01*
X189242563Y-106043679D01*
X189349167Y-106329631D01*
X189392375Y-106633915D01*
X189375709Y-106913562D01*
X189302690Y-107125609D01*
X189176837Y-107227086D01*
X189145333Y-107230333D01*
X189048865Y-107178196D01*
X188992933Y-107128733D01*
X188921504Y-106977280D01*
X188891338Y-106754394D01*
X188891333Y-106751717D01*
X188824436Y-106349378D01*
X188619544Y-106042937D01*
X188361298Y-105864425D01*
X188141987Y-105710880D01*
X188061322Y-105561485D01*
X188122599Y-105443033D01*
X188302305Y-105384971D01*
X188557808Y-105428378D01*
X188557808Y-105428378D01*
G37*
X188557808Y-105428378D02*
X188838897Y-105588056D01*
X189095382Y-105828843D01*
X189242563Y-106043679D01*
X189349167Y-106329631D01*
X189392375Y-106633915D01*
X189375709Y-106913562D01*
X189302690Y-107125609D01*
X189176837Y-107227086D01*
X189145333Y-107230333D01*
X189048865Y-107178196D01*
X188992933Y-107128733D01*
X188921504Y-106977280D01*
X188891338Y-106754394D01*
X188891333Y-106751717D01*
X188824436Y-106349378D01*
X188619544Y-106042937D01*
X188361298Y-105864425D01*
X188141987Y-105710880D01*
X188061322Y-105561485D01*
X188122599Y-105443033D01*
X188302305Y-105384971D01*
X188557808Y-105428378D01*
G36*
X181666444Y-106665889D02*
X181654822Y-106716223D01*
X181610000Y-106722333D01*
X181540310Y-106691355D01*
X181553555Y-106665889D01*
X181654035Y-106655756D01*
X181666444Y-106665889D01*
X181666444Y-106665889D01*
G37*
X181666444Y-106665889D02*
X181654822Y-106716223D01*
X181610000Y-106722333D01*
X181540310Y-106691355D01*
X181553555Y-106665889D01*
X181654035Y-106655756D01*
X181666444Y-106665889D01*
G36*
X181329437Y-106438357D02*
X181313667Y-106468333D01*
X181233892Y-106549190D01*
X181219006Y-106553000D01*
X181213230Y-106498310D01*
X181229000Y-106468333D01*
X181308774Y-106387476D01*
X181323660Y-106383667D01*
X181329437Y-106438357D01*
X181329437Y-106438357D01*
G37*
X181329437Y-106438357D02*
X181313667Y-106468333D01*
X181233892Y-106549190D01*
X181219006Y-106553000D01*
X181213230Y-106498310D01*
X181229000Y-106468333D01*
X181308774Y-106387476D01*
X181323660Y-106383667D01*
X181329437Y-106438357D01*
G36*
X181756403Y-106501847D02*
X181731152Y-106540329D01*
X181645278Y-106546316D01*
X181554935Y-106525638D01*
X181594125Y-106495163D01*
X181726449Y-106485069D01*
X181756403Y-106501847D01*
X181756403Y-106501847D01*
G37*
X181756403Y-106501847D02*
X181731152Y-106540329D01*
X181645278Y-106546316D01*
X181554935Y-106525638D01*
X181594125Y-106495163D01*
X181726449Y-106485069D01*
X181756403Y-106501847D01*
D14*
X121920000Y-82550000D02*
G75*
G03X121920000Y-82550000I-1270000J0D01*
G01*
X118110000Y-85090000D02*
X123190000Y-85090000D01*
X123190000Y-85090000D02*
X123190000Y-80010000D01*
X123190000Y-80010000D02*
X118110000Y-80010000D01*
X118110000Y-80010000D02*
X118110000Y-85090000D01*
X125730000Y-114300000D02*
X133350000Y-114300000D01*
X133350000Y-114300000D02*
X133350000Y-129540000D01*
X133350000Y-129540000D02*
X125730000Y-129540000D01*
X125730000Y-129540000D02*
X125730000Y-114300000D01*
X168910000Y-114300000D02*
X176530000Y-114300000D01*
X176530000Y-114300000D02*
X176530000Y-129540000D01*
X176530000Y-129540000D02*
X168910000Y-129540000D01*
X168910000Y-129540000D02*
X168910000Y-114300000D01*
X152028026Y-78740000D02*
G75*
G03X152028026Y-78740000I-898026J0D01*
G01*
X160901923Y-125476000D02*
G75*
G03X160901923Y-125476000I-1135923J0D01*
G01*
X143629923Y-125476000D02*
G75*
G03X143629923Y-125476000I-1135923J0D01*
G01*
X161290000Y-123190000D02*
X161290000Y-128270000D01*
X161290000Y-128270000D02*
X158115000Y-128270000D01*
X158115000Y-128270000D02*
X158115000Y-123190000D01*
X158115000Y-123190000D02*
X161290000Y-123190000D01*
X140970000Y-128270000D02*
X140970000Y-123190000D01*
X140970000Y-123190000D02*
X144145000Y-123190000D01*
X144145000Y-123190000D02*
X144145000Y-128270000D01*
X144145000Y-128270000D02*
X140970000Y-128270000D01*
X140970000Y-114300000D02*
X140970000Y-80645000D01*
X140970000Y-80645000D02*
X161290000Y-80645000D01*
X161290000Y-80645000D02*
X161290000Y-114300000D01*
X161290000Y-114300000D02*
X140970000Y-114300000D01*
X162188026Y-79375000D02*
G75*
G03X162188026Y-79375000I-898026J0D01*
G01*
X141868026Y-79375000D02*
G75*
G03X141868026Y-79375000I-898026J0D01*
G01*
X146685000Y-125730000D02*
X146685000Y-123190000D01*
X146685000Y-123190000D02*
X155575000Y-123190000D01*
X155575000Y-123190000D02*
X155575000Y-129540000D01*
X155575000Y-129540000D02*
X155575000Y-125730000D01*
X146685000Y-125730000D02*
X146685000Y-129540000D01*
X163830000Y-127000000D02*
X163830000Y-128270000D01*
X163830000Y-128270000D02*
X162560000Y-129540000D01*
X162560000Y-129540000D02*
X139700000Y-129540000D01*
X139700000Y-129540000D02*
X138430000Y-128270000D01*
X138430000Y-128270000D02*
X138430000Y-127000000D01*
X138430000Y-77470000D02*
X163830000Y-77470000D01*
X163830000Y-77470000D02*
X163830000Y-82550000D01*
X138430000Y-77470000D02*
X138430000Y-81280000D01*
X163830000Y-82550000D02*
X163830000Y-127000000D01*
X138430000Y-81280000D02*
X138430000Y-127000000D01*
X139700000Y-68580000D02*
X147320000Y-68580000D01*
X147320000Y-68580000D02*
X147320000Y-76200000D01*
X147320000Y-76200000D02*
X127000000Y-76200000D01*
X127000000Y-76200000D02*
X127000000Y-68580000D01*
X127000000Y-68580000D02*
X134620000Y-68580000D01*
X166830477Y-89622381D02*
X166830477Y-90336667D01*
X166782857Y-90479524D01*
X166687619Y-90574762D01*
X166544762Y-90622381D01*
X166449524Y-90622381D01*
X167211429Y-89622381D02*
X167878096Y-89622381D01*
X167449524Y-90622381D01*
X168449524Y-89622381D02*
X168544763Y-89622381D01*
X168640001Y-89670000D01*
X168687620Y-89717619D01*
X168735239Y-89812857D01*
X168782858Y-90003333D01*
X168782858Y-90241429D01*
X168735239Y-90431905D01*
X168687620Y-90527143D01*
X168640001Y-90574762D01*
X168544763Y-90622381D01*
X168449524Y-90622381D01*
X168354286Y-90574762D01*
X168306667Y-90527143D01*
X168259048Y-90431905D01*
X168211429Y-90241429D01*
X168211429Y-90003333D01*
X168259048Y-89812857D01*
X168306667Y-89717619D01*
X168354286Y-89670000D01*
X168449524Y-89622381D01*
X166830477Y-107402381D02*
X166830477Y-108116667D01*
X166782857Y-108259524D01*
X166687619Y-108354762D01*
X166544762Y-108402381D01*
X166449524Y-108402381D01*
X167211429Y-107402381D02*
X167878096Y-107402381D01*
X167449524Y-108402381D01*
X168782858Y-108402381D02*
X168211429Y-108402381D01*
X168497143Y-108402381D02*
X168497143Y-107402381D01*
X168401905Y-107545238D01*
X168306667Y-107640476D01*
X168211429Y-107688095D01*
X166830477Y-109942381D02*
X166830477Y-110656667D01*
X166782857Y-110799524D01*
X166687619Y-110894762D01*
X166544762Y-110942381D01*
X166449524Y-110942381D01*
X167211429Y-109942381D02*
X167878096Y-109942381D01*
X167449524Y-110942381D01*
X168211429Y-110037619D02*
X168259048Y-109990000D01*
X168354286Y-109942381D01*
X168592382Y-109942381D01*
X168687620Y-109990000D01*
X168735239Y-110037619D01*
X168782858Y-110132857D01*
X168782858Y-110228095D01*
X168735239Y-110370952D01*
X168163810Y-110942381D01*
X168782858Y-110942381D01*
X159472381Y-113672381D02*
X159472381Y-113100952D01*
X160472381Y-113386667D02*
X159472381Y-113386667D01*
X159472381Y-112910476D02*
X159472381Y-112339047D01*
X160472381Y-112624762D02*
X159472381Y-112624762D01*
X159520000Y-111481904D02*
X159472381Y-111577142D01*
X159472381Y-111719999D01*
X159520000Y-111862857D01*
X159615238Y-111958095D01*
X159710476Y-112005714D01*
X159900952Y-112053333D01*
X160043810Y-112053333D01*
X160234286Y-112005714D01*
X160329524Y-111958095D01*
X160424762Y-111862857D01*
X160472381Y-111719999D01*
X160472381Y-111624761D01*
X160424762Y-111481904D01*
X160377143Y-111434285D01*
X160043810Y-111434285D01*
X160043810Y-111624761D01*
X159472381Y-110815238D02*
X159472381Y-110624761D01*
X159520000Y-110529523D01*
X159615238Y-110434285D01*
X159805714Y-110386666D01*
X160139048Y-110386666D01*
X160329524Y-110434285D01*
X160424762Y-110529523D01*
X160472381Y-110624761D01*
X160472381Y-110815238D01*
X160424762Y-110910476D01*
X160329524Y-111005714D01*
X160139048Y-111053333D01*
X159805714Y-111053333D01*
X159615238Y-111005714D01*
X159520000Y-110910476D01*
X159472381Y-110815238D01*
X160567619Y-110196190D02*
X160567619Y-109434285D01*
X159948571Y-109196190D02*
X159948571Y-108862856D01*
X160472381Y-108719999D02*
X160472381Y-109196190D01*
X159472381Y-109196190D01*
X159472381Y-108719999D01*
X160424762Y-108339047D02*
X160472381Y-108196190D01*
X160472381Y-107958094D01*
X160424762Y-107862856D01*
X160377143Y-107815237D01*
X160281905Y-107767618D01*
X160186667Y-107767618D01*
X160091429Y-107815237D01*
X160043810Y-107862856D01*
X159996190Y-107958094D01*
X159948571Y-108148571D01*
X159900952Y-108243809D01*
X159853333Y-108291428D01*
X159758095Y-108339047D01*
X159662857Y-108339047D01*
X159567619Y-108291428D01*
X159520000Y-108243809D01*
X159472381Y-108148571D01*
X159472381Y-107910475D01*
X159520000Y-107767618D01*
X160472381Y-107339047D02*
X159472381Y-107339047D01*
X159472381Y-106958094D01*
X159520000Y-106862856D01*
X159567619Y-106815237D01*
X159662857Y-106767618D01*
X159805714Y-106767618D01*
X159900952Y-106815237D01*
X159948571Y-106862856D01*
X159996190Y-106958094D01*
X159996190Y-107339047D01*
X159472381Y-106434285D02*
X159472381Y-105815237D01*
X159853333Y-106148571D01*
X159853333Y-106005713D01*
X159900952Y-105910475D01*
X159948571Y-105862856D01*
X160043810Y-105815237D01*
X160281905Y-105815237D01*
X160377143Y-105862856D01*
X160424762Y-105910475D01*
X160472381Y-106005713D01*
X160472381Y-106291428D01*
X160424762Y-106386666D01*
X160377143Y-106434285D01*
X159567619Y-105434285D02*
X159520000Y-105386666D01*
X159472381Y-105291428D01*
X159472381Y-105053332D01*
X159520000Y-104958094D01*
X159567619Y-104910475D01*
X159662857Y-104862856D01*
X159758095Y-104862856D01*
X159900952Y-104910475D01*
X160472381Y-105481904D01*
X160472381Y-104862856D01*
D10*
X149350000Y-80107142D02*
X149350000Y-79749999D01*
X149564286Y-80178570D02*
X148814286Y-79928570D01*
X149564286Y-79678570D01*
X149064286Y-79428571D02*
X149564286Y-79428571D01*
X149135714Y-79428571D02*
X149100000Y-79392856D01*
X149064286Y-79321428D01*
X149064286Y-79214285D01*
X149100000Y-79142856D01*
X149171429Y-79107142D01*
X149564286Y-79107142D01*
X149064286Y-78857142D02*
X149064286Y-78571428D01*
X148814286Y-78750000D02*
X149457143Y-78750000D01*
X149528571Y-78714285D01*
X149564286Y-78642857D01*
X149564286Y-78571428D01*
X150183571Y-127859286D02*
X150183571Y-128466429D01*
X150219286Y-128537857D01*
X150255000Y-128573571D01*
X150326429Y-128609286D01*
X150469286Y-128609286D01*
X150540714Y-128573571D01*
X150576429Y-128537857D01*
X150612143Y-128466429D01*
X150612143Y-127859286D01*
X150933571Y-128573571D02*
X151040714Y-128609286D01*
X151219285Y-128609286D01*
X151290714Y-128573571D01*
X151326428Y-128537857D01*
X151362143Y-128466429D01*
X151362143Y-128395000D01*
X151326428Y-128323571D01*
X151290714Y-128287857D01*
X151219285Y-128252143D01*
X151076428Y-128216429D01*
X151005000Y-128180714D01*
X150969285Y-128145000D01*
X150933571Y-128073571D01*
X150933571Y-128002143D01*
X150969285Y-127930714D01*
X151005000Y-127895000D01*
X151076428Y-127859286D01*
X151255000Y-127859286D01*
X151362143Y-127895000D01*
X151933571Y-128216429D02*
X152040714Y-128252143D01*
X152076429Y-128287857D01*
X152112143Y-128359286D01*
X152112143Y-128466429D01*
X152076429Y-128537857D01*
X152040714Y-128573571D01*
X151969286Y-128609286D01*
X151683571Y-128609286D01*
X151683571Y-127859286D01*
X151933571Y-127859286D01*
X152005000Y-127895000D01*
X152040714Y-127930714D01*
X152076429Y-128002143D01*
X152076429Y-128073571D01*
X152040714Y-128145000D01*
X152005000Y-128180714D01*
X151933571Y-128216429D01*
X151683571Y-128216429D01*
M02*
