G04 #@! TF.FileFunction,Copper,L1,Top,Signal*
%FSLAX46Y46*%
G04 Gerber Fmt 4.6, Leading zero omitted, Abs format (unit mm)*
G04 Created by KiCad (PCBNEW 4.0.7+dfsg1-1~bpo8+1) date Mon Jun  4 12:39:51 2018*
%MOMM*%
%LPD*%
G01*
G04 APERTURE LIST*
%ADD10C,0.100000*%
%ADD11R,2.032000X1.727200*%
%ADD12O,2.032000X1.727200*%
%ADD13R,5.000000X10.000000*%
%ADD14R,1.500000X1.500000*%
%ADD15R,2.032000X2.032000*%
%ADD16O,2.032000X2.032000*%
%ADD17R,1.727200X1.727200*%
%ADD18O,1.727200X1.727200*%
%ADD19R,1.727200X2.032000*%
%ADD20O,1.727200X2.032000*%
%ADD21C,1.524000*%
%ADD22C,2.000000*%
%ADD23C,1.727200*%
%ADD24C,0.508000*%
%ADD25C,0.177800*%
%ADD26C,0.711200*%
%ADD27C,0.254000*%
G04 APERTURE END LIST*
D10*
D11*
X179070000Y-97790000D03*
D12*
X179070000Y-100330000D03*
X179070000Y-102870000D03*
D11*
X179070000Y-59690000D03*
D12*
X179070000Y-62230000D03*
X179070000Y-64770000D03*
X179070000Y-67310000D03*
X179070000Y-69850000D03*
X179070000Y-72390000D03*
X179070000Y-74930000D03*
D13*
X133223000Y-62611000D03*
X143510000Y-62611000D03*
D14*
X123190000Y-107950000D03*
X123190000Y-97790000D03*
X123190000Y-95250000D03*
X123190000Y-92710000D03*
X123190000Y-90170000D03*
X148590000Y-102870000D03*
X148590000Y-97790000D03*
X148590000Y-77470000D03*
X148590000Y-74930000D03*
X175260000Y-81280000D03*
X152400000Y-106680000D03*
X152400000Y-109220000D03*
X165100000Y-90170000D03*
X165100000Y-107950000D03*
X165100000Y-110490000D03*
D15*
X121920000Y-74930000D03*
D16*
X119380000Y-74930000D03*
D17*
X116840000Y-115570000D03*
D18*
X119380000Y-115570000D03*
X116840000Y-118110000D03*
X119380000Y-118110000D03*
X116840000Y-120650000D03*
X119380000Y-120650000D03*
X116840000Y-123190000D03*
X119380000Y-123190000D03*
X116840000Y-125730000D03*
X119380000Y-125730000D03*
X116840000Y-128270000D03*
X119380000Y-128270000D03*
D17*
X130810000Y-80010000D03*
D18*
X133350000Y-80010000D03*
X130810000Y-82550000D03*
X133350000Y-82550000D03*
X130810000Y-85090000D03*
X133350000Y-85090000D03*
X130810000Y-87630000D03*
X133350000Y-87630000D03*
X130810000Y-90170000D03*
X133350000Y-90170000D03*
X130810000Y-92710000D03*
X133350000Y-92710000D03*
D11*
X120650000Y-58420000D03*
D12*
X120650000Y-60960000D03*
X120650000Y-63500000D03*
X120650000Y-66040000D03*
D11*
X132080000Y-97790000D03*
D12*
X132080000Y-100330000D03*
X132080000Y-102870000D03*
X132080000Y-105410000D03*
X132080000Y-107950000D03*
X132080000Y-110490000D03*
D11*
X124460000Y-58420000D03*
D12*
X124460000Y-60960000D03*
X124460000Y-63500000D03*
X124460000Y-66040000D03*
D11*
X118110000Y-106680000D03*
D12*
X118110000Y-104140000D03*
X118110000Y-101600000D03*
X118110000Y-99060000D03*
X118110000Y-96520000D03*
X118110000Y-93980000D03*
X118110000Y-91440000D03*
D11*
X185420000Y-80010000D03*
D12*
X185420000Y-82550000D03*
X185420000Y-85090000D03*
X185420000Y-87630000D03*
X185420000Y-90170000D03*
X185420000Y-92710000D03*
D19*
X151130000Y-66040000D03*
D20*
X153670000Y-66040000D03*
X156210000Y-66040000D03*
X158750000Y-66040000D03*
X161290000Y-66040000D03*
X163830000Y-66040000D03*
D19*
X168910000Y-59690000D03*
D20*
X171450000Y-59690000D03*
X173990000Y-59690000D03*
D11*
X184150000Y-116840000D03*
D12*
X184150000Y-119380000D03*
X184150000Y-121920000D03*
X184150000Y-124460000D03*
D19*
X167640000Y-74930000D03*
D20*
X170180000Y-74930000D03*
X172720000Y-74930000D03*
D19*
X167640000Y-71120000D03*
D20*
X170180000Y-71120000D03*
X172720000Y-71120000D03*
D11*
X180340000Y-93980000D03*
D12*
X180340000Y-91440000D03*
X180340000Y-88900000D03*
D11*
X180340000Y-85090000D03*
D12*
X180340000Y-82550000D03*
X180340000Y-80010000D03*
D11*
X116840000Y-66040000D03*
D12*
X116840000Y-63500000D03*
X116840000Y-60960000D03*
X116840000Y-58420000D03*
D21*
X171450000Y-66040000D03*
X173990000Y-66040000D03*
X168910000Y-66040000D03*
D17*
X109093000Y-76708000D03*
D18*
X111633000Y-76708000D03*
X109093000Y-79248000D03*
X111633000Y-79248000D03*
X109093000Y-81788000D03*
X111633000Y-81788000D03*
X109093000Y-84328000D03*
X111633000Y-84328000D03*
X109093000Y-86868000D03*
X111633000Y-86868000D03*
X109093000Y-89408000D03*
X111633000Y-89408000D03*
X109093000Y-91948000D03*
X111633000Y-91948000D03*
X109093000Y-94488000D03*
X111633000Y-94488000D03*
X109093000Y-97028000D03*
X111633000Y-97028000D03*
X109093000Y-99568000D03*
X111633000Y-99568000D03*
X109093000Y-102108000D03*
X111633000Y-102108000D03*
X109093000Y-104648000D03*
X111633000Y-104648000D03*
X109093000Y-107188000D03*
X111633000Y-107188000D03*
X109093000Y-109728000D03*
X111633000Y-109728000D03*
X109093000Y-112268000D03*
X111633000Y-112268000D03*
X109093000Y-114808000D03*
X111633000Y-114808000D03*
X109093000Y-117348000D03*
X111633000Y-117348000D03*
X109093000Y-119888000D03*
X111633000Y-119888000D03*
X109093000Y-122428000D03*
X111633000Y-122428000D03*
X109093000Y-124968000D03*
X111633000Y-124968000D03*
D22*
X172720000Y-81280000D03*
X172720000Y-83820000D03*
X172720000Y-86360000D03*
X172720000Y-88900000D03*
X172720000Y-91440000D03*
X172720000Y-93980000D03*
X172720000Y-96520000D03*
X172720000Y-99060000D03*
X172720000Y-101600000D03*
X172720000Y-104140000D03*
X172720000Y-106680000D03*
X172720000Y-109220000D03*
X172720000Y-111760000D03*
X172720000Y-114300000D03*
X154940000Y-114300000D03*
X154940000Y-111760000D03*
X154940000Y-109220000D03*
X154940000Y-106680000D03*
X154940000Y-104140000D03*
X154940000Y-101600000D03*
X154940000Y-99060000D03*
X154940000Y-96520000D03*
X154940000Y-93980000D03*
X154940000Y-91440000D03*
X154940000Y-88900000D03*
X154940000Y-86360000D03*
X154940000Y-83820000D03*
X154940000Y-81280000D03*
D23*
X118110000Y-86360000D03*
X118110000Y-78740000D03*
X123190000Y-78740000D03*
X123190000Y-86360000D03*
X124460000Y-115570000D03*
X124460000Y-118110000D03*
X124460000Y-120650000D03*
X124460000Y-123190000D03*
X124460000Y-125730000D03*
X124460000Y-128270000D03*
X134620000Y-128270000D03*
X134620000Y-125730000D03*
X134620000Y-123190000D03*
X134620000Y-120650000D03*
X134620000Y-118110000D03*
X134620000Y-115570000D03*
X167640000Y-115570000D03*
X167640000Y-118110000D03*
X167640000Y-120650000D03*
X167640000Y-123190000D03*
X167640000Y-125730000D03*
X167640000Y-128270000D03*
X177800000Y-128270000D03*
X177800000Y-125730000D03*
X177800000Y-123190000D03*
X177800000Y-120650000D03*
X177800000Y-118110000D03*
X177800000Y-115570000D03*
X162560000Y-125730000D03*
X162560000Y-123190000D03*
X162560000Y-120650000D03*
X162560000Y-118110000D03*
X162560000Y-115570000D03*
X162560000Y-113030000D03*
X162560000Y-110490000D03*
X162560000Y-107950000D03*
X162560000Y-105410000D03*
X162560000Y-102870000D03*
X162560000Y-100330000D03*
X162560000Y-97790000D03*
X162560000Y-95250000D03*
X162560000Y-92710000D03*
X162560000Y-90170000D03*
X162560000Y-87630000D03*
X162560000Y-85090000D03*
X162560000Y-82550000D03*
X139700000Y-125730000D03*
X139700000Y-123190000D03*
X139700000Y-120650000D03*
X139700000Y-118110000D03*
X139700000Y-115570000D03*
X139700000Y-113030000D03*
X139700000Y-110490000D03*
X139700000Y-107950000D03*
X139700000Y-105410000D03*
X139700000Y-102870000D03*
X139700000Y-100330000D03*
X139700000Y-97790000D03*
X139700000Y-95250000D03*
X139700000Y-92710000D03*
X139700000Y-90170000D03*
X139700000Y-87630000D03*
X139700000Y-85090000D03*
X139700000Y-82550000D03*
X142240000Y-71120000D03*
X142240000Y-73660000D03*
X139700000Y-71120000D03*
X139700000Y-73660000D03*
X137160000Y-71120000D03*
X137160000Y-73660000D03*
X134620000Y-71120000D03*
X134620000Y-73660000D03*
X132080000Y-71120000D03*
X132080000Y-73660000D03*
X125730000Y-107950000D03*
X125730000Y-105410000D03*
X125730000Y-102870000D03*
X125730000Y-100330000D03*
X125730000Y-97790000D03*
X125730000Y-95250000D03*
X125730000Y-92710000D03*
X125730000Y-90170000D03*
X125730000Y-87630000D03*
X125730000Y-85090000D03*
X125730000Y-82550000D03*
X125730000Y-80010000D03*
X125730000Y-77470000D03*
X125730000Y-74930000D03*
X146050000Y-74930000D03*
X146050000Y-77470000D03*
X146050000Y-80010000D03*
X146050000Y-82550000D03*
X146050000Y-85090000D03*
X146050000Y-87630000D03*
X146050000Y-90170000D03*
X146050000Y-92710000D03*
X146050000Y-95250000D03*
X146050000Y-97790000D03*
X146050000Y-100330000D03*
X146050000Y-102870000D03*
X146050000Y-105410000D03*
X146050000Y-107950000D03*
D24*
X150431500Y-79819500D03*
X147320000Y-72263000D03*
X138557000Y-62484000D03*
X128524000Y-58420000D03*
X145161000Y-71120000D03*
X149796500Y-62230000D03*
X138366500Y-80073500D03*
X159004000Y-96774000D03*
X143827500Y-92456000D03*
X114039400Y-97849700D03*
X124269500Y-111442500D03*
X115316000Y-89662000D03*
X121666000Y-81915000D03*
X131454500Y-113141100D03*
X147637500Y-109474000D03*
X157543500Y-107950000D03*
X136525000Y-103124000D03*
X114559000Y-100293500D03*
X114300000Y-122627300D03*
X121031000Y-91440000D03*
X107611900Y-98298000D03*
X166370000Y-104394000D03*
X122555000Y-103759000D03*
X135763000Y-96012000D03*
X135509000Y-92964000D03*
X122555000Y-105410000D03*
X149667630Y-92710000D03*
X149669500Y-95250000D03*
X136906000Y-86360000D03*
X187515500Y-83883500D03*
X143510000Y-66929000D03*
X142113000Y-83820000D03*
X142113000Y-87630000D03*
X144272000Y-68961000D03*
D25*
X125730000Y-107950000D02*
X123190000Y-107950000D01*
X125730000Y-97790000D02*
X123190000Y-97790000D01*
X125730000Y-95250000D02*
X123190000Y-95250000D01*
X125730000Y-92710000D02*
X123190000Y-92710000D01*
X125730000Y-90170000D02*
X123190000Y-90170000D01*
X146050000Y-102870000D02*
X148590000Y-102870000D01*
X146050000Y-97790000D02*
X148590000Y-97790000D01*
X172720000Y-81280000D02*
X175260000Y-81280000D01*
X154940000Y-106680000D02*
X152400000Y-106680000D01*
X154940000Y-109220000D02*
X152400000Y-109220000D01*
X162560000Y-90170000D02*
X165100000Y-90170000D01*
X162560000Y-107950000D02*
X165100000Y-107950000D01*
X162560000Y-110490000D02*
X165100000Y-110490000D01*
X179070000Y-116840000D02*
X180467000Y-118237000D01*
X181229000Y-121920000D02*
X180467000Y-121158000D01*
X180467000Y-121158000D02*
X180467000Y-118237000D01*
X184150000Y-121920000D02*
X181229000Y-121920000D01*
X168910000Y-112268000D02*
X169164000Y-112014000D01*
X169164000Y-112014000D02*
X169663000Y-111515000D01*
X169164000Y-112268000D02*
X169164000Y-112014000D01*
D26*
X124460000Y-66040000D02*
X124460000Y-67614800D01*
X124460000Y-67614800D02*
X122732800Y-69342000D01*
X122732800Y-69342000D02*
X114884200Y-69342000D01*
X109093000Y-75133200D02*
X109093000Y-76708000D01*
X114884200Y-69342000D02*
X109093000Y-75133200D01*
D25*
X154940000Y-86360000D02*
X148780500Y-86360000D01*
X141605000Y-84328000D02*
X141097000Y-83820000D01*
X147256500Y-83820000D02*
X145034000Y-83820000D01*
X147828000Y-85407500D02*
X147828000Y-84391500D01*
X148780500Y-86360000D02*
X147828000Y-85407500D01*
X147828000Y-84391500D02*
X147256500Y-83820000D01*
X145034000Y-83820000D02*
X144409100Y-84444900D01*
X141097000Y-83820000D02*
X137798095Y-83820000D01*
X144409100Y-84444900D02*
X144399000Y-84444900D01*
X144399000Y-84444900D02*
X144399000Y-87884000D01*
X137798095Y-83820000D02*
X135258000Y-81280000D01*
X144399000Y-87884000D02*
X144018000Y-88265000D01*
X144018000Y-88265000D02*
X141859000Y-88265000D01*
X131064000Y-80010000D02*
X130810000Y-80010000D01*
X141859000Y-88265000D02*
X141605000Y-88011000D01*
X141605000Y-88011000D02*
X141605000Y-84328000D01*
X132334000Y-81280000D02*
X131064000Y-80010000D01*
X135258000Y-81280000D02*
X132334000Y-81280000D01*
X167640000Y-120650000D02*
X169164000Y-120650000D01*
X169164000Y-120650000D02*
X170688000Y-119126000D01*
X170688000Y-119126000D02*
X170688000Y-118787000D01*
X170688000Y-118787000D02*
X170688000Y-116840000D01*
X176784000Y-116840000D02*
X179070000Y-116840000D01*
X176530000Y-116840000D02*
X176784000Y-116840000D01*
X170688000Y-116586000D02*
X170688000Y-116840000D01*
X176784000Y-116840000D02*
X170688000Y-116840000D01*
X170688000Y-113792000D02*
X170688000Y-116586000D01*
X124460000Y-120650000D02*
X125681314Y-120650000D01*
X125681314Y-120650000D02*
X126951314Y-119380000D01*
X126951314Y-119380000D02*
X136017000Y-119380000D01*
X136017000Y-119380000D02*
X137287000Y-120650000D01*
X137287000Y-120650000D02*
X139700000Y-120650000D01*
X176657000Y-105410000D02*
X177038000Y-105410000D01*
X170561000Y-105410000D02*
X176657000Y-105410000D01*
X176657000Y-105410000D02*
X180594000Y-105410000D01*
X180594000Y-105410000D02*
X181356000Y-104648000D01*
X169663000Y-111515000D02*
X169663000Y-106308000D01*
X169663000Y-106308000D02*
X170561000Y-105410000D01*
X146050000Y-105410000D02*
X144145000Y-107315000D01*
X144145000Y-107315000D02*
X144145000Y-109601000D01*
X144145000Y-109601000D02*
X145034000Y-110490000D01*
X164592000Y-111760000D02*
X165862000Y-113030000D01*
X145034000Y-110490000D02*
X159939000Y-110490000D01*
X159939000Y-110490000D02*
X161209000Y-111760000D01*
X161209000Y-111760000D02*
X164592000Y-111760000D01*
X165862000Y-113030000D02*
X168148000Y-113030000D01*
X168148000Y-113030000D02*
X168910000Y-112268000D01*
X124460000Y-66040000D02*
X124307600Y-66040000D01*
X181356000Y-99123500D02*
X181356000Y-97790000D01*
X181356000Y-99237800D02*
X181356000Y-99123500D01*
X181356000Y-99123500D02*
X181356000Y-99695000D01*
X181356000Y-99695000D02*
X180721000Y-100330000D01*
X179070000Y-100330000D02*
X180263800Y-100330000D01*
X180263800Y-100330000D02*
X180721000Y-100330000D01*
X154940000Y-86360000D02*
X157988000Y-86360000D01*
X157988000Y-86360000D02*
X159848000Y-88220300D01*
X159848000Y-88220300D02*
X159848000Y-95459000D01*
X159848000Y-95459000D02*
X160909000Y-96520000D01*
X164689000Y-96520000D02*
X168499000Y-100330000D01*
X160909000Y-96520000D02*
X164689000Y-96520000D01*
X168499000Y-100330000D02*
X179070000Y-100330000D01*
X181356000Y-100965000D02*
X181356000Y-104648000D01*
X180721000Y-100330000D02*
X181356000Y-100965000D01*
X179070000Y-100330000D02*
X180721000Y-100330000D01*
X181356000Y-97917000D02*
X181356000Y-97790000D01*
X181356000Y-97790000D02*
X181356000Y-96012000D01*
X181356000Y-97967800D02*
X181356000Y-97917000D01*
X162560000Y-120650000D02*
X167640000Y-120650000D01*
X169164000Y-112268000D02*
X170688000Y-113792000D01*
X168910000Y-112268000D02*
X169164000Y-112268000D01*
X180340000Y-95021400D02*
X180340000Y-93980000D01*
X181331000Y-96012000D02*
X180340000Y-95021400D01*
X181356000Y-96012000D02*
X181331000Y-96012000D01*
D26*
X116840000Y-66040000D02*
X120650000Y-66040000D01*
D25*
X154940000Y-81280000D02*
X149860000Y-81280000D01*
X149860000Y-81280000D02*
X147320000Y-78740000D01*
X147320000Y-78740000D02*
X136652000Y-78740000D01*
X136652000Y-78740000D02*
X135382000Y-80010000D01*
X135382000Y-80010000D02*
X133350000Y-80010000D01*
X132080000Y-73660000D02*
X128079500Y-73660000D01*
X126047500Y-71628000D02*
X126047500Y-65214500D01*
X128079500Y-73660000D02*
X126047500Y-71628000D01*
X126047500Y-65214500D02*
X125603000Y-64770000D01*
X125603000Y-64770000D02*
X123113800Y-64770000D01*
X123113800Y-64770000D02*
X121843800Y-66040000D01*
X121843800Y-66040000D02*
X120650000Y-66040000D01*
X162560000Y-123190000D02*
X164338000Y-123190000D01*
X164338000Y-123190000D02*
X165608000Y-121920000D01*
X165608000Y-121920000D02*
X169291000Y-121920000D01*
X169291000Y-121920000D02*
X171196000Y-120015000D01*
X171196000Y-120015000D02*
X176784000Y-120015000D01*
X176784000Y-120015000D02*
X177419000Y-120650000D01*
X177419000Y-120650000D02*
X177800000Y-120650000D01*
D26*
X168910000Y-66040000D02*
X168910000Y-59690000D01*
D25*
X179070000Y-59690000D02*
X179222400Y-59690000D01*
X186690000Y-76327800D02*
X188086200Y-77724000D01*
X179222400Y-59690000D02*
X179349400Y-59817000D01*
X182753000Y-61849000D02*
X182753000Y-75438000D01*
X179349400Y-59817000D02*
X180721000Y-59817000D01*
X180721000Y-59817000D02*
X182753000Y-61849000D01*
X183642800Y-76327800D02*
X186690000Y-76327800D01*
X182753000Y-75438000D02*
X183642800Y-76327800D01*
X188086200Y-77724000D02*
X188086200Y-120777800D01*
X188086200Y-120777800D02*
X185674000Y-123190000D01*
X180340000Y-123190000D02*
X177800000Y-120650000D01*
X185674000Y-123190000D02*
X180340000Y-123190000D01*
X133350000Y-80010000D02*
X134571314Y-80010000D01*
D26*
X169159000Y-59938900D02*
X168910000Y-59690000D01*
D25*
X168910000Y-66040000D02*
X169159000Y-66040000D01*
X183769000Y-87376000D02*
X184023000Y-87630000D01*
X183134000Y-86741000D02*
X183769000Y-87376000D01*
X183769000Y-87757000D02*
X182880000Y-88646000D01*
X183896000Y-87630000D02*
X183769000Y-87757000D01*
X183769000Y-87376000D02*
X183769000Y-87757000D01*
X183134000Y-86360000D02*
X183134000Y-83058000D01*
X183134000Y-86537800D02*
X183134000Y-86360000D01*
X184226000Y-87630000D02*
X184023000Y-87630000D01*
X184023000Y-87630000D02*
X183896000Y-87630000D01*
X183134000Y-86360000D02*
X183134000Y-86741000D01*
X150304500Y-76073000D02*
X150685500Y-75692000D01*
X150177500Y-76200000D02*
X150304500Y-76073000D01*
X150558500Y-76581000D02*
X150304500Y-76327000D01*
X150304500Y-76327000D02*
X150177500Y-76200000D01*
X150304500Y-76073000D02*
X150304500Y-76327000D01*
X181483000Y-105537000D02*
X180340000Y-106680000D01*
X181610000Y-105410000D02*
X181483000Y-105537000D01*
X181483000Y-105537000D02*
X181737000Y-105537000D01*
X181737000Y-105283000D02*
X181610000Y-105410000D01*
X182880000Y-104140000D02*
X181737000Y-105283000D01*
X182880000Y-106680000D02*
X181737000Y-105537000D01*
X181737000Y-105537000D02*
X181610000Y-105410000D01*
X181737000Y-105283000D02*
X181737000Y-105537000D01*
X150685500Y-75692000D02*
X150685500Y-72009000D01*
X166052500Y-70358000D02*
X166052500Y-72580500D01*
X150685500Y-72009000D02*
X151003000Y-71691500D01*
X158369000Y-69278500D02*
X164973000Y-69278500D01*
X151003000Y-71691500D02*
X152336500Y-71691500D01*
X153225500Y-70802500D02*
X154368500Y-70802500D01*
X157416500Y-70231000D02*
X158369000Y-69278500D01*
X152336500Y-71691500D02*
X153225500Y-70802500D01*
X154368500Y-70802500D02*
X154940000Y-70231000D01*
X154940000Y-70231000D02*
X157416500Y-70231000D01*
X164973000Y-69278500D02*
X166052500Y-70358000D01*
X166052500Y-72580500D02*
X166624000Y-73152000D01*
X150431500Y-79819500D02*
X150431500Y-79460290D01*
X150431500Y-79460290D02*
X150558500Y-79333290D01*
X150558500Y-79333290D02*
X150558500Y-78994000D01*
X170180000Y-74930000D02*
X170180000Y-73736200D01*
X170180000Y-73736200D02*
X169596000Y-73152000D01*
X169596000Y-73152000D02*
X166624000Y-73152000D01*
X150558500Y-78994000D02*
X150558500Y-76581000D01*
X149987000Y-76200000D02*
X134683500Y-76200000D01*
X150177500Y-76200000D02*
X149987000Y-76200000D01*
X124460000Y-63500000D02*
X125857000Y-63500000D01*
X125857000Y-63500000D02*
X126682500Y-64325500D01*
X126682500Y-64325500D02*
X126682500Y-70675500D01*
X126682500Y-70675500D02*
X128397000Y-72390000D01*
X133350000Y-74866500D02*
X134112000Y-75628500D01*
X128397000Y-72390000D02*
X132905500Y-72390000D01*
X132905500Y-72390000D02*
X133350000Y-72834500D01*
X133350000Y-72834500D02*
X133350000Y-74866500D01*
X134112000Y-75628500D02*
X134302500Y-75819000D01*
X134683500Y-76200000D02*
X134112000Y-75628500D01*
X124460000Y-125730000D02*
X123121000Y-125730000D01*
X123121000Y-125730000D02*
X121851000Y-124460000D01*
X121851000Y-124460000D02*
X118554500Y-124460000D01*
X118554500Y-124460000D02*
X117284500Y-123190000D01*
X117284500Y-123190000D02*
X116840000Y-123190000D01*
X182880000Y-114529000D02*
X182880000Y-106680000D01*
X184150000Y-115799000D02*
X182880000Y-114529000D01*
X184150000Y-116840000D02*
X184150000Y-115799000D01*
X170180000Y-76123800D02*
X170180000Y-74930000D01*
X173050000Y-78994000D02*
X170180000Y-76123800D01*
X176159000Y-78994000D02*
X173050000Y-78994000D01*
X178562000Y-81396900D02*
X176159000Y-78994000D01*
X181473000Y-81396900D02*
X178562000Y-81396900D01*
X183134000Y-83058000D02*
X181473000Y-81396900D01*
X185420000Y-87630000D02*
X184226000Y-87630000D01*
X185420000Y-87630000D02*
X184226000Y-87630000D01*
X182880000Y-88646000D02*
X182880000Y-104140000D01*
X180340000Y-106680000D02*
X172720000Y-106680000D01*
X184150000Y-116840000D02*
X184150000Y-115799000D01*
X184150000Y-115799000D02*
X184150000Y-115735000D01*
X149733000Y-71183500D02*
X152019000Y-71183500D01*
X148526500Y-72263000D02*
X149606000Y-71183500D01*
X149606000Y-71183500D02*
X149733000Y-71183500D01*
X146304000Y-73215500D02*
X146875500Y-72644000D01*
X148526500Y-72263000D02*
X147256500Y-72263000D01*
X147256500Y-72263000D02*
X146875500Y-72644000D01*
X154051000Y-70294500D02*
X154622500Y-69723000D01*
X152019000Y-71183500D02*
X152908000Y-70294500D01*
X152908000Y-70294500D02*
X154051000Y-70294500D01*
X146177000Y-73215500D02*
X145478500Y-73215500D01*
X146177000Y-73215500D02*
X146304000Y-73215500D01*
X154622500Y-69723000D02*
X157035500Y-69723000D01*
X157035500Y-69723000D02*
X158051500Y-68707000D01*
X170180000Y-69926200D02*
X170180000Y-71120000D01*
X158051500Y-68707000D02*
X166243000Y-68707000D01*
X166243000Y-68707000D02*
X167005000Y-69469000D01*
X167005000Y-69469000D02*
X169722800Y-69469000D01*
X169722800Y-69469000D02*
X170180000Y-69926200D01*
X135890000Y-72834500D02*
X135445500Y-72390000D01*
X133350000Y-70294500D02*
X132715000Y-69659500D01*
X145478500Y-73215500D02*
X144780000Y-73914000D01*
X133858000Y-72390000D02*
X133350000Y-71882000D01*
X144780000Y-73914000D02*
X144780000Y-75311000D01*
X144780000Y-75311000D02*
X144399000Y-75692000D01*
X144399000Y-75692000D02*
X136461500Y-75692000D01*
X127698500Y-69659500D02*
X127254000Y-69215000D01*
X127254000Y-62560200D02*
X125653800Y-60960000D01*
X136461500Y-75692000D02*
X135890000Y-75120500D01*
X135890000Y-75120500D02*
X135890000Y-72834500D01*
X133350000Y-71882000D02*
X133350000Y-70294500D01*
X135445500Y-72390000D02*
X133858000Y-72390000D01*
X132715000Y-69659500D02*
X127698500Y-69659500D01*
X127254000Y-69215000D02*
X127254000Y-62560200D01*
X124460000Y-60960000D02*
X125653800Y-60960000D01*
X125653800Y-60960000D02*
X126555500Y-61861700D01*
X109093000Y-81788000D02*
X107871686Y-81788000D01*
X107871686Y-81788000D02*
X107442000Y-81358314D01*
X107442000Y-81358314D02*
X107442000Y-75068500D01*
X122555000Y-61671200D02*
X123266200Y-60960000D01*
X107442000Y-75068500D02*
X114960600Y-67549900D01*
X114960600Y-67549900D02*
X114960600Y-65151000D01*
X114960600Y-65151000D02*
X115341600Y-64770000D01*
X115341600Y-64770000D02*
X122047000Y-64770000D01*
X122555000Y-64262000D02*
X122555000Y-61671200D01*
X122047000Y-64770000D02*
X122555000Y-64262000D01*
X123266200Y-60960000D02*
X124460000Y-60960000D01*
X175768000Y-109220000D02*
X172720000Y-109220000D01*
X180594000Y-114046000D02*
X175768000Y-109220000D01*
X180594000Y-117018000D02*
X180594000Y-114046000D01*
X182956000Y-119380000D02*
X180594000Y-117018000D01*
X184150000Y-119380000D02*
X182956000Y-119380000D01*
X185268000Y-85090000D02*
X185420000Y-85090000D01*
X183896000Y-83718400D02*
X185268000Y-85090000D01*
X183896000Y-82042000D02*
X183896000Y-83718400D01*
X182626000Y-80772000D02*
X183896000Y-82042000D01*
X182626000Y-79502000D02*
X182626000Y-80772000D01*
X181477000Y-78352900D02*
X182626000Y-79502000D01*
X176905000Y-78352900D02*
X181477000Y-78352900D01*
X174752000Y-76200000D02*
X176905000Y-78352900D01*
X174752000Y-74168000D02*
X174752000Y-76200000D01*
X173660000Y-73075800D02*
X174752000Y-74168000D01*
X170942000Y-73075800D02*
X173660000Y-73075800D01*
X170180000Y-72313800D02*
X170942000Y-73075800D01*
X170180000Y-71120000D02*
X170180000Y-72313800D01*
X121590000Y-128270000D02*
X124460000Y-128270000D01*
X120320000Y-127000000D02*
X121590000Y-128270000D01*
X118110000Y-127000000D02*
X120320000Y-127000000D01*
X116840000Y-125730000D02*
X118110000Y-127000000D01*
D26*
X124460000Y-58420000D02*
X128524000Y-58420000D01*
D25*
X145542000Y-56388000D02*
X149733000Y-56388000D01*
X149733000Y-56388000D02*
X149860000Y-56388000D01*
X149796500Y-62230000D02*
X149796500Y-56451500D01*
X149796500Y-56451500D02*
X149733000Y-56388000D01*
X144018000Y-56388000D02*
X145542000Y-56388000D01*
X138557000Y-56388000D02*
X144018000Y-56388000D01*
X138557000Y-56388000D02*
X138557000Y-62484000D01*
X128524000Y-56388000D02*
X138557000Y-56388000D01*
X128524000Y-58060790D02*
X128524000Y-56388000D01*
X128524000Y-58420000D02*
X128524000Y-58060790D01*
D26*
X151130000Y-66040000D02*
X151130000Y-63690500D01*
X151130000Y-63690500D02*
X151130000Y-63119000D01*
X149796500Y-62230000D02*
X151130000Y-63563500D01*
X151130000Y-63563500D02*
X151130000Y-63690500D01*
X120650000Y-58420000D02*
X124460000Y-58420000D01*
X145161000Y-71120000D02*
X142240000Y-71120000D01*
D25*
X111633000Y-81788000D02*
X112854314Y-81788000D01*
X114681000Y-78740000D02*
X118110000Y-78740000D01*
X112854314Y-81788000D02*
X113616314Y-81026000D01*
X113616314Y-81026000D02*
X113616314Y-79804686D01*
X113616314Y-79804686D02*
X114681000Y-78740000D01*
X171196000Y-121285000D02*
X175387000Y-121285000D01*
X176022000Y-121920000D02*
X175387000Y-121285000D01*
X176022000Y-122633314D02*
X176022000Y-121920000D01*
X177800000Y-123190000D02*
X176578686Y-123190000D01*
X176578686Y-123190000D02*
X176022000Y-122633314D01*
X167640000Y-123190000D02*
X169291000Y-123190000D01*
X169291000Y-123190000D02*
X171196000Y-121285000D01*
D26*
X151130000Y-63119000D02*
X152146000Y-62103000D01*
X152146000Y-62103000D02*
X165608000Y-62103000D01*
X166878000Y-63373000D02*
X166878000Y-65405000D01*
X165608000Y-62103000D02*
X166878000Y-63373000D01*
X176022000Y-68072000D02*
X174879000Y-68072000D01*
X174879000Y-68072000D02*
X173990000Y-67183000D01*
X173133300Y-68039700D02*
X173990000Y-67183000D01*
X173990000Y-67183000D02*
X173990000Y-66040000D01*
X172593000Y-68039700D02*
X172974000Y-68039700D01*
X168402000Y-68039700D02*
X172593000Y-68039700D01*
X172593000Y-68039700D02*
X173133300Y-68039700D01*
X173990000Y-66040000D02*
X173990000Y-59690000D01*
X166878000Y-65024000D02*
X166878000Y-65405000D01*
X166878000Y-65405000D02*
X166878000Y-66515700D01*
D25*
X149796500Y-62230000D02*
X149796500Y-61870790D01*
X149796500Y-61870790D02*
X149733000Y-61807290D01*
X114173000Y-91440000D02*
X113665000Y-91948000D01*
X113665000Y-91948000D02*
X111633000Y-91948000D01*
X118110000Y-91440000D02*
X114173000Y-91440000D01*
X162560000Y-118110000D02*
X161482370Y-118110000D01*
X161482370Y-118110000D02*
X160528000Y-119064370D01*
X160528000Y-119064370D02*
X160528000Y-124968000D01*
X160528000Y-124968000D02*
X161290000Y-125730000D01*
X161290000Y-125730000D02*
X162560000Y-125730000D01*
X118745000Y-58801000D02*
X119126000Y-58420000D01*
X119126000Y-58420000D02*
X120650000Y-58420000D01*
X118745000Y-62788800D02*
X118745000Y-58801000D01*
X116840000Y-63500000D02*
X118033800Y-63500000D01*
X118033800Y-63500000D02*
X118745000Y-62788800D01*
X119761000Y-88747600D02*
X124561600Y-88747600D01*
X124561600Y-88747600D02*
X124714000Y-88900000D01*
X118110000Y-90398600D02*
X119761000Y-88747600D01*
X134620000Y-123190000D02*
X135697630Y-123190000D01*
X135697630Y-123190000D02*
X136779000Y-124271370D01*
X136779000Y-124271370D02*
X136779000Y-125349000D01*
X137160000Y-125730000D02*
X136779000Y-125349000D01*
X139700000Y-125730000D02*
X137160000Y-125730000D01*
X176784000Y-95427800D02*
X176784000Y-95250000D01*
X176784000Y-95250000D02*
X176784000Y-94488000D01*
X178943000Y-97790000D02*
X176784000Y-95631000D01*
X176784000Y-95631000D02*
X176784000Y-95250000D01*
X179070000Y-97790000D02*
X178943000Y-97790000D01*
X176784000Y-94488000D02*
X176784000Y-87376000D01*
X129032000Y-92710000D02*
X130810000Y-92710000D01*
X128524000Y-92202000D02*
X129032000Y-92710000D01*
X128524000Y-89916000D02*
X128524000Y-92202000D01*
X127508000Y-88900000D02*
X128524000Y-89916000D01*
X124714000Y-88900000D02*
X127508000Y-88900000D01*
X118110000Y-91440000D02*
X118110000Y-90398600D01*
X179070000Y-85090000D02*
X180340000Y-85090000D01*
X176784000Y-87376000D02*
X179070000Y-85090000D01*
X179070000Y-124460000D02*
X184150000Y-124460000D01*
X177800000Y-123190000D02*
X179070000Y-124460000D01*
X130810000Y-92710000D02*
X133350000Y-92710000D01*
X165100000Y-125730000D02*
X167640000Y-123190000D01*
X162560000Y-125730000D02*
X165100000Y-125730000D01*
D26*
X178308000Y-74930000D02*
X179070000Y-74930000D01*
X176784000Y-73406000D02*
X178308000Y-74930000D01*
X176784000Y-68834000D02*
X176784000Y-73406000D01*
X176022000Y-68072000D02*
X176784000Y-68834000D01*
X166878000Y-66515700D02*
X168402000Y-68039700D01*
X173741000Y-59938900D02*
X173990000Y-59690000D01*
D25*
X132080000Y-111595000D02*
X132080000Y-110490000D01*
X131242400Y-112432600D02*
X132080000Y-111595000D01*
X111633000Y-112268000D02*
X112738200Y-112268000D01*
X173741000Y-66340400D02*
X173741000Y-66640800D01*
X173741000Y-66190200D02*
X173741000Y-66340400D01*
X173741000Y-66115100D02*
X173741000Y-66190200D01*
X173741000Y-66077500D02*
X173741000Y-66115100D01*
X131077800Y-112268000D02*
X112738200Y-112268000D01*
X131242400Y-112432600D02*
X131077800Y-112268000D01*
X173741000Y-66058700D02*
X173741000Y-66077500D01*
X173741000Y-66049300D02*
X173741000Y-66058700D01*
X173741000Y-66044600D02*
X173741000Y-66049300D01*
X173741000Y-66042300D02*
X173741000Y-66044600D01*
X173741000Y-66041100D02*
X173741000Y-66042300D01*
X173741000Y-66040500D02*
X173741000Y-66041100D01*
X173741000Y-66040200D02*
X173741000Y-66040500D01*
X173741000Y-66040000D02*
X173741000Y-66040100D01*
X173741000Y-66040100D02*
X173741000Y-66040200D01*
X173741000Y-66040000D02*
X173990000Y-66040000D01*
X110363000Y-92837000D02*
X110363000Y-90995500D01*
X132080000Y-105410000D02*
X130886200Y-105410000D01*
X130886200Y-105410000D02*
X130175000Y-106121200D01*
X130175000Y-106121200D02*
X130175000Y-109982000D01*
X111633000Y-89725500D02*
X111633000Y-89408000D01*
X130175000Y-109982000D02*
X129533800Y-110623200D01*
X129533800Y-110623200D02*
X114306200Y-110623200D01*
X114306200Y-110623200D02*
X113792000Y-110109000D01*
X108140500Y-93218000D02*
X109982000Y-93218000D01*
X113792000Y-110109000D02*
X113792000Y-109220000D01*
X107823000Y-108458000D02*
X107116300Y-107751300D01*
X113792000Y-109220000D02*
X113030000Y-108458000D01*
X113030000Y-108458000D02*
X107823000Y-108458000D01*
X107116300Y-107751300D02*
X107116300Y-94242200D01*
X107116300Y-94242200D02*
X108140500Y-93218000D01*
X109982000Y-93218000D02*
X110363000Y-92837000D01*
X110363000Y-90995500D02*
X111633000Y-89725500D01*
X112903000Y-98298000D02*
X110998000Y-98298000D01*
X113103900Y-98298000D02*
X112903000Y-98298000D01*
X113103900Y-100520500D02*
X113103900Y-98425000D01*
X113103900Y-98425000D02*
X113103900Y-98298000D01*
X112903000Y-98298000D02*
X112976900Y-98298000D01*
X112976900Y-98298000D02*
X113103900Y-98425000D01*
X115453400Y-102880400D02*
X116713000Y-104140000D01*
X116713000Y-104140000D02*
X118110000Y-104140000D01*
X115453400Y-102870000D02*
X115453400Y-102880400D01*
X139700000Y-92710000D02*
X138303000Y-92710000D01*
X138303000Y-92710000D02*
X136779000Y-94234000D01*
X136779000Y-94234000D02*
X129286000Y-94234000D01*
X129286000Y-94234000D02*
X128901200Y-93849200D01*
X128901200Y-93849200D02*
X128901000Y-93849200D01*
X121920000Y-91440000D02*
X121539000Y-91821000D01*
X121539000Y-93345000D02*
X119634000Y-95250000D01*
X113103900Y-98287600D02*
X113103900Y-98298000D01*
X128901000Y-93849200D02*
X126492000Y-91440000D01*
X115697000Y-95250000D02*
X113390000Y-97557000D01*
X126492000Y-91440000D02*
X121920000Y-91440000D01*
X113390000Y-97557000D02*
X113390000Y-98001500D01*
X121539000Y-91821000D02*
X121539000Y-93345000D01*
X119634000Y-95250000D02*
X115697000Y-95250000D01*
X113390000Y-98001500D02*
X113103900Y-98287600D01*
X110807500Y-98488500D02*
X110871000Y-98425000D01*
X110871000Y-98425000D02*
X110934500Y-98361500D01*
X110998000Y-98298000D02*
X110871000Y-98425000D01*
X109728000Y-99568000D02*
X110807500Y-98488500D01*
X113103900Y-100520500D02*
X115453400Y-102870000D01*
X109093000Y-99568000D02*
X109728000Y-99568000D01*
X138366500Y-80073500D02*
X145986500Y-80073500D01*
X145986500Y-80073500D02*
X146050000Y-80010000D01*
X111252000Y-103378000D02*
X111938100Y-103378000D01*
X110998000Y-103378000D02*
X111252000Y-103378000D01*
X111252000Y-103378000D02*
X110363000Y-103378000D01*
X110363000Y-103378000D02*
X109093000Y-102108000D01*
X121158000Y-108585000D02*
X121158000Y-108712000D01*
X121158000Y-107785300D02*
X121158000Y-108585000D01*
X122682000Y-109982000D02*
X121158000Y-109982000D01*
X121158000Y-109982000D02*
X115062000Y-109982000D01*
X121158000Y-108585000D02*
X121158000Y-109982000D01*
X112776000Y-103378000D02*
X111938100Y-103378000D01*
X113411000Y-104013000D02*
X112776000Y-103378000D01*
X113411000Y-107061000D02*
X113411000Y-104013000D01*
X114554000Y-108204000D02*
X113411000Y-107061000D01*
X114554000Y-109474000D02*
X114554000Y-108204000D01*
X115062000Y-109982000D02*
X114554000Y-109474000D01*
X122682000Y-109982000D02*
X128905000Y-109982000D01*
X122428000Y-109982000D02*
X122682000Y-109982000D01*
X138194000Y-109220000D02*
X142240000Y-109220000D01*
X144780000Y-111760000D02*
X154940000Y-111760000D01*
X142240000Y-109220000D02*
X144780000Y-111760000D01*
X128905000Y-109982000D02*
X129540000Y-109347000D01*
X129540000Y-109347000D02*
X129540000Y-105283000D01*
X129540000Y-105283000D02*
X130683000Y-104140000D01*
X130683000Y-104140000D02*
X134620000Y-104140000D01*
X134620000Y-104140000D02*
X136398000Y-105918000D01*
X136398000Y-105918000D02*
X136398000Y-107424000D01*
X136398000Y-107424000D02*
X138194000Y-109220000D01*
X159004000Y-96774000D02*
X159004000Y-89408000D01*
X157226000Y-87630000D02*
X159004000Y-89408000D01*
X148590000Y-87630000D02*
X157226000Y-87630000D01*
X146050000Y-85090000D02*
X148590000Y-87630000D01*
X119304000Y-101600000D02*
X118110000Y-101600000D01*
X121158000Y-103454000D02*
X119304000Y-101600000D01*
X121158000Y-107785300D02*
X121158000Y-103454000D01*
X109220000Y-101600000D02*
X109855000Y-102235000D01*
X109220000Y-102235000D02*
X109093000Y-102108000D01*
X109855000Y-102235000D02*
X109220000Y-102235000D01*
X143827500Y-92456000D02*
X141668500Y-92456000D01*
X141668500Y-92456000D02*
X141224000Y-92900500D01*
X140906500Y-93980000D02*
X138811000Y-93980000D01*
X141224000Y-92900500D02*
X141224000Y-93662500D01*
X141224000Y-93662500D02*
X140906500Y-93980000D01*
X138811000Y-93980000D02*
X137556500Y-95234500D01*
X137556500Y-95234500D02*
X129032000Y-95234500D01*
X129032000Y-95234500D02*
X127746000Y-96520000D01*
X119500000Y-99060000D02*
X118110000Y-99060000D01*
X127746000Y-96520000D02*
X122040000Y-96520000D01*
X122040000Y-96520000D02*
X119500000Y-99060000D01*
X162560000Y-95250000D02*
X161482370Y-95250000D01*
X161482370Y-95250000D02*
X160528246Y-94295876D01*
X160528246Y-94295876D02*
X160528246Y-87376000D01*
X160528246Y-87376000D02*
X158242000Y-85090000D01*
X158242000Y-85090000D02*
X149161500Y-85090000D01*
X149161500Y-85090000D02*
X148463000Y-84391500D01*
X148463000Y-84391500D02*
X148463000Y-83058000D01*
X148463000Y-83058000D02*
X147955000Y-82550000D01*
X147955000Y-82550000D02*
X146050000Y-82550000D01*
X114948600Y-101249200D02*
X116569400Y-102870000D01*
X118110000Y-99060000D02*
X114628700Y-99060000D01*
X114628700Y-99060000D02*
X113855500Y-99833200D01*
X113157000Y-101219200D02*
X112839300Y-100901500D01*
X113855500Y-99833200D02*
X113855500Y-100804700D01*
X112839300Y-100901500D02*
X112839300Y-100901300D01*
X114300000Y-101249200D02*
X114948600Y-101249200D01*
X113855500Y-100804700D02*
X114300000Y-101249200D01*
X116569400Y-102870000D02*
X119253000Y-102870000D01*
X116840000Y-105410000D02*
X113157000Y-101727000D01*
X119253000Y-102870000D02*
X120015000Y-103632000D01*
X120015000Y-103632000D02*
X120015000Y-104902000D01*
X120015000Y-104902000D02*
X119507000Y-105410000D01*
X119507000Y-105410000D02*
X116840000Y-105410000D01*
X113157000Y-101727000D02*
X113157000Y-101219200D01*
X112839300Y-100901300D02*
X112776000Y-100838000D01*
X112776000Y-100838000D02*
X108267500Y-100838000D01*
X107899210Y-103454210D02*
X109093000Y-104648000D01*
X108267500Y-100838000D02*
X107899210Y-101206290D01*
X107899210Y-101206290D02*
X107899210Y-103454210D01*
X145034000Y-91533200D02*
X149139000Y-91533200D01*
X144526000Y-90043000D02*
X144526000Y-91025200D01*
X144526000Y-91025200D02*
X145034000Y-91533200D01*
X144018000Y-89535000D02*
X144526000Y-90043000D01*
X140843000Y-88900000D02*
X141478000Y-89535000D01*
X141478000Y-89535000D02*
X144018000Y-89535000D01*
X125730000Y-87630000D02*
X127762000Y-87630000D01*
X127762000Y-87630000D02*
X129032000Y-88900000D01*
X129032000Y-88900000D02*
X129032000Y-90678000D01*
X129032000Y-90678000D02*
X129065800Y-90678000D01*
X136939800Y-91406200D02*
X138049000Y-90297000D01*
X129065800Y-90678000D02*
X129794000Y-91406200D01*
X129794000Y-91406200D02*
X136939800Y-91406200D01*
X158115000Y-97790000D02*
X162560000Y-97790000D01*
X138049000Y-90297000D02*
X138049000Y-89662000D01*
X149139000Y-91533200D02*
X150526000Y-90146400D01*
X138811000Y-88900000D02*
X140843000Y-88900000D01*
X138049000Y-89662000D02*
X138811000Y-88900000D01*
X156844726Y-96519726D02*
X158115000Y-97790000D01*
X150526000Y-90146400D02*
X156440000Y-90146400D01*
X156440000Y-90146400D02*
X156844726Y-90551000D01*
X156844726Y-90551000D02*
X156844726Y-96519726D01*
X114039400Y-97640000D02*
X114039400Y-97849700D01*
X115159400Y-96520000D02*
X114039400Y-97640000D01*
X118110000Y-96520000D02*
X115159400Y-96520000D01*
X111633000Y-107188000D02*
X110363000Y-105918000D01*
X110363000Y-105918000D02*
X107950000Y-105918000D01*
X107569000Y-99250500D02*
X108521500Y-98298000D01*
X116140400Y-93980000D02*
X118110000Y-93980000D01*
X107950000Y-105918000D02*
X107569000Y-105537000D01*
X107569000Y-105537000D02*
X107569000Y-99250500D01*
X108521500Y-98298000D02*
X109861400Y-98298000D01*
X109861400Y-98298000D02*
X110369400Y-97790000D01*
X110369400Y-97790000D02*
X110369400Y-96710500D01*
X110369400Y-96710500D02*
X111157200Y-95922700D01*
X111157200Y-95922700D02*
X114197700Y-95922700D01*
X114197700Y-95922700D02*
X116140400Y-93980000D01*
X129540000Y-82550000D02*
X129540000Y-82639000D01*
X129413000Y-82842000D02*
X129578000Y-82677000D01*
X129540000Y-82385028D02*
X129540000Y-82550000D01*
X128905000Y-83350000D02*
X129413000Y-82842000D01*
X129540000Y-82550000D02*
X129540000Y-82715000D01*
X129540000Y-82715000D02*
X129413000Y-82842000D01*
X129540000Y-82385028D02*
X129705000Y-82550000D01*
X129540000Y-82639000D02*
X129578000Y-82677000D01*
X128524000Y-81369200D02*
X129540000Y-82385028D01*
X129578000Y-82677000D02*
X129705000Y-82550000D01*
X122653210Y-111442500D02*
X124269500Y-111442500D01*
X122282000Y-111430500D02*
X122641210Y-111430500D01*
X122641210Y-111430500D02*
X122653210Y-111442500D01*
X109093000Y-112268000D02*
X110363000Y-110998000D01*
X110363000Y-110998000D02*
X113157000Y-110998000D01*
X113157000Y-110998000D02*
X113589500Y-111430500D01*
X113589500Y-111430500D02*
X117856000Y-111430500D01*
X117856000Y-111430500D02*
X122282000Y-111430500D01*
X167640000Y-115570000D02*
X169164000Y-115570000D01*
X169164000Y-115570000D02*
X169672000Y-116078000D01*
X148844000Y-119380000D02*
X147574000Y-118110000D01*
X169672000Y-116078000D02*
X169672000Y-118618000D01*
X166116000Y-119380000D02*
X165481000Y-118745000D01*
X169672000Y-118618000D02*
X168910000Y-119380000D01*
X168910000Y-119380000D02*
X166116000Y-119380000D01*
X165481000Y-118745000D02*
X165481000Y-117602000D01*
X158750000Y-119380000D02*
X148844000Y-119380000D01*
X165481000Y-117602000D02*
X164719000Y-116840000D01*
X164719000Y-116840000D02*
X161290000Y-116840000D01*
X147574000Y-118110000D02*
X139700000Y-118110000D01*
X161290000Y-116840000D02*
X158750000Y-119380000D01*
X128689000Y-83566000D02*
X128905000Y-83350000D01*
X122174000Y-83820000D02*
X128435000Y-83820000D01*
X128435000Y-83820000D02*
X128905000Y-83350000D01*
X121031000Y-84963000D02*
X122174000Y-83820000D01*
X121031000Y-86614000D02*
X121031000Y-84963000D01*
X120142000Y-87503000D02*
X121031000Y-86614000D01*
X119126000Y-87503000D02*
X120142000Y-87503000D01*
X116967000Y-89662000D02*
X119126000Y-87503000D01*
X115316000Y-89662000D02*
X116967000Y-89662000D01*
X128524000Y-75692000D02*
X128524000Y-81369200D01*
X127762000Y-74930000D02*
X128524000Y-75692000D01*
X125730000Y-74930000D02*
X127762000Y-74930000D01*
X130810000Y-82550000D02*
X129705000Y-82550000D01*
X167640000Y-118110000D02*
X165735000Y-116205000D01*
X165735000Y-116205000D02*
X165735000Y-115443000D01*
X165735000Y-115443000D02*
X164592000Y-114300000D01*
X148933000Y-115570000D02*
X139700000Y-115570000D01*
X164592000Y-114300000D02*
X161036000Y-114300000D01*
X158331000Y-117005000D02*
X150368000Y-117005000D01*
X161036000Y-114300000D02*
X158331000Y-117005000D01*
X150368000Y-117005000D02*
X148933000Y-115570000D01*
X122682000Y-81915000D02*
X124587000Y-80010000D01*
X124587000Y-80010000D02*
X125730000Y-80010000D01*
X121666000Y-81915000D02*
X122682000Y-81915000D01*
X109093000Y-114808000D02*
X110363000Y-113538000D01*
X110363000Y-113538000D02*
X113432100Y-113538000D01*
X113432100Y-113538000D02*
X113876300Y-113093800D01*
X128176700Y-113312400D02*
X131283200Y-113312400D01*
X113876300Y-113093800D02*
X127958100Y-113093800D01*
X131283200Y-113312400D02*
X131454500Y-113141100D01*
X127958100Y-113093800D02*
X128176700Y-113312400D01*
X125730000Y-79757200D02*
X125730000Y-80010000D01*
X118001400Y-82931000D02*
X112776000Y-88156400D01*
X123190000Y-82550000D02*
X122809000Y-82931000D01*
X122809000Y-82931000D02*
X118001400Y-82931000D01*
X125730000Y-82550000D02*
X123190000Y-82550000D01*
X149161500Y-107950000D02*
X147637500Y-109474000D01*
X149288500Y-107950000D02*
X149161500Y-107950000D01*
X157543500Y-107950000D02*
X149288500Y-107950000D01*
X149225000Y-107950000D02*
X149288500Y-107950000D01*
X110789100Y-88156400D02*
X110363000Y-88582500D01*
X107696000Y-117172314D02*
X107871686Y-117348000D01*
X112776000Y-88156400D02*
X110789100Y-88156400D01*
X107886500Y-90678000D02*
X106768600Y-91795900D01*
X106768600Y-108165600D02*
X107696000Y-109093000D01*
X110363000Y-88582500D02*
X110363000Y-90303400D01*
X110363000Y-90303400D02*
X109988400Y-90678000D01*
X109988400Y-90678000D02*
X107886500Y-90678000D01*
X107696000Y-109093000D02*
X107696000Y-117172314D01*
X106768600Y-91795900D02*
X106768600Y-108165600D01*
X107871686Y-117348000D02*
X109093000Y-117348000D01*
X125857000Y-113643000D02*
X114969700Y-113643000D01*
X131699000Y-114554000D02*
X126768000Y-114554000D01*
X126768000Y-114554000D02*
X125857000Y-113643000D01*
X134620000Y-111633000D02*
X131699000Y-114554000D01*
X134620000Y-109296200D02*
X134620000Y-111633000D01*
X132080000Y-107950000D02*
X133273800Y-107950000D01*
X133273800Y-107950000D02*
X134620000Y-109296200D01*
X113931700Y-114681000D02*
X113931700Y-117843300D01*
X110363000Y-118618000D02*
X109093000Y-119888000D01*
X113931700Y-117843300D02*
X113157000Y-118618000D01*
X114969700Y-113643000D02*
X113931700Y-114681000D01*
X113157000Y-118618000D02*
X110363000Y-118618000D01*
X110363000Y-86169500D02*
X110363000Y-85915500D01*
X110363000Y-85915500D02*
X110680500Y-85598000D01*
X110680500Y-85598000D02*
X113030000Y-85598000D01*
X113030000Y-85598000D02*
X114744500Y-83883500D01*
X114744500Y-83883500D02*
X114744500Y-81788000D01*
X114744500Y-81788000D02*
X115887500Y-80645000D01*
X115887500Y-80645000D02*
X121285000Y-80645000D01*
X121285000Y-80645000D02*
X123190000Y-78740000D01*
X136525000Y-103124000D02*
X137541000Y-104140000D01*
X137541000Y-104140000D02*
X142875000Y-104140000D01*
X153054000Y-99326200D02*
X154057000Y-100330000D01*
X142875000Y-104140000D02*
X143764000Y-103251000D01*
X143764000Y-103251000D02*
X143764000Y-99885500D01*
X143764000Y-99885500D02*
X144589500Y-99060000D01*
X144589500Y-99060000D02*
X147053800Y-99060000D01*
X147053800Y-99060000D02*
X147320000Y-99326200D01*
X147320000Y-99326200D02*
X153054000Y-99326200D01*
X154057000Y-100330000D02*
X162560000Y-100330000D01*
X111633000Y-119888000D02*
X110363000Y-121158000D01*
X110363000Y-121158000D02*
X107696000Y-121158000D01*
X107061000Y-120523000D02*
X107061000Y-109347000D01*
X107696000Y-121158000D02*
X107061000Y-120523000D01*
X108140500Y-88138000D02*
X109918500Y-88138000D01*
X107061000Y-109347000D02*
X106407600Y-108693600D01*
X106407600Y-108693600D02*
X106407600Y-92247100D01*
X106407600Y-92247100D02*
X106407310Y-92246810D01*
X106407310Y-92246810D02*
X106407310Y-91331690D01*
X106407310Y-91331690D02*
X107505500Y-90233500D01*
X109918500Y-88138000D02*
X110363000Y-87693500D01*
X110363000Y-87693500D02*
X110363000Y-86169500D01*
X107505500Y-90233500D02*
X107505500Y-88773000D01*
X107505500Y-88773000D02*
X108140500Y-88138000D01*
X110363000Y-86169500D02*
X110363000Y-86042500D01*
X142335000Y-122174000D02*
X142335000Y-121983500D01*
X142335000Y-126396500D02*
X142335000Y-122174000D01*
X142335000Y-122174000D02*
X142335000Y-122142000D01*
X142335000Y-122142000D02*
X142113000Y-121920000D01*
X142113000Y-121920000D02*
X142271500Y-121920000D01*
X142144500Y-121920000D02*
X142335000Y-121729500D01*
X140081000Y-121920000D02*
X142113000Y-121920000D01*
X142113000Y-121920000D02*
X142144500Y-121920000D01*
X109093000Y-122428000D02*
X110363000Y-123698000D01*
X110363000Y-123698000D02*
X114681000Y-123698000D01*
X114681000Y-123698000D02*
X115189000Y-123190000D01*
X115189000Y-123190000D02*
X115189000Y-122428000D01*
X127127000Y-120650000D02*
X131953000Y-120650000D01*
X115189000Y-122428000D02*
X115697000Y-121920000D01*
X133223000Y-121920000D02*
X135890000Y-121920000D01*
X115697000Y-121920000D02*
X125857000Y-121920000D01*
X131953000Y-120650000D02*
X133223000Y-121920000D01*
X125857000Y-121920000D02*
X127127000Y-120650000D01*
X135890000Y-121920000D02*
X140081000Y-121920000D01*
X140081000Y-121920000D02*
X140250200Y-121920000D01*
X142335000Y-121983500D02*
X142335000Y-121729500D01*
X142271500Y-121920000D02*
X142335000Y-121983500D01*
X142335000Y-121729500D02*
X142335000Y-121412000D01*
X141351000Y-119380000D02*
X142335000Y-120364000D01*
X142335000Y-120364000D02*
X142335000Y-121729500D01*
X140017500Y-119380000D02*
X140303000Y-119380000D01*
X140017500Y-119380000D02*
X141351000Y-119380000D01*
X138176000Y-119380000D02*
X140017500Y-119380000D01*
X167640000Y-128270000D02*
X144208500Y-128270000D01*
X144208500Y-128270000D02*
X142335000Y-126396500D01*
X130810000Y-90170000D02*
X132080000Y-88900000D01*
X132080000Y-88900000D02*
X137160000Y-88900000D01*
X137160000Y-88900000D02*
X137795000Y-88265000D01*
X137795000Y-88265000D02*
X137795000Y-86995000D01*
X140589000Y-86360000D02*
X141097000Y-86868000D01*
X137795000Y-86995000D02*
X138430000Y-86360000D01*
X141097000Y-88265000D02*
X141732000Y-88900000D01*
X138430000Y-86360000D02*
X140589000Y-86360000D01*
X141097000Y-86868000D02*
X141097000Y-88265000D01*
X141732000Y-88900000D02*
X154940000Y-88900000D01*
X108839000Y-121920000D02*
X108458000Y-121920000D01*
X109093000Y-122174000D02*
X109093000Y-122428000D01*
X108839000Y-121920000D02*
X109093000Y-122174000D01*
X109220000Y-121920000D02*
X108839000Y-121920000D01*
X137668000Y-118872000D02*
X138176000Y-119380000D01*
X137668000Y-111252000D02*
X137668000Y-118872000D01*
X138430000Y-110490000D02*
X137668000Y-111252000D01*
X139700000Y-110490000D02*
X138430000Y-110490000D01*
X114559000Y-100293500D02*
X120105500Y-100293500D01*
X121746700Y-101934700D02*
X121746700Y-109173700D01*
X120105500Y-100293500D02*
X121746700Y-101934700D01*
X121746700Y-109173700D02*
X121920000Y-109347000D01*
X121920000Y-109347000D02*
X128397000Y-109347000D01*
X128397000Y-109347000D02*
X129062800Y-108681200D01*
X129062800Y-108681200D02*
X129062800Y-104267000D01*
X129062800Y-104267000D02*
X130459800Y-102870000D01*
X130459800Y-102870000D02*
X132080000Y-102870000D01*
X112937500Y-122627300D02*
X112738200Y-122428000D01*
X114300000Y-122627300D02*
X112937500Y-122627300D01*
X111633000Y-122428000D02*
X112738200Y-122428000D01*
X107611900Y-98298000D02*
X107611900Y-96223100D01*
X107611900Y-96223100D02*
X108077000Y-95758000D01*
X108077000Y-95758000D02*
X110109000Y-95758000D01*
X110109000Y-95758000D02*
X110363000Y-95504000D01*
X110363000Y-95504000D02*
X110363000Y-93599000D01*
X110744000Y-93218000D02*
X113870100Y-93218000D01*
X113870100Y-93218000D02*
X114378100Y-92710000D01*
X110363000Y-93599000D02*
X110744000Y-93218000D01*
X113918200Y-93169900D02*
X114378100Y-92710000D01*
X121031000Y-92456000D02*
X121031000Y-91440000D01*
X114378100Y-92710000D02*
X120777000Y-92710000D01*
X120777000Y-92710000D02*
X121031000Y-92456000D01*
X154940000Y-91440000D02*
X153525787Y-91440000D01*
X153525787Y-91440000D02*
X152590500Y-92375287D01*
X152590500Y-92375287D02*
X152590500Y-94869000D01*
X152590500Y-94869000D02*
X150939500Y-96520000D01*
X150939500Y-96520000D02*
X144822000Y-96520000D01*
X144822000Y-96520000D02*
X143552000Y-97790000D01*
X143552000Y-97790000D02*
X139700000Y-97790000D01*
X139700000Y-97790000D02*
X138622370Y-97790000D01*
X138622370Y-97790000D02*
X138303000Y-98109370D01*
X138303000Y-98109370D02*
X138303000Y-100457000D01*
X137160000Y-101600000D02*
X130810000Y-101600000D01*
X138303000Y-100457000D02*
X137160000Y-101600000D01*
X130810000Y-101600000D02*
X127000000Y-105410000D01*
X127000000Y-105410000D02*
X125730000Y-105410000D01*
X139700000Y-107950000D02*
X141224000Y-107950000D01*
X141224000Y-107950000D02*
X145034000Y-104140000D01*
X145034000Y-104140000D02*
X154940000Y-104140000D01*
X165547000Y-105725000D02*
X166370000Y-104902000D01*
X166370000Y-104902000D02*
X166370000Y-104394000D01*
X164531000Y-105725000D02*
X165547000Y-105725000D01*
X171450000Y-66040000D02*
X171450000Y-59690000D01*
X163576000Y-106680000D02*
X164531000Y-105725000D01*
X157480000Y-106680000D02*
X163576000Y-106680000D01*
X156718000Y-105918000D02*
X157480000Y-106680000D01*
X156718000Y-104914000D02*
X156718000Y-105918000D01*
X156210000Y-104406000D02*
X156718000Y-104914000D01*
X155206000Y-104406000D02*
X156210000Y-104406000D01*
X154940000Y-104140000D02*
X155206000Y-104406000D01*
X154940000Y-101600000D02*
X156972000Y-101600000D01*
X156972000Y-101600000D02*
X159512000Y-104140000D01*
X166179500Y-102870000D02*
X177673000Y-102870000D01*
X159512000Y-104140000D02*
X164909500Y-104140000D01*
X164909500Y-104140000D02*
X166179500Y-102870000D01*
X154940000Y-101600000D02*
X145034000Y-101600000D01*
X144399000Y-103632000D02*
X144399000Y-102235000D01*
X144399000Y-102235000D02*
X145034000Y-101600000D01*
X142621000Y-105410000D02*
X144399000Y-103632000D01*
X139700000Y-105410000D02*
X142621000Y-105410000D01*
X177673000Y-102870000D02*
X177800000Y-102870000D01*
X179070000Y-102870000D02*
X177876200Y-102870000D01*
X177876200Y-102870000D02*
X177673000Y-102870000D01*
X122555000Y-102362000D02*
X122555000Y-103759000D01*
X123317000Y-101600000D02*
X122555000Y-102362000D01*
X124714000Y-101600000D02*
X127000000Y-101600000D01*
X124206000Y-101600000D02*
X124714000Y-101600000D01*
X124714000Y-101600000D02*
X123317000Y-101600000D01*
X172720000Y-93980000D02*
X165100494Y-86360000D01*
X160845734Y-85915734D02*
X161290000Y-86360000D01*
X161290000Y-86360000D02*
X165100494Y-86360000D01*
X160845734Y-85915500D02*
X160528000Y-85598000D01*
X160845734Y-85915500D02*
X160845734Y-85915734D01*
X135509000Y-92964000D02*
X136525000Y-92964000D01*
X136525000Y-92964000D02*
X138049000Y-91440000D01*
X138049000Y-91440000D02*
X143702370Y-91440000D01*
X143702370Y-91440000D02*
X144972370Y-92710000D01*
X144972370Y-92710000D02*
X146050000Y-92710000D01*
X130048000Y-96012000D02*
X135255000Y-96012000D01*
X135255000Y-96012000D02*
X135500700Y-96012000D01*
X135763000Y-96012000D02*
X135255000Y-96012000D01*
X127000000Y-101600000D02*
X129286000Y-99314000D01*
X144972000Y-92710000D02*
X146050000Y-92710000D01*
X129286000Y-99314000D02*
X129286000Y-96774000D01*
X129286000Y-96774000D02*
X130048000Y-96012000D01*
X161036000Y-82550000D02*
X162560000Y-82550000D01*
X160528000Y-83058000D02*
X161036000Y-82550000D01*
X160528000Y-85598000D02*
X160528000Y-83058000D01*
X122682000Y-118110000D02*
X124460000Y-118110000D01*
X121412000Y-119380000D02*
X122682000Y-118110000D01*
X118110000Y-119380000D02*
X121412000Y-119380000D01*
X116840000Y-120650000D02*
X118110000Y-119380000D01*
X123063000Y-105410000D02*
X124333000Y-104140000D01*
X124333000Y-104140000D02*
X124968000Y-104140000D01*
X122555000Y-105410000D02*
X123063000Y-105410000D01*
X124968000Y-104140000D02*
X127000000Y-104140000D01*
X124841000Y-104140000D02*
X124968000Y-104140000D01*
X149669500Y-95250000D02*
X149669500Y-92711870D01*
X149669500Y-92711870D02*
X149667630Y-92710000D01*
X143702370Y-96520000D02*
X138641900Y-96520000D01*
X138641900Y-96520000D02*
X137498900Y-97663000D01*
X146050000Y-95250000D02*
X144972370Y-95250000D01*
X144972370Y-95250000D02*
X143702370Y-96520000D01*
X133870000Y-98955800D02*
X135162854Y-97663000D01*
X135162854Y-97663000D02*
X137498900Y-97663000D01*
X127000000Y-104140000D02*
X128397000Y-102743000D01*
X128397000Y-102743000D02*
X128397000Y-101879910D01*
X128397000Y-101879910D02*
X131321000Y-98955800D01*
X131321000Y-98955800D02*
X133870000Y-98955800D01*
X122174000Y-115570000D02*
X124460000Y-115570000D01*
X120904000Y-116840000D02*
X122174000Y-115570000D01*
X118110000Y-116840000D02*
X120904000Y-116840000D01*
X116840000Y-118110000D02*
X118110000Y-116840000D01*
X166370000Y-85090000D02*
X162560000Y-85090000D01*
X172720000Y-91440000D02*
X166370000Y-85090000D01*
X134620000Y-128270000D02*
X133477000Y-129413000D01*
X133477000Y-129413000D02*
X127127000Y-129413000D01*
X126238000Y-128524000D02*
X126238000Y-127762000D01*
X127127000Y-129413000D02*
X126238000Y-128524000D01*
X120601314Y-125730000D02*
X119380000Y-125730000D01*
X126238000Y-127762000D02*
X125476000Y-127000000D01*
X125476000Y-127000000D02*
X121871314Y-127000000D01*
X121871314Y-127000000D02*
X120601314Y-125730000D01*
X119380000Y-125730000D02*
X118935500Y-125730000D01*
X114630000Y-59436000D02*
X115646000Y-58420000D01*
X118935500Y-125730000D02*
X117665500Y-124460000D01*
X117665500Y-124460000D02*
X116078000Y-124460000D01*
X116078000Y-124460000D02*
X113792000Y-126746000D01*
X113792000Y-126746000D02*
X108204000Y-126746000D01*
X108204000Y-126746000D02*
X107188000Y-125730000D01*
X107188000Y-125730000D02*
X107188000Y-122101700D01*
X106077100Y-120990800D02*
X106077100Y-75279200D01*
X107188000Y-122101700D02*
X106077100Y-120990800D01*
X107708000Y-73648300D02*
X113284000Y-68071898D01*
X106077100Y-75279200D02*
X107708000Y-73648300D01*
X113284000Y-65405000D02*
X114630000Y-64059000D01*
X114630000Y-64059000D02*
X114630000Y-59436000D01*
X113284000Y-68071898D02*
X113284000Y-65405000D01*
X115646000Y-58420000D02*
X116840000Y-58420000D01*
X134620000Y-125730000D02*
X132969000Y-124079000D01*
X132969000Y-124079000D02*
X132969000Y-122682000D01*
X126238000Y-122428000D02*
X126238000Y-123952000D01*
X126238000Y-123952000D02*
X125730000Y-124460000D01*
X132969000Y-122682000D02*
X131826000Y-121539000D01*
X131826000Y-121539000D02*
X127127000Y-121539000D01*
X127127000Y-121539000D02*
X126238000Y-122428000D01*
X125730000Y-124460000D02*
X123317000Y-124460000D01*
X123317000Y-124460000D02*
X122047000Y-123190000D01*
X122047000Y-123190000D02*
X119380000Y-123190000D01*
X120650000Y-63500000D02*
X120498000Y-63500000D01*
X119380000Y-120650000D02*
X122086000Y-120650000D01*
X125603000Y-119380000D02*
X126873000Y-118110000D01*
X122086000Y-120650000D02*
X122086000Y-120611000D01*
X122086000Y-120611000D02*
X123317000Y-119380000D01*
X123317000Y-119380000D02*
X125603000Y-119380000D01*
X126873000Y-118110000D02*
X127254000Y-118110000D01*
X127254000Y-118110000D02*
X134620000Y-118110000D01*
X121158000Y-118110000D02*
X119380000Y-118110000D01*
X122428000Y-116840000D02*
X121158000Y-118110000D01*
X133350000Y-116840000D02*
X122428000Y-116840000D01*
X134620000Y-115570000D02*
X133350000Y-116840000D01*
X142240000Y-73660000D02*
X143317630Y-73660000D01*
X143317630Y-73660000D02*
X144651130Y-72326500D01*
X144651130Y-72326500D02*
X146050000Y-72326500D01*
X146050000Y-72326500D02*
X146685000Y-71691500D01*
X146685000Y-70866000D02*
X146939000Y-70612000D01*
X151638000Y-70612000D02*
X152527000Y-69723000D01*
X146685000Y-71691500D02*
X146685000Y-70866000D01*
X146939000Y-70612000D02*
X151638000Y-70612000D01*
X152527000Y-69723000D02*
X153797000Y-69723000D01*
X161290000Y-67233800D02*
X161290000Y-66040000D01*
X153797000Y-69723000D02*
X154305000Y-69215000D01*
X156654500Y-69215000D02*
X157670500Y-68199000D01*
X154305000Y-69215000D02*
X156654500Y-69215000D01*
X160324800Y-68199000D02*
X161290000Y-67233800D01*
X157670500Y-68199000D02*
X160324800Y-68199000D01*
X161290000Y-66040000D02*
X161290000Y-66675000D01*
X139700000Y-71120000D02*
X140970000Y-72390000D01*
X140970000Y-72390000D02*
X143383000Y-72390000D01*
X143383000Y-72390000D02*
X143891000Y-71882000D01*
X152082500Y-69088000D02*
X153606500Y-69088000D01*
X143891000Y-71882000D02*
X145732500Y-71882000D01*
X146113500Y-71501000D02*
X146113500Y-70421500D01*
X158051500Y-67754500D02*
X158750000Y-67056000D01*
X145732500Y-71882000D02*
X146113500Y-71501000D01*
X146113500Y-70421500D02*
X146431000Y-70104000D01*
X146431000Y-70104000D02*
X151066500Y-70104000D01*
X151066500Y-70104000D02*
X152082500Y-69088000D01*
X153606500Y-69088000D02*
X153987500Y-68707000D01*
X153987500Y-68707000D02*
X156210000Y-68707000D01*
X156210000Y-68707000D02*
X157162500Y-67754500D01*
X157162500Y-67754500D02*
X158051500Y-67754500D01*
X158750000Y-67056000D02*
X158750000Y-66040000D01*
X139700000Y-73660000D02*
X138430000Y-72390000D01*
X145097500Y-70104000D02*
X145605500Y-69596000D01*
X138430000Y-72390000D02*
X138430000Y-70357300D01*
X138430000Y-70357300D02*
X138937300Y-69850000D01*
X150495000Y-69596000D02*
X151638000Y-68453000D01*
X138937300Y-69850000D02*
X143002000Y-69850000D01*
X143002000Y-69850000D02*
X143256000Y-70104000D01*
X143256000Y-70104000D02*
X145097500Y-70104000D01*
X153860500Y-68072000D02*
X155638500Y-68072000D01*
X145605500Y-69596000D02*
X150495000Y-69596000D01*
X151638000Y-68453000D02*
X153479500Y-68453000D01*
X153479500Y-68453000D02*
X153860500Y-68072000D01*
X156210000Y-67500500D02*
X156210000Y-66040000D01*
X155638500Y-68072000D02*
X156210000Y-67500500D01*
X136906000Y-85598000D02*
X136398000Y-85090000D01*
X136398000Y-85090000D02*
X136144000Y-85090000D01*
X136906000Y-86360000D02*
X136906000Y-85598000D01*
X133350000Y-85090000D02*
X136144000Y-85090000D01*
X133350000Y-85090000D02*
X134571000Y-85090000D01*
X153670000Y-66040000D02*
X153670000Y-64643000D01*
X164719000Y-63500000D02*
X165608000Y-64389000D01*
X153670000Y-64643000D02*
X154813000Y-63500000D01*
X174688500Y-68897500D02*
X175514000Y-69723000D01*
X154813000Y-63500000D02*
X164719000Y-63500000D01*
X165608000Y-64389000D02*
X165608000Y-66992500D01*
X165608000Y-66992500D02*
X167513000Y-68897500D01*
X167513000Y-68897500D02*
X174688500Y-68897500D01*
X175514000Y-69723000D02*
X175514000Y-74490100D01*
X175514000Y-74490100D02*
X178689000Y-77665100D01*
X178689000Y-77665100D02*
X186377000Y-77665100D01*
X186377000Y-77665100D02*
X187198000Y-78486038D01*
X187198000Y-78486038D02*
X187515500Y-78803538D01*
X187515500Y-78803538D02*
X187515500Y-83883500D01*
X137160000Y-71120000D02*
X137160000Y-70042370D01*
X137160000Y-70042370D02*
X137796870Y-69405500D01*
X149987000Y-69088000D02*
X151130000Y-67945000D01*
X137796870Y-69405500D02*
X143129000Y-69405500D01*
X143129000Y-69405500D02*
X143446500Y-69723000D01*
X143446500Y-69723000D02*
X144589500Y-69723000D01*
X144589500Y-69723000D02*
X145224500Y-69088000D01*
X145224500Y-69088000D02*
X149987000Y-69088000D01*
X151130000Y-67945000D02*
X153162000Y-67945000D01*
X153670000Y-67437000D02*
X153670000Y-66040000D01*
X153162000Y-67945000D02*
X153670000Y-67437000D01*
X143510000Y-66929000D02*
X143510000Y-62230000D01*
X143002000Y-62738000D02*
X143510000Y-62230000D01*
X142113000Y-83820000D02*
X142113000Y-87630000D01*
X135382000Y-68961000D02*
X134239000Y-68961000D01*
X134239000Y-68961000D02*
X134239000Y-63246000D01*
X134239000Y-63246000D02*
X133096000Y-62103000D01*
X135382000Y-68961000D02*
X135191500Y-68961000D01*
X143891000Y-68961000D02*
X135382000Y-68961000D01*
X143891000Y-68961000D02*
X144272000Y-68961000D01*
X139700000Y-82550000D02*
X142760000Y-82550000D01*
X142760000Y-82550000D02*
X143764000Y-81546300D01*
X159512000Y-82550000D02*
X161163000Y-80899000D01*
X143764000Y-81546300D02*
X143764000Y-81534000D01*
X143764000Y-81534000D02*
X144018000Y-81280000D01*
X144018000Y-81280000D02*
X148336000Y-81280000D01*
X148336000Y-81280000D02*
X149606000Y-82550000D01*
X149606000Y-82550000D02*
X159512000Y-82550000D01*
X161163000Y-80899000D02*
X164846000Y-80899000D01*
X164846000Y-80899000D02*
X167640000Y-78105000D01*
X167640000Y-78105000D02*
X167640000Y-74930000D01*
X179070000Y-82550000D02*
X180340000Y-82550000D01*
X172720000Y-88900000D02*
X179070000Y-82550000D01*
D27*
G36*
X129413007Y-68581309D02*
X129423521Y-68630614D01*
X129452390Y-68671943D01*
X129495063Y-68698784D01*
X129540000Y-68707000D01*
X133223000Y-68707000D01*
X133223000Y-68834000D01*
X127977900Y-68834000D01*
X127977900Y-62560205D01*
X127977901Y-62560200D01*
X127922797Y-62283176D01*
X127802407Y-62103000D01*
X127765875Y-62048325D01*
X127765872Y-62048323D01*
X127762000Y-62044451D01*
X127762000Y-56590000D01*
X129289385Y-56590000D01*
X129413007Y-68581309D01*
X129413007Y-68581309D01*
G37*
X129413007Y-68581309D02*
X129423521Y-68630614D01*
X129452390Y-68671943D01*
X129495063Y-68698784D01*
X129540000Y-68707000D01*
X133223000Y-68707000D01*
X133223000Y-68834000D01*
X127977900Y-68834000D01*
X127977900Y-62560205D01*
X127977901Y-62560200D01*
X127922797Y-62283176D01*
X127802407Y-62103000D01*
X127765875Y-62048325D01*
X127765872Y-62048323D01*
X127762000Y-62044451D01*
X127762000Y-56590000D01*
X129289385Y-56590000D01*
X129413007Y-68581309D01*
G36*
X139827000Y-68237100D02*
X137033000Y-68237100D01*
X137033000Y-56590000D01*
X139827000Y-56590000D01*
X139827000Y-68237100D01*
X139827000Y-68237100D01*
G37*
X139827000Y-68237100D02*
X137033000Y-68237100D01*
X137033000Y-56590000D01*
X139827000Y-56590000D01*
X139827000Y-68237100D01*
G36*
X151066027Y-62187157D02*
X149124617Y-64692203D01*
X149102259Y-64737387D01*
X149098000Y-64770000D01*
X149098000Y-68364100D01*
X147312831Y-68364100D01*
X147320000Y-68326000D01*
X147320000Y-56590000D01*
X151005188Y-56590000D01*
X151066027Y-62187157D01*
X151066027Y-62187157D01*
G37*
X151066027Y-62187157D02*
X149124617Y-64692203D01*
X149102259Y-64737387D01*
X149098000Y-64770000D01*
X149098000Y-68364100D01*
X147312831Y-68364100D01*
X147320000Y-68326000D01*
X147320000Y-56590000D01*
X151005188Y-56590000D01*
X151066027Y-62187157D01*
M02*
