M48
;DRILL file {KiCad 4.0.7+dfsg1-1~bpo8+1} date Mon Jun  4 12:39:25 2018
;FORMAT={-:-/ absolute / metric / decimal}
FMAT,2
METRIC,TZ
T1C0.305
T2C0.800
T3C1.016
T4C1.020
%
G90
G05
M71
T1
X107.612Y-98.298
X114.039Y-97.85
X114.3Y-122.627
X114.559Y-100.293
X115.316Y-89.662
X121.031Y-91.44
X121.666Y-81.915
X122.555Y-103.759
X122.555Y-105.41
X124.269Y-111.442
X128.524Y-58.42
X131.454Y-113.141
X135.509Y-92.964
X135.763Y-96.012
X136.525Y-103.124
X136.906Y-86.36
X138.367Y-80.073
X138.557Y-62.484
X142.113Y-83.82
X142.113Y-87.63
X143.51Y-66.929
X143.827Y-92.456
X144.272Y-68.961
X145.161Y-71.12
X147.32Y-72.263
X147.637Y-109.474
X149.668Y-92.71
X149.669Y-95.25
X149.796Y-62.23
X150.431Y-79.819
X157.543Y-107.95
X159.004Y-96.774
X166.37Y-104.394
X187.516Y-83.883
T2
X123.19Y-90.17
X123.19Y-92.71
X123.19Y-95.25
X123.19Y-97.79
X123.19Y-107.95
X148.59Y-74.93
X148.59Y-77.47
X148.59Y-97.79
X148.59Y-102.87
X152.4Y-106.68
X152.4Y-109.22
X165.1Y-90.17
X165.1Y-107.95
X165.1Y-110.49
X168.91Y-66.04
X171.45Y-66.04
X173.99Y-66.04
X175.26Y-81.28
T3
X109.093Y-76.708
X109.093Y-79.248
X109.093Y-81.788
X109.093Y-84.328
X109.093Y-86.868
X109.093Y-89.408
X109.093Y-91.948
X109.093Y-94.488
X109.093Y-97.028
X109.093Y-99.568
X109.093Y-102.108
X109.093Y-104.648
X109.093Y-107.188
X109.093Y-109.728
X109.093Y-112.268
X109.093Y-114.808
X109.093Y-117.348
X109.093Y-119.888
X109.093Y-122.428
X109.093Y-124.968
X111.633Y-76.708
X111.633Y-79.248
X111.633Y-81.788
X111.633Y-84.328
X111.633Y-86.868
X111.633Y-89.408
X111.633Y-91.948
X111.633Y-94.488
X111.633Y-97.028
X111.633Y-99.568
X111.633Y-102.108
X111.633Y-104.648
X111.633Y-107.188
X111.633Y-109.728
X111.633Y-112.268
X111.633Y-114.808
X111.633Y-117.348
X111.633Y-119.888
X111.633Y-122.428
X111.633Y-124.968
X116.84Y-58.42
X116.84Y-60.96
X116.84Y-63.5
X116.84Y-66.04
X116.84Y-115.57
X116.84Y-118.11
X116.84Y-120.65
X116.84Y-123.19
X116.84Y-125.73
X116.84Y-128.27
X118.11Y-78.74
X118.11Y-86.36
X118.11Y-91.44
X118.11Y-93.98
X118.11Y-96.52
X118.11Y-99.06
X118.11Y-101.6
X118.11Y-104.14
X118.11Y-106.68
X119.38Y-74.93
X119.38Y-115.57
X119.38Y-118.11
X119.38Y-120.65
X119.38Y-123.19
X119.38Y-125.73
X119.38Y-128.27
X120.65Y-58.42
X120.65Y-60.96
X120.65Y-63.5
X120.65Y-66.04
X121.92Y-74.93
X123.19Y-78.74
X123.19Y-86.36
X124.46Y-58.42
X124.46Y-60.96
X124.46Y-63.5
X124.46Y-66.04
X124.46Y-115.57
X124.46Y-118.11
X124.46Y-120.65
X124.46Y-123.19
X124.46Y-125.73
X124.46Y-128.27
X125.73Y-74.93
X125.73Y-77.47
X125.73Y-80.01
X125.73Y-82.55
X125.73Y-85.09
X125.73Y-87.63
X125.73Y-90.17
X125.73Y-92.71
X125.73Y-95.25
X125.73Y-97.79
X125.73Y-100.33
X125.73Y-102.87
X125.73Y-105.41
X125.73Y-107.95
X130.81Y-80.01
X130.81Y-82.55
X130.81Y-85.09
X130.81Y-87.63
X130.81Y-90.17
X130.81Y-92.71
X132.08Y-71.12
X132.08Y-73.66
X132.08Y-97.79
X132.08Y-100.33
X132.08Y-102.87
X132.08Y-105.41
X132.08Y-107.95
X132.08Y-110.49
X133.35Y-80.01
X133.35Y-82.55
X133.35Y-85.09
X133.35Y-87.63
X133.35Y-90.17
X133.35Y-92.71
X134.62Y-71.12
X134.62Y-73.66
X134.62Y-115.57
X134.62Y-118.11
X134.62Y-120.65
X134.62Y-123.19
X134.62Y-125.73
X134.62Y-128.27
X137.16Y-71.12
X137.16Y-73.66
X139.7Y-71.12
X139.7Y-73.66
X139.7Y-82.55
X139.7Y-85.09
X139.7Y-87.63
X139.7Y-90.17
X139.7Y-92.71
X139.7Y-95.25
X139.7Y-97.79
X139.7Y-100.33
X139.7Y-102.87
X139.7Y-105.41
X139.7Y-107.95
X139.7Y-110.49
X139.7Y-113.03
X139.7Y-115.57
X139.7Y-118.11
X139.7Y-120.65
X139.7Y-123.19
X139.7Y-125.73
X142.24Y-71.12
X142.24Y-73.66
X146.05Y-74.93
X146.05Y-77.47
X146.05Y-80.01
X146.05Y-82.55
X146.05Y-85.09
X146.05Y-87.63
X146.05Y-90.17
X146.05Y-92.71
X146.05Y-95.25
X146.05Y-97.79
X146.05Y-100.33
X146.05Y-102.87
X146.05Y-105.41
X146.05Y-107.95
X151.13Y-66.04
X153.67Y-66.04
X156.21Y-66.04
X158.75Y-66.04
X161.29Y-66.04
X162.56Y-82.55
X162.56Y-85.09
X162.56Y-87.63
X162.56Y-90.17
X162.56Y-92.71
X162.56Y-95.25
X162.56Y-97.79
X162.56Y-100.33
X162.56Y-102.87
X162.56Y-105.41
X162.56Y-107.95
X162.56Y-110.49
X162.56Y-113.03
X162.56Y-115.57
X162.56Y-118.11
X162.56Y-120.65
X162.56Y-123.19
X162.56Y-125.73
X163.83Y-66.04
X167.64Y-71.12
X167.64Y-74.93
X167.64Y-115.57
X167.64Y-118.11
X167.64Y-120.65
X167.64Y-123.19
X167.64Y-125.73
X167.64Y-128.27
X168.91Y-59.69
X170.18Y-71.12
X170.18Y-74.93
X171.45Y-59.69
X172.72Y-71.12
X172.72Y-74.93
X173.99Y-59.69
X177.8Y-115.57
X177.8Y-118.11
X177.8Y-120.65
X177.8Y-123.19
X177.8Y-125.73
X177.8Y-128.27
X179.07Y-59.69
X179.07Y-62.23
X179.07Y-64.77
X179.07Y-67.31
X179.07Y-69.85
X179.07Y-72.39
X179.07Y-74.93
X179.07Y-97.79
X179.07Y-100.33
X179.07Y-102.87
X180.34Y-80.01
X180.34Y-82.55
X180.34Y-85.09
X180.34Y-88.9
X180.34Y-91.44
X180.34Y-93.98
X184.15Y-116.84
X184.15Y-119.38
X184.15Y-121.92
X184.15Y-124.46
X185.42Y-80.01
X185.42Y-82.55
X185.42Y-85.09
X185.42Y-87.63
X185.42Y-90.17
X185.42Y-92.71
T4
X154.94Y-81.28
X154.94Y-83.82
X154.94Y-86.36
X154.94Y-88.9
X154.94Y-91.44
X154.94Y-93.98
X154.94Y-96.52
X154.94Y-99.06
X154.94Y-101.6
X154.94Y-104.14
X154.94Y-106.68
X154.94Y-109.22
X154.94Y-111.76
X154.94Y-114.3
X172.72Y-81.28
X172.72Y-83.82
X172.72Y-86.36
X172.72Y-88.9
X172.72Y-91.44
X172.72Y-93.98
X172.72Y-96.52
X172.72Y-99.06
X172.72Y-101.6
X172.72Y-104.14
X172.72Y-106.68
X172.72Y-109.22
X172.72Y-111.76
X172.72Y-114.3
T0
M30
